<?xml version="1.0" encoding="UTF-8"?>
<svg id="Camada_1" xmlns="http://www.w3.org/2000/svg" version="1.1" viewBox="0 0 595.3 841.9">
  <!-- Generator: Adobe Illustrator 29.0.0, SVG Export Plug-In . SVG Version: 2.1.0 Build 186)  -->
  <path d="M596,0v842.9H-1.7V0h597.7ZM592.5,3.3H1.8v574.9c20.7-10.8,43.6-18.3,67.3-21.1l.7-29.9c-4.6-5.8-6-11.2-5.6-18.5.7-10.5,8.1-16,6.7-27.3-.4-3.5-7.5-7.7-10.2-10.8-10.7-12.1-11.2-26.3-2-39.4,2-2.9,13.2-12.4,13.2-13.3v-17.5c-22.5,5.9-40.5-7.6-35.1-29.8-21-11-23.8-41.2-2.8-53.6-6.6-33.3,35-55.8,63.4-36.5,24.3-24.2,73.5-23.1,80.3,15,31.4-1.5,43.2,34.5,26,55.6,9.9,1,19.7-1.5,29.8-.6,27.3,2.4,48.2,26.9,45.9,52.3-.2,2.6-2.6,9.3-2.1,11.1.2.7,1.9.9,2.5,1.8,5.2,8.1,2,17.1-6.6,21.4-1.5.7-4.5.7-5.3,1.6-.6.7-.9,4.2-1.6,5.7-2.6,5.5-5.8,10.4-10.3,14.7-1.1,1.1-7.5,4.5-6.6,5.9,33.4,15.6,28.4,57.2,32.3,86.8l38.1-.6c1.8,0,5.1-7.3,4.6-7.9-6.1-.2-10.6-3.2-14.7-6.9-1.5-1.3-2.6-4.1-3.9-4.9-2.4-1.4-9.8-2.3-13.4-3.9-1.9-.9-8.7-5.3-9.7-6.7-2.5-3.5,0-6.1-.5-8.7-.2-1.3-3.7-5.8-4.4-8.4-2.9-9.9-1.1-23.6,12.2-24.4.7-.6-3.3-3.6-1.8-6.6,6.7-2.6,6.1-.2,8.4-7.2,10.3-30.6,5.6-80.1,26.3-103.7,28.2-32.2,93.5-29.3,116.9,6.7,13,20.1,9.8,40.1,12.1,62.4,3.1,31.5,21.4,66.4-13.1,87.8-2.1,1.3-6.7,2.5-8,3.7s-2.9,5.9-4.3,7.8c-2.3,3.2-4.9,6.3-8,9,3,6.7,7.8,13,8.8,20.4,57.9,5.2,115.9,20.3,165.3,49.4V3.3h-.1ZM146.9,409.6v-16.8c0-4.6,5.4-13.2,7.7-17.4-2.5.5-4.1,2.6-6.6,3.3-2.8.8-14-.4-17.1-1.1-20.6-5.3-17.2-45.7,8.6-33.2,2.8-9.6,20.7-14.5,11.6-.6,12.9.8,14.6,11.8,12.3,21.7,6.8-6.2,14.5-9.6,23.5-12.2,10.7-3,13.5.4,18.6-11.5,8.9-20.9-4.4-46.3-30.5-42.4-3.7-31-36.7-39.9-63.2-25.3-2.8,1.5-13.3,10.3-14.2,10.4-3.1.4-3.4-1.9-5.2-2.9-27.9-15.2-62.5,7.6-54,37.4-22.5,10-19.1,40.9,2.8,49.6-9.5,31.7,24,36.5,45.9,20.7,3.3,3.5,2.9,9.5,8.5,11.7,5.6-5.9,0-11.7-3.9-16.7-7.9-10.4-17.5-16.6-22.7-29.4-7.5-18.3-6.7-46.9,12.3-58.9,32.6-19.8,63.6,33.3,13.9,39.4-9.8,29.5,36,39.1,26.7,68.2,5.2-.6,13.6-13,17.8-11.9,2.5.7,1,13.8-.9,16.1l8.4,1.7h0l-.3.1ZM91.5,334.5l-8.4-3c-3.5-4.5,9.8.3,11.6.4,30.8.5,27.9-34.7,3.4-36.9-26-2.3-35.7,34.1-27.6,52.3,10.1,1.6,21-1.9,21-12.9h0v.1ZM150.4,338.5c-3.6.1-6.4,4.3-7,7.2l7-7.2ZM432.7,517.6c36.1-15.3,19.4-52.2,16.1-80-2.4-20.9.4-43.6-9.7-62.7-23.2-44-103.6-43.5-122.6,3.6-7.4,18.3-7.4,42-10.9,61.6-2,11.3-5.2,22.3-7.9,33.4l4.2,5.3c3-6.1,9-14.3,16.1-7.2,2.4,5.4-4.2,9.4-3.8,9.9l6.7,2.6c5.6-10.2,13.8-17.5,24.1-23.3-25.2-11.7-27-35.7-22.4-59.1-6-3,3.6-8.4,6.9-10,11.1-5.3,27.8-5,37.2-13.1,1.8-1.5,2.9-5.8,5.8-4.9.7.2,4.9,7.6,6.4,9.1,3.9,4.1,14.1,10.4,19.5,12.6,9.6,4,21,3.3,22.9,15.7,18.9-9.7,25.8,18.1,10.1,25-2.7,1.2-6.7.8-7.7,1.3-3.2,1.8-10.7,17.7-17.1,19.5l12.6,6.6c17.7,13,17.2,35.4,13.3,54.3h0l.2-.2ZM129.9,345.2c-15.7,2-9.8,30.3,6.1,29.5,1.2,0,2.5-1.4,3.5-1.2,1.1.2,1.6,2.4,4.3,2.6,5.9.4,14.4-8.3,16.1-13.2,4.4-12.9-7.6-21.5-18.1-11.2-1.7-.3-3.6-7.5-11.8-6.4h0l-.1-.1ZM90.8,346.4c-6.3,3.2-12.2,5.3-19.6,4.6.5,5.6,15,25.3,20,25.6,3.9.3,10.8-2.4,12.3-6.2-5.7-7.2-12.7-14.4-12.6-24h-.1ZM268.8,413.5c6,1.5,6.7-8.2,7-12.2,1.5-21.6-15.6-43-38.4-46.9-10.7-1.8-37.2-.9-47.8,1.4-29.1,6.4-46.8,34.6-37.1,61.5,3.6-.1,6.4,0,9.5,1.9,3.4.2,11.8-17.3,14.2-20,2-.8,3.6,3.7,5.4,4.2,6.7,1.8,17.8-10.9,19.5-16.4,2.4-.4,3.3,2.7,4.9,4,6.7,5.4,16.7,8.9,25.6,7.6,2.4-1.6-2.4-9.4,1.7-9.6,1,0,13.1,7.7,18,8.8,3.8.8,9.8.4,12.7,1.2,3.2.9,4.7,11.5,4.7,14.4h0l.1.1ZM92.9,379.3c-.8.7,6.1,9.1,6.9,11,2,4.3.4,8.6,6.8,9.4,3.5.5,11.2-2.2,12.6-5.2,2.3-5.1-8-17.4-12.3-20.8h-1.4c-3.2,3.6-7.4,6-12.6,5.6h0ZM372.5,378.6c-4.2,2.4-7.5,5.4-12.1,7.4-10.6,4.5-23,4.3-32.7,10.7-2.4,2.8-3.2,26.4-2.8,31,3.1,37.8,61.4,46.5,86.2,21,2.5-2.6,9.7-14.7,10.5-15.1,3.1-1.7,7.1,1.8,11.6-2.9,4.6-4.9,5.8-16.8-3-18.3-6.1-1.1-5.6,4-10.6,3.7-2.2-14.9-9.5-12.8-21.1-17.4-9.1-3.6-21.9-11.4-26-20.1h0ZM235.9,395.1l-1,6c-11,3.5-24.2-1.4-32.3-8.6-4.4,7.1-15.9,18.7-25.2,12.5-4.3,6.2-7.8,13-13.7,18.1-2.7,1-5.7-4.3-10.9-1.7-7.6,3.8-2.5,16,3.6,19,3.2,1.6,7.9.9,9.8,2,1,.6,4,6.5,5.3,8.2,18.7,23,66.4,25.2,85.7,1.8,10.8-13.1,10-34.6,5.9-50-10.1.3-18.7-2.9-27.2-7.3h0ZM75.4,398.4v17.1l17.5-11-7-10.1-10.4,3.9-.1.1ZM74.7,486.6c3.2-1.4,5.8-4,8.9-5.8,10.2-5.9,22-9.1,30.2-17.7,2.5-7.9,0-18.9,2-26.5,3.1-12.3,24.4-25.2,20.9-40.3-3.9,5.5-12.7,8.8-17.1,12.9-2.1,2-3.5,5.5-5.7,7.8-10.8,11.5-39.2,23.7-39.2,40.9v28.6h0v.1ZM118.8,399.7c-6.6,2.8-11.9,5.3-18.5.7-4,6.5-9.3,10.7-16.2,14.5.4,6.2,12.4,9.9,17.9,8.2,5.6-1.7,17.4-17,16.8-23.3h0v-.1ZM148.1,413.7c-.5-.5-11.1-2.4-11.6-2.1-7.4,13.9-22.2,23.6-18.2,41,12.5,5.6,18.2,16.6,10.5,28.5-2.7,4.3-6.5,5.2-9.2,9.1l2.8,61.6,18.6,1.4c.5-32.8-1.7-78.1,39.6-89.6-2.8-2.5-6.1-4.5-8.8-7.2-1.9-2-6.8-10-7.6-10.6-1.4-.9-6.4-1.1-9.3-2.5-7.5-3.5-11.8-13.1-8.1-20.3.8-1.5,2.8-2.4,2.9-3.8,0-.5-1.3-5.2-1.6-5.4h0v-.1ZM269.5,416.8v14.2c0,.6-1.3,2.4-.7,3.6,10.8-.9,15-21,.7-17.8h0ZM96.4,426.1c-7-.3-12.8-3.8-16.5-9.2-1.8-.1-16.5,12.9-17.5,15.2-2,4.6,8.5,12.9,13.9,11l20.1-17h0ZM71.2,474.1v-17.5c0-2.4,2.8-7.6,3.5-10.2-7,0-11.3-4.4-15.1-9.2-5.5,8.5-5.1,17.8,0,26.3,1,1.8,9.7,12.4,11.5,10.6h.1ZM118.1,457c1.7,10.9-9.5,13.4-16.2,19.4,12.9,27.9,42.4-9.7,16.2-19.4ZM336,542.6c6.9,12.3,52,6.2,64.1,2.6,30.4-9.7,41.8-52,22.4-74.4-3.4-3.9-14.2-11.5-19.6-11.2-1.9.1-5.4,2.6-7.7,3.3-10.3,3-19.9,4.2-30.8,3.2-4.4-.4-11.9-3.6-15.2-3.1-7.1.9-24.5,16.5-24.9,23.4,0,1.2,1.8,4,2,6.5.5,7.1-3.9,10,3.8,16.1,2.6-3.8,5.9-22.7,9.2-24.3,5.5-2.6-1.5,9.2-.5,10.4,9.8-4.9,19-1,26.3,5.8,10.6-7.1,24.5-11.8,36.1-3.8l1.3-6.9h2.9c.2,9.6-3.5,26.1-11.6,32.5-7.1,5.7-29.4,8.7-38.5,7.8-7.3-.7-16.3-4.9-23.5-1.6,0,1.5,13.6,3.9,14,5.9.8,4.5-12.2-2.1-13.3-1-1.7,6,10.2,5.1,11.1,7v2.2l-7.6-.7h0v.3ZM269.5,578.8c3.7.1,6.5-3.5,7.5-6.5,4.1-12.5-2-60.5-5.6-74.7-3.6-14.5-12.2-25.2-26.8-31.4-15.7,7.1-31.2,7.1-47.9,3.5-7.4-1.6-9.1-5-17.6-2.5-31.7,9.2-35,49-35.1,75,0,6.9,1.6,37.6,6.3,41.5.9.8,1.4.6,1.4-.6,0-2.2-4.8-12.9-1-13.5,2.9-.5,3.1,16.8,7.7,16.4,2.9-.3-3.9-12.5,0-14.5,2.8-.6,3.3,12.7,6.3,13.2,4.1.7-1.1-14.7.7-17.2l3.2-.3c1.4,2.8,1.9,5.9,5.6,7,0-9.5-5.5-16.1-6.3-26-.4-4.9,1.4-45.9,3.5-47.1.3-.2,1.7,0,2.1.3l-2.1,41.2c13.8-3.3,24-3.5,37.7.5,2.1.6,6.3,3.2,7.6,3.3.9,0,7.2-2.9,9.4-3.5,10.7-2.8,21.3-3.3,32.2-1-.3-8.9-.2-17.8-.7-26.7,0-1.6-3.5-17.2,1.4-13.8.8.5,2,14.3,2.1,16.5.6,8.9-.5,20.4.7,28.9.7,4.8,3.7,11.1,4.6,16.7.6,3.7,0,7.6.9,11.3,3-.7,2.8-10.6,6.3-8.6,1.2,4.3-1.8,9-4.2,12.5h0l.1.1ZM314.9,472.9c-6.2-2.8-9.5,6.7-10.4,11.1,2.9-4.3,11.4-5.2,10.4-11.1ZM292.2,474.8v.7l.4-.3-.4-.3h0v-.1ZM299.6,482.7c0-2.2-1.5-5.8-4.2-5.9-.9.9,3,5.4,4.2,5.9ZM98.5,477.4c-13.4,4.4-43,23-14,30,6.2-8.7,16.2-13.3,25.9-17.8-5.4-2.5-10.2-6.5-11.9-12.2h0ZM287.5,482.8c-9.6,1.7-9.2,21.3-4.4,24.9,1.8,1.3,5.2.4,7.5.8,4.6.9,9.3,4.5,16.4,5.1,13.9,1.2,25-30.7,3.4-28.3-5.1.6-5,3.5-9.1,4.6-1.9-.2-5-8.7-13.9-7.1h.1ZM136.4,606.5c-2.3-3.7-6.3-6.3-8.7-9.9-11.8-17.8-9.1-69.2-10.2-91.8,0-2.1-.8-14-1.8-14.1-13.9,6.1-31.9,14.8-33.3,31.3-.2,2.6,1.2,7.6,0,9.2-2.7,3.3-8.1-1.6-9.4.3-1.3,16.5,1.6,34.8-3.3,50.9-2.9,9.6-10.8,16.4-18,23.2,0,3,20.1,2.7,23.1,1.3l-3.5-11.9c-1.1-10.3,7.4-13,16.4-8.8,2.5,1.2,3.9,3.6,6.7,3.9-.6-3.8,1-11.5,5.6-12.9,13.9-4,18.3,20.7,19.7,29.3h16.8-.1ZM347.7,496.1c-10.8.3-15.1,11-14.5,19.8.8,10.7,3.2,7.9,10.8,8.9s11.8,3,19.7,2.6c10-.4,25.5-3.1,31.5-11.3,6.2-8.6,8.8-19.1-5.6-20.3-11.8-1-19.6,8.4-24.5,8.4-3.3,0-8.9-8.5-17.4-8.2h0v.1ZM78.9,528.8c-.6-6.5.6-12.2,3.5-18.1-5.8-2-9.6-4.3-13.3-8.9-3.1,9.4-1.9,23.6,9.8,27ZM324.6,507.3c-.5-.4-1.1-.5-1.5-.9-9.4,14.4-18,11.8-31.9,5.6-12.2-4.7,1,6.6,1.5,7.2,3.8,5.3-6.1.8-7.7-1.3,2.3,3.5,7,6,11,7.5,3.3,1.2,10.2,1.9,11.8,2.8,2.7,1.5,3.6,7.3,10.3,10.1,16.4,6.9,8.9-4.6,10.7-10.8.5-1.7,2.8-1.8,3-2.9.2-1.3-5.2-15.9-7-17.2h0l-.2-.1ZM415.9,542c-16.6,10.1-32.6,9.9-51.4,10.5-2.7,0-5.5,1.3-8.4,1.4-9.3,0-21.1-4.3-25.2-12.6-11.3,14.7-15.3,33.5-17.2,51.3,9.5,0,21.7-4.1,28.4-10.5,1.9-1.8,4.9-7.6,5.3-7.8s2-.3,2.3-.2c.7.3,3.3,10.6,4.5,13,2.1,4.4,10.9,15.9,16,16.6,4.8.6,16.4-12.4,18.8-16.3,1-1.7,3.7-9.1,4.3-9.3,2.9-.8,4.1,3.3,5.9,5,7.3,7,17.1,10.9,27.3,12.2,2.8-18.8-1-36.8-10.6-53.3h0ZM205.7,569.6c-7.1,1-.6-9.8,1.1-12.5,4.5-7.1,11.6-8.1-.9-11.7-11.2-3.2-23.5-2.7-34.4,1.2-1.6,7.9,9.5,22.5,5.4,29.1-2.5,4-6.9-.2-7.6.4.7,3,1.8,8.6-.7,10.8-.7.7-2.6.7-2.8,1.5-.6,1.8.5,20.4,1.4,21,5.7,1.8,23.4-11,25.6-10.9,2.6,0,6.2,11.7,8.9,13,5.4,2.6,16-10,18.3-13.8,1-1.5,1.7-5.9,3.6-5.9s6,8.7,7.7,10.6c2.3,2.6,10.1,10,14,7.2,2.4-1.7,3.1-7.8,5.7-9.8,2.7-.6,6.2,7.9,9.7,6.5,3.1-3,3.6-30.7,3.2-35.9-.3-4.2-3.9-22.4-6.8-24.7-4.7-3.6-26.9-2.1-32.4,1.7,5.1,3.8,13.2,14.6,13.9,20.6.3,2.8-1.5,4.1-3.2,1.7-1.3-1.8-2.8-7.8-4.7-10.8-11.7-19.1-21.5-3-24.9,10.6h0l-.1.1ZM318.5,554.5h-36.1c-.2,0-1.1.9-1.8.7v16.8c0,4.9-7.6,11.1-13,10.8-1.6,5,1.4,34.2-11.5,26.4.3,13.5-3.4,27.6-2,41,1.5,6.1,28.1,15.1,17.4,25.8-9,9-32.9,1.9-43.5-1.7,5.7,12.2-20.8,12.5-28.4,11.8-6.6-.6-25.7-7.1-27.8-13.3-.3-.9-1.3-5.3-1.3-6.1v-54.3c-2.6.4-5.6,2-7.1-.9-2-4.1-.5-22-1.3-22.8l-12.8-1.4c-5.6-1.6-8.2-25-8.2-30.2-4.7,0-9.8-1.8-14.4-2-2.1,0-3.9-.6-4.5,1.6s1.1,15.8,1.6,18.9c1,5.8,2.5,12,5.5,17.2,2.2,3.8,9.5,9.6,10.1,11.6.6,1.8.1,5.3-2.2,5.3h-17.9v7.8c22.8,4.1,28.5,35.9,11.9,49.1-2.9,2.3-6.3,3.1-9,5.4-.4,3.5,0,7-.1,10.4,0,1.7-1.4,3.5-1.4,4.6,0,1.5,3.8,3.6,4.5,6.2,1.2,4.4-.2,8.2-4.3,10.5-.9.5-12.5,5.2-13.2,5.3-2.7.4-6,0-8.5-1.1s-4.7-5.2-6.2-5.4c-6.2-.8-5.4,3.3-7,5.3-4.4,5.3-26.9,1.1-33-1.8-1.8-.9-4.7-3.7-5.6-3.9-2.2-.6-5.2.2-7.5-.2-9.2-1.4-12.3-15.7-4.6-20,2.5-1.4,5.8-.8,6.2-1.1.3-.2,1-5.3,1.6-6.7,6-14,18.8-20.3,33.9-22.8-2.3-12.2,1.3-22.3,10.8-30.7l-11-10.8c-7.7.7-15.8,1.9-23.4.3-13.2-2.8,1.1-11.5,4.9-15.9,8.9-10.3,9.5-20,10.4-32.8-.4-1.8-6-.4-7.8-.2-20.2,2.8-41.3,11.8-59.4,20.2v258.1h590.7v-226.2c-48.1-30.4-106.7-44.4-164-50.4,1.9,5.5,3.7,31.7.4,34.9-2.3,2.2-8.5-1.2-11.6-.7l-4.2,68.8c-1.2,10.4-24.2,18.3-33.4,18.7-3.9.2-16.7-1.1-19.8-2.9-14-8.1,12.5-19.8,15.4-24.3,6-9.5-.9-40.4,1.4-52.3-3.8,1.2-6.5,3.4-10.5.7-.9,11.9-1.6,23.9-2.1,35.9-.3,5.7,1.2,19.6-1.1,24-2.8,5.5-23.7,13.1-30.2,13.8s-15.4,0-20.5-4.3c-9.6-8.1,10.6-18.2,15.3-23.7,3.4-19.2-.5-38.8.8-58.2-3.4.8-14.8,4.7-17.2,2.7-2-1.7.6-16.5,1.3-19.9,1.5-7.3,4.4-14.3,6.1-21.6h.2ZM116,615.4v-11.2c0-4.5-5-18.5-8.4-21.8-5-4.8-9.2-2.1-9.9,4-1.1,9.3,2.1,9.6,5.6,16.6,2.6,5.2,4.6,16.7,12.7,12.4h0ZM361.7,602.1c-1.6-2.4-5.6-5-7.8-8.2-2.7-3.9-4.1-8.4-6.4-12.4-4.6,4.3-9.4,8-15.4,10.5-2,17.4,1.7,35.8.4,53-.1,1.7-.4,4.9-.9,6.4-2.2,6.2-16.9,11.5-18.7,19.3.2,2.7,1.9-2.2,2.8-2.7,5-2.7,2.7,3.5.7,5.2l1.7,1c2-1.5,6.4-7.5,9.5-5.6,1,.6,1,1.3,0,2l-6.3,5.6c5.6,3.2,7.7-4.3,10.9-4.6,4.5-.4,1,3.4-1.1,4.6,5.9,0,27.3-7.5,29-12.5l2.5-58.9c0-1.1-.3-1.8-.9-2.7h0ZM413.7,595.4c-7.2-2.4-13.7-6.2-18.5-12-3.1,3.6-4.7,8.1-7.8,11.8-6.5,7.8-8.3,3.3-8,15.6.3,13.6,1.9,27.9.8,41.5s-16.2,12.1-20.3,24c.3.4,7.1-6,9.1-3,1.1,2.2-4.9,2.6-6,4.9-.9,1.9,1.6,2.3,3.1,1.9.7-2.7,2.9-5.1,6-5.2,1.7,3.6-7.1,6.6,1.6,6.5,0-3.6,8.2-7.9,6.4-3-.3.9-3.3,1.2-2.8,3.1,7.9,0,27.2-5.9,31-12.7,3.4-6.1,2.1-27.6,2.6-35.7.8-12.6,2.6-25.1,2.7-37.7h.1ZM78,587.5c-6.3,1.8-1.8,13,0,16.8,3.4,6.8,9.4,11.2,14.9,16.3-5.2,5-10.8,10.4-12.2,17.5-7.2,36.1,51.4,42.6,56.1,13.2,3.1-19.4-8.9-33.2-29.9-32.1-3.3-8.9-15.6-35.6-28.9-31.8h0v.1ZM224.6,598.6c-1.3-.7-5.8,6.7-6.3,8.2l1.3,58.1c2.3,5.5,29.1,12.8,35.9,12.7l-2.7-3.1c.7-5.6,6,3.1,9.3,2.4,4-.9-7.3-4.7-4.5-7.2,2.8-2.5,10.2,9.1,10.2,3.3-8.1-3.8-4-7.8,2.1-2.6-.8-8.6-17.8-11.9-19.2-20.1l2-45.1c-2.4,1.5-3.8,6.9-5.8,8.4-5.4,4.1-21-9.5-22.2-14.9h0l-.1-.1ZM206.4,614.4c-8.5,3.3-10.4-6.4-14.4-11.1l-17.9,8.8.4,58.3c2,7,25.1,14.2,32.6,13.2-1.1-1-3.2-4.1-2.1-5.3,1.3-1.4,7.4,7.9,10.9,4-.4-3.1-5.9-2.5-5.3-5.9,4.4-.4,7.3,2,9.4,5.2,4.6-3.4-7.3-6.4-2.7-7.8,3.7-1.2,6,3.5,8,5.2,1.9-8.2-18.4-15.8-19.5-20.2l.5-44.3h0l.1-.1ZM216.2,662.5l-1.7-53.3-4.5,4.3c0,13.3-3,28.2-1.4,41.5.6,4.9,3.9,5.2,7.7,7.5h-.1ZM120.7,692.3c-.5-.6-2.1-1-2.6-1.8-2.5-4.2,3.9-12.9.8-17.9-11.1,1.2-21.9.2-30.9-6.5-4.2-3.1-6.6-7.4-10.2-10.9-19.9.5-36.9,17.3-32.3,36.3,3.9,15.8,24.4,16.7,38.2,14.4,1.8-5.3-7.9-4.9-8.3-6.3,4.3-7.7,5.3-17.8-5.8-20.2-3.7-.8-10.4,1-7.8-3.1,13.6-2.4,25.2,7.9,18.5,20.7,4.1,3.4,7.3,4.6,12.5,2.4l-.7-11.2h2.7c1.7,1.1-1.1,21.8,13.5,17.5,10.8-3.2-6.6-12.8-1.1-17.5.8-.2,5.5,6.6,6.2,8,.9,1.6,1,5.4,2.3,5.8,6.5-1.5,9.2-4,4.9-9.6h0l.1-.1ZM41,684.2c-11.7.9-6.5,16.7,4.2,15.1-2.6-4.7-3.8-9.9-4.2-15.1Z"/>
  <path d="M592.5,3.3v605.8c-49.4-29.2-107.4-44.2-165.3-49.4-1-7.4-5.8-13.7-8.8-20.4,3-2.7,5.6-5.8,8-9,1.4-1.9,3-6.6,4.3-7.8s5.9-2.4,8-3.7c34.5-21.4,16.2-56.3,13.1-87.8-2.2-22.4,1-42.3-12.1-62.4-23.3-36-88.6-38.9-116.9-6.7-20.7,23.6-16,73.1-26.3,103.7-2.4,7-1.8,4.6-8.4,7.2-1.6,3,2.5,6,1.8,6.6-13.3.7-15.1,14.5-12.2,24.4.7,2.5,4.2,7.1,4.4,8.4.4,2.7-2,5.2.5,8.7,1,1.4,7.8,5.8,9.7,6.7,3.6,1.6,11,2.5,13.4,3.9,1.3.8,2.5,3.6,3.9,4.9,4.1,3.8,8.7,6.8,14.7,6.9.5.5-2.7,7.9-4.6,7.9l-38.1.6c-3.9-29.6,1-71.3-32.3-86.8-.9-1.4,5.5-4.9,6.6-5.9,4.5-4.3,7.7-9.2,10.3-14.7.7-1.5,1-5,1.6-5.7.8-.9,3.8-.9,5.3-1.6,8.6-4.3,11.8-13.3,6.6-21.4-.6-.9-2.3-1.1-2.5-1.8-.5-1.8,1.9-8.5,2.1-11.1,2.3-25.4-18.6-49.9-45.9-52.3-10.1-.9-19.8,1.6-29.8.6,17.2-21.1,5.4-57.1-26-55.6-6.8-38-56-39.2-80.3-15-28.4-19.2-70.1,3.2-63.4,36.5-20.9,12.4-18.2,42.6,2.8,53.6-5.4,22.2,12.6,35.8,35.1,29.8v17.5c0,.9-11.2,10.4-13.2,13.3-9.3,13.1-8.7,27.3,2,39.4,2.8,3.1,9.8,7.3,10.2,10.8,1.4,11.4-6.1,16.8-6.7,27.3-.5,7.3,1,12.7,5.6,18.5l-.7,29.9c-23.6,2.8-46.6,10.2-67.3,21.1V3.3h590.8ZM479,274.9c.7-3,0-10.2,0-13.8s-1.5-2.2-1.8-2.3l-1.7,1v15.1c0,1.9,2.9,2.7,3.5,0h0ZM435.9,266.7c-.9.2-1.1,1.3-1,2.2s9.5,13,10.5,13.9c1.9,1.6,3.6,1.4,3.4-1.2,0-.8-9.1-12.7-10.1-13.6-.8-.7-1.5-1.6-2.8-1.3ZM515.8,266.7c-1,.2-10.8,13.6-10.9,14.9,0,.8.2,2.1,1.1,2.2,1.7.4,12.2-14.3,11.5-16.1-.4-.6-.8-1.2-1.7-1ZM223.1,274.8c-8.4,1.4-10.6,9.6-8.1,16.5,2,5.5,17.4,20.2,23.7,18.6,4.2-1.1,15.6-11.7,17.8-15.6,6.1-10.6.8-22.2-13-19.4-2.9.6-5.5,3.5-6,3.6-.8.1-6.8-5-14.4-3.7h0ZM471.8,282c-51.8,5.5-45.2,82.3,10.9,76.8,51.1-5.1,45.4-82.7-10.9-76.8ZM430.5,298.4l-18.8-7.3-.4,2c.4.8,14.9,7.9,16.5,8.2,2.7.6,3.1-.6,2.7-2.9h0ZM521.7,302.3c.8.8,15.8-5,17.1-6,2.4-1.8,1.1-3.5-1.9-3.1-1,.1-14.5,5.8-14.9,6.5-.5.8-.4,1.8-.3,2.6h0ZM527.7,321.4c-1.5,1-1.5,2.3,0,3.3h18.2c1.5-1,1.5-2.3,0-3.3h-18.2ZM406.5,322c-1.5,1-1.5,2.3,0,3.3h16.8c1.7,0,1.7-3.3,0-3.3h-16.8ZM521.5,343.1l-1.2,1.6c0,1,13,8.9,14.7,9.2,3.3.7,3.7-1.4,1.4-3.3-1.3-1.1-13.8-7.9-15-7.6h0l.1.1ZM434.6,347.1c-1.2.2-9.7,4.7-6.8,6.8,1.9,1.3,7.9-3.6,9.5-4.9.9-1.9-1.2-2.1-2.7-1.9ZM505.3,360.2c-3.6.7,5.8,14.2,7,15.1.9.7,1.5.9,2.7.6,2-1,.5-2.4-.2-3.7-1-1.8-8.1-12.4-9.6-12.1h0l.1.1ZM453.4,360.9c-.8.2-7.2,13.5-7.3,14.3-.4,3,2.2,2.6,4,.4,1.2-1.5,8.9-16.5,3.3-14.7h0ZM477.6,368.1v15.5c6.5,4,2.5-12.2,2.8-15.5h-2.8ZM552.7,399.6c-.3-.4-1.4-6-2.8-8.2-8.1-12.7-32.7-8.5-36.7,5.6-32.6-5.3-32.1,39,1.1,30.4,4.8,7.9,18,8.5,25.6,4.2,1.1-.6,3.7-3.6,4-3.6,1.4-.1,3.6,1.2,5.5,1.3,12.7.6,24.5-6.1,19.1-19.3-4-9.9-14.5-8.9-15.8-10.5h0v.1Z" fill="#fff"/>
  <path d="M318.5,554.5c-1.7,7.3-4.6,14.2-6.1,21.6-.7,3.3-3.2,18.2-1.3,19.9,2.4,2.1,13.8-1.9,17.2-2.7-1.3,19.4,2.7,39-.8,58.2-4.7,5.6-24.9,15.7-15.3,23.7,5.2,4.3,14,5,20.5,4.3s27.3-8.3,30.2-13.8c2.3-4.4.8-18.3,1.1-24,.5-11.9,1.2-24,2.1-35.9,4,2.8,6.7.5,10.5-.7-2.3,11.9,4.6,42.9-1.4,52.3-2.9,4.6-29.4,16.2-15.4,24.3,3.1,1.8,16,3.1,19.8,2.9,9.2-.5,32.2-8.3,33.4-18.7l4.2-68.8c3-.6,9.3,2.9,11.6.7,3.3-3.2,1.5-29.5-.4-34.9,57.2,5.9,115.9,20,164,50.4v226.2H1.8v-258.1c18.1-8.4,39.2-17.5,59.4-20.2,1.8-.2,7.3-1.6,7.8.2-.9,12.8-1.6,22.6-10.4,32.8-3.8,4.4-18.2,13-4.9,15.9,7.6,1.6,15.7.4,23.4-.3l11,10.8c-9.5,8.3-13.1,18.4-10.8,30.7-15.2,2.5-27.9,8.9-33.9,22.8-.6,1.4-1.3,6.5-1.6,6.7-.5.3-3.7-.3-6.2,1.1-7.8,4.3-4.7,18.6,4.6,20,2.4.3,5.3-.4,7.5.2.9.3,3.8,3.1,5.6,3.9,6.2,3,28.6,7.1,33,1.8,1.7-2,.8-6.1,7-5.3,1.5.2,3.7,4.3,6.2,5.4,2.5,1.2,5.8,1.5,8.5,1.1.7-.1,12.4-4.8,13.2-5.3,4.2-2.2,5.5-6.1,4.3-10.5-.7-2.6-4.4-4.7-4.5-6.2,0-1.1,1.3-3,1.4-4.6.2-3.5-.3-7,.1-10.4,2.7-2.3,6.1-3.1,9-5.4,16.6-13.3,10.9-45-11.8-49.1v-7.8h17.8c2.3,0,2.7-3.5,2.2-5.3-.6-2-7.9-7.8-10.1-11.6-3-5.2-4.6-11.4-5.5-17.2-.5-3.1-2.2-16.7-1.6-18.9s2.4-1.7,4.5-1.6c4.6.1,9.7,1.9,14.4,2,0,5.2,2.6,28.6,8.2,30.2l12.8,1.4c.9.8-.7,18.7,1.3,22.8,1.4,2.9,4.5,1.3,7.1.9v54.3c0,.7.9,5.1,1.3,6.1,2.2,6.2,21.2,12.8,27.8,13.3,7.5.7,34.1.3,28.4-11.8,10.5,3.5,34.5,10.7,43.5,1.7,10.7-10.8-15.9-19.8-17.4-25.8-1.4-13.5,2.2-27.5,2-41,12.9,7.8,9.9-21.3,11.5-26.4,5.4.3,13-5.9,13-10.8v-16.8c.7.2,1.5-.7,1.8-.7h36.1-.3ZM557.5,723.7c.6-17.3-10.3-31.9-24.4-41.9,2.2-3,1.2-9.2,2.3-11.4.3-.7,5.5-3.7,7.2-5.7,4.6-5.5,5.2-12.5,3.9-19.2-.7-3.5-4.8-9.4-5-11.1-.2-1.5,1.7-6.6,1.7-9.2,0-6.5-4.2-14.3-10-17.9-3.1-1.9-8.3-2.5-10.4-4s-3.7-5.6-7.5-8.1c-9.5-6.2-24-4.8-33.1,1.3-12.2-10-29.7-7.8-39.2,4.2-1.6,2-2.2,5-3.9,6.9-5.7,6.3-13.2,7.7-13.4,19.1,0,3,2.3,7.2,2,9.1-.2,1.1-4.5,6.4-5.4,8.8-3.6,9.5-1.6,18.2,5.5,25.6.9.9,3.9,2.1,4.1,2.4.5.8.9,5.8,1.7,7.9,2.5,6.2,7.2,8.8,13.2,11.5l-1.6,32c-16.5,11.8-15.4,21.7,5.5,26.1,1.9.4,4.2-.3,6.1.2,1.1.3,2.3,2.2,4,2.9,6.7,2.7,16.9,4,24.1,3.5,2.2-.2,5.9-1.8,7.2-1.8s2.2,1.5,3.5,1.7c17.2,2.2,49.1,1.9,57.8-15.2,8.6-17,16.2-26.6,12-46.5-.3-1.6-2.2-4.9-2.1-5.7,0-.5,3.7-3.7,4.5-5.4,3.4-7.4,0-19.2-8.5-21.9-8.9,3.8-12,21-4.3,26.4,1.7,1.2,4,1.1,4.9,2,3,2.9,3.6,16,3.2,20.1-.1,1.2-3.4,15.8-5.6,13.5h0v-.2ZM300.3,620.3c-3.3-9.8-11.2-9.8-14,.4-17.8-4.4-9.4,11.5-2,17.6,5.1-.4,16.6,1.2,20.1-1.8,7-5.9,11-23.2-4.2-16.1l.1-.1ZM300.4,698.6c-5.3-12.3-23.7-6.9-21.1,6-17.4-2.4-20.9,19.5-3.5,21.7-4.1,12.5,6.8,18.1,18.2,13.8l-2.1,16.5c-2.1-9-10.1-16-19.6-18.1-8.9-2-14.4-2.7-12.5,7.8,3,16.3,32.6,19.8,46,15.9,7.7-2.2,20.6-12.1,17.4-20.6-6.1-2.9-13.4-1.6-19,1.9-1,.6-6.7,6.6-7.5,5.8,1.4-5.2-.5-10.9,2.2-15.8,14.8,6.7,30.4-6.2,16.1-18.2,5.5-4.6,6.1-14.7-1-18.1-6.7-3.2-12.3,1.9-13.6,1.3h0v.1ZM179.1,703.9c-5.7-12.8-23.3-7.8-21.8,6-17.4-3.5-21.4,19.4-4.2,21.1-4.6,13.7,4.7,21,18.9,16.5l-1.1,14.5-7-7.9c-6.9-5.7-17.1-8.8-26.2-6.5-2.8,26.4,39.7,30.6,57.2,20.5,6.7-3.9,15.1-13.1,12.1-20.9-13.2-2-24.9,3.3-32.3,13.5l1.4-19.1c6.9,4.2,19.8,1.9,21-6.9.6-4.1,0-10.2-4.9-11.5-.6-.9,8.2-7.1,3.4-16s-15.6-2.5-16.6-3.1h0l.1-.2ZM379,749.8c1.9,1.2,14.9,1.2,17.7.9,10.4-1.4,16.2-27.3-.7-17.2-4-9-10.5-7.3-13,1.3-4.4-3.9-12-3.4-11.1,3.4.3,2.2,5.3,10.4,7.1,11.5h0v.1ZM70.5,736.9c-1.9-9.2-11.7-8.5-13.4.6-17.2-3.7-9.8,11-2.3,17,5.6-.5,16.9,2,20.8-1.9,7.4-7.3,10.6-26.2-5.2-15.8l.1.1Z" fill="#fff"/>
  <path d="M146.9,409.6l-8.4-1.7c1.9-2.4,3.4-15.5.9-16.1-4.2-1.1-12.5,11.2-17.8,11.9,9.3-29.1-36.5-38.7-26.7-68.2,49.7-6.1,18.8-59.1-13.9-39.4-19,11.9-19.8,40.5-12.3,58.9,5.2,12.8,14.8,19,22.7,29.4,3.8,5,9.5,10.8,3.9,16.7-5.6-2.2-5.2-8.2-8.5-11.7-21.9,15.8-55.4,11-45.9-20.7-21.9-8.8-25.3-39.6-2.8-49.6-8.5-29.7,26.1-52.5,54-37.4,1.9,1,2.2,3.4,5.2,2.9.9-.1,11.4-8.9,14.2-10.4,26.6-14.6,59.5-5.8,63.2,25.3,26.1-3.9,39.4,21.5,30.5,42.4-5.1,11.9-7.8,8.5-18.6,11.5-9,2.5-16.7,5.9-23.5,12.2,2.4-10,.7-21-12.3-21.7,9.1-13.9-8.7-9-11.6.6-25.9-12.5-29.2,27.9-8.6,33.2,3.1.8,14.2,1.9,17.1,1.1,2.6-.7,4.1-2.9,6.6-3.3-2.3,4.2-7.7,12.8-7.7,17.4v16.8h0l.3-.1Z" fill="#fff"/>
  <path d="M269.5,578.8c2.4-3.6,5.4-8.2,4.2-12.5-3.5-2-3.3,7.8-6.3,8.6-.8-3.7-.3-7.6-.9-11.3-.9-5.7-4-11.9-4.6-16.7-1.2-8.5-.1-20-.7-28.9-.1-2.2-1.4-16-2.1-16.5-4.9-3.4-1.5,12.3-1.4,13.8.5,8.9.3,17.8.7,26.7-10.9-2.3-21.5-1.8-32.2,1-2.1.5-8.5,3.5-9.4,3.5-1.3,0-5.5-2.7-7.6-3.3-13.7-3.9-23.9-3.8-37.7-.5l2.1-41.2c-.4-.4-1.9-.5-2.1-.3-2.1,1.2-3.9,42.2-3.5,47.1.8,9.9,6.3,16.5,6.3,26-3.6-1-4.1-4.1-5.6-7l-3.2.3c-1.8,2.5,3.5,17.8-.7,17.2-3-.5-3.5-13.7-6.3-13.2-3.9,2,2.9,14.2,0,14.5-4.6.4-4.8-16.9-7.7-16.4-3.8.6,1,11.3,1,13.5,0,1.3-.5,1.4-1.4.6-4.8-4-6.3-34.6-6.3-41.5.1-26,3.4-65.8,35.1-75,8.5-2.5,10.2.8,17.6,2.5,16.6,3.7,32.2,3.7,47.9-3.5,14.6,6.2,23.1,17,26.8,31.4,3.6,14.2,9.7,62.2,5.6,74.7-1,3-3.8,6.6-7.5,6.5h0l-.1-.1ZM191.7,508.4c2.5-4.1-6-4-3.5,0,.2.4,3.2.4,3.5,0ZM243.6,508.4c2-1.9-4.8-6.7-3.5,0,.8-.1,3.3.2,3.5,0Z" fill="#fff"/>
  <path d="M432.7,517.6c3.9-18.9,4.4-41.3-13.3-54.3l-12.6-6.6c6.4-1.9,14-17.7,17.1-19.5,1-.6,4.9-.1,7.7-1.3,15.7-6.9,8.9-34.6-10.1-25-1.9-12.4-13.4-11.7-22.9-15.7-5.4-2.3-15.6-8.5-19.5-12.6-1.5-1.6-5.7-8.9-6.4-9.1-3-1-4,3.3-5.8,4.9-9.4,8.1-26,7.8-37.2,13.1-3.3,1.6-12.9,7-6.9,10-4.7,23.4-2.8,47.5,22.4,59.1-10.4,5.8-18.6,13.1-24.1,23.3l-6.7-2.6c-.3-.5,6.2-4.5,3.8-9.9-7.1-7.1-13.2,1.1-16.1,7.2l-4.2-5.3c2.7-11.1,5.9-22.1,7.9-33.4,3.5-19.6,3.5-43.2,10.9-61.6,19-47,99.4-47.6,122.6-3.6,10,19.1,7.3,41.8,9.7,62.7,3.3,27.9,20,64.7-16.1,80h0l-.2.2Z" fill="#fff"/>
  <path d="M372.5,378.6c4,8.7,16.9,16.4,26,20.1,11.5,4.6,18.8,2.5,21.1,17.4,5,.3,4.5-4.8,10.6-3.7,8.8,1.5,7.6,13.4,3,18.3-4.5,4.7-8.5,1.3-11.6,2.9-.8.5-8,12.5-10.5,15.1-24.8,25.4-83.1,16.7-86.2-21-.4-4.6.5-28.2,2.8-31,9.7-6.4,22.1-6.2,32.7-10.7,4.6-2,7.9-4.9,12.1-7.4h0ZM352.2,416.8c1.1-7.1-6.9-10.6-13-7.2-1.9,1.1-6.5,6.5-1.5,6.5,1.9-.4,2.2-5,7-4.5,4.4.4,3.1,5.6,7.4,5.3h0l.1-.1ZM396.3,418.1c1-11.6-17.3-11-17.5-1,4.1.2,4.6-5.3,10.7-4.2,4.1.8,1.9,5.8,6.8,5.1h0v.1ZM365.4,418.9c-7.4-1.3-12.6,1.5-10.1,9.2,1.2,3.8,9.3,5.6,10.9,2.9,1.9-3.3-7.4-.5-7.8-5.9-.4-6.5,9,0,7-6.2h0ZM372.9,440.3c-3.7,3.3-11.5,3.1-15.4.1-1.7-1.3-3.8-6.3-5.4-2.2,2.2,9.1,18,9.8,23.9,4,1-1,4.2-5.6,1.7-6.3-2.6-.6-3.5,3.2-4.8,4.4h0Z" fill="#fff"/>
  <path d="M235.9,395.1c8.6,4.4,17.2,7.6,27.2,7.3,4.1,15.4,5,36.8-5.9,50-19.3,23.4-67,21.2-85.7-1.8-1.3-1.6-4.3-7.5-5.3-8.2-1.9-1.2-6.6-.4-9.8-2-6.2-3.1-11.2-15.2-3.6-19,5.2-2.6,8.2,2.7,10.9,1.7,5.9-5.1,9.4-11.9,13.7-18.1,9.3,6.2,20.8-5.4,25.2-12.5,8.1,7.2,21.3,12.1,32.3,8.6l1-6h0ZM248.7,419.9c2.6,2,4.2,0,2.6-2.8-1.4-2.3-5.9-4.2-8.7-4.2-8.4.2-11.3,10.5-6.4,9.1,2.4-3.9,5.4-7.7,10.6-4.6,1,.6,1.3,1.9,1.9,2.5h0ZM204.4,422.7c5.3,3,4.2-7.7-6-7.9-8.8-.1-12.4,10.2-7.7,9.3,2.5-3.1,2.8-6.1,7.7-6,5.7.1,5.1,4.1,6,4.6h0ZM231.5,426.9c-1.9-1-9.5-2.5-10.7-.9l-.3,2.7,8.4.7c.6,3.7-2.4,4.3-5.3,5.2l-.3,2.7c6.9.9,11.2-4.3,8.2-10.4h0ZM235.8,442.5c-3.9-.5-4.5,3.7-7.9,5.4-4.1,2.1-10.5,2.6-14.8.4-3.9-2-3.9-7-8.2-6.5,1.1,14.8,29.1,15.1,30.8.7h.1Z" fill="#fff"/>
  <path d="M336,542.6l7.7.7v-2.2c-1-1.9-12.9-1-11.2-7,1.1-1.1,14.1,5.4,13.3,1-.4-2.1-14-4.5-14-5.9,7.2-3.4,16.3.8,23.5,1.6,9.1.9,31.4-2.2,38.5-7.8,8.1-6.4,11.8-23,11.6-32.5h-2.9l-1.3,6.9c-11.6-8-25.5-3.4-36.1,3.8-7.2-6.8-16.5-10.6-26.3-5.8-1-1.2,6-13,.5-10.4-3.3,1.5-6.6,20.4-9.2,24.3-7.8-6.2-3.3-9-3.8-16.1-.2-2.4-2-5.2-2-6.5.4-6.8,17.8-22.4,24.9-23.4,3.3-.4,10.9,2.8,15.2,3.1,10.9,1,20.5-.2,30.8-3.2,2.3-.7,5.8-3.2,7.7-3.3,5.4-.3,16.2,7.2,19.6,11.2,19.4,22.4,8,64.7-22.4,74.4-12.1,3.6-57.2,9.7-64.1-2.6h0v-.3Z" fill="#fff"/>
  <path d="M205.7,569.6c3.4-13.5,13.2-29.7,24.9-10.6,1.8,3,3.4,9,4.7,10.8,1.8,2.4,3.5,1.1,3.2-1.7-.6-6-8.8-16.8-13.9-20.6,5.5-3.8,27.7-5.2,32.4-1.7,3,2.3,6.5,20.5,6.8,24.7.4,5.2,0,32.9-3.2,35.9-3.6,1.4-7.1-7.2-9.7-6.5-2.6,2-3.3,8.1-5.7,9.8-3.9,2.7-11.7-4.6-14-7.2-1.7-1.9-6.4-10.6-7.7-10.6-1.9,0-2.6,4.4-3.6,5.9-2.4,3.8-12.9,16.4-18.3,13.8-2.7-1.3-6.3-12.9-8.9-13-2.2,0-19.9,12.6-25.6,10.9-.9-.6-2-19.2-1.4-21,.2-.8,2.1-.8,2.8-1.5,2.5-2.3,1.5-7.9.7-10.8.7-.6,5.2,3.6,7.6-.4,4.1-6.7-7-21.3-5.4-29.1,10.9-3.9,23.2-4.4,34.4-1.2,12.6,3.6,5.4,4.6.9,11.7-1.7,2.7-8.2,13.5-1.1,12.5h0l.1-.1Z" fill="#fff"/>
  <path d="M268.8,413.5c0-2.9-1.5-13.5-4.7-14.4-2.9-.8-8.9-.4-12.7-1.2-4.9-1.1-17-8.8-18-8.8-4.1.2.8,8-1.7,9.6-9,1.4-19-2.2-25.6-7.6-1.6-1.3-2.5-4.4-4.9-4-1.7,5.5-12.8,18.1-19.5,16.4-1.9-.5-3.5-5-5.4-4.2-2.4,2.7-10.8,20.2-14.2,20-3.1-2-5.9-2-9.5-1.9-9.8-26.9,8-55.1,37.1-61.5,10.6-2.4,37.1-3.3,47.8-1.4,22.8,3.9,39.9,25.3,38.4,46.9-.3,4-1,13.7-7,12.2h0l-.1-.1Z" fill="#fff"/>
  <path d="M415.9,542c9.5,16.5,13.4,34.5,10.6,53.3-10.3-1.3-20.1-5.2-27.3-12.2-1.8-1.7-3-5.8-5.9-5-.5.1-3.3,7.6-4.3,9.3-2.4,4-14,17-18.8,16.3-5.1-.7-13.9-12.2-16-16.6-1.2-2.4-3.8-12.7-4.5-13-.3-.1-1.9,0-2.3.2s-3.5,6-5.3,7.8c-6.7,6.4-18.9,10.5-28.4,10.5,1.9-17.8,5.9-36.6,17.2-51.3,4.1,8.3,16,12.6,25.2,12.6,3,0,5.7-1.3,8.4-1.4,18.8-.7,34.8-.5,51.4-10.5h0Z" fill="#fff"/>
  <path d="M136.4,606.5h-16.8c-1.4-8.6-5.7-33.3-19.7-29.3-4.6,1.3-6.2,9-5.6,12.9-2.9-.3-4.2-2.7-6.7-3.9-8.9-4.2-17.4-1.5-16.4,8.8l3.5,11.9c-3.1,1.4-23,1.6-23.1-1.3,7.2-6.9,15.1-13.6,18-23.2,4.9-16.1,2-34.4,3.3-50.9,1.4-2,6.7,3,9.4-.3,1.3-1.5-.2-6.5,0-9.2,1.3-16.5,19.4-25.1,33.3-31.3,1,.1,1.7,12,1.8,14.1,1.1,22.6-1.6,74,10.2,91.8,2.4,3.7,6.4,6.2,8.7,9.9h.1Z" fill="#fff"/>
  <path d="M148.1,413.7c.2.2,1.6,4.9,1.6,5.4-.2,1.5-2.2,2.4-2.9,3.8-3.7,7.3.6,16.9,8.1,20.3,2.9,1.4,7.9,1.5,9.3,2.5.9.6,5.8,8.6,7.6,10.6,2.7,2.8,5.9,4.7,8.8,7.2-41.2,11.5-39.1,56.8-39.6,89.6l-18.6-1.4-2.8-61.5c2.7-3.9,6.5-4.8,9.2-9.1,7.7-12,2-22.9-10.5-28.5-4-17.4,10.8-27.1,18.2-41,.6-.3,11.1,1.5,11.6,2.1h0Z" fill="#fff"/>
  <path d="M413.7,595.4c0,12.6-1.9,25.2-2.7,37.7-.5,8.1.7,29.6-2.6,35.7-3.7,6.8-23,12.6-31,12.7-.5-1.9,2.5-2.2,2.8-3.1,1.8-4.9-6.5-.6-6.4,3-8.8.2,0-2.9-1.6-6.5-3.1.1-5.3,2.5-6,5.2-1.5.4-4,0-3.1-1.9,1-2.3,7-2.7,6-4.9-2-3.1-8.8,3.3-9.1,3,4.1-12,19.2-9.8,20.3-24s-.5-27.9-.8-41.5c-.3-12.3,1.5-7.8,8-15.6,3.1-3.7,4.7-8.2,7.8-11.8,4.7,5.7,11.2,9.5,18.5,12h-.1Z" fill="#fff"/>
  <path d="M78,587.5c13.3-3.8,25.7,22.9,28.9,31.8,21.1-1.1,33,12.7,30,32.1-4.7,29.3-63.3,22.9-56.1-13.2,1.4-7.2,7-12.6,12.2-17.5-5.5-5.1-11.5-9.6-14.9-16.3-1.9-3.8-6.4-15,0-16.8h0l-.1-.1ZM129.9,645.8c2.6-7.3-6.9-6.9-3.3.8l3.3-.8ZM100.4,641.5c-5.4,9.3,8.1,8.7,3.1.2l-3.1-.2ZM120.1,648.1c-13.8-2.3-4.9,4.8-4.8,5.6.9,7.2-7,2.2-7.7,2.9-.9,2.6,2.8,5.2,5.1,5.1,2.1,0,3.7-2.2,4.3-2.3,1.8-.2,9.6,5.4,10.2-3.5-3.6-.5-5.1,4.3-8.3.2l1.2-8h0Z" fill="#fff"/>
  <path d="M361.7,602.1c.6.9,1,1.6.9,2.7l-2.5,58.9c-1.7,5-23.1,12.6-29,12.5,2-1.2,5.5-5,1.1-4.6-3.2.3-5.3,7.8-10.9,4.6l6.3-5.6c.9-.7,1-1.4,0-2-3.1-1.9-7.5,4.1-9.5,5.6l-1.7-1c2-1.8,4.3-7.9-.7-5.2-.9.5-2.6,5.4-2.8,2.7,1.8-7.8,16.5-13.1,18.7-19.3.5-1.5.8-4.7.9-6.4,1.3-17.3-2.4-35.6-.4-53,6-2.5,10.8-6.2,15.4-10.5,2.3,4,3.7,8.6,6.4,12.4,2.2,3.1,6.1,5.8,7.8,8.2h0Z" fill="#fff"/>
  <path d="M120.7,692.3c4.2,5.6,1.6,8.1-4.9,9.6-1.3-.4-1.4-4.2-2.3-5.8-.7-1.3-5.4-8.1-6.2-8-5.5,4.7,11.8,14.3,1.1,17.5-14.6,4.3-11.8-16.4-13.5-17.4h-2.7c0-.1.7,11.1.7,11.1-5.3,2.2-8.4,1.1-12.5-2.4,6.7-12.8-4.9-23-18.5-20.7-2.5,4.1,4.1,2.3,7.8,3.1,11.1,2.5,10,12.6,5.8,20.2.4,1.4,10.1,1,8.3,6.3-13.8,2.3-34.3,1.4-38.2-14.4-4.7-18.9,12.4-35.8,32.3-36.3,3.6,3.5,5.9,7.7,10.2,10.9,9,6.7,19.8,7.7,30.9,6.5,3.2,5-3.3,13.7-.8,17.9.5.8,2.1,1.2,2.6,1.8h0l-.1.1Z" fill="#fff"/>
  <path d="M206.4,614.4l-.5,44.3c1.1,4.4,21.4,12,19.5,20.2-2-1.7-4.2-6.4-8-5.2-4.6,1.5,7.3,4.4,2.7,7.8-2.1-3.2-5.1-5.7-9.4-5.2-.7,3.4,4.9,2.8,5.3,5.9-3.5,4-9.6-5.4-10.9-4-1.1,1.1,1,4.3,2.1,5.3-7.5,1-30.6-6.1-32.6-13.2l-.4-58.3,17.9-8.8c4,4.7,5.9,14.5,14.4,11.1h0l-.1.1Z" fill="#fff"/>
  <path d="M224.6,598.6c1.3,5.4,16.8,19,22.2,14.9,2-1.5,3.4-6.8,5.8-8.4l-2,45.1c1.4,8.2,18.4,11.5,19.2,20.1-6.1-5.2-10.2-1.2-2.1,2.6,0,5.8-7.6-5.7-10.2-3.3-2.7,2.6,8.6,6.4,4.5,7.2-3.4.7-8.6-8-9.3-2.4l2.7,3.1c-6.8.1-33.6-7.2-35.9-12.7l-1.3-58.1c.5-1.5,5.1-8.9,6.3-8.2h0l.1.1Z" fill="#fff"/>
  <path d="M74.7,486.6v-28.6c0-17.2,28.4-29.4,39.2-40.9,2.2-2.3,3.6-5.8,5.7-7.8,4.4-4.2,13.2-7.4,17.1-12.9,3.5,15.1-17.8,28-20.9,40.3-1.9,7.6.6,18.5-2,26.5-8.3,8.6-20.1,11.8-30.2,17.7-3.1,1.8-5.7,4.4-8.9,5.8h0v-.1Z" fill="#fff"/>
  <path d="M347.7,496.1c8.5-.2,14.1,8.2,17.4,8.2,4.9,0,12.7-9.4,24.5-8.4,14.5,1.2,11.8,11.7,5.6,20.3-5.9,8.2-21.5,10.9-31.5,11.3-7.9.3-12.4-1.6-19.7-2.6s-10,1.8-10.8-8.9c-.6-8.8,3.6-19.5,14.5-19.8h0v-.1Z" fill="#fff"/>
  <path d="M287.5,482.8c8.8-1.6,12,7,13.9,7.1,4.1-1.2,4-4.1,9.1-4.6,21.6-2.5,10.5,29.4-3.4,28.3-7.1-.6-11.8-4.2-16.4-5.1-2.4-.5-5.8.5-7.5-.8-4.8-3.6-5.2-23.2,4.4-24.9h-.1Z" fill="#fff"/>
  <path d="M129.9,345.2c8.2-1.1,10.1,6.1,11.8,6.4,10.5-10.3,22.6-1.6,18.1,11.2-1.7,5-10.2,13.7-16.1,13.2-2.7-.2-3.1-2.4-4.3-2.6-1-.2-2.2,1.1-3.5,1.2-15.9.8-21.8-27.5-6.1-29.5h0l.1.1Z" fill="#fff"/>
  <path d="M98.5,477.4c1.7,5.7,6.5,9.7,11.9,12.2-9.7,4.5-19.7,9.1-25.9,17.8-29-7,.6-25.5,14-30h0Z" fill="#fff"/>
  <path d="M90.8,346.4c0,9.6,6.9,16.9,12.6,24-1.5,3.9-8.4,6.5-12.3,6.2-5-.4-19.5-20.1-20-25.6,7.4.7,13.3-1.4,19.6-4.6h.1Z" fill="#fff"/>
  <path d="M96.4,426.1l-20.1,17c-5.3,1.8-15.9-6.5-13.9-11,1-2.3,15.7-15.3,17.5-15.2,3.7,5.5,9.5,8.9,16.5,9.2h0Z" fill="#fff"/>
  <path d="M118.8,399.7c.5,6.3-11.2,21.6-16.8,23.3-5.5,1.7-17.4-2-17.9-8.2,6.9-3.8,12.2-8,16.2-14.5,6.6,4.6,11.9,2.2,18.5-.7h0v.1Z" fill="#fff"/>
  <path d="M118.1,457c26.2,9.7-3.2,47.3-16.2,19.4,6.6-6.1,17.9-8.5,16.2-19.4Z" fill="#fff"/>
  <path d="M116,615.4c-8.1,4.3-10.1-7.2-12.7-12.4-3.4-6.9-6.7-7.2-5.6-16.6.7-6,4.9-8.8,9.9-4,3.4,3.3,8.4,17.3,8.4,21.8v11.2h0Z" fill="#fff"/>
  <path d="M92.9,379.3c5.2.4,9.5-2,12.6-5.6h1.4c4.2,3.4,14.6,15.6,12.3,20.8-1.4,3.1-9.1,5.7-12.6,5.2-6.4-.9-4.8-5.1-6.8-9.4-.9-1.8-7.7-10.2-6.9-11h0Z" fill="#fff"/>
  <path d="M71.2,474.1c-1.8,1.8-10.5-8.8-11.5-10.6-5.1-8.5-5.6-17.8,0-26.3,3.8,4.9,8.1,9.3,15.1,9.2-.7,2.6-3.5,7.8-3.5,10.2v17.5h-.1Z" fill="#fff"/>
  <path d="M216.2,662.5c-3.9-2.4-7.2-2.7-7.7-7.5-1.5-13.3,1.4-28.2,1.4-41.5l4.5-4.3,1.7,53.3h.1Z" fill="#fff"/>
  <path d="M78.9,528.8c-11.7-3.4-12.9-17.6-9.8-27,3.7,4.6,7.5,7,13.3,8.9-2.9,5.8-4.1,11.6-3.5,18.1Z" fill="#fff"/>
  <polygon points="75.4 398.4 85.8 394.5 92.8 404.6 75.4 415.5 75.4 398.4" fill="#fff"/>
  <path d="M269.5,416.8c14.3-3.2,10.1,16.8-.7,17.8-.6-1.2.7-3,.7-3.6v-14.2h0Z" fill="#fff"/>
  <path d="M41,684.2c.5,5.3,1.6,10.4,4.2,15.1-10.7,1.5-15.9-14.2-4.2-15.1Z" fill="#fff"/>
  <path d="M314.9,472.9c1,5.9-7.5,6.8-10.4,11.1.9-4.4,4.2-13.9,10.4-11.1Z" fill="#fff"/>
  <path d="M150.4,338.5l-7,7.2c.6-2.9,3.4-7.1,7-7.2Z" fill="#fff"/>
  <path d="M299.6,482.7c-1.2-.5-5.1-5-4.2-5.9,2.7.2,4.1,3.8,4.2,5.9Z" fill="#fff"/>
  <path d="M324.6,507.3c1.9,1.3,7.2,15.9,7,17.3-.2,1.1-2.5,1.2-3,2.9-1.8,6.2,5.7,17.7-10.7,10.8-6.7-2.8-7.6-8.5-10.3-10.1-1.5-.9-8.5-1.6-11.8-2.8-3.9-1.4-8.7-4-11-7.5,1.6,2.1,11.5,6.6,7.7,1.3-.4-.6-13.7-11.9-1.5-7.2,13.9,6.2,22.5,8.8,31.9-5.6.5.4,1.1.5,1.5.9h.2Z" fill="#fff"/>
  <polygon points="292.2 474.8 292.6 475.1 292.2 475.4 292.2 474.8" fill="#fff"/>
  <path d="M471.8,282c56.3-6,62,71.7,10.9,76.8-56.1,5.5-62.7-71.3-10.9-76.8ZM473.2,285.3c-44.7,3.9-43.2,66.3-.9,70.3,55.5,5.2,55.8-75.1.9-70.3Z"/>
  <path d="M552.7,399.6c1.3,1.6,11.8.6,15.8,10.5,5.4,13.2-6.4,19.9-19.1,19.3-1.9,0-4-1.5-5.5-1.3-.3,0-2.9,3-4,3.6-7.6,4.3-20.8,3.6-25.6-4.2-33.1,8.7-33.6-35.7-1.1-30.4,4-14.2,28.5-18.4,36.7-5.6,1.5,2.3,2.5,7.8,2.8,8.2h0v-.1ZM549.9,402.9c-.9-12.3-9.9-18.2-22.7-14.8-7.3,2-9,7.1-12.5,12.7-30.5-6.7-28.8,33.1.8,23,8,10.1,19.2,10,27.6.3,24.8,10.5,33.8-19.2,6.8-21.2h0Z"/>
  <path d="M223.1,274.8c7.6-1.3,13.6,3.8,14.4,3.7.6,0,3.1-3,6-3.6,13.8-2.8,19,8.8,13,19.4-2.2,3.8-13.6,14.5-17.8,15.6-6.3,1.6-21.7-13.1-23.7-18.6-2.5-6.9-.3-15.1,8.1-16.5h0ZM223.8,278c-17.1,3.2,3.6,26.2,12.3,28.3,2.9.7,13.2-8.5,15.2-11.1,11.1-13.8-1.9-24.2-14.4-12.1-2.1,0-4.9-6.7-13.1-5.1h0Z"/>
  <path d="M435.9,266.7c1.3-.3,2,.6,2.8,1.3,1,.9,10.1,12.7,10.1,13.6.2,2.6-1.5,2.8-3.4,1.2-1-.9-10.4-13-10.5-13.9s0-1.9,1-2.2Z"/>
  <path d="M430.5,298.4c.4,2.3,0,3.6-2.7,2.9-1.6-.4-16.1-7.4-16.5-8.2l.4-2,18.8,7.3h0Z"/>
  <path d="M515.8,266.7c.9-.1,1.3.5,1.7,1,.7,1.8-9.8,16.4-11.5,16.1-.8-.2-1.1-1.4-1.1-2.2,0-1.2,9.9-14.7,10.9-14.9Z"/>
  <path d="M521.5,343.1c1.1-.3,13.7,6.5,15,7.6,2.3,1.9,2,4-1.4,3.3-1.7-.3-14.7-8.2-14.7-9.2l1.2-1.6h0l-.1-.1Z"/>
  <path d="M521.7,302.3c0-.9-.2-1.8.3-2.6.4-.6,13.9-6.3,14.9-6.5,2.9-.4,4.2,1.4,1.9,3.1-1.3,1-16.3,6.8-17.1,6h0Z"/>
  <path d="M527.7,321.4h18.2c1.5,1,1.5,2.3,0,3.3h-18.2c-1.5-1-1.5-2.3,0-3.3Z"/>
  <path d="M505.3,360.2c1.4-.3,8.6,10.3,9.6,12.1.7,1.3,2.2,2.6.2,3.7-1.2.3-1.8,0-2.7-.6-1.2-.9-10.6-14.4-7-15.1h0l-.1-.1Z"/>
  <path d="M453.4,360.9c5.6-1.8-2.1,13.2-3.3,14.7-1.8,2.2-4.3,2.6-4-.4,0-.8,6.5-14,7.3-14.3h0Z"/>
  <path d="M406.5,322h16.8c1.7,0,1.7,3.3,0,3.3h-16.8c-1.5-1-1.5-2.3,0-3.3Z"/>
  <path d="M479,274.9c-.6,2.7-3.5,1.9-3.5,0v-15.1l1.7-1c.3,0,1.8,2.1,1.8,2.3,0,3.6.7,10.8,0,13.8h0Z"/>
  <path d="M477.6,368.1h2.8c-.3,3.3,3.7,19.4-2.8,15.5v-15.5Z"/>
  <path d="M434.6,347.1c1.4-.3,3.6,0,2.7,1.9-1.6,1.3-7.6,6.2-9.5,4.9-2.9-2.1,5.7-6.6,6.8-6.8Z"/>
  <path d="M557.5,723.7c2.2,2.4,5.5-12.3,5.6-13.5.4-4.1-.2-17.2-3.2-20.1-.9-.9-3.2-.8-4.9-2-7.7-5.4-4.6-22.6,4.3-26.4,8.6,2.7,11.9,14.5,8.5,21.9-.8,1.8-4.4,4.9-4.5,5.4-.1.8,1.8,4.1,2.1,5.7,4.1,19.8-3.5,29.5-12,46.5-8.7,17.2-40.5,17.4-57.8,15.2-1.3-.2-2.2-1.7-3.5-1.7s-5,1.6-7.2,1.8c-7.3.5-17.4-.8-24.1-3.5-1.6-.7-2.8-2.6-4-2.9-1.9-.5-4.2.2-6.1-.2-20.8-4.4-22-14.3-5.5-26.1l1.6-32c-6-2.7-10.7-5.3-13.2-11.5-.8-2.1-1.3-7.1-1.7-7.9-.2-.3-3.2-1.5-4.1-2.4-7.1-7.4-9-16.1-5.5-25.6.9-2.4,5.2-7.7,5.4-8.8.3-1.9-2.1-6-2-9.1.2-11.4,7.6-12.8,13.4-19.1,1.7-1.8,2.3-4.9,3.9-6.9,9.5-12,27-14.2,39.2-4.2,9.1-6,23.6-7.4,33.1-1.3,3.8,2.5,5.3,6.5,7.5,8.1s7.3,2.2,10.4,4c5.8,3.6,9.9,11.4,10,17.9,0,2.6-1.9,7.7-1.7,9.2.3,1.7,4.4,7.6,5,11.1,1.3,6.8.7,13.7-3.9,19.2-1.7,2.1-6.9,5-7.2,5.7-1.1,2.2-.1,8.5-2.3,11.4,14.1,10,25,24.6,24.4,41.9h0v.2ZM532.4,667.2c.6-.6,4.7-1.5,6.8-3.8,4.8-5,5-13.2,3.2-19.4-.8-2.9-4.3-7.1-4.6-8.9-1.1-7,4.7-10-1.8-20-5.7-8.6-10.2-5.4-15.7-9-1.7-1.1-2.3-3.9-3.8-5.6-9.1-10.1-24.5-6.6-35-.6-13.1-10.4-27.6-8.7-37,4.8-.9,1.2-.8,3.2-1.7,4.3-.8,1.1-3.3,1.8-4.5,3-6,5.6-9.5,8.3-8.4,17.2.3,2.5,2.3,5,2.1,6.5s-4.2,5.5-5.3,7.6c-3.9,7.5-3.5,15.8,2.1,22.4,1.4,1.7,6.6,5.1,7,5.9,1.8,3.9-.7,6.4,3.9,11.5,5.2,5.9,8.7,4,14.4,6.2s8.6,10.2,19.6,10.6c4.4.2,7.4-2.5,9.8-2.6,6.2-.3,9.2,5.2,19.7.8,5.6-2.4,6.3-6.8,8.9-8.7,3.7-2.6,10.7-.7,15.8-6.9,4.1-4.9,3.2-14.1,4.4-15.3h.1ZM559.9,665.1c-6.3,4.7-8.8,17.5-.6,21.6,9.8-3.5,7.2-16.3.6-21.6ZM471.3,710.9v18.4c0,4.2-4.5,4.1-7,6-3.8,2.9-8.7,14.2-.7,14.8-.8-1.8,3.5-8.2,5.2-7.9,3.3,3.2-3.6,5.6-1.7,9.8l6.2.7c-.1-2.8,0-7.5,4.2-7.2l-.7,7.9h10.9c2.5,0,3.5-5.8,3.8-7.7.4-3.5,1.1-26.9,2.2-27.9h2.8l-1.4,22.7,1,1,10.1-4.9c-5.7-14.9,8.2-34.6,26.1-31.7l.7,3c-12.5-2.2-23.4,8.5-24.5,19.5-.5,5.1,2.1,8.1,1.7,12.8-.8,1.1-9.6-.4-13.9,6.1-2.9,4.4-3,7.7,3.6,7-.5-4.3,5.3-8.6,9.5-6.6,2.5,3.2-7.8,2.2-5.9,7.2,14.3,1.5,39.6-.2,46.8-14.2,10.5-20.4-.8-42.8-19.3-54.8-2.4,1.3-3.8,3.1-6.4,4.4s-9.7,2.4-10.5,3c-.5.4-.7,2-1.6,2.8-7.8,7.2-10.7,8.2-22,7.5-2-.1-4.9-1.7-6.4-1.6-1.8,0-6,2.3-9.1,2.4-5,0-12.1-2.5-16.1-5.3-2.8-1.9-4.7-6.1-8.8-5.9l-1.6,33.1c-3.4,4.2-15.2,9.8-9.7,16.3.9-3,3.2-6.8,7-6.6,1.8,1.8-8.7,8.9-.4,10.5,2.1-2.3,2.4-6.6,6.7-5.9l-2.1,7.2h4.4c1.9-5.6,2.4-10,7.5-14.1,1.3-1,4.5-1.6,5.2-3,1.2-2.4,0-19.3,2.1-19.8.9-.2,1.2.5,1.7,1h.4Z"/>
  <path d="M179.1,703.9c1.1.7,11.6-5.9,16.6,3.1s-3.9,15.1-3.4,16c4.9,1.3,5.5,7.4,4.9,11.5-1.3,8.8-14.1,11.1-21,6.9l-1.4,19.1c7.3-10.3,19-15.5,32.3-13.5,3,7.8-5.4,17-12.1,20.9-17.4,10.1-59.9,5.9-57.2-20.5,9.1-2.3,19.2.8,26.2,6.5l7,7.9,1.1-14.5c-14.2,4.6-23.5-2.7-18.9-16.5-17.2-1.7-13.2-24.5,4.2-21.1-1.6-13.8,16.1-18.7,21.8-6h0l-.1.2ZM162.2,714.4c-2.5,1.3-10.4-4.7-15,1.4-3.9,5.1.4,11.3,6.5,12.4,1.9.3,3.9-1.5,5,.5.7,1.9-7.6,11.3.8,15.7,8.8,4.6,12.1-2.6,15.8-8.1,2.3-.4,4.2,5.5,12.7,3.4,6.8-1.7,8.3-9.7,3-13.7-1.8-1.3-4.5-1.1-5-3.3,0-1.4,4-2.8,5.3-4.3,6.5-7.1-1.2-17-9.1-11.2-1.8,1.3-2.2,4.2-4.9,4-1.7-.5-.1-13.3-11.1-11-8.3,1.8-2.7,13.6-4.1,14.3h0l.1-.1ZM142.4,750.1c-3.1,1.1,1.1,7.8,2.4,9.4,3.5,4.5,8.9,7.3,14.6,8.7,1.8.5,10.1,2.5,10.6.5-1.9-8.6-18.3-21.9-27.6-18.7v.1ZM204.3,750c-13.9-1.3-25.4,6.6-28.7,19.1,12.9,1,26.6-6.5,28.7-19.1Z"/>
  <path d="M300.4,698.6c1.3.7,6.9-4.5,13.6-1.3,7.1,3.4,6.6,13.5,1,18.1,14.3,12-1.2,24.8-16.1,18.2-2.7,4.9-.8,10.5-2.2,15.8.7.8,6.5-5.2,7.5-5.8,5.5-3.5,12.9-4.8,19-1.9,3.3,8.4-9.7,18.4-17.4,20.6-13.5,3.8-43,.4-46-15.9-1.9-10.5,3.5-9.7,12.5-7.8,9.5,2.1,17.5,9.1,19.6,18.1l2.1-16.5c-11.5,4.2-22.4-1.3-18.2-13.8-17.4-2.2-13.9-24.2,3.5-21.7-2.6-13,15.8-18.3,21.1-6h0v-.1ZM295.2,696.9c-2.4-2.2-5.9-2.7-8.8-1.2-7.9,4,.8,14.3-4.5,14-3.4-.2-5.9-4.6-11.4,0-7.5,6.5,2,15,10.2,13.2.6.6-6.3,12.8,2.6,15,8.4,2,11.4-3.2,14.6-9.1,2.6-.2,3.9,1.9,6.2,2.7,12.6,3.9,18.9-10.8,5.4-14-2.5-3.3,1.9-3.5,3.6-5.1,6.7-6.5-1.1-17.4-9.8-11.2-1.9,1.4-1.9,4.1-5.2,3.3-.5-2.3-1.3-6-3.1-7.7h0l.2.1ZM289.8,759.9c-3.5-11.7-13.2-19.8-26.6-19.1-1.1,12.5,15.2,20.3,26.6,19.1ZM312,743.6c-6.2,1-13.5,9.5-16,14.6-2.2,4.7,9.6.7,11.7-.2,6.9-2.9,21.1-17.3,4.2-14.5h0l.1.1Z"/>
  <path d="M300.3,620.3c15.2-7.1,11.2,10.2,4.2,16.1-3.5,3-15,1.4-20.1,1.8-7.5-6.1-15.8-22,2-17.6,2.8-10.2,10.7-10.1,14-.4l-.1.1ZM295.2,617.2c-4.6-3.9-6.2,6.8-6.1,9.7-4.1.4-5.2-4.4-9.8-3.3,0,4.3,3.6,7.6,5.8,11h16c2.2-1.2,9.5-12.1,5.2-12.4-5.4-.5-3.5,6.8-8.1,5.7-1.1-.8-.5-8.6-3-10.7h0Z"/>
  <path d="M70.5,736.9c15.8-10.4,12.6,8.5,5.2,15.8-3.9,3.9-15.2,1.4-20.8,1.9-7.5-6-14.9-20.7,2.3-17,1.6-9.1,11.5-9.8,13.4-.6l-.1-.1ZM71,743.3c-5,3.9-1.6-12.8-8.7-8.8l-3.4,9.7c-3.5-.7-3.8-5.1-8.8-4,1.2,10.7,8.8,13.2,19.3,11.9,6.4-.8,11.5-15.9,7-15.2-1.7.3-4.4,5.5-5.5,6.4h.1Z"/>
  <path d="M379,749.8c-1.8-1.1-6.8-9.3-7.1-11.5-.9-6.9,6.6-7.4,11.1-3.4,2.5-8.7,9-10.3,13-1.3,16.9-10.2,11.1,15.8.7,17.2-2.8.4-15.8.3-17.7-.9h0v-.1ZM375.3,736.3c-1.1,1.7,4.8,10.3,6.6,11.2,2.2,1.1,13.4.4,15.6-.5,3-1.2,9.1-13.8,3-12.4-3.3.7-4,6.4-6.6,5.7-1.8-.5-.2-8.7-4.2-9.2l-5.6,9.9c-2.2.7-6.4-7.9-8.7-4.5h0l-.1-.2Z"/>
  <path d="M243.6,508.4c-.2.2-2.7-.1-3.5,0-1.3-6.7,5.5-1.9,3.5,0Z"/>
  <path d="M191.7,508.4c-.2.4-3.2.4-3.5,0-2.5-4,5.9-4.1,3.5,0Z"/>
  <path d="M372.9,440.3c1.3-1.2,2.2-5,4.8-4.4s-.7,5.3-1.7,6.3c-5.9,5.9-21.6,5.1-23.9-4,1.6-4.1,3.7.9,5.4,2.2,3.9,3,11.7,3.2,15.4-.1h0Z"/>
  <path d="M365.4,418.9c2,6.1-7.4-.3-7,6.2.4,5.4,9.7,2.6,7.8,5.9-1.5,2.6-9.6.9-10.9-2.9-2.5-7.7,2.7-10.5,10.1-9.2h0Z"/>
  <path d="M396.3,418.1c-5,.7-2.7-4.4-6.8-5.1-6.1-1.2-6.6,4.4-10.7,4.2.2-10,18.5-10.7,17.5,1h0v-.1Z"/>
  <path d="M352.2,416.8c-4.3.3-3-4.8-7.4-5.3-4.8-.5-5.2,4.1-7,4.5-5,0-.4-5.4,1.5-6.5,6-3.3,14.1.1,13,7.2h0l-.1.1Z"/>
  <path d="M235.8,442.5c-1.7,14.4-29.8,14.2-30.8-.7,4.3-.5,4.3,4.5,8.2,6.5,4.2,2.2,10.6,1.6,14.8-.4,3.4-1.7,4-5.9,7.9-5.4h-.1Z"/>
  <path d="M204.4,422.7c-.9-.5-.3-4.5-6-4.6-4.9,0-5.2,2.9-7.7,6-4.7,1-1.1-9.4,7.7-9.3,10.3.2,11.3,10.8,6,7.9h0Z"/>
  <path d="M248.7,419.9c-.7-.5-.9-1.9-1.9-2.5-5.2-3.1-8.2.7-10.6,4.6-4.8,1.4-1.9-8.9,6.4-9.1,2.8,0,7.3,1.9,8.7,4.2,1.6,2.7,0,4.8-2.6,2.8h0Z"/>
  <path d="M231.5,426.9c3,6-1.3,11.3-8.2,10.4l.3-2.7c2.9-.9,5.9-1.5,5.3-5.2l-8.4-.7.3-2.7c1.2-1.6,8.9-.1,10.7.9h0Z"/>
  <path d="M120.1,648.1l-1.2,8c3.1,4.2,4.7-.7,8.3-.2-.5,8.9-8.4,3.3-10.2,3.5-.6,0-2.2,2.2-4.3,2.3-2.3,0-6.1-2.5-5.1-5.1.7-.7,8.6,4.3,7.7-2.9,0-.8-9-7.9,4.8-5.6h0Z"/>
  <path d="M100.4,641.5l3.1.2c5.1,8.5-8.5,9-3.1-.2Z"/>
  <path d="M129.9,645.8l-3.3.8c-3.6-7.7,5.9-8.1,3.3-.8Z"/>
  <path d="M106.2,318.7c2.2,9.2-17.1,8.7-12.9.6l6.2,3.1c3.3-.7,3-4.7,6.8-3.8h0l-.1.1Z"/>
  <path d="M89.3,309.6c1.8,1,.5,6.8-2.9,4.6-3-2-.2-6.4,2.9-4.6Z"/>
  <path d="M473.2,285.3c54.9-4.8,54.6,75.5-.9,70.3-42.3-4-43.8-66.3.9-70.3ZM465.9,318.5c.7.5,1.5,1.2,2.2.3,1.8-3-2.2-6-5.1-6.5-9-1.6-11.3,7.1-8.2,7.7,2.5.5,2-7.4,9.3-3.4,1.1.6,1.3,1.5,1.8,1.9h0ZM499.3,320c2.3-9.1-11.9-10.2-13.6-2.7-1.2,5.4,4.4-.7,4.7-.8,6.5-2.6,4.4,3.4,8.9,3.5h0ZM469.8,328.7l-3.3.9c2.3,9.9,19.7,8.9,21.7-.7-1.6-4.2-4.7,2.2-7.4,3.6-5.2,2.6-8.3.7-11-3.8h0Z" fill="#fff"/>
  <path d="M549.9,402.9c27,2,18,31.6-6.8,21.2-8.4,9.7-19.6,9.8-27.6-.3-29.6,10.1-31.3-29.7-.8-23,3.4-5.5,5.2-10.7,12.5-12.7,12.8-3.5,21.8,2.5,22.7,14.8h0Z" fill="#fff"/>
  <path d="M223.8,278c8.2-1.5,11,5.1,13.1,5.1,12.5-12,25.4-1.7,14.4,12.1-2,2.5-12.2,11.8-15.2,11.1-8.8-2.1-29.4-25.1-12.3-28.3h0Z" fill="#fff"/>
  <path d="M471.3,710.9c-.5-.5-.9-1.2-1.7-1-2.2.5-.9,17.3-2.1,19.8-.7,1.4-3.9,2-5.2,3-5.1,4.1-5.6,8.5-7.5,14.1h-4.4l2.1-7.3c-4.3-.7-4.6,3.6-6.7,5.9-8.3-1.6,2.2-8.7.4-10.5-3.8-.2-6.1,3.6-7,6.6-5.6-6.5,6.3-12,9.7-16.3l1.6-33.1c4.1-.2,6,4,8.8,5.9,4,2.8,11.1,5.3,16.1,5.3,3.1,0,7.3-2.3,9.1-2.4,1.5,0,4.4,1.5,6.4,1.6,11.3.7,14.2-.3,22-7.5.8-.8,1-2.4,1.6-2.8.8-.6,7.9-1.7,10.5-3s4-3.1,6.4-4.4c18.4,12,29.8,34.5,19.3,54.8-7.2,14-32.5,15.7-46.8,14.2-1.9-5,8.4-4,5.9-7.2-4.2-2-10,2.3-9.5,6.6-6.6.7-6.5-2.6-3.6-7,4.3-6.5,13-5,13.9-6.1.4-4.7-2.2-7.7-1.7-12.8,1.1-11,11.9-21.7,24.4-19.5l-.7-3c-17.9-2.9-31.8,16.8-26.1,31.7l-10.1,4.9-1-1,1.4-22.7h-2.8c-1.1,1-1.8,24.4-2.2,27.9-.2,1.9-1.2,7.7-3.8,7.7h-10.9l.7-7.9c-4.1-.3-4.3,4.5-4.2,7.2l-6.2-.7c-1.9-4.2,5-6.6,1.7-9.8-1.8-.3-6.1,6.1-5.2,7.9-8-.6-3.1-11.9.7-14.8,2.5-1.9,7-1.8,7-6v-18.4h0l-.3.1Z" fill="#fff"/>
  <path d="M532.4,667.2c-1.2,1.2-.3,10.4-4.4,15.3-5.1,6.2-12.1,4.3-15.8,6.9-2.7,1.9-3.3,6.3-8.9,8.7-10.5,4.4-13.5-1.1-19.7-.8-2.4.1-5.4,2.8-9.8,2.6-11-.4-13.8-8.5-19.6-10.6s-9.3-.3-14.4-6.2c-4.5-5.2-2.1-7.7-3.9-11.5-.4-.9-5.6-4.3-7-5.9-5.6-6.6-6-14.9-2.1-22.4,1.1-2.1,5.1-6,5.3-7.6s-1.8-4-2.1-6.5c-1.1-8.9,2.5-11.6,8.4-17.2,1.2-1.2,3.7-1.9,4.5-3,.9-1.2.8-3.1,1.7-4.3,9.4-13.5,23.9-15.2,37-4.8,10.5-6,25.9-9.5,35,.6,1.5,1.7,2.2,4.5,3.8,5.6,5.5,3.6,10,.4,15.7,9,6.5,9.9.7,13,1.8,20,.3,1.8,3.7,6,4.6,8.9,1.8,6.3,1.6,14.4-3.2,19.4-2.1,2.2-6.2,3.2-6.8,3.8h-.1ZM463,614.3c-8.5-10.2-24-5.2-21.8,9,.4,2.3,2.7,5.3,2.7,6.7,0,.9-3.7,7.3-4.4,9.7-16.7,56.7,90.2,63,83.6,4.8-.2-2.4-3-9.6-2.8-10.4.2-.6,2.1-1.1,2.9-2.1,6.9-9.8-.9-21.5-13.4-18.5-2.4.6-4.6,3.6-5.9,3.6-1,0-8-3.2-10-3.8-10.6-2.8-20.4-1.7-30.9,1h0Z" fill="#fff"/>
  <path d="M559.9,665.1c6.6,5.2,9.2,18-.6,21.6-8.2-4-5.8-16.8.6-21.6Z" fill="#fff"/>
  <path d="M162.2,714.4c1.4-.7-4.2-12.5,4.1-14.3,10.9-2.3,9.4,10.6,11.1,11,2.7.2,3.1-2.7,4.9-4,7.9-5.8,15.7,4.1,9.1,11.2-1.4,1.5-5.3,2.9-5.3,4.3.5,2.2,3.2,1.9,5,3.3,5.4,4,3.8,12.1-3,13.7-8.5,2.1-10.4-3.8-12.7-3.4-3.7,5.5-7.1,12.7-15.8,8.1-8.3-4.4-.1-13.8-.8-15.7-1.1-2-3.1-.2-5-.5-6-1-10.3-7.3-6.5-12.4,4.6-6,12.5-.1,15-1.4h0l-.1.1ZM170.5,714c-16.5,2.5-9.9,25.5,5.1,19.9,10.7-4,9.6-22.1-5.1-19.9Z" fill="#fff"/>
  <path d="M142.4,750.1c9.2-3.3,25.6,10.1,27.6,18.7-.5,2-8.9,0-10.6-.5-5.6-1.4-11.1-4.2-14.6-8.7-1.3-1.6-5.5-8.3-2.4-9.4v-.1Z" fill="#fff"/>
  <path d="M204.3,750c-2.1,12.6-15.8,20.1-28.7,19.1,3.4-12.5,14.9-20.4,28.7-19.1Z" fill="#fff"/>
  <path d="M295.2,696.9c1.8,1.7,2.6,5.4,3.1,7.7,3.3.8,3.3-1.9,5.2-3.3,8.6-6.3,16.5,4.6,9.8,11.2-1.7,1.7-6.1,1.8-3.6,5.1,13.5,3.2,7.2,17.9-5.4,14-2.3-.7-3.6-2.8-6.2-2.7-3.2,5.9-6.2,11.1-14.6,9.1-8.9-2.1-2-14.4-2.6-15-8.2,1.8-17.7-6.7-10.2-13.2,5.4-4.7,8-.3,11.4,0,5.3.3-3.4-10,4.5-14,2.9-1.5,6.5-1.1,8.8,1.2h0l-.2-.1ZM291.7,708.1c-11.4,1.8-11.4,17.3-.5,19.3,15.3,2.8,21-22.6.5-19.3Z" fill="#fff"/>
  <path d="M289.8,759.9c-11.5,1.2-27.7-6.5-26.6-19.1,13.4-.7,23.1,7.4,26.6,19.1Z" fill="#fff"/>
  <path d="M312,743.6c16.9-2.8,2.7,11.5-4.2,14.5-2.1.9-14,4.9-11.7.2,2.4-5.2,9.8-13.6,16-14.6h0l-.1-.1Z" fill="#fff"/>
  <path d="M295.2,617.2c2.4,2.1,1.9,10,3,10.7,4.6,1.1,2.6-6.1,8.1-5.7,4.3.4-3,11.3-5.2,12.3h-16c-2.1-3.3-5.8-6.6-5.8-10.9,4.6-1.1,5.7,3.7,9.8,3.3-.1-2.9,1.5-13.6,6.1-9.7h0Z" fill="#fff"/>
  <path d="M71,743.3c1.1-.8,3.8-6.1,5.5-6.4,4.5-.7-.6,14.3-7,15.2-10.5,1.3-18.1-1.2-19.3-11.9,4.9-1.2,5.3,3.3,8.8,4l3.4-9.7c7.1-4,3.7,12.7,8.7,8.8h-.1Z" fill="#fff"/>
  <path d="M375.3,736.3c2.3-3.4,6.5,5.2,8.7,4.5l5.6-9.9c4,.5,2.4,8.7,4.2,9.2,2.6.8,3.3-5,6.6-5.7,6.2-1.3,0,11.2-3,12.4-2.3,1-13.4,1.6-15.6.5-1.7-.9-7.7-9.5-6.6-11.2h0l.1.2Z" fill="#fff"/>
  <path d="M469.8,328.7c2.7,4.5,5.8,6.4,11,3.8,2.7-1.4,5.8-7.8,7.4-3.6-2,9.6-19.5,10.7-21.7.7l3.3-.9h0Z"/>
  <path d="M465.9,318.5c-.5-.4-.7-1.3-1.8-1.9-7.2-3.9-6.8,4-9.3,3.4-3.1-.7-.8-9.3,8.2-7.7,2.9.5,6.9,3.5,5.1,6.5-.7,1-1.5.2-2.2-.3h0Z"/>
  <path d="M499.3,320c-4.6-.1-2.4-6.1-8.9-3.5-.3.1-5.9,6.3-4.7.8,1.7-7.5,16-6.4,13.6,2.7h0Z"/>
  <path d="M463,614.3c10.5-2.7,20.2-3.8,30.9-1,2,.5,9.1,3.8,10,3.8,1.4,0,3.6-3,5.9-3.6,12.4-3,20.3,8.6,13.4,18.5-.7,1-2.7,1.5-2.9,2.1-.2.9,2.6,8,2.8,10.4,6.6,58.2-100.2,51.9-83.6-4.8.6-2.4,4.4-8.8,4.4-9.7,0-1.4-2.3-4.4-2.7-6.7-2.2-14.2,13.3-19.2,21.8-9h0ZM450.1,612.6c-6,1.2-7.7,9.7-3.7,13.7l12.9-10.3-.7-1.9c-2.6-1.7-5.5-2.1-8.6-1.5h.1ZM475.3,615.2c-42.2,4.2-48.3,62.8.5,66.4,62.2,4.5,55-71.8-.5-66.4ZM507,619.6l11.6,11.2c9.5-8-3.1-21-11.6-11.2h0Z"/>
  <path d="M170.5,714c14.7-2.2,15.8,15.9,5.1,19.9-15,5.6-21.6-17.4-5.1-19.9ZM176.8,729.4c7-6.5-1.9-16.8-9.9-10.3-7,5.6,2.4,17.4,9.9,10.3Z"/>
  <path d="M291.7,708.1c20.5-3.3,14.8,22.1-.5,19.3-10.9-2-10.8-17.5.5-19.3ZM291.7,711.3c-11.5,2.5-1.4,20.3,7.8,10,5.4-6.1-.4-11.6-7.8-10Z"/>
  <path d="M475.3,615.2c55.5-5.5,62.6,70.9.5,66.4-48.7-3.5-42.7-62.2-.5-66.4ZM462.2,645.3c6.1-.3,1-6.8-2.8-7.6-7.9-1.6-10.7,8.2-6.1,6.9,1.8-.5,4.8-9.1,8.9.7h0ZM500.7,649.3c1.9-1.7-2.1-7.3-5-8.1-8.6-2.5-11,7.4-7.3,6.8,1.3-.2,1.5-4.7,6.9-3.2,1.8.5,2.4,2.8,2.7,4.4.3.2,2.6.2,2.7,0h0v.1ZM483.9,661.2c-.9-.9-11.1,8-11.8-3.6,2.6-1.9,8.6-4.5,5.1-8.2-5.3-1.4-13.8-2.3-11.4,5.4.7,2.2,6.1,3.4,1.5,7-2.7,1.7-6.2-1.2-6.6-3.9-5.6,1-.7,6.3,2.4,7.3,4.6,1.4,5.6-1.3,7.1-1.2s2.9,4.5,9.6,2.9c2-.5,5.7-4.1,4-5.8h0l.1.1Z" fill="#fff"/>
  <path d="M507,619.6c8.5-9.8,21.1,3.2,11.6,11.2l-11.6-11.2h0Z" fill="#fff"/>
  <path d="M450.1,612.6c3.1-.6,6-.2,8.6,1.5l.7,1.9-12.9,10.3c-4.1-4-2.4-12.5,3.7-13.7h-.1Z" fill="#fff"/>
  <path d="M176.8,729.4c-7.5,7.1-16.9-4.7-9.9-10.3,8-6.4,16.9,3.8,9.9,10.3Z" fill="#fff"/>
  <path d="M291.7,711.3c7.4-1.6,13.2,3.9,7.8,10-9.2,10.3-19.3-7.4-7.8-10Z" fill="#fff"/>
  <path d="M177,223.2c.5-.7-.3-1.8-.7-1.3-.5.7.3,1.8.7,1.3Z"/>
  <path d="M483.9,661.2c1.6,1.7-2,5.3-4,5.8-6.7,1.5-8.2-2.8-9.6-2.9s-2.5,2.6-7.1,1.2c-3.2-1-8-6.2-2.4-7.3.4,2.7,3.9,5.5,6.6,3.9,4.6-3.6-.8-4.8-1.5-7-2.5-7.7,6-6.8,11.4-5.4,3.5,3.7-2.4,6.3-5.1,8.2.7,11.6,10.9,2.7,11.8,3.6h0l-.1-.1Z"/>
  <path d="M500.7,649.3c-.1,0-2.4.1-2.7,0-.3-1.6-.9-3.8-2.7-4.4-5.4-1.6-5.5,2.9-6.9,3.2-3.7.6-1.3-9.3,7.3-6.8,2.9.8,6.9,6.4,5,8.1h0v-.1Z"/>
  <path d="M462.2,645.3c-4.1-9.8-7.1-1.2-8.9-.7-4.6,1.3-1.8-8.5,6.1-6.9,3.8.8,8.9,7.3,2.8,7.6h0Z"/>
  <ellipse cx="103.5" cy="309.2" rx="3" ry="2.5"/>
  <path d="M160.88,87.81c1.3,1.6,11.8.6,15.8,10.5,5.4,13.2-6.4,19.9-19.1,19.3-1.9,0-4-1.5-5.5-1.3-.3,0-2.9,3-4,3.6-7.6,4.3-20.8,3.6-25.6-4.2-33.1,8.7-33.6-35.7-1.1-30.4,4-14.2,28.5-18.4,36.7-5.6,1.5,2.3,2.5,7.8,2.8,8.2h0v-.1ZM158.08,91.11c-.9-12.3-9.9-18.2-22.7-14.8-7.3,2-9,7.1-12.5,12.7-30.5-6.7-28.8,33.1.8,23,8,10.1,19.2,10,27.6.3,24.8,10.5,33.8-19.2,6.8-21.2h0Z"/>
  <path d="M158.08,91.11c27,2,18,31.6-6.8,21.2-8.4,9.7-19.6,9.8-27.6-.3-29.6,10.1-31.3-29.7-.8-23,3.4-5.5,5.2-10.7,12.5-12.7,12.8-3.5,21.8,2.5,22.7,14.8h0Z" fill="#fff"/>
  <path d="M496.16,200.67c1.3,1.6,11.8.6,15.8,10.5,5.4,13.2-6.4,19.9-19.1,19.3-1.9,0-4-1.5-5.5-1.3-.3,0-2.9,3-4,3.6-7.6,4.3-20.8,3.6-25.6-4.2-33.1,8.7-33.6-35.7-1.1-30.4,4-14.2,28.5-18.4,36.7-5.6,1.5,2.3,2.5,7.8,2.8,8.2h0v-.1ZM493.36,203.97c-.9-12.3-9.9-18.2-22.7-14.8-7.3,2-9,7.1-12.5,12.7-30.5-6.7-28.8,33.1.8,23,8,10.1,19.2,10,27.6.3,24.8,10.5,33.8-19.2,6.8-21.2h0Z"/>
  <path d="M493.36,203.97c27,2,18,31.6-6.8,21.2-8.4,9.7-19.6,9.8-27.6-.3-29.6,10.1-31.3-29.7-.8-23,3.4-5.5,5.2-10.7,12.5-12.7,12.8-3.5,21.8,2.5,22.7,14.8h0Z" fill="#fff"/>
  <path d="M282.63,161.77c1.3,1.6,11.8.6,15.8,10.5,5.4,13.2-6.4,19.9-19.1,19.3-1.9,0-4-1.5-5.5-1.3-.3,0-2.9,3-4,3.6-7.6,4.3-20.8,3.6-25.6-4.2-33.1,8.7-33.6-35.7-1.1-30.4,4-14.2,28.5-18.4,36.7-5.6,1.5,2.3,2.5,7.8,2.8,8.2h0v-.1ZM279.83,165.07c-.9-12.3-9.9-18.2-22.7-14.8-7.3,2-9,7.1-12.5,12.7-30.5-6.7-28.8,33.1.8,23,8,10.1,19.2,10,27.6.3,24.8,10.5,33.8-19.2,6.8-21.2h0Z"/>
  <path d="M279.83,165.07c27,2,18,31.6-6.8,21.2-8.4,9.7-19.6,9.8-27.6-.3-29.6,10.1-31.3-29.7-.8-23,3.4-5.5,5.2-10.7,12.5-12.7,12.8-3.5,21.8,2.5,22.7,14.8h0Z" fill="#fff"/>
</svg>