<?xml version="1.0" encoding="UTF-8"?>
<svg id="Camada_1" xmlns="http://www.w3.org/2000/svg" version="1.1" viewBox="0 0 595.28 841.89">
  <!-- Generator: Adobe Illustrator 29.0.0, SVG Export Plug-In . SVG Version: 2.1.0 Build 186)  -->
  <path d="M.14,841.29V-.06h595v841.34H.14ZM591.19,3.23H3.43v647.77c14.62,5.46,26.33-6.34,41.77-5.6,12.49.59,22.77,10.43,35.81,9.22-7.86-17.02-14.59-35.21-15.76-54.24-.24-3.87-.65-15.01.13-18.25,1.34-5.59,29.81-16.69,36.02-19.53v-13.8c-11.2,7.38-26.38,10.25-38.59,3.41-6.12-3.43-11.98-11.76-8.01-18.77,8.13-5.62,16.38,8.07,24.8-2.19.31-4.4-5.13-3-8.45-4.47-29.76-13.21-16.09-66.28,16.68-63.34,4.53.41,15.55,7.49,16.85,2.21l-1.62-39.78c-8.06.83-12.99,4.18-21.25.86-20.72-8.33-8.11-28.22-.42-40.89,1.65-2.72,3.69-5.68,6.2-7.67.22-1.38-4.2-4.5-5.12-7.31-4.02-12.19,10.92-12.3,14.97-3.79l1.68-.33c.54-.87,1.56-13.13,1.34-14.18-.3-1.46-2.5-1.82-3.03-2.76-7.05-12.48,16.27-15.5,14.34-2.65-.7,4.69-4.2,1.63-2.42,11.16.1.51,1.06.51,1.22.99.57,1.72-.69,8.58,5.28,5.78,1.73-.81,4.06-11.26,3.98-13.21-.13-3.16-2.25-3.36-2.63-5.92-1.83-12.08,19.55-11.05,14.6,2.19-.74,1.99-3.46,2.67-4.06,5.8-.93,4.79.7,11.19.92,16.08,1.07,1.82,6.43-3.46,7.78-4.09,20.01-9.4,17.33,17.74-1.52,16.56l1.98,16.43,15.11,5.92c.57-.37,2.02-12.82,1.92-13.52-.24-1.71-2.38-2.43-2.93-4.18-3.3-10.56,15.49-12.81,12.71.15-.82,3.84-2.81,3.14-1.82,9.98.46,3.19-.1,5.61,3.68,5.54s6-7.94,6.05-10.98c.04-2.8-1.77-3.28-1.9-5.73-.44-8.62,15.36-8.7,13.71,1.16-.86,5.12-5.78,2.8-5.78,10.68v10.19c6.15-.05,14.38-9.19,20.08-3.32,7.32,7.54-4.32,16.3-12.15,15.19l1.59,20.99c9.67-8.27,17.78-18.2,27.59-26.33.7-.58.78-2.28,1.12-2.48,2.26-1.27,16.45.9,20.08-.33,2.03-.59,2.58-15.88,2.53-18.89-8.77.5-61.12-16.73-62.66-22.71-.21-.83.93-2.91.47-3.52-.31-.42-8.45-1.92-10.21-2.62-5.38-2.16-25.77-12.88-23.21-19.96.38-1.06,2.51-1.6,2.52-2.09,0-.78-9.74-7.9,4.61-8.88-4.2-15.59,21.85-2.32,26.63,2.63.65-3.46,1.58-7.24,5.76-7.8,3.06.3,8.79,10.73,9.7,13.73,10.5.14,21.42,5.53,32.06,7.71,6.08,1.25,12.41,1.94,18.56,2.8l-3.28-23c-9.54.33-13.68-8.01-10.99-16.57,2.05-6.55,6.03-4.78,7.05-5.78.5-.5-1.42-8.86.66-13.98,3.25-7.98,9.59-8.1,14.16-11.61,1.35-1.04,4.53-7.29,6.9-9.53,18.27-17.27,56.13-17.91,74.39-.37,2.86,2.74,6.69,10.68,7.94,11.65,5.12,3.95,11.93,4.79,13.66,14.29.63,3.48-1.61,9.12-1.3,9.5,1.08,1.3,4.6.91,6.21,5.29,3.87,10.49-1.86,15.38-10.78,18.85l-3.38,21.93c16.95-.08,32.87-6.71,49.06-10.48,1.54-.36,3.02.19,4.45.6,1.74-.22,13.53-26.39,16.5-5.9,4.64-4.41,30.24-17.34,22.69-1.32h5.26c-.47-14.88,15.27-24.53,28.85-24.39,22.17-45,69.5-78.37,120.39-80.77V3.23h.03,0ZM591.19,232.63c-50.36,3.19-95.37,34.82-118.34,78.87,6.71-.32,12.3,3,17.98,5.88,20.1-36.27,58.25-63.59,100.36-66.35v-18.4ZM591.19,253.01c-41.33,3.45-79.27,29.76-98.38,66.06l5.69,10.18c1.57-2.42,10.68-2.3,11.13-2.66.34-.27,2.04-6.14,3.31-8.01,17.69-26.11,46.18-45.44,78.24-47.83v-17.75h.01ZM340.29,294.18c-8.19-33.84-46.56-42.02-74.49-25.68-23.2,13.57-32.21,66.31,3.09,58.3,5.26-1.19,12.04-4.27,16.9-6.77,3.5,8.43,12.75,7.03,17.1,0,2.73,2.41,10.09,5.34,14,6.38,26.15,6.99,28.07-12.93,23.4-32.25v.02ZM591.19,272.72c-33.93,3.32-63.51,24.01-79.56,53.56,6.96.37,10.92,4.4,16.07,8.2,13.56-22.52,36.85-40.38,63.5-44.02v-17.75h-.01ZM248,284.56c-8.02,3.07-13.53,14.49-8.78,22.26,1.11.16,3.14.45,3.89-.54,1.24-1.63,2.21-18.32,4.89-21.72ZM341.37,285.87l3.39,19.94c3.82,3.24,5.57-1.17,5.75-4.6.33-6.26-3.38-12.79-9.14-15.34ZM591.19,292.44c-20.93,2.95-43.2,17.16-55.78,33.96-5.77,7.7-7.34,9.78-4.04,19.29l15.11.66c6.37-19.65,25.61-32.15,44.71-38.13v-15.78h0ZM234.66,309.02c-8.47,2.02-5.21,19.62,4.36,18.19l3.51-16.74c-.5-1.74-6.31-1.82-7.88-1.45h.01ZM347.28,327.28c13.75-.19,12.83-21.77-1.98-18.41l1.98,18.41ZM591.19,310.85c-12.81,3.45-27.41,11.96-35.5,22.68-3.4,4.5-4.68,9.47-7.9,13.8,20.08,18.55-4.74,32.06-23.97,30.55-3.94-.31-14.13-4.51-15.04-4.44-.63.05-7.8,4.13-10.28,4.8-8.59,2.29-17.74,2.01-26.16-.81-2.62-.88-8.36-4.62-9.74-4.77-2.56-.29-9,1.99-12.43,2.01-8.27.03-17.68-3.32-22.89-9.83-2.14,3.21-16.28,2.59-16.89,3.2-.72.74,2.08,3.56-3.33,7.52-14.38,10.49-42.02,13.05-59.03,17.18l2.53,19.35,19.31-.09c4.54-17.71,30.86-21.32,32.92-.53l7.62-.36c4.04-21.29,33.36-13.06,26.94,7.54,5.57-2.01,15.32,10.54,16.43,10.86,1.32.38,7.85-4.38,10.07.5.93,8.78-9.06,11.79-14,16.89,5.26,4.88,28.54,25.43,28.93,31.21.09,1.31-1.64,7.9-1.32,8.24,9.34-3.49,20.92-4.35,29.52,1.7,2.44,1.71,5.65,7.21,6.09,7.42.36.17,6.01-.77,8.05-.51,10.07,1.31,17.84,13.08,16.21,22.64-.11.66-3.23,5.65-3.15,6.55.04.46,4.47,4.37,5.63,7.32,2.8,7.12,2.62,16.85-2.61,22.83-1.11,1.27-6.18,4.14-6.35,4.49-.4.82.33,8.32-.32,11.19-2.12,9.31-13.89,16.36-23.09,13.7l-2.38,3.57c0,1.43,14.38,5.01,15.74,5.94,2.99,2.05-.19,16.97-.82,20.8-2.35,14.28-6.94,27.69-11.64,41.28h10.85c7,0,18.56-7.69,26.93-8.57,18.39-1.92,27.68,9.36,45.06,6.59v-342.45h.01ZM497.21,331.86c-4.36-20.3-34.72-23.5-47.36-10.16-1.27,1.34-5.57,8.58-5.89,10-.93,4.17,2.05,5.32,1.32,8.41-.29,1.21-2.48,2.02-2.4,3.92.06,1.45,2.5,2.4,2.76,3.57,1.14,5.12-11.11,12.54-15.11,15.1l-.31,1.58c5.1,6.06,14.16,8.73,21.9,8.33,2.9-.15,9.36-2.75,10.51-2.63.6.06,8.27,5,10.69,5.79,8.14,2.64,17.38,2.67,25.59.24,2.81-.83,8.63-4.63,9.81-4.69,1.96-.11,10.33,4.23,15.05,4.61,6.53.52,13.31-.38,19.19-3.2,20.43-9.81,6.3-30.9-12.27-24.73-2.39-6.55-3.57-12.46-9.91-16.42-8.42-5.26-15.04-2.86-23.59.26l.02.02h0ZM285.32,324.14c-2.74-.72-13.87,5.07-18.09,5.61-10.88,1.39-18.4-3.3-23.83-12.33-20.07,76.87,118.83,78.54,100.25,1.98-4.94,7.73-12.58,12.1-22.05,10.87-4.67-.61-15.08-6.35-18.19-6.12-2.68.2-4.56,5.01-12.31,3.74-3.03-.5-5.46-3.66-5.79-3.75h0ZM180.28,339.11c-1.94,1.92-23.76-16.89-28.82-9.44-.6,2.99,13.74,9.14,16.54,10.74l.44,1.98c-1.59,1.14-20.36-12.37-22.95-5.48s15.62,5.61,15.72,12.06l-14.18-5.22c-1.66-.44-.96,2.86-.79,3.44,2.19,7.6,23.15,16.62,30.7,17.54,3.24-7.89,6.53-15.6,13.09-21.43l-7.54-12.66c-3.77.22-1.54,7.83-2.2,8.49v-.02h-.01ZM436.04,330.57c-8.91-.49-17.06,5.67-24.01,10.51l-.98-.97c1.05-2.68,1.33-9.93-2.98-7.6l-8.09,12.71c4.73,6.06,7.47,13.33,9.18,20.77,5.37.46,12.1-.62,17.02-2.87,3.4-1.56,17.22-11.2,16.46-15.1l-1.67-1.69-11.19,5.27c-1.3.33-1.16-.78-1.01-1.66.53-3.19,17.03-5.13,13.09-12.04l-18.97,5.82c-2.71-2.75,16.23-8.26,13.15-13.14h0ZM131.63,381.18c5.61-.61,17.27-3.59,16.5-10.85-.57-5.39-6.63-4.42-10.14-2.84-3.3,1.49-6.42,6.64-9.93,6.43-2.84-2.74-3.14-18.04-2.39-22.02.53-2.8,3.7-3.14,4.36-6.2,1.82-8.44-12.81-6.73-10.63.03.62,1.93,3.22,2.35,3.53,3.65.45,1.92-2.9,15.59-4.46,17.02-1.85,1.7-8.18.96-9.67-.49-.54-.52-3.34-13.89-3.24-14.63.12-.85,2.3-2.04,2.77-3.57,2.58-8.46-9.23-8.35-9.56-2.28-.19,3.52,3.86,4.74,3.98,5.32.18.85-1.17,16.14-1.73,17.27-.96,1.94-12.97,12.11-15.7,15.84-3.32,4.54-5.77,10.69-8.89,15.46l.95.97c13.07.17,31.15,2.84,27.97,20.37l11.82-9.2c1.82,1.94-10.91,11.2-12.22,12.77l2.37,41.77c10.56-2.8,20.51-.51,30.89,1.32,1.79-11.33-2.3-7.59-7.6-12.45-6.16-5.64-4.59-13.01-2.1-19.93,2.98-8.28,10.19-10.76,6.93-21.71-.63-2.1-4.1-2.01-4.48-6.71-.6-7.32,3.65-5.82,4.03-7.88.73-3.88-3.94-16.74-3.36-17.42v-.04h0ZM239.45,412.07h109.14l-3.62-32.19,2.4,9.08c20.44-.3,42.29-6.13,60.07-16.33,1.95-3.6-6.14-26.29-11.99-28.14-17.59,3.85-34.67,10.76-53,10.52-22.34,31.29-76,30.59-98.18-.67-8.11-.15-16.06-1.89-23.89-3.72-4.89-1.15-22.32-7.14-25.35-6.94-7.62.5-15.72,19.56-16.61,26.23,18.6,11,39.52,17.97,61.03,20.48l2.95-9.86-2.95,31.55h0ZM93.3,364.96c-8.42-6.53-13.34,5.8-3.97,10.24,3.47-2.35,9.03-6.32,3.97-10.24ZM159.41,388.56c.16-.4,2.19-.63,2.45-3.18.75-7.41-10.99-6.14-8.79.93.92,2.98,3.15,1.82,3.59,3.71.17.73-2.07,14.11-2.36,14.8-.79,1.81-8.96,8.66-10.84,11.05-3.98,5.08-6.58,11.16-11.19,15.59l.47,1.63c11.07,1.94,26.54,5.4,25.2,19.73,4.46-1.64,7.16-7.75,11.82-7.88,1.79,1.69-10.04,8.53-10.82,10.53-1.37,3.51,1.03,8.1.31,11.81l24.63-23.02-.91-25.19c.92-2.3,14.43-.11,14.46-8.64.06-13.14-17.78,3.61-21.06-.7-1.23-1.61-.71-15.42-.04-17.7.61-2.07,11.77-8.05-.83-10.08-6.58,2.79-1.39,5.98-2.1,11.76-.18,1.47-2.32,8.39-3.08,9.41-2.22,3.02-7.84,2.99-9.66-.04-.63-1.05-1.68-13.47-1.27-14.51h.02ZM398.19,405.21c-8.8-12.32-25.06-3.04-25.84,9.72,19.47,8.51,8.13,23.05-9.54,20.73-3.02-.4-18.49-9.42-15.86-3.21,9.85,11.21,27.11,17.79,41.55,11.3,7.21-3.25,15.06-14.08,12.26-22.37-1.13-3.35-3.73-2.45-4.87-4.32-2.23-3.68.78-6.65,4.65-6.3.45-2.79-1.07-3.77-2.35-5.55h0ZM148.59,408.01c1.44-3.34-10.15-8.43-13.28-6.39-4.95,3.22,1.82,11.37,6.01,11.66,1.64.12,6.94-4.51,7.27-5.27ZM431.8,403.81c-5.29-4.01-13.22-4.39-17.09,1.74-5.5,8.73,3.35,5.36,2.26,11.41-.69,3.83-7.25,2.44-5.74,13.68,1.68,12.51,17.3,18.28,28.36,16.87,7.01-.89,20.64-8.94,22.05-16.63-1.2-3.73-8.43,4.06-10.04,4.98-9.65,5.5-25.44,3.62-22.64-10.16,1.1-5.4,6.4-4.34,7.1-10.64.53-4.69-.48-8.4-4.26-11.26h0ZM75.47,418.91c6.98,10.04,30.7,10.49,27.73-5.04-2.02-10.55-20.03-11.12-28.33-11.69-2.82,5.52-2.83,11.79.6,16.73ZM398.01,415.9c.88,1.24,4.73.92,3.83-1.52-.72-1.96-5.89-1.35-3.83,1.52ZM426.5,475.17h25.31c-4.54-6.33-16.07-13.79-19.75-20.19-.88-1.52-.24-4.42-1.24-5.16-4.97-3.66-1.78,5.17-5.3,4.97,1.76-8.06-4.54-6.98-9.35-11.17-6.17-5.37-8.87-11.89-7.68-20,.31-2.08,2.46-2.72,1.92-3.96-.35-.81-3.42-1.84-1.99-5.63l-4.88-.04c-2.36,4.4-.12,8.04-.35,12.89-.32,6.74-3.29,10.58-7.88,15.09l31.2,33.19h-.01ZM411.72,414.05c-1.38.88-.45,5.79,2.64,3.63,2.07-1.44-1.2-4.56-2.64-3.63ZM140.83,415.37c-.09-.14-3.06-.85-3.28-.66l.66,3.94c.81-.29,3.18-2.38,2.62-3.28ZM243.73,414.7h-25.31l51.58,59.85,25.99-.36-52.25-59.48h0ZM272,414.7h-24.65l51.96,60.18c.9.83,1.92-.37,2.28-.37h22.02l-51.61-59.81ZM295.67,414.7h-20.05l50.92,59.19,24.03,1.28-1.04-2.56-53.85-57.9h-.01ZM325.25,414.7h-25.97c18.72,20.37,37.12,41.07,56.87,60.47h25.31l-56.21-60.47ZM370.29,414.7h-42.08l15.77,16.43c.14-6.25,9.01-1.79,10.55-2.3.6-.2,6.54-7.67,8.57-9.15,1.49-1.09,9.2-3.46,7.19-4.97h0ZM248.24,453.9c-10.64-12.4-20.8-25.27-32.02-37.17l-55.65,53.84,12.47.32,44.98-42.35c3.37,4,49.39,61.33,52.34,57.81.14-3.37.19-6.39-1.31-9.53-2.07-4.36-16.57-17.97-20.8-22.91h-.01ZM361.31,424.14c-.76.71-5,6.01-4.84,6.65,5.88,6.74,32.68-.61,21.39-10.19-5.03-4.27-12.56-.17-16.56,3.54h.01ZM451.68,432.98c.06-7.69-17.58-17.18-20.63-7.16-3.61,11.86,13.96,12.67,20.63,7.16ZM285.47,589.54v-100.57h-16.11c-1.91,0-9.54-8.54-11.85-9.84l-39.46-47.34-43.68,40.42c8.76,3.23,14.31,9.49,18.72,17.4,10.55-6.34,25.17-6.84,36.48-2.27,1.91.77,8.48,5.42,9.01,5.46.45.04,5.62-2.84,8.44-3.16,22.65-2.56,35.32,17.62,33,38.26-.5,4.44-5.01,13.65-5.02,15.3,0,1.35,2.5,6.4,2.9,8.87,1.97,12.06,2.48,24.37.28,36.44l7.27,1.03h.02ZM130.42,435.84c-5.53,13.13,2.83,23.25,16.66,21.59,10.16-1.22,10.61-9.95,3.96-15.78-2.68-2.34-17.8-7.45-20.62-5.8h0ZM385.08,475.17h37.8l-28.95-31.25c-6.07,2.83-11.74,1.82-9.84,10.22h-1.97c-.28-2.71,1.3-5.58-2.3-5.97-3.87-.42-6.89.77-5.6,5-3.71,3.92-1.45-4.36-1.99-4.94-8.31-.23-15.29-3.86-21.36-9.2l34.2,36.14h0ZM455.43,475.17c4.25,1.23,14.44-.92,19.4,0-3.02-3.3-24.69-27.47-26.6-27.66-4.27-.42-12.24,2.8-9.57,8.59-4.42-.61.75-7.27-4.59-5.91.02,1.12-.21,2.4.14,3.47.47,1.43,19.77,21.08,21.22,21.51ZM156.61,457.43l-16.45,2.31c-.4,12.95,5.53,14.63,16.45,10.84v-13.15ZM97.44,468.61c-37.25-17.84-58.98,48.7-19.73,57.17-5.78-16.71-4.15-33.95,8.3-47.24,1.09-1.16,12.04-9.15,11.43-9.93ZM145.44,473.87c-.34-.5-9.83-4.75-11.03-5.09-38.66-10.87-70.89,23.81-52.1,60.29l3.74-5.15c4.72-1.44-4.8,9.42-5.68,10.09-10.61,8.15-20.65-2.59-23.52.48-4.04,4.3,2.53,12.81,6.49,15.21,11.74,7.1,29.81,4.1,39.69-4.86,1.79-1.63,9.69-13.26,10.52-13.13,3.89.62-5.97,11.33-6.88,12.18-.36,1.36,2.23,1.43,3.03,1.53,8.21,1.11,17.55-1.21,24.47-5.6,1.44-.91,6.7-6.91,7.34-5.15l-.11,1.2c-8.62,10.81-23.71,13.42-36.73,10.58l-1.29,14.83,22.57-8.39,29.36,14.96c-1.65-4.54-3.01-12.75,2.83-14.61s13.98,11.04,22.21,1.14c-1.8-8.1-9.56-5.49-16.01-7.72-33.38-11.53-13.04-71.76,21.55-51.93l4.17-3.52c-4.56-17.45-30.64-24.88-44.26-13.4-2.02-1-.02-3.47-.34-3.94h-.02ZM476.14,477.8l-202.87-.04.04,8.62,1.94.65c54.41-2.17,109.42,1.39,163.76-.67,3.83-.15,7.55-1.99,11.8-2.03,7.54-.07,16.09,3.67,24.29,2.02l1.04-8.56h0ZM536.25,530.09c-.93-1.35-4.67-4.77-4.81-5.44-.13-.62,3.23-7.25,3.26-10.37.09-9.28-7.07-16.84-16.15-17.46-1.69-.12-5.33,1.44-6.28,1.02-.62-.27-2.85-4.86-3.92-5.9-7.47-7.28-20.46-7.89-29.5-3.22-3.79,1.96-5.48,4.95-8.93,6.86-11.72-15.37-39.31-9.46-44.1,9.14-2.12,8.24,2.37,11.97,2.27,12.75-.12.91-8.21,8.22-8.51,15.85-.4,9.89,5.45,11.37,5.67,14.47.1,1.44-2.27,6.55-2.37,9.25-.48,12.96,10.72,18.81,22.27,18.78,1.28,12.74,13.8,17.36,25.09,14.72,1.72-.4,4.5-2.95,6.13-2.83,1.11.08,5.81,3.19,8.82,3.63,9.19,1.34,16.71-2.07,20.95-10.29,14.68,4.04,26.74-8.8,21.6-23.09,11.15-4.95,15.62-17.48,8.52-27.87h0ZM271.28,502.52c-6.25-7.88-15.36-12.85-25.68-10.36-2.37.57-5.78,3.36-6.45,3.38-1.46.04-9.22-5.89-12.2-6.88-37.29-12.4-71.66,32.77-45.02,62.76l3.3-3.92,1.61.94c-3.79,8.68-10.72,14.59-20.51,10.68-2.77-1.11-8.85-8.27-9.75.52-.79,7.65,4.08,10.11,10.05,12.32,20.03,7.42,36.33,1.37,45.55-17.91,1.79-.29.88,1.78.66,2.64-.8,3.18-4.25,6.78-5.6,9.84,12.42.85,31.1-3.53,34.19-17.09,29.85,12.52,47.18-25.07,29.85-46.92h0ZM288.1,488.98v101.22l37.48,1.31h-10.19c-2.82,0-10.87-5.1-12.7-7.68-4.94-6.93-1.36-11.56-2.88-16.19-.51-1.56-4.65-3.42-5.8-4.9-6.35-8.09-3.87-21.27,4.54-26.88-6.07-8.56-3.41-20.75,5.37-26.16,1.89-1.16,4.53-1.07,5.85-2.04,1.41-1.05,2.89-5.94,5.63-8.18,9.51-7.78,25.52-5.08,34.19,2.65,8.93-8.06,20.6-10.72,31.57-4.63,2.29,1.27,7.17,6.97,7.65,7.17s7.61-.87,10.02-.53c11.08,1.57,17.01,11.98,16.08,22.53-.22,2.55-2.6,8.05-2.5,9.32.26,3.12,7.43,7.75,6.53,17.72-.69,7.62-6.63,10.17-7.14,11.97-.47,1.68,1.27,4.79,1.24,7.06-.1,6.96-6.51,14.47-12.81,16.81-4.04,1.5-10.33.19-10.21,5.24h16.44c.8-10.18,8.54-21.8,19.07-23.67-3.53-5.48-5.84-8.49-5.24-15.42.25-2.86,2.59-5.78,2.4-7.18-.17-1.27-3.37-3.87-4.21-6.82-1.56-5.51-.97-12.81,1.33-18.04.85-1.94,4.81-5.32,4.95-6.19.12-.74-1.72-3.6-1.9-5.79-.78-9.52,5.75-17.73,12.53-23.36l-147.27.65h-.02ZM179.36,502.52c1.46-2.1,2.97-4.22,4.85-5.99-37.35-17.37-49.75,48.43-9.85,49.62-7.18-16.15-4.74-29.62,5-43.64h0ZM348.68,505.96c-5.88-10.02-24.01-11.77-32.33-4.19-2.7,2.46-3.71,7.29-4.95,8.19-1.69,1.22-5.16.68-8.2,2.98-6.39,4.84-7.41,17.34-1.34,22.94-9.07,8.37-13.5,16.15-4.23,26.73,1.28,1.46,4.55,2.83,4.86,3.72.37,1.05-.82,7.05-.52,9.68,1.36,11.57,15.31,14.43,24.94,13.18,4.26,10.85,15.12,17.38,26.75,13.64,2.75-.88,6.53-4.67,8.4-4.81,2.52-.2,7.21,3.15,11.3,3.29,8.06.27,14.98-5.2,16-13.09,13.31,3.21,24.84-10.96,19.13-22.55,11.2-7.4,10.3-21.36.23-29.28,11.51-18.67-3.98-35.78-23.97-28.36,2.31-2.51.2-4.66-1.84-6.57-6.5-6.07-19.5-6.11-26.76-1.31-1.73,1.15-5.77,6.61-7.47,5.81h0ZM276.27,588.88c.5-14.24,2.8-29.9-2.63-43.38-6.28,4.87-12.5,8.42-20.7,8.61-1.76.04-9.08-1.61-9.49-1.37-.12.07-.38,1.89-1.05,2.58-10.24,10.53-16.55,11.89-30.9,13.83-2.32.31-4.85-.92-6.4-.56-3.29.76-11.19,9.76-16.92,7.79l88.09,12.48v.02ZM125.71,556.02c-.48-.56-13.44,4.08-14,4.55-2.35,2,.33,26.07.88,30.59,3.59,29.62,13.29,64.79,30.06,89.59,1.32,1.95,11.89,15.89,12.91,15.94l11.58-4.29c-22.8-30.98-33.62-68.95-38.71-106.57-1.33-9.84-1.64-19.94-2.72-29.81ZM155.57,630.69c-6.09-20.89-9.27-43.29-10.23-65.05l-16.99-8.97c.72,20.46,3.74,40.3,8.19,59.83,4.93,21.63,15.62,54.2,30.07,71.2,7.17,8.43,9.34,2.85,18.93,5.69-12.48-19.83-23.37-40.05-29.97-62.7h0ZM109.5,587.38c-1.31-8.35-1.3-17.02-1.86-25.43-6.4,3.7-36.51,14.73-39.5,19.66-2.31,3.8-.59,16.82-.27,21.74l42.73-13.15c.91-1.99-1.07-2.67-1.1-2.82h0ZM328.47,597.16c-1.63-1.1-.91-1.62-3.95-2.29-19.48-4.29-50.84-3.59-72.24-5.99-34.72-3.89-72.99-7.99-104.87-22.34l2.49,24.73c1.9,4.22,62.95,14.64,71.56,15.93,58.12,8.74,121.21,13.47,180.02,14.58,38.42.73,77.23.53,115.31-4.07l3.09-22.29-20.74.7c4.99,16.7-19.56,21.33-26.63,9.2-7.49,12.1-30.08,6.78-29.92-7.89l-52.3-.7c-7.28,4.48-10.34,7.57-19.61,6.53-2.36-.26-7.32-2.63-8.66-2.51-2.55.22-6.97,5.3-15.1,5.26-10.82-.05-11.21-3.95-18.46-8.85h0ZM442.46,578.51c-.61-.49-13.92-5.3-14.7-5.4-9.33-1.15-18.6,13.78-19.34,21.68l20.58.53c1.76-.59,4.7-9.53,9-8.41l-4.59,7.53,10.32.57c3.24,7.3,3.85,14.52,14,13.94l2.96-10.2.33,10.5c9.04-.29,11.48-6.46,8.55-14.45,4.51.24,2.33,8.11,5.9,11.51,6.03,5.74,11.86,2.12,11.83-5.82l1.98-.44-1.98,8.86.99.34c8.62-.64,11.04-7.71,8.23-15.12l16.43-.67c-9.65-6.69-8.83-3.15-16.73-.62-11.37,3.65-12.74-1.79-19.87-2.51-.97-.1-5.89,2.74-8.51,3.06-10.99,1.35-17.6-2.73-23.91-10.92-.75-.97-.81-3.44-1.48-3.98v.02h.01ZM110.52,592.23l-42.63,13.13,5.91,26.88,41.34-12.52-4.62-27.49ZM516.24,619.78c-59.63,6.65-121.24,5.08-181.14,1.26-61.9-3.95-124.96-11.06-185.06-26.24l4.7,24.88c51.32,14.66,104.82,21.82,158.03,26.38,49.39,4.24,103.04,6.54,152.51,3.28,7.64-.5,38-2.7,43.24-5.41,2.48-1.29,9.04-22.7,7.72-24.15h0ZM120.71,639.91c-.75-2.42-4.34-17.8-5.24-18.08l-39.78,12.8c-.8,2.53,10.24,26.41,12.33,26.59l35.74-12.16c1.55-.97-2.76-8.19-3.05-9.14h0ZM502.81,661.57c2.36-4.56,4.33-9.24,5.95-14.13l-.72-1.34c-54.19,8.69-112.15,8.07-166.99,4.56-62.01-3.97-124.5-12.25-184.43-28.25l8.71,27.81c86.75,20.67,179.57,31.99,269.08,28.08,9.23-.4,59.15-3.5,63.72-7.94.68-.66,3.85-7.2,4.68-8.79h0ZM3.43,653.96v184.04h587.77v-182.73c-11.19,3.92-20.49-3.67-30.11-5.72-21.3-4.54-33.16,10.49-53.95,7.79-7.48,17.48-18.03,33.53-31.65,46.91l.99,1c15.19-3.35,25.01-9.72,41.43-8.59,17.23,1.19,34.17,12.85,51.91,5.94l-.07,1.89c-20.42,7.34-39.01-6.7-59.77-5.85-10.57.43-18.28,5.52-27.9,7.6-25.82,5.58-46.68-11.8-72.7-9.58-10.98.94-21.87,7.26-32.36,9.06-28.1,4.83-45.81-15-74.78-6.41-20.52,6.09-29.71,15.44-53.94,14.5-29.39-1.14-53.2-23.17-81.95-18.24-8.53,1.46-16.57,5.87-25.82,6.39-15.14.86-23.17-7.45-36.82-8.59-19.52-1.63-34.14,9.37-52.98,6.3-5.43-.88-16.81-6.55-17.05-12.85,8.86,9.33,18.22,12.32,31.04,10.99,9.9-1.03,19.58-6.53,29.79-7.03,5.74-.28,10.49,1.1,16.09,1.29-11.6-9.31-20.47-22.02-27.93-34.84-19.1.25-27.8-12.69-47.57-8.76-10.54,2.09-19.73,9.13-31.66,5.48h-.01ZM125.05,650.67l-34.85,12.17c-.89.54-.51.95-.39,1.66.34,2.13,11.02,15.36,13.22,17.73,13.73,14.77,28.4,21.7,48.99,15.44l-19.74-29.08-7.22-17.92h0ZM495.86,674.34c-109.37,14.92-222.32,3.08-329.38-21.03l11.13,23.86,49.98,11.59c.04-2.22,2.55-9.86,4.96-9.85,5.37,2.67,5.7,11.41,10.7,12.99,5.94,1.89,50.38,7.49,55.56,6.6,3.89-.67,8.1-3.26,13.39-3.7,26.07-2.17,40.48,14.54,68.75,7.61,11.02-2.7,21.37-8.31,33.06-8.41,18.37-.16,37.05,9.95,55.18,11.89,10.86-8.63,20.03-19.4,26.67-31.56h0ZM226.96,690.77l-46.02-9.86c2.1,2.62,6.02,11.43,8.24,13.12,1.75,1.33,29.88,11.43,33.99,12.68,25.55,7.82,45.57,6.44,69.54-5.44l-51.65-7.7c-2.7,11.05-17.17,8.95-14.1-2.81h0ZM236.42,688.54c-.44-1.01-3.09-6.35-3.87-6.3-3.13,3.23-6.74,17.47,1.15,16.31,6.26-.92,4.31-6.39,2.72-10.01Z"/>
  <rect x=".14" y="841.29" width="595" height=".66" fill="#fff"/>
  <path d="M591.19,3.23v227.43c-50.89,2.4-98.22,35.77-120.39,80.77-13.58-.13-29.32,9.51-28.85,24.41h-5.26c7.55-16.04-18.05-3.1-22.69,1.31-2.98-20.49-14.76,5.67-16.5,5.9-1.44-.4-2.91-.96-4.45-.6-16.19,3.77-32.11,10.4-49.06,10.48l3.38-21.93c8.92-3.48,14.65-8.37,10.78-18.85-1.62-4.38-5.13-4-6.21-5.29-.31-.38,1.94-6.02,1.3-9.5-1.73-9.5-8.54-10.35-13.66-14.29-1.25-.96-5.08-8.9-7.94-11.65-18.26-17.55-56.13-16.9-74.39.37-2.37,2.24-5.55,8.49-6.9,9.53-4.58,3.51-10.91,3.63-14.16,11.61-2.09,5.11-.16,13.48-.66,13.98-1.02,1-4.99-.77-7.05,5.78-2.69,8.56,1.45,16.9,10.99,16.57l3.28,23c-6.15-.86-12.47-1.55-18.56-2.8-10.64-2.18-21.56-7.57-32.06-7.71-.9-3-6.63-13.42-9.7-13.73-4.18.56-5.1,4.35-5.76,7.8-4.78-4.95-30.83-18.23-26.63-2.63-14.35.98-4.61,8.1-4.61,8.88,0,.49-2.13,1.03-2.52,2.09-2.56,7.07,17.83,17.8,23.21,19.96,1.76.7,9.89,2.19,10.21,2.62.45.62-.69,2.69-.47,3.52,1.54,5.98,53.89,23.2,62.66,22.71.05,3-.5,18.29-2.53,18.89-3.64,1.23-17.82-.93-20.08.33-.34.19-.43,1.9-1.12,2.48-9.81,8.13-17.91,18.06-27.59,26.33l-1.59-20.99c7.83,1.11,19.47-7.65,12.15-15.19-5.7-5.87-13.94,3.27-20.08,3.32v-10.19c0-7.88,4.92-5.57,5.78-10.68,1.65-9.86-14.15-9.79-13.71-1.16.13,2.44,1.94,2.93,1.9,5.73-.05,3.05-2.15,10.92-6.05,10.98s-3.22-2.35-3.68-5.54c-.99-6.85.99-6.14,1.82-9.98,2.78-12.96-16.01-10.72-12.71-.15.55,1.75,2.69,2.48,2.93,4.18.1.7-1.35,13.15-1.92,13.52l-15.11-5.92-1.98-16.43c18.85,1.18,21.53-25.96,1.52-16.56-1.35.64-6.71,5.91-7.78,4.09-.23-4.89-1.85-11.3-.92-16.08.61-3.13,3.32-3.81,4.06-5.8,4.95-13.24-16.43-14.27-14.6-2.19.39,2.56,2.51,2.76,2.63,5.92.08,1.95-2.25,12.4-3.98,13.21-5.97,2.8-4.71-4.06-5.28-5.78-.16-.48-1.12-.48-1.22-.99-1.79-9.53,1.72-6.46,2.42-11.16,1.93-12.85-21.39-9.84-14.34,2.65.53.94,2.73,1.29,3.03,2.76.21,1.05-.8,13.31-1.34,14.18l-1.68.33c-4.05-8.51-18.98-8.4-14.97,3.79.93,2.81,5.35,5.93,5.12,7.31-2.51,1.99-4.54,4.95-6.2,7.67-7.69,12.67-20.3,32.55.42,40.89,8.25,3.32,13.19-.03,21.25-.86l1.62,39.78c-1.3,5.28-12.31-1.8-16.85-2.21-32.77-2.94-46.44,50.13-16.68,63.34,3.31,1.47,8.76.07,8.45,4.47-8.42,10.26-16.67-3.43-24.8,2.19-3.97,7.01,1.89,15.35,8.01,18.77,12.21,6.83,27.38,3.97,38.59-3.41v13.8c-6.21,2.84-34.68,13.94-36.02,19.53-.78,3.24-.37,14.38-.13,18.25,1.17,19.02,7.9,37.22,15.76,54.24-13.04,1.21-23.32-8.62-35.81-9.22-15.44-.73-27.15,11.07-41.77,5.6V3.23h587.77-.04ZM104.03,271.41c-8.72-25.4-49.56-19.36-51.3,7.24-31.85-4.52-36.27,35.38-1.62,34.2,2.99-.1,11.59-3.12,12.21-3.01,1.46.25,3.67,3.53,5.36,4.47,7.71,4.28,16.76,5.26,25.35,3.32,3.83-.86,11.47-5.9,12.44-6.02,1.78-.22,7.49,2.64,9.87,3.03,11.45,1.86,34.3-1.22,33.05-17.25-.93-11.9-12.71-9.79-14.44-11.54-.22-.22-.31-4.17-1.36-6.05-5.42-9.7-19.73-12.56-29.56-8.39ZM167.29,287.69c4.99,3.99,7.94-2.7,13.32-2.54,3.92.12,5.15,3.46,8.19,3.74,7.07.64,2.32-8.88,2.79-11.76.57-3.52,7.75-4.72,5.46-9.66-1.41-3.05-8.5-1.41-10.84-2.98-1.44-.97-1.85-6.18-4.57-7.92-6.4-4.09-6.81,6.61-9.53,8.31-2.53,1.58-8.27-.53-10.14,3.05-1.6,4.81,5.75,6.66,6.47,8.55,1.09,2.86-1.29,3.53-1.36,4.41-.11,1.23-.17,6,.21,6.79h0ZM421.99,268.35c-2.44-4.95-9.94-6.27-14.92-5.19-2.25.48-5.83,3.61-6.74,3.54-1.13-.09-4.96-4.24-7.64-4.86-19.97-4.62-18.64,16.33-7.96,27.68s15.5,12.21,27.31,2.27c6.1-5.13,14.08-15.04,9.96-23.44h0ZM63.47,348.76c-1.49-1.71-1.23-7.34-5.72-6.84-3.85.43-5.13,7.28-7.01,7.99-3.6,1.34-12.36-.6-8.08,6.77.94,1.61,3.73,2.08,4.16,4.5.72,4.03-4.97,10.99,3.44,10,2.77-.33,5.11-3.27,7.42-3.19,2.45.08,7.31,6.07,10.01,3.18,2.16-2.32-.22-7.15.26-9.21.66-2.83,6.98-3.86,5.84-8.68-.84-3.55-7.94-1.77-10.33-4.51h.01Z" fill="#fff"/>
  <path d="M3.43,653.96c11.93,3.65,21.12-3.39,31.66-5.48,19.77-3.93,28.47,9.01,47.57,8.76,7.46,12.82,16.33,25.53,27.93,34.84-5.59-.19-10.34-1.57-16.09-1.29-10.21.49-19.89,6-29.79,7.03-12.82,1.33-22.18-1.66-31.04-10.99.24,6.3,11.62,11.97,17.05,12.85,18.84,3.07,33.46-7.93,52.98-6.3,13.65,1.14,21.67,9.44,36.82,8.59,9.26-.52,17.29-4.93,25.82-6.39,28.75-4.94,52.56,17.1,81.95,18.24,24.23.94,33.42-8.42,53.94-14.5,28.97-8.59,46.68,11.23,74.78,6.41,10.49-1.8,21.38-8.12,32.36-9.06,26.02-2.22,46.88,15.16,72.7,9.58,9.62-2.08,17.33-7.17,27.9-7.6,20.76-.85,39.35,13.19,59.77,5.85l.07-1.89c-17.74,6.91-34.68-4.75-51.91-5.94-16.43-1.13-26.24,5.24-41.43,8.59l-.99-1c13.62-13.38,24.17-29.43,31.65-46.91,20.8,2.7,32.65-12.34,53.95-7.79,9.62,2.05,18.91,9.64,30.11,5.72v182.73H3.43v-184.04h0ZM539.19,672.42c-4.09-2.27-10.89,15.28-2.87,17.02,10.41,2.25,5.9-12.26,2.87-17.02ZM455.1,732.18c12.28,14.21,36.13,11.17,50.6,1.64-.26-2.52-11.84,3.63-13.65,4.09-8.04,2.04-18.29,2.31-26.14-.44-3.96-1.38-6.67-4.85-10.81-5.29h0ZM150.69,751.9c-17.63,4.73-32.64-.75-46.28-11.89-13.48,17.43-40.66,23.95-59.25,10.58-3.31,1.07,2.36,4.3,3.6,4.95,18.72,9.85,43.43,2.25,56.9-12.84,8.11,8.15,19.36,13.04,30.89,13.19,1.26.02,18.12-1.17,14.14-4h0ZM341.35,750.58c-12.48,2.86-23.81,1.17-33.18-7.88-16.82,12.73-34.62,15.93-53.6,5.25-3.28,3.37,16.8,8.41,18.71,8.56,13.47,1.09,23.75-3.4,34.35-11.08,8.11,6.23,16.19,9.44,26.62,8.24,1.58-.18,7.24-.89,7.09-3.1h.01ZM426.17,770.3c-16.09,9.29-35.16,10.5-50.31-1.31l-1.29-.02c-.56-.01-.44,1.46-.35,1.65.28.56,9.4,5.7,10.85,6.26,10.25,3.92,20.95,3.84,31.23.31,1.33-.46,11.83-4.77,9.87-6.89ZM555.69,771.62c-11.93,5.51-20.77,9.01-34.05,5.45-4.72-1.27-9.52-5.25-12.85-6.23-4.23-1.25.87,3.27,2.4,4.2,12.77,7.72,34.11,8.21,44.51-3.42h-.01ZM168.75,774.59c11,9.14,33.4,9.73,44.39-.02-.05-2.39-6.34,1.91-7.53,2.31-9.6,3.2-17.18,3.76-26.93.61-4.1-1.33-7.37-4.62-11.54-4.55.04.62,1.08,1.21,1.62,1.66h0Z" fill="#fff"/>
  <path d="M591.19,310.85v342.45c-17.38,2.76-26.67-8.51-45.06-6.59-8.38.87-19.94,8.57-26.93,8.57h-10.85c4.69-13.59,9.29-27,11.64-41.28.63-3.83,3.81-18.76.82-20.8-1.36-.93-15.75-4.51-15.74-5.94l2.38-3.57c9.2,2.66,20.97-4.39,23.09-13.7.65-2.87-.08-10.37.32-11.19.17-.35,5.24-3.22,6.35-4.49,5.23-5.98,5.41-15.71,2.61-22.83-1.16-2.96-5.59-6.86-5.63-7.32-.08-.9,3.03-5.89,3.15-6.55,1.63-9.56-6.14-21.33-16.21-22.64-2.04-.27-7.68.68-8.05.51-.43-.21-3.65-5.7-6.09-7.42-8.6-6.05-20.18-5.2-29.52-1.7-.33-.34,1.41-6.92,1.32-8.24-.39-5.79-23.68-26.34-28.93-31.21,4.94-5.11,14.92-8.12,14-16.89-2.22-4.87-8.74-.11-10.07-.5-1.11-.32-10.86-12.87-16.43-10.86,6.42-20.6-22.89-28.83-26.94-7.54l-7.62.36c-2.06-20.8-28.38-17.18-32.92.53l-19.31.09-2.53-19.35c17.01-4.13,44.65-6.69,59.03-17.18,5.42-3.95,2.61-6.78,3.33-7.52.61-.62,14.76,0,16.89-3.2,5.21,6.51,14.62,9.86,22.89,9.83,3.43-.01,9.88-2.29,12.43-2.01,1.38.15,7.12,3.89,9.74,4.77,8.42,2.82,17.57,3.11,26.16.81,2.48-.66,9.65-4.75,10.28-4.8.91-.07,11.1,4.13,15.04,4.44,19.23,1.51,44.05-11.99,23.97-30.55,3.22-4.33,4.5-9.31,7.9-13.8,8.09-10.72,22.69-19.23,35.5-22.68h-.01ZM490.23,402.59c-.43-.96-3.44-6.91-3.9-6.94-5.34,4.66-11.07,25.96,1.67,22.69,7.64-1.96,4.4-10.92,2.23-15.75h0ZM535.09,399.66c-2.09.72-5.85,12.89-5.74,15.38.45,10.18,13,9.54,13.25,0,.07-2.9-3.62-16.72-7.51-15.38ZM513.19,438.14c-1.06-3.04-1.27-6.58-3.85-8.96-3.94,5.45-11.43,16.46-4.62,21.69s11.77-1.45,10.7-8.73c-.37-2.5-2.06-3.52-2.23-4Z" fill="#fff"/>
  <path d="M516.24,619.78c1.32,1.46-5.24,22.87-7.72,24.15-5.24,2.71-35.6,4.91-43.24,5.41-49.47,3.25-103.11.95-152.51-3.28-53.21-4.56-106.72-11.72-158.03-26.38l-4.7-24.88c60.09,15.18,123.16,22.29,185.06,26.24,59.9,3.82,121.51,5.39,181.14-1.26h0Z" fill="#fff"/>
  <path d="M502.81,661.57c-.82,1.59-4,8.13-4.68,8.79-4.57,4.44-54.49,7.54-63.72,7.94-89.51,3.91-182.33-7.41-269.08-28.08l-8.71-27.81c59.93,15.99,122.42,24.28,184.43,28.25,54.84,3.51,112.8,4.13,166.99-4.56l.72,1.34c-1.62,4.89-3.58,9.57-5.95,14.13h0Z" fill="#fff"/>
  <path d="M239.45,412.07l2.95-31.55-2.95,9.86c-21.51-2.51-42.43-9.48-61.03-20.48.89-6.67,8.99-25.73,16.61-26.23,3.03-.2,20.46,5.79,25.35,6.94,7.83,1.84,15.78,3.57,23.89,3.72,22.18,31.27,75.84,31.97,98.18.67,18.32.23,35.41-6.67,53-10.52,5.85,1.86,13.94,24.54,11.99,28.14-17.78,10.19-39.62,16.02-60.07,16.33l-2.4-9.08,3.62,32.19h-109.14Z" fill="#fff"/>
  <path d="M328.47,597.16c7.26,4.9,7.65,8.8,18.46,8.85,8.13.04,12.55-5.04,15.1-5.26,1.33-.11,6.29,2.25,8.66,2.51,9.27,1.04,12.34-2.05,19.61-6.53l52.3.7c-.16,14.67,22.43,19.99,29.92,7.89,7.07,12.13,31.61,7.5,26.63-9.2l20.74-.7-3.09,22.29c-38.08,4.6-76.89,4.79-115.31,4.07-58.82-1.11-121.9-5.84-180.02-14.58-8.6-1.29-69.65-11.71-71.56-15.93l-2.49-24.73c31.88,14.34,70.15,18.44,104.87,22.34,21.4,2.4,52.76,1.71,72.24,5.99,3.04.67,2.32,1.19,3.95,2.29h0Z" fill="#fff"/>
  <path d="M145.44,473.87c.32.46-1.68,2.94.34,3.94,13.63-11.47,39.71-4.04,44.26,13.4l-4.17,3.52c-34.59-19.83-54.93,40.4-21.55,51.93,6.45,2.23,14.21-.38,16.01,7.72-8.22,9.9-16.66-2.91-22.21-1.14-5.84,1.86-4.48,10.06-2.83,14.61l-29.36-14.96-22.57,8.39,1.29-14.83c13.02,2.84,28.11.23,36.73-10.58l.11-1.2c-.64-1.76-5.9,4.24-7.34,5.15-6.92,4.39-16.26,6.72-24.47,5.6-.79-.11-3.39-.18-3.03-1.53.9-.85,10.76-11.56,6.88-12.18-.83-.13-8.73,11.5-10.52,13.13-9.88,8.97-27.95,11.96-39.69,4.86-3.96-2.39-10.53-10.9-6.49-15.21,2.88-3.07,12.91,7.67,23.52-.48.88-.68,10.4-11.53,5.68-10.09l-3.74,5.15c-18.79-36.48,13.44-71.16,52.1-60.29,1.2.34,10.69,4.59,11.03,5.09h.02ZM86.39,511.86c1.17,2.2,5.3,1.04,5.12-2.79-.27-5.74-7.63-1.95-5.12,2.79ZM127.52,510.17c-3.32-3.54-8.86,4.3-3.59,6.6,3.62,1.58,5.98-4.05,3.59-6.6Z" fill="#fff"/>
  <path d="M271.28,502.52c17.33,21.85,0,59.44-29.85,46.92-3.09,13.56-21.77,17.94-34.19,17.09,1.35-3.06,4.8-6.66,5.6-9.84.22-.85,1.13-2.93-.66-2.64-9.22,19.28-25.51,25.33-45.55,17.91-5.98-2.21-10.84-4.68-10.05-12.32.9-8.79,6.98-1.63,9.75-.52,9.79,3.9,16.72-2,20.51-10.68l-1.61-.94-3.3,3.92c-26.64-29.99,7.73-75.16,45.02-62.76,2.98.99,10.73,6.92,12.2,6.88.67-.02,4.09-2.81,6.45-3.38,10.32-2.49,19.43,2.48,25.68,10.36h0ZM191.3,527.26c-2.71-2.71-6.97-.05-5.61,4.62,1.65,5.67,9.53-.71,5.61-4.62ZM224.15,529.87c-3.93,1.19-3.24,8.63,2.33,6.95,3.93-1.19,3.24-8.63-2.33-6.95Z" fill="#fff"/>
  <path d="M495.86,674.34c-6.64,12.15-15.81,22.92-26.67,31.56-18.14-1.94-36.81-12.05-55.18-11.89-11.69.1-22.04,5.71-33.06,8.41-28.27,6.93-42.68-9.77-68.75-7.61-5.29.44-9.5,3.03-13.39,3.7-5.17.89-49.62-4.71-55.56-6.6-4.99-1.59-5.32-10.32-10.7-12.99-2.42-.01-4.93,7.63-4.96,9.85l-49.98-11.59-11.13-23.86c107.06,24.12,220.01,35.95,329.38,21.03h0Z" fill="#fff"/>
  <path d="M340.29,294.18c4.67,19.32,2.76,39.24-23.4,32.25-3.91-1.05-11.27-3.98-14-6.38-4.35,7.02-13.59,8.42-17.1,0-4.86,2.49-11.64,5.57-16.9,6.77-35.3,8.01-26.29-44.73-3.09-58.3,27.93-16.34,66.3-8.16,74.49,25.68v-.02ZM275.56,289.21c-4.97-1.36-13.44-.24-14.4,5.86,3.07-.39,3.82-3.17,7.05-3.78,3.88-.74,8.57,2.33,7.35-2.08ZM328.21,295.07c-1.21-5.69-14.93-9.15-15.77-3.29,7.03-2.41,9.95,1.31,15.77,3.29ZM311.98,317.21c5.58,4.75,16.5-.02,14.24-8.33-4.32,1.75-1.53,7.82-8.25,7.91-6.12.09-5.83-6.88-7.84-6.59-2.07,1.1.92,6.22,1.84,7.01h.01ZM264.43,310.19c-2.59-2.04-3.15,7.72,4.93,8.57,5.31.56,8.74-1.89,10.18-6.97-1.99-4.36-2.77,1.86-4.55,3.37-4.45,3.78-10.11.22-10.57-4.97h.01Z" fill="#fff"/>
  <path d="M497.21,331.86c8.56-3.12,15.17-5.52,23.59-.26,6.34,3.96,7.52,9.86,9.91,16.42,18.56-6.17,32.7,14.92,12.27,24.73-5.88,2.82-12.66,3.72-19.19,3.2-4.72-.38-13.09-4.72-15.05-4.61-1.18.07-7,3.86-9.81,4.69-8.22,2.43-17.45,2.4-25.59-.24-2.43-.79-10.09-5.72-10.69-5.79-1.15-.12-7.61,2.48-10.51,2.63-7.74.4-16.8-2.27-21.9-8.33l.31-1.58c4-2.56,16.25-9.98,15.11-15.1-.26-1.17-2.7-2.12-2.76-3.57-.08-1.9,2.12-2.71,2.4-3.92.73-3.09-2.24-4.24-1.32-8.41.32-1.42,4.62-8.67,5.89-10,12.64-13.34,43-10.14,47.36,10.16l-.02-.02h0Z" fill="#fff"/>
  <path d="M348.68,505.96c1.71.8,5.74-4.66,7.47-5.81,7.26-4.8,20.26-4.76,26.76,1.31,2.04,1.91,4.15,4.05,1.84,6.57,20-7.42,35.48,9.69,23.97,28.36,10.07,7.92,10.97,21.88-.23,29.28,5.71,11.59-5.83,25.76-19.13,22.55-1.02,7.89-7.93,13.36-16,13.09-4.09-.14-8.78-3.49-11.3-3.29-1.87.15-5.65,3.93-8.4,4.81-11.63,3.74-22.49-2.8-26.75-13.64-9.63,1.25-23.59-1.61-24.94-13.18-.31-2.63.88-8.62.52-9.68-.31-.89-3.58-2.27-4.86-3.72-9.27-10.57-4.84-18.35,4.23-26.73-6.07-5.6-5.05-18.1,1.34-22.94,3.04-2.3,6.51-1.76,8.2-2.98,1.25-.9,2.25-5.74,4.95-8.19,8.32-7.57,26.45-5.83,32.33,4.19h0ZM333.89,516.82c-10.41-6.73-24.85-2.38-21.83,11.64.54,2.5,3.57,5.55,3.62,6.86.03.79-2.64,6.42-3.05,8.75-6.17,35.26,30.07,53.43,60.28,44.49,22.61-6.69,33.29-28.91,23.62-50.53,12.09-4.53,5.94-22.27-5.53-22.8-8.59-.4-11.21,5.88-11.9,5.99-.52.08-8.18-2.8-10-3.12-11.26-1.97-21.1-2.09-32.04,1.73-1.83.05-2.33-2.47-3.16-3.01h-.01Z" fill="#fff"/>
  <path d="M536.25,530.09c7.11,10.38,2.64,22.91-8.52,27.87,5.14,14.29-6.92,27.13-21.6,23.09-4.24,8.22-11.76,11.63-20.95,10.29-3-.44-7.7-3.55-8.82-3.63-1.63-.12-4.41,2.43-6.13,2.83-11.29,2.64-23.81-1.97-25.09-14.72-11.55.03-22.75-5.82-22.27-18.78.1-2.7,2.48-7.82,2.37-9.25-.22-3.1-6.07-4.59-5.67-14.47.3-7.62,8.4-14.93,8.51-15.85.1-.78-4.39-4.51-2.27-12.75,4.79-18.6,32.38-24.51,44.1-9.14,3.45-1.91,5.14-4.9,8.93-6.86,9.04-4.68,22.03-4.06,29.5,3.22,1.07,1.04,3.3,5.63,3.92,5.9.95.42,4.59-1.14,6.28-1.02,9.08.62,16.24,8.18,16.15,17.46-.03,3.13-3.39,9.75-3.26,10.37.14.67,3.89,4.09,4.81,5.44h.01ZM516.34,524.59c15.31-14.25-6.65-30.56-18.82-13.95-12.94-5.18-28.2-6.67-41.37-1.38-11.62-19.45-35.73.84-18.17,15.52-27.09,73.87,105.23,75.08,78.36-.19Z" fill="#fff"/>
  <path d="M285.32,324.14c.33.09,2.76,3.25,5.79,3.75,7.75,1.27,9.62-3.54,12.31-3.74,3.11-.23,13.53,5.51,18.19,6.12,9.47,1.24,17.11-3.13,22.05-10.87,18.58,76.56-120.32,74.89-100.25-1.98,5.43,9.03,12.95,13.71,23.83,12.33,4.21-.54,15.35-6.33,18.09-5.61h0ZM304.58,334.54c-3.06,8.82-19.71,7.72-24.03-.01-3.21,6.64,9.57,8.87,14.45,8.52,3.77-.27,17.58-5.6,9.58-8.5h0Z" fill="#fff"/>
  <path d="M131.63,381.18c-.58.68,4.09,13.54,3.36,17.42-.39,2.06-4.63.57-4.03,7.88.38,4.71,3.85,4.61,4.48,6.71,3.26,10.95-3.95,13.43-6.93,21.71-2.49,6.92-4.06,14.3,2.1,19.93,5.31,4.86,9.4,1.12,7.6,12.45-10.38-1.83-20.34-4.12-30.89-1.32l-2.37-41.77c1.31-1.57,14.04-10.83,12.22-12.77l-11.82,9.2c3.18-17.53-14.89-20.2-27.97-20.37l-.95-.97c3.12-4.77,5.58-10.92,8.89-15.46,2.73-3.73,14.73-13.9,15.7-15.84.56-1.13,1.91-16.42,1.73-17.27-.12-.58-4.17-1.8-3.98-5.32.33-6.07,12.13-6.18,9.56,2.28-.47,1.53-2.65,2.72-2.77,3.57-.11.74,2.7,14.11,3.24,14.63,1.5,1.45,7.82,2.19,9.67.49,1.56-1.42,4.91-15.09,4.46-17.02-.31-1.3-2.91-1.72-3.53-3.65-2.18-6.75,12.45-8.46,10.63-.03-.66,3.06-3.83,3.4-4.36,6.2-.75,3.98-.46,19.29,2.39,22.02,3.51.21,6.63-4.94,9.93-6.43,3.5-1.58,9.56-2.55,10.14,2.84.77,7.26-10.89,10.25-16.5,10.85v.04h0ZM92.62,386.53c-2.78.65-2.22,5.79,1.13,4.45,1.83-.73,1.63-5.1-1.13-4.45ZM113.56,389.88c-2.89-.39-4.36,5.89-.65,5.57,2.22-.19,3.3-5.21.65-5.57ZM121.76,438.37c-14.45-1.2-11.69,20.81,1.98,19.7.36-3.62-4.42-1.77-7.23-4.93-2.5-2.8-2.71-7.36-.66-10.52,1.93-2.97,5.07-1.67,5.91-4.26h0Z" fill="#fff"/>
  <path d="M285.47,589.54l-7.27-1.03c2.19-12.07,1.69-24.38-.28-36.44-.4-2.47-2.91-7.52-2.9-8.87.01-1.65,4.52-10.86,5.02-15.3,2.31-20.64-10.36-40.81-33-38.26-2.82.32-7.99,3.2-8.44,3.16-.52-.04-7.1-4.69-9.01-5.46-11.31-4.57-25.93-4.06-36.48,2.27-4.41-7.92-9.96-14.17-18.72-17.4l43.68-40.42,39.46,47.34c2.31,1.3,9.94,9.84,11.85,9.84h16.11v100.57h-.02Z" fill="#fff"/>
  <path d="M288.1,488.98l147.27-.65c-6.78,5.63-13.31,13.83-12.53,23.36.18,2.19,2.02,5.05,1.9,5.79-.14.87-4.1,4.25-4.95,6.19-2.29,5.23-2.88,12.53-1.33,18.04.83,2.95,4.03,5.55,4.21,6.82.19,1.41-2.15,4.33-2.4,7.18-.6,6.93,1.71,9.93,5.24,15.42-10.52,1.87-18.27,13.5-19.07,23.67h-16.44c-.12-5.05,6.17-3.73,10.21-5.24,6.3-2.34,12.71-9.86,12.81-16.81.03-2.27-1.71-5.38-1.24-7.06.51-1.8,6.45-4.35,7.14-11.97.9-9.97-6.27-14.6-6.53-17.72-.1-1.27,2.28-6.77,2.5-9.32.93-10.55-5-20.96-16.08-22.53-2.41-.34-9.56.72-10.02.53s-5.36-5.9-7.65-7.17c-10.98-6.09-22.64-3.43-31.57,4.63-8.67-7.72-24.68-10.43-34.19-2.65-2.73,2.24-4.21,7.12-5.63,8.18-1.31.98-3.96.88-5.85,2.04-8.78,5.41-11.44,17.6-5.37,26.16-8.41,5.61-10.89,18.79-4.54,26.88,1.16,1.47,5.29,3.34,5.8,4.9,1.52,4.63-2.06,9.26,2.88,16.19,1.83,2.57,9.89,7.68,12.7,7.68h10.19l-37.48-1.31v-101.22h.02Z" fill="#fff"/>
  <path d="M591.19,232.63v18.4c-42.11,2.76-80.26,30.08-100.36,66.35-5.69-2.88-11.27-6.2-17.98-5.88,22.97-44.05,67.98-75.68,118.34-78.87Z" fill="#fff"/>
  <path d="M125.71,556.02c1.09,9.87,1.39,19.98,2.72,29.81,5.09,37.62,15.91,75.59,38.71,106.57l-11.58,4.29c-1.02-.05-11.59-13.98-12.91-15.94-16.78-24.81-26.47-59.98-30.06-89.59-.55-4.52-3.23-28.59-.88-30.59.56-.48,13.52-5.11,14-4.55h0Z" fill="#fff"/>
  <path d="M159.41,388.56c-.42,1.04.64,13.46,1.27,14.51,1.82,3.03,7.44,3.06,9.66.04.75-1.03,2.9-7.94,3.08-9.41.71-5.78-4.48-8.97,2.1-11.76,12.6,2.03,1.43,8.01.83,10.08-.67,2.28-1.19,16.09.04,17.7,3.28,4.31,21.12-12.44,21.06.7-.04,8.53-13.55,6.34-14.46,8.64l.91,25.19-24.63,23.02c.72-3.71-1.69-8.31-.31-11.81.78-2,12.61-8.84,10.82-10.53-4.66.14-7.37,6.25-11.82,7.88,1.35-14.32-14.12-17.78-25.2-19.73l-.47-1.63c4.61-4.43,7.21-10.52,11.19-15.59,1.87-2.39,10.05-9.24,10.84-11.05.3-.69,2.53-14.07,2.36-14.8-.44-1.9-2.66-.73-3.59-3.71-2.19-7.07,9.54-8.34,8.79-.93-.26,2.56-2.29,2.78-2.45,3.18h-.02,0ZM149.28,425.78c1.91-1.12-.82-6.75-2.85-3.19-1.55,2.72.55,4.53,2.85,3.19ZM164.29,425.31c-3.16.73-1.27,5.37,1.17,4.5,1.61-.58,1.72-5.17-1.17-4.5Z" fill="#fff"/>
  <path d="M155.57,630.69c6.6,22.65,17.48,42.87,29.97,62.7-9.59-2.84-11.76,2.75-18.93-5.69-14.45-17-25.14-49.57-30.07-71.2-4.45-19.53-7.47-39.37-8.19-59.83l16.99,8.97c.96,21.76,4.14,44.16,10.23,65.05h0Z" fill="#fff"/>
  <path d="M591.19,253.01v17.75c-32.06,2.39-60.55,21.72-78.24,47.83-1.27,1.87-2.97,7.74-3.31,8.01-.45.36-9.56.24-11.13,2.66l-5.69-10.18c19.1-36.3,57.05-62.61,98.38-66.06h-.01Z" fill="#fff"/>
  <path d="M276.27,588.88l-88.09-12.48c5.72,1.97,13.62-7.03,16.92-7.79,1.55-.36,4.08.87,6.4.56,14.35-1.95,20.66-3.31,30.9-13.83.67-.69.93-2.51,1.05-2.58.42-.24,7.73,1.41,9.49,1.37,8.2-.19,14.42-3.73,20.7-8.61,5.43,13.47,3.14,29.13,2.63,43.38v-.02Z" fill="#fff"/>
  <path d="M476.14,477.8l-1.04,8.56c-8.19,1.65-16.75-2.09-24.29-2.02-4.25.04-7.97,1.88-11.8,2.03-54.34,2.06-109.35-1.5-163.76.67l-1.94-.65-.04-8.62,202.87.04h0Z" fill="#fff"/>
  <path d="M591.19,272.72v17.75c-26.64,3.64-49.94,21.5-63.5,44.02-5.15-3.8-9.11-7.83-16.07-8.2,16.06-29.55,45.63-50.24,79.56-53.56h.01Z" fill="#fff"/>
  <polygon points="243.73 414.7 295.98 474.19 269.99 474.55 218.41 414.7 243.73 414.7" fill="#fff"/>
  <path d="M325.25,414.7l56.21,60.47h-25.31c-19.75-19.41-38.15-40.1-56.87-60.47h25.97Z" fill="#fff"/>
  <path d="M125.05,650.67l7.22,17.92,19.74,29.08c-20.59,6.26-35.26-.67-48.99-15.44-2.2-2.37-12.88-15.6-13.22-17.73-.11-.71-.49-1.11.39-1.66l34.85-12.17h.01ZM120.75,676.66c-5.87-10.6-9.26,3.88-7.84,7.51,1.98,5.04,13.45,2.63,7.84-7.51Z" fill="#fff"/>
  <path d="M272,414.7l51.61,59.81h-22.02c-.37,0-1.38,1.2-2.28.37l-51.96-60.18h24.65Z" fill="#fff"/>
  <polygon points="295.67 414.7 349.52 472.6 350.56 475.17 326.53 473.89 275.61 414.7 295.67 414.7" fill="#fff"/>
  <path d="M442.46,578.51c.67.54.73,3.01,1.48,3.98,6.31,8.19,12.92,12.27,23.91,10.92,2.62-.32,7.54-3.16,8.51-3.06,7.13.72,8.5,6.16,19.87,2.51,7.89-2.53,7.08-6.07,16.73.62l-16.43.67c2.81,7.41.39,14.48-8.23,15.12l-.99-.34,1.98-8.86-1.98.44c.03,7.93-5.8,11.56-11.83,5.82-3.57-3.4-1.39-11.28-5.9-11.51,2.93,8,.49,14.17-8.55,14.45l-.33-10.5-2.96,10.2c-10.15.58-10.75-6.64-14-13.94l-10.32-.57,4.59-7.53c-4.3-1.12-7.24,7.82-9,8.41l-20.58-.53c.75-7.9,10.02-22.83,19.34-21.68.78.1,14.09,4.9,14.7,5.4v-.02h-.01Z" fill="#fff"/>
  <path d="M226.96,690.77c-3.08,11.76,11.39,13.86,14.1,2.81l51.65,7.7c-23.96,11.88-43.98,13.26-69.54,5.44-4.11-1.26-32.24-11.36-33.99-12.68-2.22-1.68-6.14-10.5-8.24-13.12l46.02,9.86h0Z" fill="#fff"/>
  <path d="M591.19,292.44v15.78c-19.1,5.97-38.34,18.47-44.71,38.13l-15.11-.66c-3.3-9.51-1.72-11.59,4.04-19.29,12.58-16.8,34.85-31,55.78-33.96h0Z" fill="#fff"/>
  <polygon points="110.52 592.23 115.14 619.72 73.81 632.24 67.89 605.36 110.52 592.23" fill="#fff"/>
  <path d="M248.24,453.9c4.24,4.94,18.73,18.55,20.8,22.91,1.49,3.14,1.45,6.17,1.31,9.53-2.95,3.52-48.96-53.8-52.34-57.81l-44.98,42.35-12.47-.32,55.65-53.84c11.23,11.9,21.38,24.77,32.02,37.17h0Z" fill="#fff"/>
  <path d="M120.71,639.91c.3.95,4.61,8.17,3.05,9.14l-35.74,12.16c-2.09-.18-13.13-24.06-12.33-26.59l39.78-12.8c.9.28,4.48,15.67,5.24,18.08h0Z" fill="#fff"/>
  <path d="M398.19,405.21c1.27,1.78,2.8,2.76,2.35,5.55-3.87-.35-6.88,2.62-4.65,6.3,1.14,1.88,3.74.97,4.87,4.32,2.8,8.29-5.05,19.12-12.26,22.37-14.44,6.5-31.69-.09-41.55-11.3-2.62-6.21,12.85,2.81,15.86,3.21,17.67,2.32,29-12.21,9.54-20.73.78-12.76,17.04-22.04,25.84-9.72h0ZM390.61,408.84c-1.74-.88-6.26.77-4.44,3.13,2.36,3.07,6.72-1.98,4.44-3.13Z" fill="#fff"/>
  <path d="M97.44,468.61c.61.78-10.34,8.77-11.43,9.93-12.45,13.29-14.08,30.54-8.3,47.24-39.26-8.47-17.53-75.01,19.73-57.17Z" fill="#fff"/>
  <path d="M385.08,475.17l-34.2-36.14c6.08,5.33,13.05,8.96,21.36,9.2.53.58-1.72,8.86,1.99,4.94-1.29-4.23,1.73-5.42,5.6-5,3.59.39,2.02,3.26,2.3,5.97h1.97c-1.9-8.4,3.77-7.39,9.84-10.22l28.95,31.25h-37.81Z" fill="#fff"/>
  <path d="M109.5,587.38c.02.15,2.01.82,1.1,2.82l-42.73,13.15c-.32-4.91-2.04-17.94.27-21.74,3-4.93,33.11-15.96,39.5-19.66.56,8.42.55,17.08,1.86,25.43h0Z" fill="#fff"/>
  <path d="M179.36,502.52c-9.74,14.01-12.18,27.48-5,43.64-39.9-1.19-27.5-66.99,9.85-49.62-1.89,1.76-3.39,3.89-4.85,5.99h0Z" fill="#fff"/>
  <path d="M426.5,475.17l-31.2-33.19c4.59-4.51,7.56-8.35,7.88-15.09.23-4.85-2.01-8.5.35-12.89l4.88.04c-1.43,3.79,1.64,4.82,1.99,5.63.53,1.24-1.61,1.88-1.92,3.96-1.19,8.11,1.5,14.63,7.68,20,4.81,4.18,11.11,3.1,9.35,11.17,3.52.21.33-8.63,5.3-4.97,1,.74.37,3.64,1.24,5.16,3.69,6.39,15.21,13.86,19.75,20.19h-25.31.01Z" fill="#fff"/>
  <path d="M431.8,403.81c3.78,2.86,4.79,6.57,4.26,11.26-.71,6.3-6.01,5.23-7.1,10.64-2.79,13.77,13,15.66,22.64,10.16,1.61-.92,8.83-8.71,10.04-4.98-1.41,7.69-15.04,15.73-22.05,16.63-11.07,1.41-26.69-4.37-28.36-16.87-1.51-11.24,5.05-9.85,5.74-13.68,1.09-6.05-7.75-2.68-2.26-11.41,3.86-6.13,11.79-5.75,17.09-1.74h0ZM424.84,413.38c.79-.52,1.11-4.91-1.62-3.93-2.32.83-.48,5.32,1.62,3.93Z" fill="#fff"/>
  <path d="M436.04,330.57c3.08,4.88-15.86,10.39-13.15,13.14l18.97-5.82c3.93,6.91-12.56,8.85-13.09,12.04-.15.88-.29,1.99,1.01,1.66l11.19-5.27,1.67,1.69c.76,3.9-13.06,13.54-16.46,15.1-4.93,2.25-11.65,3.33-17.02,2.87-1.71-7.45-4.45-14.71-9.18-20.77l8.09-12.71c4.31-2.33,4.03,4.92,2.98,7.6l.98.97c6.96-4.83,15.1-11,24.01-10.51h0Z" fill="#fff"/>
  <path d="M180.28,339.11c.66-.65-1.56-8.27,2.2-8.49l7.54,12.66c-6.56,5.83-9.84,13.54-13.09,21.43-7.55-.92-28.51-9.94-30.7-17.54-.17-.58-.87-3.87.79-3.44l14.18,5.22c-.1-6.45-18.27-5.28-15.72-12.06s21.36,6.63,22.95,5.48l-.44-1.98c-2.8-1.6-17.14-7.75-16.54-10.74,5.06-7.45,26.88,11.36,28.82,9.44v.02h.01Z" fill="#fff"/>
  <path d="M75.47,418.91c-3.43-4.93-3.41-11.2-.6-16.73,8.29.57,26.31,1.14,28.33,11.69,2.97,15.53-20.75,15.08-27.73,5.04ZM80.77,408.83c-1.42.19-2.59,3.3-.73,3.89,3.01.96,3.75-4.29.73-3.89ZM90.55,410.76c-1.93.68-.9,4.04,1.3,3.27,1.93-.68.9-4.04-1.3-3.27Z" fill="#fff"/>
  <path d="M455.43,475.17c-1.45-.42-20.75-20.07-21.22-21.51-.35-1.07-.12-2.36-.14-3.47,5.35-1.35.17,5.3,4.59,5.91-2.68-5.79,5.29-9.01,9.57-8.59,1.91.19,23.58,24.36,26.6,27.66-4.95-.92-15.14,1.23-19.4,0Z" fill="#fff"/>
  <path d="M130.42,435.84c2.82-1.65,17.94,3.46,20.62,5.8,6.66,5.83,6.2,14.56-3.96,15.78-13.84,1.67-22.19-8.46-16.66-21.59h0ZM136.23,442.97c-.46-.39-2.61.3-2.61.98,0,2.01,4.51.65,2.61-.98ZM145.43,444.94c-1.45-1.93-5.37,1.58-3.28,2.62.82.41,4.08-1.56,3.28-2.62Z" fill="#fff"/>
  <path d="M370.29,414.7c2.01,1.52-5.7,3.89-7.19,4.97-2.03,1.49-7.97,8.96-8.57,9.15-1.55.51-10.42-3.95-10.55,2.3l-15.77-16.43h42.08,0Z" fill="#fff"/>
  <path d="M361.31,424.14c3.99-3.71,11.52-7.81,16.56-3.54,11.28,9.58-15.51,16.93-21.39,10.19-.16-.65,4.07-5.94,4.84-6.65h0Z" fill="#fff"/>
  <path d="M451.68,432.98c-6.67,5.51-24.24,4.7-20.63-7.16,3.05-10.02,20.69-.53,20.63,7.16Z" fill="#fff"/>
  <path d="M156.61,457.43v13.15c-10.91,3.79-16.85,2.12-16.45-10.84l16.45-2.31Z" fill="#fff"/>
  <path d="M234.66,309.02c1.56-.37,7.37-.28,7.88,1.45l-3.51,16.74c-9.57,1.43-12.83-16.17-4.36-18.19h-.01Z" fill="#fff"/>
  <path d="M347.28,327.28l-1.98-18.41c14.8-3.36,15.73,18.22,1.98,18.41Z" fill="#fff"/>
  <path d="M148.59,408.01c-.33.76-5.63,5.39-7.27,5.27-4.19-.3-10.96-8.44-6.01-11.66,3.13-2.04,14.72,3.05,13.28,6.39Z" fill="#fff"/>
  <path d="M248,284.56c-2.68,3.4-3.65,20.09-4.89,21.72-.76.99-2.78.7-3.89.54-4.75-7.77.76-19.19,8.78-22.26Z" fill="#fff"/>
  <path d="M341.37,285.87c5.76,2.55,9.47,9.07,9.14,15.34-.18,3.43-1.92,7.84-5.75,4.6l-3.39-19.94Z" fill="#fff"/>
  <path d="M236.42,688.54c1.59,3.62,3.53,9.09-2.72,10.01-7.89,1.16-4.29-13.08-1.15-16.31.78-.04,3.43,5.3,3.87,6.3Z" fill="#fff"/>
  <path d="M93.3,364.96c5.06,3.93-.5,7.89-3.97,10.24-9.37-4.44-4.45-16.77,3.97-10.24Z" fill="#fff"/>
  <path d="M411.72,414.05c1.45-.92,4.71,2.19,2.64,3.63-3.09,2.16-4.02-2.75-2.64-3.63Z" fill="#fff"/>
  <path d="M398.01,415.9c-2.06-2.88,3.11-3.48,3.83-1.52.9,2.45-2.94,2.76-3.83,1.52Z" fill="#fff"/>
  <path d="M140.83,415.37c.56.89-1.81,2.99-2.62,3.28l-.66-3.94c.22-.2,3.19.52,3.28.66Z" fill="#fff"/>
  <path d="M104.03,271.41c9.83-4.17,24.14-1.31,29.56,8.39,1.05,1.88,1.14,5.83,1.36,6.05,1.73,1.75,13.51-.35,14.44,11.54,1.25,16.02-21.6,19.11-33.05,17.25-2.38-.39-8.09-3.25-9.87-3.03-.97.12-8.61,5.15-12.44,6.02-8.58,1.94-17.64.96-25.35-3.32-1.69-.94-3.91-4.22-5.36-4.47-.62-.11-9.22,2.91-12.21,3.01-34.65,1.18-30.23-38.72,1.62-34.2,1.74-26.6,42.58-32.64,51.3-7.24ZM98.52,265.07c-13.94-16.06-43.83-6.11-44.45,15.94-7.9-2.29-17.09.03-22,6.89-1.85,2.59-1.6,5.1-3.68,6.88,3.28,17.19,22.42,19.28,35.73,12.07,8.52,12.05,25.06,10.93,37.27,5.66,1.51-.65,3.96-3.37,5.03-3.49.86-.1,10.43,3.54,13.67,3.81,6.3.53,13.54-.16,19.19-3.2,13.82-7.43,8.18-23.28-7.01-21.13,1.01-15.23-17.4-20.81-28.58-13.8-1.79-3.19-2.73-6.81-5.18-9.63h0Z"/>
  <path d="M421.99,268.35c4.13,8.39-3.86,18.31-9.96,23.44-11.81,9.93-16.92,8.77-27.31-2.27s-12.01-32.3,7.96-27.68c2.68.62,6.51,4.77,7.64,4.86.92.07,4.49-3.05,6.74-3.54,4.99-1.07,12.49.24,14.92,5.19h0ZM398.14,269.2c-4.05-3.54-4.25-6.66-11.59-5.51-19.63,3.08,3.49,33.55,12.98,32.76,5.36-.44,17.7-12.05,19.52-17.36,4.94-14.46-11.37-19.22-17.55-7.68-.55.14-2.78-1.71-3.36-2.22h0Z"/>
  <path d="M167.29,287.69c-.38-.79-.32-5.56-.21-6.79.08-.88,2.46-1.55,1.36-4.41-.72-1.89-8.07-3.74-6.47-8.55,1.87-3.58,7.61-1.47,10.14-3.05,2.72-1.7,3.13-12.4,9.53-8.31,2.71,1.74,3.12,6.95,4.57,7.92,2.34,1.57,9.43-.07,10.84,2.98,2.29,4.93-4.89,6.13-5.46,9.66-.47,2.88,4.29,12.41-2.79,11.76-3.05-.28-4.28-3.62-8.19-3.74-5.38-.16-8.34,6.53-13.32,2.54h0ZM184.4,265.98c-1.22-1.14-2.52-8.62-5.67-7.67-4.25,8.81-5.08,9.24-14.88,10.82.31,2.94,5.44,3.46,6.14,5.07,1.57,3.58-.62,8.61-.22,12.33,5.46-.62,7-5.37,13.12-3.58,1.27.37,5.67,4.95,6.95,2.93-1.85-9.25-1.41-10.91,5.56-16.77-2.4-2.93-8.36-.66-10.99-3.13h0Z"/>
  <path d="M63.47,348.76c2.38,2.73,9.48.96,10.33,4.51,1.14,4.82-5.17,5.85-5.84,8.68-.48,2.06,1.9,6.89-.26,9.21-2.7,2.89-7.56-3.1-10.01-3.18-2.31-.08-4.65,2.87-7.42,3.19-8.41,1-2.72-5.97-3.44-10-.43-2.42-3.22-2.89-4.16-4.5-4.29-7.36,4.47-5.42,8.08-6.77,1.88-.7,3.16-7.56,7.01-7.99,4.49-.5,4.23,5.13,5.72,6.84h-.01ZM71.8,353.58c-8.54-.35-9.66-2.35-13.56-9.17-5.39,4.88-4.1,9.94-14.05,8.51-.85,3.75,4.55,4.17,5.15,7.71.43,2.53-1.92,5.88-1.2,8.71,7.59-3.67,10.17-3.71,17.76-.29,1.35-.98-.59-6,.13-8.44.64-2.15,7.27-5.14,5.77-7.03h0Z"/>
  <path d="M150.69,751.9c3.98,2.83-12.88,4.01-14.14,4-11.53-.14-22.78-5.04-30.89-13.19-13.47,15.09-38.18,22.68-56.9,12.84-1.24-.65-6.91-3.89-3.6-4.95,18.59,13.37,45.76,6.85,59.25-10.58,13.64,11.13,28.66,16.62,46.28,11.89h0Z"/>
  <path d="M341.35,750.58c.16,2.2-5.51,2.91-7.09,3.1-10.43,1.2-18.52-2.01-26.62-8.24-10.6,7.68-20.89,12.17-34.35,11.08-1.91-.15-21.99-5.19-18.71-8.56,18.98,10.68,36.78,7.48,53.6-5.25,9.37,9.05,20.7,10.74,33.18,7.88h-.01Z"/>
  <path d="M426.17,770.3c1.96,2.12-8.54,6.43-9.87,6.89-10.29,3.53-20.98,3.61-31.23-.31-1.45-.56-10.57-5.69-10.85-6.26-.09-.19-.21-1.67.35-1.65l1.29.02c15.15,11.81,34.22,10.6,50.31,1.31Z"/>
  <path d="M455.1,732.18c4.14.44,6.85,3.9,10.81,5.29,7.85,2.74,18.1,2.48,26.14.44,1.81-.46,13.39-6.61,13.65-4.09-14.47,9.54-38.32,12.57-50.6-1.64h0Z"/>
  <path d="M555.69,771.62c-10.4,11.63-31.74,11.13-44.51,3.42-1.53-.92-6.63-5.44-2.4-4.2,3.33.98,8.13,4.96,12.85,6.23,13.28,3.56,22.12.06,34.05-5.45h.01Z"/>
  <path d="M168.75,774.59c-.53-.44-1.58-1.03-1.62-1.66,4.17-.06,7.44,3.23,11.54,4.55,9.75,3.16,17.33,2.6,26.93-.61,1.2-.4,7.48-4.71,7.53-2.31-10.99,9.75-33.39,9.16-44.39.02h0Z"/>
  <path d="M539.19,672.42c3.03,4.76,7.54,19.27-2.87,17.02-8.02-1.74-1.22-19.29,2.87-17.02ZM535.5,686.63c8.1,3.22,4.53-6.92,3.09-10.98-3.09,2.4-5.85,7.34-3.09,10.98Z"/>
  <path d="M513.19,438.14c.17.48,1.86,1.5,2.23,4,1.07,7.28-4.14,13.77-10.7,8.73s.67-16.24,4.62-21.69c2.58,2.38,2.79,5.93,3.85,8.96h0ZM509.66,433.76c-5.11,2.3-7.17,20.43,1.04,15.81,5.06-2.84-.17-11.83-1.04-15.81Z"/>
  <path d="M490.23,402.59c2.17,4.83,5.41,13.79-2.23,15.75-12.73,3.27-7.01-18.03-1.67-22.69.46.03,3.47,5.97,3.9,6.94h0ZM486.65,400.24c-1.7-.35-1.02.32-1.37.93-2.48,4.3-6.37,17.64,3.07,14.23,4.36-2.63-.62-11.65-1.7-15.15h0Z"/>
  <path d="M535.09,399.66c3.89-1.34,7.58,12.48,7.51,15.38-.24,9.54-12.8,10.18-13.25,0-.11-2.49,3.65-14.66,5.74-15.38ZM536.25,403.85c-.44-.41,0-1.21-.93-.98-1.02,4.55-5.91,10.59-2.94,15.08,9.73,7.63,8.99-9.29,3.87-14.11h0Z"/>
  <path d="M127.52,510.17c2.39,2.55.02,8.19-3.59,6.6-5.26-2.3.27-10.15,3.59-6.6Z"/>
  <path d="M86.39,511.86c-2.51-4.73,4.85-8.52,5.12-2.79.18,3.83-3.96,4.99-5.12,2.79Z"/>
  <path d="M224.15,529.87c5.57-1.68,6.26,5.76,2.33,6.95-5.57,1.68-6.26-5.76-2.33-6.95Z"/>
  <path d="M191.3,527.26c3.92,3.91-3.96,10.3-5.61,4.62-1.36-4.68,2.9-7.33,5.61-4.62Z"/>
  <path d="M311.98,317.21c-.93-.79-3.91-5.91-1.84-7.01,2.01-.28,1.73,6.68,7.84,6.59,6.72-.1,3.92-6.16,8.25-7.91,2.25,8.31-8.66,13.08-14.24,8.33h-.01Z"/>
  <path d="M264.43,310.19c.45,5.19,6.12,8.75,10.57,4.97,1.78-1.52,2.56-7.73,4.55-3.37-1.44,5.08-4.88,7.52-10.18,6.97-8.08-.85-7.52-10.6-4.93-8.57h-.01Z"/>
  <path d="M328.21,295.07c-5.82-1.97-8.75-5.69-15.77-3.29.84-5.86,14.56-2.4,15.77,3.29Z"/>
  <path d="M275.56,289.21c1.22,4.41-3.47,1.34-7.35,2.08-3.23.61-3.99,3.39-7.05,3.78.97-6.1,9.43-7.22,14.4-5.86Z"/>
  <path d="M333.89,516.82c.84.54,1.33,3.06,3.16,3.01,10.94-3.82,20.78-3.7,32.04-1.73,1.82.32,9.48,3.2,10,3.12.69-.11,3.31-6.39,11.9-5.99,11.47.53,17.62,18.28,5.53,22.8,9.67,21.62-1.01,43.84-23.62,50.53-30.21,8.94-66.45-9.23-60.28-44.49.41-2.33,3.08-7.96,3.05-8.75-.05-1.31-3.08-4.36-3.62-6.86-3.02-14.01,11.42-18.36,21.83-11.64h.01ZM398.19,522.21c-3.49-4.74-8.09-6.47-13.68-3.57-1.99,1.03-3.82,4.98-5.29,5.16s-6.24-2.54-8.26-2.95c-6.74-1.39-13.06-2.05-19.97-1.54-3.46.26-13.01,3.28-14.59,3.15-1.88-.15-4.36-4.92-8.41-5.98-12.93-3.37-20.1,10.7-8.32,17.54-14.57,22.37.99,48.22,25.63,53.23,33.47,6.8,62.06-14.75,48.62-49.96.47-2.63,9.03-.98,6.41-11.64-.53-2.15-1.21-2.16-2.15-3.44h.01Z"/>
  <path d="M516.34,524.59c26.87,75.27-105.45,74.05-78.36.19-17.56-14.68,6.55-34.96,18.17-15.52,13.17-5.29,28.43-3.79,41.37,1.38,12.17-16.62,34.13-.3,18.82,13.95ZM512.29,523.16c9.77-.02,9.02-15.39.17-16.93-6.48-1.13-10.68,2.91-14.29,7.63-13.44-7.04-29.35-7.18-43.36-1.97-4.42-14.48-25.96-7.43-19.32,6.21,1.03,2.12,5.11,5.12,5.18,5.49.17.83-4.4,12.49-4.63,16.34-3.31,56.26,98.87,47.84,80.04-8.41-1.25-3.72-3.26-5.19-3.8-8.36h.01Z"/>
  <path d="M304.58,334.54c8,2.9-5.81,8.23-9.58,8.5-4.89.36-17.66-1.87-14.45-8.52,4.32,7.73,20.97,8.83,24.03.01h0Z"/>
  <path d="M121.76,438.37c-.85,2.6-3.98,1.29-5.91,4.26-2.05,3.15-1.84,7.71.66,10.52,2.82,3.16,7.59,1.31,7.23,4.93-13.67,1.11-16.43-20.9-1.98-19.7h0Z"/>
  <path d="M113.56,389.88c2.65.36,1.57,5.37-.65,5.57-3.71.32-2.24-5.95.65-5.57Z"/>
  <path d="M92.62,386.53c2.76-.65,2.95,3.72,1.13,4.45-3.34,1.34-3.9-3.8-1.13-4.45Z"/>
  <path d="M164.29,425.31c2.89-.67,2.78,3.92,1.17,4.5-2.44.87-4.33-3.77-1.17-4.5Z"/>
  <path d="M149.28,425.78c-2.3,1.35-4.4-.47-2.85-3.19,2.03-3.56,4.76,2.07,2.85,3.19Z"/>
  <path d="M120.75,676.66c5.62,10.14-5.86,12.55-7.84,7.51-1.42-3.63,1.97-18.11,7.84-7.51ZM115.36,684.04c3.58,3.98,6.27-6.48,1.47-9.05-.96,2.3-3.43,6.87-1.47,9.05Z"/>
  <path d="M390.61,408.84c2.28,1.15-2.08,6.2-4.44,3.13-1.82-2.36,2.7-4.01,4.44-3.13Z"/>
  <path d="M424.84,413.38c-2.11,1.39-3.94-3.1-1.62-3.93,2.73-.98,2.41,3.41,1.62,3.93Z"/>
  <path d="M80.77,408.83c3.02-.39,2.28,4.86-.73,3.89-1.86-.59-.69-3.71.73-3.89Z"/>
  <path d="M90.55,410.76c2.19-.77,3.23,2.59,1.3,3.27-2.19.77-3.23-2.59-1.3-3.27Z"/>
  <path d="M145.43,444.94c.8,1.06-2.46,3.03-3.28,2.62-2.09-1.04,1.83-4.55,3.28-2.62Z"/>
  <path d="M136.23,442.97c1.9,1.63-2.61,2.99-2.61.98,0-.68,2.15-1.38,2.61-.98Z"/>
  <path d="M98.52,265.07c2.45,2.83,3.4,6.45,5.18,9.63,11.18-7.01,29.59-1.42,28.58,13.8,15.19-2.15,20.83,13.7,7.01,21.13-5.65,3.04-12.89,3.73-19.19,3.2-3.24-.27-12.81-3.91-13.67-3.81-1.06.12-3.52,2.84-5.03,3.49-12.21,5.27-28.76,6.39-37.27-5.66-13.31,7.2-32.45,5.11-35.73-12.07,2.07-1.78,1.82-4.29,3.68-6.88,4.91-6.86,14.1-9.18,22-6.89.61-22.05,30.5-31.99,44.45-15.94h0Z" fill="#fff"/>
  <path d="M398.14,269.2c.58.51,2.81,2.35,3.36,2.22,6.18-11.55,22.49-6.78,17.55,7.68-1.81,5.31-14.16,16.92-19.52,17.36-9.49.78-32.62-29.69-12.98-32.76,7.34-1.15,7.53,1.97,11.59,5.51h0Z" fill="#fff"/>
  <path d="M184.4,265.98c2.63,2.47,8.59.2,10.99,3.13-6.97,5.85-7.41,7.52-5.56,16.77-1.28,2.03-5.68-2.56-6.95-2.93-6.12-1.79-7.66,2.96-13.12,3.58-.4-3.73,1.79-8.76.22-12.33-.7-1.6-5.84-2.13-6.14-5.07,9.79-1.58,10.63-2,14.88-10.82,3.16-.95,4.46,6.53,5.67,7.67h0Z" fill="#fff"/>
  <path d="M71.8,353.58c1.5,1.89-5.13,4.88-5.77,7.03-.72,2.43,1.21,7.46-.13,8.44-7.58-3.41-10.17-3.37-17.76.29-.71-2.83,1.64-6.19,1.2-8.71-.61-3.54-6-3.96-5.15-7.71,9.95,1.44,8.67-3.63,14.05-8.51,3.9,6.82,5.02,8.82,13.56,9.17h0Z" fill="#fff"/>
  <path d="M535.5,686.63c-2.76-3.65,0-8.58,3.09-10.98,1.44,4.06,5.01,14.2-3.09,10.98Z" fill="#fff"/>
  <path d="M509.66,433.76c.88,3.99,6.1,12.97,1.04,15.81-8.21,4.62-6.15-13.52-1.04-15.81Z" fill="#fff"/>
  <path d="M486.65,400.24c1.08,3.51,6.06,12.53,1.7,15.15-9.44,3.42-5.55-9.92-3.07-14.23.35-.61-.33-1.28,1.37-.93h0Z" fill="#fff"/>
  <path d="M536.25,403.85c5.12,4.82,5.86,21.74-3.87,14.11-2.97-4.49,1.92-10.54,2.94-15.08.93-.23.49.56.93.98h0Z" fill="#fff"/>
  <path d="M398.19,522.21c.94,1.28,1.63,1.29,2.15,3.44,2.62,10.66-5.94,9.01-6.41,11.64,13.44,35.22-15.15,56.76-48.62,49.96-24.64-5.01-40.21-30.85-25.63-53.23-11.78-6.83-4.62-20.9,8.32-17.54,4.05,1.05,6.53,5.83,8.41,5.98,1.58.13,11.13-2.9,14.59-3.15,6.91-.51,13.23.15,19.97,1.54,2.01.42,6.76,3.13,8.26,2.95s3.3-4.13,5.29-5.16c5.59-2.9,10.19-1.17,13.68,3.57h-.01ZM329.52,523.17c-5.19-4.05-9.86-1.23-9.19,5.24,3.35.55,2.11-2.33,3.23-4.32,1.64-1.3,5.73,3.06,5.96-.92ZM391.33,531.7c4.07.85,2.95-5.8.65-6.89-2.18-.81-5.11-.76-4.6,2.29,4.97-.47,4,.1,3.95,4.6h0ZM341.18,546.99c-4.33-4.04-7.95,4.01-5.13,6.12,3.53,2.64,8.38-3.08,5.13-6.12ZM372.73,546.94c-3.28,1.07-2.85,6.64.53,7.1,6.29.86,5.74-9.14-.53-7.1ZM362.93,558.11c-1.13-2.07-14.86-3.39-14.25,2.68.46,4.65,8.57,2.7,5.36,8.89-.92,1.78-3.46,2.02-5.2,1.59-3.64-.89-2.91-4.06-6.15-4.07.06,4.64,3.88,6.84,8.22,6.63,2.41-.12,4.58-2.05,5.16-1.96.86.13,2.42,3.12,6.04,3.24,4.68.15,8.27-4.07,8.19-8.56-3.33-.56-2.29,3.28-4.61,4.91-3.78,2.67-9.58-.13-9.08-4.74.15-1.41,9.31-3.15,6.34-8.61h-.02Z" fill="#fff"/>
  <path d="M512.29,523.16c.54,3.18,2.55,4.64,3.8,8.36,18.83,56.25-83.35,64.67-80.04,8.41.23-3.85,4.8-15.51,4.63-16.34-.08-.37-4.15-3.37-5.18-5.49-6.64-13.64,14.9-20.69,19.32-6.21,14.01-5.21,29.92-5.07,43.36,1.97,3.61-4.72,7.81-8.76,14.29-7.63,8.84,1.54,9.59,16.9-.17,16.93h-.01ZM446.69,516.06c.38-.4,2.57.12,3.13-1.12l-1.79-1.55-4.14,1.69c-1.26,10.18,1.57,2.27,2.8.98h0ZM506.09,513.96l-1.02,1.62,4.92,3.62c2.32-2.12-2.02-5.83-3.89-5.24h-.01ZM455.96,542.68c3.09,4.05,9.04-.62,5.78-4.8-2.08-2.67-9.35.12-5.78,4.8ZM490.12,544.02c2.75,2.85,8.6-.42,5.8-4.8-2.59-4.04-9.15,1.33-5.8,4.8ZM476.22,556.09c13.26-3.24,1.93-12.86-6.04-7.02-3.44,5.05,7.46,6.17,2.98,11.52-3.81,4.55-9.96-5.96-10.08-1.06-.13,5.8,10.78,3.18,11.43,3.25.72.07,1.93,2.16,3.12,2.61,4.42,1.65,10.01-2.23,11-6.73-4.53.86-6.94,7.98-12.06,3.13l-.35-5.69h0Z" fill="#fff"/>
  <path d="M115.36,684.04c-1.96-2.18.51-6.75,1.47-9.05,4.8,2.57,2.11,13.03-1.47,9.05Z" fill="#fff"/>
  <path d="M362.93,558.11c2.97,5.46-6.18,7.19-6.34,8.61-.5,4.61,5.29,7.41,9.08,4.74,2.32-1.63,1.28-5.47,4.61-4.91.08,4.49-3.5,8.72-8.19,8.56-3.62-.12-5.17-3.11-6.04-3.24-.59-.09-2.76,1.85-5.16,1.96-4.33.21-8.16-1.99-8.22-6.63,3.25.01,2.51,3.18,6.15,4.07,1.74.43,4.28.19,5.2-1.59,3.21-6.19-4.9-4.24-5.36-8.89-.6-6.07,13.13-4.75,14.25-2.68h.02Z"/>
  <path d="M372.73,546.94c6.27-2.04,6.83,7.96.53,7.1-3.38-.46-3.82-6.04-.53-7.1Z"/>
  <path d="M341.18,546.99c3.25,3.03-1.59,8.75-5.13,6.12-2.82-2.11.8-10.16,5.13-6.12Z"/>
  <path d="M329.52,523.17c-.24,3.98-4.32-.39-5.96.92-1.12,1.99.12,4.87-3.23,4.32-.67-6.47,4-9.29,9.19-5.24Z"/>
  <path d="M391.33,531.7c.05-4.51,1.03-5.07-3.95-4.6-.51-3.06,2.42-3.1,4.6-2.29,2.3,1.09,3.42,7.74-.65,6.89h0Z"/>
  <path d="M476.22,556.09l.35,5.69c5.12,4.85,7.52-2.27,12.06-3.13-1,4.5-6.58,8.39-11,6.73-1.19-.45-2.4-2.53-3.12-2.61-.65-.06-11.56,2.55-11.43-3.25.11-4.9,6.26,5.61,10.08,1.06,4.48-5.35-6.41-6.47-2.98-11.52,7.97-5.84,19.3,3.78,6.04,7.02h0Z"/>
  <path d="M455.96,542.68c-3.57-4.68,3.69-7.46,5.78-4.8,3.26,4.18-2.68,8.84-5.78,4.8Z"/>
  <path d="M490.12,544.02c-3.36-3.47,3.21-8.84,5.8-4.8,2.8,4.38-3.05,7.65-5.8,4.8Z"/>
  <path d="M446.69,516.06c-1.23,1.29-4.06,9.2-2.8-.98l4.14-1.69,1.79,1.55c-.56,1.24-2.75.72-3.13,1.12h0Z"/>
  <path d="M506.09,513.96c1.88-.59,6.21,3.13,3.89,5.24l-4.92-3.62,1.02-1.62h.01Z"/>
</svg>