<?xml version="1.0" encoding="UTF-8"?>
<svg id="Camada_1" xmlns="http://www.w3.org/2000/svg" version="1.1" viewBox="0 0 595.28 841.89">
  <!-- Generator: Adobe Illustrator 29.0.0, SVG Export Plug-In . SVG Version: 2.1.0 Build 186)  -->
  <g>
    <path d="M595.14-.06v842H.14V-.06h595ZM590.82,5.71H6.38v339.39c16.45.12,30.93,7.07,41.74,19.2,2.56-34.96,10.91-69.08,18.48-103.16-4.31-7.69-5.79-15.97-5.05-24.79.6-7.22,4.44-10.99,6.74-17.26,3.11-8.46,4.15-18.31,7.05-27.03,15.47-46.41,67.78-78.13,111.2-43.77,7.93,6.27,28.39,29.05,31.46,38.13s1.59,18.31,2.39,27.37c.72,8.2,2.79,17.31,2.89,25.43s-2.58,15.37-2.4,23.06c.47,20.55,7.96,45.17,10.48,66.32,1.73,14.53,2.38,29.26,3.43,43.85,11.18-6.35,23.37-12.61,36.46-7.68-16.24-43.18-23.58-89.46-25.45-135.59-.55-13.56-.93-28.29,0-41.8.41-5.94.23-17.97,6.4-20.48,8.58-3.49,21.56,1.07,28.64,6.33v-48.48l-15.36-.96-.26-9.14,47.28-82.31,113.51-1.22,119.2,2.68c4.47,1.8,17.77,29.78,20.58,35.58,4.14,8.54,20.34,41.86,19.72,49.31-.61,7.42-10.56,6.47-15.81,6.06v78.25l21.11-4.08V5.71ZM556.27,58.51c.62-.55-4.51-9.72-5.2-10.88-1.04-1.78-4.61-8.47-6.09-8.79l-225.27-3.85,12.23,21.12c74.78,1.47,149.5,2.67,224.32,2.4ZM268.85,119.95l12.98-1.17,39.76-67.78c.58-.77.36-1.15.16-1.94-.23-.93-6.39-12.43-7.09-12.64l-45.82,83.52ZM357.61,201.08l.85-88.93-33.95-58.92c-11.46,18.78-24.42,36.92-34.32,56.63-6.49,12.91-6.07,21.92-6.49,36.23-.13,4.61-.59,29.55.97,31.71.65.9,2.04,1.15,2.99,2.77.83,1.42.91,3.75,1.6,4.64,1.12,1.45,20.96,6.7,24.21,7.47,14.57,3.43,29.55,5.1,44.15,8.4ZM558.54,63.92l-223.96-3.25,13.93,25.43,220.72,1.2-10.69-23.38ZM571.54,91.72l-220.65-.8,17.63,27.6c57.04,2.37,114.13.34,171.21,1.42,7.71.14,15.87,1.27,23.47,1.48,2.71.08,18.43.55,19.01-1.78l-10.68-27.92ZM361.94,116.6v84.49c16.91,4.41,34.63,6.26,52.07,7.67,50.89,4.14,102.41,2.19,152.81-5.28l.04-75.63c.37-2.76-3.43-3.38-5.53-3.59-15.69-1.57-37.07-.48-53.31-.48-42.78-.01-87.37,2.33-130.03-.44-2.48-.16-7.34-.34-9.43-1.13-2.88-1.08-3.66-4.61-6.63-5.61ZM200.71,169.88c-10.65-16.21-27.62-30.23-47.73-31.69-42.86-3.12-73.47,34.74-79.43,73.94,33.61-31.22,80.62-51.75,127.15-42.25ZM267.89,170.84h-15.59c-2.83,5.47-3.13,11.98-3.59,18.01-4.07,53.52,6.13,130.55,28.22,179.61,1.99,4.41,15.92,31.78,18.43,32.92.28.13,3.3.84,3.48.84h9.84c-36.4-70.63-47.04-152.5-40.79-231.38ZM216.55,203.48v-6.96c0-7-5.47-16.99-11.9-20.26-19.96-10.15-59.22-1.39-79.25,6.84-26.55,10.9-69.65,36.69-57.84,71.27,16.28-24.51,41.38-43.32,68.97-53.41,20.05-7.34,53.09-13.71,72.49-2.66,2.66,1.52,4.81,3.79,7.53,5.19ZM324.99,405.58c-35.63-67.64-41.7-146.43-40.41-221.91-.37-2.43-12.65-12.19-13.81-10.9-5.19,78.36,5.28,160.38,41.86,230.3l12.36,2.52ZM590.82,203.96c-100.36,17.81-204.57,12.51-302.78-13.92v29.76c77.62,21.95,159.44,30.42,240.15,23.99,12.74-1.01,25.68-2.47,38.31-4.4,7.95-1.21,17.09-2.12,24.32-5.43v-30ZM144.56,399.35c4.64,9.98,17.54,15.19,26.84,7.88,3.33-2.62,3.74-5.56,6.13-8.78,8.55,1.76,16.64-.51,20.4-8.85,2.01-4.47,1.44-12.07,3.53-15.19,1.06-1.57,4.93-2.91,6.68-4.36,6.77-5.63,12.06-18.85,11.79-27.6-.16-5.34-3.47-11.77-2.91-16.81.33-3,3.15-6.84,4.07-9.84,5.61-18.13-2.77-36.4-3.58-54.48s7.48-55.02-15.84-62.4c-36.65-11.6-107.15,18.26-126.88,51.17-6.62,11.04-10.84,32.08-13.08,44.99-.62,3.57-2.68,7.61,1.44,9.78,3.73,1.97,8.12-2.13,9.09-5.51.58-2.02-1.84-11.19-1.55-15.46,1.19-17.71,18.16-23.37,21.85-4.59,4.3,21.93-17,50.15,5.41,66.11-.28,11.02.37,30.09,12.43,35.09,1.54.64,6.56,1.47,7.33,2.26.81.84,1.9,7.88,2.65,9.83,4.01,10.51,15.32,13.9,24.21,6.74ZM590.82,239.97c-94.41,15.78-190.6,13.03-283.31-10.6-5.39-1.37-12.81-4.33-17.91-5.13-.71-.11-1.75-.59-1.58.61l2.48,34.73c44.22,12.58,90,20.17,135.98,23.1,48.22,3.07,95.71,1.64,143.38-5.84,6.96-1.09,14.3-1.93,20.96-3.99v-32.88ZM590.82,277.89c-99.51,16.28-203.5,12.85-300.86-13.44l5.78,32.85c29.56,7.57,59.58,14.65,90.01,17.96,5,.54,31.19,3.22,33.81,1.19,1.55-1.2,5.65-12.73,7.02-13.13l75.47,1.68v14.16c21.45.54,42.8-2.05,63.91-5.43,8.3-1.33,16.83-2.51,24.86-4.89v-30.96ZM81.11,271.76c-12.27,2.09-6.56,34.87,4.09,33.87,3.47-.33,4.47-10.05,4.67-13.1.37-5.73.37-22.32-8.75-20.76ZM59.64,305.74c-3.51,21.35-8.69,43.84-9.62,65.51-.48,11.14-.94,25.75,8.42,33.41,4.01-4.92,6.53-11.42,9.93-16.97,7.12-11.64,15.72-19.87,26.09-28.62,3.98-11.34-6.47-14.92-8.77-25.38-1.84-8.35-.48-15.81.6-24.1-4.25-2.41-10-2.61-11.78-8.16-3.66,5.46-8.8,9.56-14.86,4.32ZM416.16,321.58c-40.71-1.38-80.54-10.42-119.96-19.68l4.87,31.61c32.18,7.1,64.51,13.97,97.34,17.63l17.75-29.55ZM496.29,307.65h-68.38l-7.43,13.92,66.48,2.91,2.09-.8,7.24-16.04ZM499.65,328.54c.65-4.71-.48-10.74,0-15.6l-101.25,190.09,12.76.45,1.11-.73c20.34-45.55,45.38-88.71,68.11-133,4.26-8.29,18.22-33.61,19.26-41.21ZM590.82,312.93c-28.52,8.41-58.53,8.18-87.82,12.23-1,10.93-7.43,19.51-11.51,29.28,33.3-.67,66.89-4.05,99.33-11.51v-30ZM230.94,375.82l-1.92-34.79-3.83-27.61c-.18,4.7-4.13,9.72-4.34,14.19-.22,4.78,2.18,11.25,2.41,16.3.31,6.87-1.72,10.98-3.81,17.24l5.07,7.42,6.42,7.25ZM485.25,328.78l-67.82-1.85c-1.42,1.85-10.55,16.62-9.44,17.68l66.97,3.68,10.29-19.51ZM396.48,354.7c-31.48-2.83-62.53-9.02-93.09-16.8l8.63,28.08c19.48,4.17,38.73,9.98,58.46,13.04,2.77.43,9.63,2.03,11.87.67l14.12-24.99ZM590.82,347.98c-33.48,5.74-67.22,11.39-101.4,10.54l-14.25,28.09c.27,1.01,14.2.79,16.1.74,12.91-.34,27.39-1.58,40.28-2.9,19.91-2.05,39.55-5.89,59.27-9.11v-27.36ZM395.05,366.21l67.82,5.23,9.91-18.41-1.2-.73-65.56-3.59c-2.96.74-11.52,16.62-10.97,17.5ZM6.38,349.42v299.55l25.46-5.08-.1-19.57c-10-5.2-18.87-13.91-22.01-25.02-5.49-19.39,5.89-20.8,15.95-6.83,2.71,3.76,4.33,8.17,7.09,11.87v-25.2c-12.42-8.85-24.56-23.54-23.05-39.86.79-8.5,5-8.11,10.8-3.57,6.74,5.27,9,15.49,13.21,22.55v-14.64c0-10.53-7.76-22.22-6.73-36.98.57-8.12,5.96-31.93,15.07-14.08,10.17,19.92-4.16,44.15-4.97,64.74,4.06-6.08,9.67-26.03,20.15-21.36,8.69,3.87-2.28,22.35-5.56,27.56-1.59,2.52-3.75,6.07-5.71,8.21-1.86,2.03-9.84,7.2-9.84,9.36v23.76c3.54-5.77,5.11-12.46,10.81-16.79,6.81-5.17,13.06-3.93,12.72,5.52-.46,12.73-11.87,26.33-22.81,31.91l-1.68,17.76,25.38-2.93c2.51-42.08,4.34-84.3,11.09-125.93-28.35-27.72-27.41-70.26-14.08-105.17-6.93-4.99-10.18-13.25-10.87-21.6-1.26-15.26,4.04-18.71-10.42-28.94-8.66-6.13-19.19-9.45-29.9-9.21ZM271.73,471.35v-17.04c0-1.93,5.87-16.1,7.11-18.81,1.14-2.5,6.81-9.92,5.32-12.32s-19.34-10.02-23.43-12.59c-17.69-11.12-30.51-28.87-43.47-44.83-1.28,4.39-11.42,8.38-12.93,10.58-1,1.45-1.54,10.47-2.92,13.89-3.89,9.67-13.25,15.3-23.68,13.51-5.19,14.27-26.88,14.59-33.95,1.34-15.9,7.98-27.43-4.09-29.04-19.58-7.32.25-12.58-6-15.71-11.88l-3.66-10.27c-4.58-.03-21.1,21.93-23.95,26.45-20.48,32.52-31.6,91.18,1.87,119.02,6.63,5.52,17.17,9.68,24.68,3.07,4.22-3.71,1.36-5.09,1-9.08-1.19-13.06,9-38.12,23.99-40.09.45-1.95-1.34-2.81-2.73-3.75-5.78-3.9-12.64-4.18-17.41-9.94-7.43-8.97-3.03-18.03-3.85-28.55h2.88c.61,7.97-2.92,15.5,1.23,23.01,3.48,6.3,10.67,7.39,16.19,10.69,2.21,1.32,5.94,5.24,7.66,5.78,2.61.81,5.7.16,8.53.58,9.57,1.43,19.12,11.03,21.11,20.41,5.92-1.26,10.46-2.29,16.3.25,1.26.55,2.98,2.59,4.07,2.62s10.01-6.28,12.39-7.26c10.69-4.42,22.5-2.8,33.43-.4l-4.56-63.36c5.98,13.09,5.58,27.58,7.9,41.54,12.24,11.18,29,17.15,45.61,17.02ZM259.65,367.31c-1.47.03-4.35.25-5.78.49-4.7.8-20.27,7.91-19.57,13.5.4,3.15,20.77,22.03,23.93,22.58l32.22-2.36c.77-.59.22-.59.07-1.05-.76-2.46-6.47-9.67-8.18-12.95-2.13-4.08-5.27-14.2-7.96-17s-11.09-3.28-14.74-3.21ZM393,370.62c-1.84.5-11.29,15.51-11.66,17.66-.09.55-.44.75.26,1.23l66.55,6.92c1.97-.1,4.08-3.68,5.16-5.29,3.11-4.66,5.07-10.06,7.46-15.09l-67.77-5.44ZM313.95,371.02c4.58,8.54,8.32,27.76,14.88,34.31,5.94,5.93,21.55,6.89,28.64,12.17l21.67-32.92-.35-1.36-64.83-12.19ZM590.82,396.7v-17.28l-.99-.53c-38.2,7.75-77.19,11.76-116.25,11.89l-14.72,27.52c12.83-.28,25.79.71,38.65.26,8.88-.31,26.28-.91,34.39-3.04,4.98-1.3,5.95-6.39,9.82-9.38,10.52-8.14,20.25-1.1,25.82,8.55,2.95-10.07,11.31-19.11,22.58-17.4l.7-.6ZM366.73,414.7l68.41,9.43,12.66-23.12-68.31-8.4-12.76,22.09ZM590.82,401.74c-13.54-2.58-19.47,11.43-22.56,22.08-1.13.27-.78-.21-1.07-.62-3.07-4.26-3.53-9.93-8.51-13.55-10.34-7.54-24.96,6.54-24.96,16.81v19.92c-5.46-10.3-21.68-2.72-20.38,7.19,7.25,5.11,15.15,8.84,22.25,14.22,17.44,13.22,35.77,35.14,46.68,54.11,2.95,5.13,4.74,11.14,8.56,15.68v-135.85ZM356.18,420.95c-28.61-12.4-61.13-19.4-92.12-13.21,8.44,5.89,20.81,6.55,24.95,17.31,15.81-2.51,37.65,10.84,38.4,27.79.36,8.09-3.59,10.84-6.74,17.54l9.03-1.04,26.47-48.39ZM422.36,449.25l10.59-21.34-69.3-9.29-11.31,19.84,70.02,10.78ZM532.28,419.98c-24.7,3.07-49.65,2.85-74.54,2.96l-10.87,21.04c21.38-1.74,42.86.34,62.85,8.17,2.04-9.64,9.56-18.2,20.16-13.92l2.41-18.24ZM323.06,459.35c2.93-14.54-7.44-23.81-20.03-28.2-14.45-5.03-17.76-2.97-23.02,10.8-2.48,6.48-7.28,23.38-3.7,29.38,1.7,2.86,11.18,9.37,14.3,7.66,5.99-3.28-2.07-11.35-1.96-15.91.05-2.07,1.42-5.51,3.94-5.59,5.14-.17,16.49,15.85,19.47,13.66,1.07-3.73-2.53-10.61-5.07-13.23s-7-3.55-7.42-7.91l1.08-.65c4.36.8,7.52,3.86,9.96,7.34,1.37,1.95,4.74,10.21,6,10.37,6.05.74-1.11-13.82-3.59-16.13-2.3-2.15-8.16-2.9-7.14-5.66,1.76-4.8,10.66,3.08,12.31,5.77.66,1.07,3.59,9.18,4.89,8.3ZM337.94,462.23l70.78,12.01,11.27-20.4-68.9-12.2c-2.76.29-11.29,17.45-13.16,20.59ZM590.82,836.18v-290.19c-25.88-56.77-79.72-110.58-147.69-96.63l-26.97,53.18c9.42-8.67,20.2-10.91,31.82-4.71,4.28,2.28,4.58,4.48,7.08,6.36,3.75,2.83,9.58.11,13.62.26,9.51.36,16.08,9.73,20.19,17.28.81,1.49,4.07,7.7,4.07,8.89v18.48c4.16-1.09,6.07-5.33,9.65-7.38,4.46-2.55,12.28-3.85,17.34-3.06,3.47.54,7.87,4.36,10.26,4.52,6.04.42,9.31-4.26,17.48-.1,5.56,2.83,6.8,9.66,9.39,11.25,3.86,2.38,10.8,1.21,15.29,5.34,5.06,4.66,9.02,19.91,8.4,26.63-.3,3.21-2.92,8.48-2.84,11,.07,2.29,4.6,9.66,5.59,13.14,4.34,15.34-1.54,20.5-3.56,34.09-1.66,11.17.85,21.15-7.36,30.56-3.53,4.05-8.68,4.61-10.55,6.72-1.27,1.43-1.15,3.58-1.99,5.21-3.58,6.94-12.26,9.85-19.59,8-1.31,1.34,5.16,32.97,6.48,36.96,2.96,8.96,11.49,11.15,9.61,21.63-1.49,8.35-11.48,12.12-19,10.81-15.15-2.65-15.68-31.31-20.88-42.53-1.72.61-3.05.57-3.73,2.48s-2.36,16.56-2.27,18.89c.34,8.74,13.26,17.85,2.39,26.36-5.85,4.58-15.87,6.8-21.81,1.26-10.25-9.56-7.85-38.38-7.43-51.37l-15.82-2.89c-.29,6.45-3.31,13.97-2.36,20.36,1.07,7.22,12.36,9.73,7.25,19.34-3.14,5.92-9.2,4.61-11.14,6.62-.55.57-1.34,4.36-1.98,5.7-2.21,4.62-4.59,6.5-9.6,7.68-23.96,5.6-24.92-20.4-25.86-36.87-.11-1.99.32-17.82-1.18-18.01-7.51,3.53-8.94,12.89-9.76,20.47-.76,7.13,2.12,7.48,3.98,13.13,5.99,18.17-12.14,27.26-26.76,19.09-16.77-9.37-5.61-39.44-6.1-54.39-.08-2.47-1.04-3.8-3.59-3.62-5.98.41-10.27,16.29-9.79,21.34.67,7.03,7.3,11.27,2.43,19.35-4.16,6.89-12.44,5.79-19.32,6.12-1.32,14.21-14.02,16.45-26,14.55-2.75-.44-7.83-2.73-10.13-2.6-2,.11-6.8,3.06-9.73,3.62-14.43,2.8-34.33-2.16-31.85-20.58-7.18,2.01-22.36.57-27.33-5.53-5.83-7.14-1.01-21.3-.95-29.73.05-7.16-2.41-8.61-8.84-10.8-.87.26-1.57,7.85-1.72,9.35-1.17,11.12-.55,37.88-6.61,46.19-4.93,6.75-10.17,3.79-13.82,6.34-2.22,1.55-2.73,9.5-8.18,11.98-7.28,3.32-32.41,1.27-37.61-5.47-5.51-7.13-3.8-30.54-4.33-39.83s-3.17-18.96-3.36-28.57c-6.52,16.33,9.98,57.46-23.5,46.08-.63,11.02-5.65,15.96-16.54,16.82-20.15,1.59-37.47-7.71-34.35-30.24-6.87-1.43-19.8-7.36-20.63-15.13-.74-6.94,2.59-20.03.87-25.35-1.17-3.59-7.57-3.38-7.57-7.31v-18.48c-10.36,10.64-9.63-8.93-9.13-15.14s3.34-12.05,5.29-17.98c-17.5,1.66-35.33,3.24-51.82,9.6v181.46h584.44ZM286.12,483.36c-3.27-.44-5.26-3.53-7.71-5.01-6.34-3.85-17.97-3.85-25.49-5.7-10.07-2.48-19.13-7.71-27.73-13.3l1.9,18.98c.67.49,5.46-2.07,6.73-2.42,19.8-5.47,33.18,7.48,40.8,24.24l11.51-16.79ZM297.16,475.67l6.69-4.53c-.84-1.4-9.61-10.49-11.01-8.91-.51,5.03,4.95,8.34,4.32,13.44ZM137.37,477.59c2.36-.79,5.59,1.99,6.92,3.87,2.55,3.59,3.66,16.95,9.67,12.96,3.06-2.03-.32-11.57-1.48-14.43-8.81-21.67-32.35-21.2-43.5-1.77-3.14,5.48-7.88,19.35-6.53,25.42,1.21,5.43,21.33,19.92,21.52,7.3.1-6.26-4.4-9.73-10.11-10.8,8.49-11.53,12.52,8.88,16.28,11.32,8.45,5.47,4.62-14.6,1.48-18.76-2.09-2.76-7.18-2.38-5.51-6.46,2.07-5.05,8.79,3.77,10.07,6.22,1.06,2.02,1.78,4.11,2.32,6.32.81,3.32-.34,8.33,3.45,8.59,5.49.38,4.05-10.08,3.28-13.4-1.34-5.79-5.88-10.78-7.85-16.38ZM407.04,478.56l-70.51-11.78-4.34,3.86c7.87,3.36,14.71,6.66,20.99,12.62,17.67-8.09,32.95.2,42.59,15.46l11.27-20.15ZM321.15,692.41v14.16c16.31-15.08,25.27-43.4,15.83-64.32-6.5,2.66-13.92,7.14-20.87,2.88-.29-.47-.41-1.57-.26-2.08.89-3.13,19.48.36,19.7-5.89-3.62-7.63-16.51-9.88-15.84-19.87,3.91.54,5.25,4.63,7.66,6.97,8.44,8.18,9.72,5.99,13.69,18.47,7.08,22.28,15.79,78.1,50.56,71.22,10.26-2.03,21.89-20.17,7.5-21.77-7.14-.79-9.11,1.05-15.36-4.32-29.07-25.01-3.34-94.16-5.01-127.96-.95-19.12-8.9-45.35-19.01-61.63-22.94-36.91-64.82-30.81-83.01,6.19,2.24,13.31,6.45,24.93,7.02,38.63.99,23.55-2.59,48.59-17.19,67.64,12.25,19.39,31.37.12,30.13-16.48,5.92,1.68.96,14.85-1.43,18.49-5.68,8.65-19.64,14.84-27.85,5.75-1.53-1.7-5.25-10.91-6.65-2.35-2.29,13.89-2.3,55.71,9.58,65.19,7.71,6.15,19.48-5.42,21.43,8.32.83,5.84-2.43,13.62-6.81,17.42-2.16,1.88-6.38,2.53-6.95,5.53l1.88,49.9c.76,6.53,6.66,11.02,12.98,11.57,1.12-.84,3.22-15.04,4.99-16.63,2.54-2.28,8.45-.66,9.14,2.9,2.65-4.06,3.83-8.46,9.84-6.24l-.98-31.9c.51-4.32-.23-29.26,3.68-30.45.82-.25,1.15.08,1.62.67ZM287.45,687.97c-2.35-2.23-10.9,2.39-17.13-1.83-13.26-8.99-14.33-47.39-13.46-61.88.61-10.13,3.26-20.22,4.24-30.32,3.34-34.45-4.18-103.92-44.93-114.77-58.96-15.7-80.66,88.35-59.37,126.6,10.99,19.75,24.31,8.99,31.98-6.21l1.37.45c-5.14,23.87-26.89,28.9-37.99,5.11-14.54-31.18-6.07-80.3,12.93-108.2,2.53-3.72,5.71-6.9,8.06-10.71-2.5-2.99-14.19-4.12-15.13.27-1.15,5.38,2.23,15.01-7.62,13.73-.64,4.55-2.7,10.42-7.71,11.73-1.59.41-3.1-.05-4.71.57-3.68,1.42-4.32,7.97-11.15,2.04-2.39,9.7-10.93,5.35-17.13,2.48-7.99,9.2-13.5,22.28-17.07,34.11-17.51,58.01,6.73,103.7,3.48,159.49-.75,12.88-7.02,37.41-2.29,48.88,2.16,5.24,9.61,8.21,14.77,9.46-.84-7.74,6.02-24.72,14.16-12.48,4.04-7.21,10.68-8.33,14.15,0,.75-10.69-.97-21.83-.49-32.42.19-4.14,3.65-19.5,2.45-21.62-1.3-2.29-8.43-4.49-5.08-9.32,5.86,5.93,12.64,9.55,20.77,11.38,5.05,1.14,6.69,2.12,10.17-2.74,1.75,12.22,4.35,24.91,5.28,37.21.72,9.55-.21,19.9,1.03,29.21,1.16,8.67,3.93,11.92,12.85,13.23,1.28-5.52,2.03-17.8,10.24-16.65,2.41.34,5.77,2.41,5.64,5.17l6.1-6.17,6.85,2.81-10.01-66.44,2.49-.69c1.27.45,1.04,3.33,2.73,2.59.45-.2,5.02-4.98,5.73-5.79,9.59-10.9,18.07-32.33,14.66-46.8-1.84-7.82-7.36-8.65-11.78-14.14-3.51-4.36-5.43-10.53-5.74-16.09,5.12,1.14,4.83,6.88,6.34,10.69,2.62,6.6,8.98,8.03,12.46,13.46,6.06,9.45,6.6,28.63,11.19,40.17,6.06,15.2,21.73,29.54,39.09,22.32,5.58-2.32,12.12-13.55,7.57-17.88ZM262.13,607.68c5.99-2.59,9.99-11.34,12.12-17.39,9.15-25.96,9.61-107.76-28.21-111.73-4.53-.48-12.09-.05-14.17,4.53,19.24,14.31,26.95,40.72,30.59,63.53,1.75,10.98,3.28,24.34,2.57,35.4-.55,8.56-3.82,17.01-2.9,25.66ZM376.33,608.16c6.88-1.67,11.77-8.08,15.12-13.91,12.42-21.6,14.06-60.06,5.4-83.18-5.8-15.49-22.06-33.92-40.18-24.57,24.54,35.03,31.53,80.52,19.67,121.66ZM36.6,540c2.81-15.16,10.67-36.69-2.14-48.97-3.33.72-3.85,24.86-3.63,28.58.27,4.57,2.08,16.19,4.7,19.76.29.4-.06.89,1.08.62ZM385.87,646.62c-.99,10.25,4.37,25.12,15.77,27.19,2.68.49,7.81-.09,10.19.85,1.67.66,7.4,8.06,9.93,9.75,7.02,4.7,14.03,2.98,20.8-1.11,1.93-1.17,5.63-4.99,6.68-5.31,4.53-1.38,9.16,2.48,15.14-1.66,7.54-5.22,9.9-17.88,9.57-26.43,16.32.05,22.93-20.27,21.85-33.8-.65-8.15-4.86-9.85-1.79-19.1,3.45-10.41,7.86-13.26,6.59-26.03-1.03-10.32-9.78-14.96-10.91-20.76-.65-3.35.87-5.91.86-8.98-.04-9.97-7.61-27.68-17.63-31.36-7-2.57-11.6,1.05-16.94-.34-2.49-.65-6.7-5.94-9.25-7.55-11.52-7.27-23.95-1.76-32.26,7.31-4.85-1.73-9.83-3.29-15.09-2.89,3.61,4.75,2.22,17.21,4.89,21.26,1.08,1.65,6.51,3.58,8.55,5.37,2.34,2.06,3.1,4.7,5.11,6.91,12.74-4.77,26.93-5.74,38.31,2.92,7.73-19.07,29.85-16.58,25.55,6.37-1.26,6.7-5.34,8.32-8.46,13.55,11.44,27.25,9.93,77.24-22,89.91-32.13,12.75-60.17-18.53-61.3-48.85l-14.99,9.72c-1.73,12.73-6.86,30.13,10.86,33.05ZM65.39,635.52c4.31-13.89,6.79-28.26,10.81-42.24,5.45-18.97,14.77-52.37,23.67-68.97,1.1-2.05,6.61-9.05,6.74-9.62.25-1.09-1.4-2.59-2.33-2.82-1.73-.43-6.07,4.44-8.02,5.48-6.17,3.3-14.53,3.27-20.07-1.34-1.32.1-3.68,16.39-4,18.55-4.76,31.48-5.87,64.99-7.29,96.88-.04.96-.37,3.53.49,4.1ZM406.09,550.08c1.53-1.53,8.28-7.12,8.16-8.84s-6.35-8.08-8.85-7.51c-2.01.51,1.52,14.08.69,16.35ZM468.8,533.86c-3.3.75-8.44,7.88-8.02,11.13.21,1.59,9.94,13.24,11.19,13.17,8.73-4.08,9.62-27.19-3.17-24.3ZM32.76,572.64c-.27-7.28-3.31-15.06-6.46-21.61-1.28-2.66-7.95-15.51-11.47-14.36-6.03,13.28,6.57,29.79,17.93,35.97ZM37.09,573.6c6.4-4.32,12.34-10.71,15.61-17.74,2.2-4.72,4.53-11.26,1.66-16.13-4.19-.54-6.64,4.41-8.41,7.46-4.38,7.6-7.87,17.67-8.86,26.41ZM431.42,540.62c-8.56.79-18.97,6.47-23.5,13.93-4.94,8.15-4.61,19.45-7.46,28.54s-6.92,13.32-6.36,24.34c2.22,43.99,62.66,63.99,78.34,15.99,10.02-30.66,1.49-86.74-41.02-82.8ZM558.82,678.88c1.36-1.43,7.24-3.15,9.41-4.74,5.28-3.87,8.85-17.16,8.54-23.37-.11-2.18-1.49-4.41-1.22-6.71.56-4.7,6.4-11.1,7.04-17.96,1.12-11.93-7.43-18.98-8.07-27.36-.28-3.65,2.5-8.2,2.88-11.92.86-8.51-4.42-26.31-14.29-27.99-2.57-.44-5.25.28-7.8-.36-3.98-8.03-5.96-13-16.1-12.74-3.2.08-7.12,1.84-10.01,1.43-3.5-.49-7.37-5.25-12.18-5.63s-18.88,5.65-19.75,10.74c-.55,3.21,2.21,4.82,3.43,7.55,3.1,6.93,3.23,23.57.75,30.7-1.12,3.21-5.46,9.34-5.62,12.18s3.16,9.46,3.35,13.84c.64,14.34-5.73,34-21.35,37.72-.68.96-1.97,10.38-1.6,11.64,1.23,4.15,14.4,5.89,17.41,2.27,2.38,3.5,2.41,7.86,4.15,11.68,4.1,9.02,11.66,10.36,20.7,8.06,4.14,5.13,4.9,9.81,12.94,8.46,4.87-.82,6.67-6.03,8.38-6.52,1.34-.38,6,1.9,9.85,1.24,7.67-1.31,5.91-8.81,9.14-12.22ZM72.11,636.96c1.82-18.12,12.53-34.27,11.99-52.8-2.64,2.89-3.69,7.06-4.92,10.67-4.36,12.84-7.84,27.07-9.96,40.45l2.89,1.68ZM31.8,619.68c.19-6.56-2.17-13.66-5.37-19.34-1.62-2.88-10.33-15.14-14.23-12.74-2.9,13.34,8.68,26.22,19.6,32.09ZM36.13,621.12c8.67-3.49,21.63-20.68,19.65-29.99-.66-3.13-2.82-1.8-4.63-.82-9.13,4.92-13.97,21.13-15.02,30.81ZM92.62,704.04c4.25-20.8-3.73-41.25-6.52-61.63-1.3-9.51-1.35-19.2-2.48-28.72-.13-1.08-.31-3.29-.95-4.08-2.11,8.66-7.25,17.61-7.67,26.65-.71,15.25,9.86,32.43-3.38,46.07-4.52,4.66-8.3,2.35-6.68,11.5,1.03,5.82,16.28,9.69,21.38,10.29,1.22.14,5.66.68,6.3-.07ZM64.89,668.2c1.07.82-2.36,20.37,4.54,11.93,5.86-7.17,8.34-31.46,1.93-38.33-6.69-7.17-11.78,10.3-13.03,14.75-1.8,6.42-4,14.96-1.34,21.22,2.01-.37,4.95-11.83,7.89-9.57ZM438.95,772.34c2.45.41,5.83-.3,8.4,0l-2.4-14.4c4.27,2.12,5.8,8.48,5.76,12.96,4.02.6,3.72-2.82,3.15-5.79-.44-2.29-5.57-8.71-.62-8.05,2.99.4,3.26,5.67,4.66,7.6.58-7.72-4.88-13.5-6.93-20.18-4.74-15.45,2.97-38.94,2.66-55.43-.26-13.93-5.62-2.94-10.27-.63-5.56,2.76-15.42,3.22-21.13.81-4.75-2-7.39-7.82-10.5-9.17s-8.71-.75-12.96-2.4c-10.27-3.99-17.77-17.23-16.28-28.12l-8.79-3.93c.52,11.7,4.35,36.48,16.7,41.38,7.6,3.01,16.61-1.27,18.04,9.32,1.65,12.23-8.56,22.26-20.59,21.32,1.38,17.76-14.47,55.45,15.84,54.73l-.48-11.53c.39.07,1.29-.1,1.43,0,1.21.98.65,12.16,6.22,10.54,1.84-4.21-1.64-8.27-.44-12.46,2.17,1.63,2.58,4.63,4.19,6.61.3.37.4,1.33.86.11,1.99-5.32-3.68-10.97-4.45-15.72-2.08-12.76,4.41-29.02,6.7-41.55.18-1.32,3.12-1.25,3.3-.53l-1.47,11.23,9.59-6.72c-.44,3.65-2.97,4.92-3.37,8.86-.85,8.16,2.76,37.73,6.32,45.08,1.27,2.62,3.9,5.56,6.9,6.06ZM344.18,666.73c-.82-.16-.99.19-1.32.84-1.21,2.41-1.53,9.26-2.38,12.5-3.42,13.05-11.08,24.35-20.27,33.96l.45,56.55,9.85,2.73c.71-.16-1.08-9.47,6.46-11.8,1.23-.38,2.96.08,3.88-.44,2.06-1.17,1.46-10.7,9.1-4.57l.97-67.93-6.72-21.84ZM232.38,668.17c-1.25-.25-.75.23-1.01.68-3.71,6.47-5.78,16.61-9.72,22.91-1.94,3.1-13.75,14.32-14.1,16.06,3.3,20.21,2.07,41.24,9.48,60.67l.94-.72c.32-6.37,4.5-18.3,12.74-12.77,1.95-.28,1.03-11.45,1.2-13.62,1.36-17.87,7.78-41.04,4.65-58.44-.91-5.04-3.84-9.65-4.19-14.78ZM492.93,673.93c-6.82,2.38-13.26.02-18.95-3.83-2.95,7.7-9.21,11.22-16.72,13.53,1.04,18.19-5.24,37.39-3.69,55.36.67,7.73,5.29,11.04,7.45,17.99l4.56.47-1.92-9.11,4.22,1.06.58,4.69c1.12.26.78-.17,1.08-.61,2.96-4.26-3.7-6.83-5.61-9.5-2.55-3.57-2.09-10.34-1.7-14.6.64-7.02,4.73-13.06.96-19.45,6.31,2.23,12.26,6.17,19.19,6.24.05-1.27.95-8.48,1.73-8.67,2.99-.74,3.39,4.71,3.54,6.52,1.09,13.07-1.96,28.07-.41,40.74.82,6.74,6.9,15.12,14.34,14.69l-1.91-12.48c4.17,1.71,3.79,7.24,4.83,11,7.72.47,3.79-6.72,4.28-11.47,3.35,0,3.34,4.27,4.2,6.59l1.07.6c2.16-4.98-3-8.46-4.55-12.48-4.52-11.7,2.96-30.38,3.12-42.72,5.28.7,1.49,6.42,1.44,9.6l9.59-2.87c-.92,1.38-2.28,2.57-2.67,4.28-1.04,4.54,3.56,20.91,5.42,25.85,3.31,8.82,9.2,19.6,20.29,14.02l-4.32-11.99c5.78-.76,6.76,5.13,7.2,9.6,9.11-6.14-1.15-12.98-4.4-18.88-5.94-10.76-5.25-26.82-7.34-38.75-.71-1.12-5.36,1.17-6.87,1.34-9.29,1.03-11.19-7.38-13.84-7.91-1.3-.26-6.11,1.03-8.6.85-8.44-.6-15.12-11.85-15.58-19.69ZM247.73,710.17c.36-2.03,0-5.86,0-8.16,0-2.97-2.61-3.58-3.58-5.06-1.37-2.09-2.24-4.95-4.09-6.7l-.49,17.53,7.67,3.6c-.13-.5.44-.93.49-1.2ZM352.82,693.13v62.17c0,2.92,6.61,3.61,8.64,3.12l-1.92-14.88,3.13.47,3.11,12.97c11.28-1.63,2.89-11.08,2.04-17.17-1.28-9.17,3.25-17.18,6.61-25.29-10.08-3.83-14.78-13.88-21.61-21.39ZM74.04,705.13c-4.01,8.93,1.48,17.7,10.57,19.94,1.81-3.2,10.89-12.66,8.11-16.31-5.76-2.5-12.97-.32-18.68-3.63ZM159.39,709.98l-16.74-4.85c-1.06,5.79-2.54,11.59-2.9,17.51-.42,6.97-.8,20.73.02,27.38.45,3.64,5.34,6,6.96,4.09,1.12-1.33,1.83-12.8,5.98-14.66l6.25,3.13.43-32.59ZM273.64,711.86c-7.66.51-15.64-1.44-21.36-6.72l-1.15.74c3.92,13.32-11.63,41.94,7.64,46.3-.27-7.99,5.82-16.87,13.19-8.64,6.77-9.3,2.31-21.25,1.68-31.68ZM89.87,731.53l-16.56-9.6c-5.55,10.86,8.4,16.43,16.56,18.24v-8.64ZM91.78,727.21c.17-.19.24-4.64-.95-4.79l-2.41,4.31,3.36.48ZM158.41,751.62c1.08-1.85-2.45-8.04-5.15-7.07l-2.93,10.02,8.08-2.95ZM269.81,754.1c-.23-2.8,1.14-8.76-2.8-9.34-4.74-.7-4.3,5.61-5.84,8.85l8.64.49ZM276.51,752.16l-1.18-7.66c-2.06,2.36-2.32,5.66-2.16,8.64l3.34-.98ZM124.9,770.42c9.85-.26,12.47-8.28,6.71-15.63-7.4.36-6.52,10.33-6.71,15.63ZM120.58,771.38c2.97-18.11-8.53-19.23-8.6-.99l8.6.99ZM221.35,768.5c3.38.07,11.13-5.97,7.67-9.36-3.71-3.64-8.6,6.24-7.67,9.36ZM310.11,774.26c7.61-1.83,9.52-8.97,5.45-15.3-2.38-.97-5.45,1.92-5.45,4.02v11.28ZM305.8,775.22v-7.44c0-1.61-3.22-8.58-5.27-7.71-2.81,1.19-3.5,12.25-3.85,15.15h9.12ZM347.4,770.76c1.94-1.97,3.16-11.79-1.52-10.9-3.86.73-1.34,9.24-1.7,12,.28.31,2.81-.68,3.22-1.09ZM334.11,773.29l6.98-.92c.11-9.56-7.14-8.84-6.98.92ZM203.11,782.42c8.84.55,12.43-11.25,4.02-14.39-2.13-.19-4.02,4.08-4.02,5.51v8.88ZM198.79,783.38c1.43-16.93-11.23-20.66-10.82-1.42l10.82,1.42Z"/>
    <path d="M590.82,5.71v193.22l-21.11,4.08v-78.25c5.25.4,15.2,1.36,15.81-6.06.62-7.45-15.58-40.77-19.72-49.31-2.81-5.81-16.11-33.78-20.58-35.58l-119.2-2.68-113.51,1.22-47.28,82.31.26,9.14,15.36.96v48.48c-7.08-5.26-20.06-9.82-28.64-6.33-6.17,2.51-5.99,14.53-6.4,20.48-.93,13.51-.55,28.24,0,41.8,1.87,46.13,9.21,92.41,25.45,135.59-13.09-4.93-25.28,1.34-36.46,7.68-1.05-14.6-1.7-29.32-3.43-43.85-2.52-21.15-10-45.77-10.48-66.32-.18-7.69,2.49-15.26,2.4-23.06s-2.17-17.23-2.89-25.43c-.79-9.07.56-18.66-2.39-27.37s-23.54-31.86-31.46-38.13c-43.42-34.36-95.73-2.64-111.2,43.77-2.91,8.72-3.94,18.56-7.05,27.03-2.3,6.27-6.14,10.04-6.74,17.26-.74,8.83.74,17.11,5.05,24.79-7.56,34.07-15.92,68.19-18.48,103.16-10.81-12.13-25.29-19.08-41.74-19.2V5.71h584.44ZM79.79,39.55c-.33,2.93.24,6.37,0,9.36-31.41-14.54-38.16,44.4-13.69,52.82,6.84,2.36,20.74,2.63,28.31,2.88,16.9.56,48.98,1.9,64.67-1.1,24.02-4.59,18.15-49.79-7.79-43.56,1.37-14.83-12.79-36.19-28.31-22.56-1.97-12.02-8.43-24.68-22.68-22.44-10.14,1.59-19.42,15-20.51,24.6Z" fill="#fff"/>
    <path d="M590.82,836.18H6.38v-181.46c16.49-6.36,34.32-7.93,51.82-9.6-1.95,5.93-4.79,11.64-5.29,17.98s-1.23,25.77,9.13,15.14v18.48c0,3.93,6.4,3.72,7.57,7.31,1.73,5.32-1.61,18.41-.87,25.35.83,7.76,13.75,13.69,20.63,15.13-3.12,22.53,14.2,31.83,34.35,30.24,10.89-.86,15.91-5.8,16.54-16.82,33.48,11.38,16.99-29.75,23.5-46.08.19,9.61,2.81,19.01,3.36,28.57s-1.18,32.7,4.33,39.83c5.2,6.74,30.33,8.79,37.61,5.47,5.44-2.48,5.96-10.44,8.18-11.98,3.65-2.54,8.89.41,13.82-6.34,6.07-8.31,5.45-35.07,6.61-46.19.16-1.5.86-9.09,1.72-9.35,6.44,2.18,8.9,3.64,8.84,10.8-.06,8.43-4.87,22.59.95,29.73,4.98,6.1,20.15,7.54,27.33,5.53-2.48,18.42,17.42,23.38,31.85,20.58,2.92-.57,7.73-3.51,9.73-3.62,2.3-.13,7.38,2.17,10.13,2.6,11.97,1.9,24.68-.34,26-14.55,6.88-.32,15.16.78,19.32-6.12,4.87-8.07-1.77-12.32-2.43-19.35-.48-5.05,3.81-20.93,9.79-21.34,2.55-.18,3.51,1.15,3.59,3.62.48,14.96-10.67,45.02,6.1,54.39,14.62,8.17,32.75-.92,26.76-19.09-1.86-5.65-4.74-6-3.98-13.13.81-7.58,2.24-16.94,9.76-20.47,1.5.19,1.06,16.01,1.18,18.01.94,16.47,1.9,42.48,25.86,36.87,5.01-1.17,7.39-3.05,9.6-7.68.64-1.34,1.43-5.13,1.98-5.7,1.94-2.01,8-.7,11.14-6.62,5.11-9.61-6.18-12.12-7.25-19.34-.95-6.39,2.07-13.91,2.36-20.36l15.82,2.89c-.42,12.99-2.82,41.81,7.43,51.37,5.94,5.54,15.96,3.31,21.81-1.26,10.87-8.5-2.06-17.61-2.39-26.36-.09-2.33,1.56-16.91,2.27-18.89s2.01-1.87,3.73-2.48c5.2,11.21,5.73,39.87,20.88,42.53,7.53,1.32,17.51-2.46,19-10.81,1.87-10.47-6.65-12.67-9.61-21.63-1.32-3.99-7.79-35.62-6.48-36.96,7.33,1.85,16.02-1.06,19.59-8,.84-1.63.72-3.78,1.99-5.21,1.88-2.12,7.02-2.67,10.55-6.72,8.21-9.42,5.7-19.4,7.36-30.56,2.02-13.59,7.9-18.75,3.56-34.09-.99-3.49-5.52-10.85-5.59-13.14-.08-2.52,2.55-7.79,2.84-11,.62-6.72-3.33-21.97-8.4-26.63-4.49-4.13-11.43-2.96-15.29-5.34-2.59-1.59-3.83-8.42-9.39-11.25-8.17-4.16-11.44.52-17.48.1-2.38-.16-6.78-3.98-10.26-4.52-5.06-.79-12.88.5-17.34,3.06-3.58,2.05-5.5,6.29-9.65,7.38v-18.48c0-1.19-3.26-7.4-4.07-8.89-4.11-7.55-10.68-16.92-20.19-17.28-4.04-.15-9.87,2.57-13.62-.26-2.5-1.88-2.8-4.08-7.08-6.36-11.61-6.2-22.4-3.96-31.82,4.71l26.97-53.18c67.97-13.95,121.81,39.86,147.69,96.63v290.19ZM55.32,776.18c.93-9.19,4.66-36.37-4.65-41.68-.77-.44-1.45-.86-2.35-1.01-15.75-2.59-12.63,24.4-10.3,33.33-4.3-4.69-9.48-13.59-16.94-8.81-7.09,4.53-1.01,15.85,2,21.36,1.22,2.23,12.02,18.6,13.04,19.14,2.16,1.14,3.25-.62,2.5-3.01-2.79-8.82-19.06-20.59-17.34-31.54.41-2.64,1.97-4.29,4.74-3.37,3.11,1.03,10.18,11.45,11.79,14.61s5.03,16.44,7.78,16.74c.58.06.96.16,1.36-.39-.12-12.26-12.32-40.93-4.79-51.35,2.94-4.07,7.21-2.97,9.19,1.3,5.22,11.27-1.68,34.02-1.34,46.43.03,1.18.3,2.41.98,3.4,3.33,2.21,6.58-11.13,7.76-13.41,1.83-3.54,8.77-13.49,13.49-9.92,5.17,3.91-.1,11.56-3.01,15.11-1.93,2.35-13.46,11.92-11.44,15.07l2.72.46c6.78-8.91,20.14-17.99,15.95-30.9-4.55-14.05-17.87,1.8-21.13,8.42ZM572.1,805.46c.83,1.15-4.03,16.31,1.42,11.73,2.89-2.43,5.94-17.94-2.98-16.43-1.04.18-3.53,2.16-3.97,1.35l-2.14-12.26c-4.99-2.89-9.08,4.15-9.6,8.4-9.58-13.36-13.21-7.54-11.37,6.34.27,2.01,2,14.57,5.64,12.17,1.83-1.21-2.1-13.61-2.36-16.41-.17-1.81-.02-3.64-.06-5.46,4.79.49,6,12.65,8.28,13.61.68.29,1.7.05,1.95-.78l3.51-13.83c6.54.45.39,13.4,3.26,15.92l1.2.21,7.22-4.58Z" fill="#fff"/>
    <path d="M287.45,687.97c4.56,4.33-1.99,15.56-7.57,17.88-17.36,7.22-33.03-7.12-39.09-22.32-4.6-11.53-5.13-30.72-11.19-40.17-3.48-5.42-9.84-6.85-12.46-13.46-1.51-3.81-1.23-9.55-6.34-10.69.32,5.56,2.24,11.73,5.74,16.09,4.42,5.49,9.94,6.32,11.78,14.14,3.41,14.47-5.07,35.9-14.66,46.8-.72.81-5.28,5.59-5.73,5.79-1.69.74-1.46-2.14-2.73-2.59l-2.49.69,10.01,66.44-6.85-2.81-6.1,6.17c.13-2.76-3.23-4.83-5.64-5.17-8.21-1.15-8.96,11.13-10.24,16.65-8.91-1.31-11.68-4.56-12.85-13.23-1.25-9.31-.31-19.66-1.03-29.21-.93-12.3-3.53-24.99-5.28-37.21-3.48,4.86-5.12,3.88-10.17,2.74-8.14-1.83-14.91-5.45-20.77-11.38-3.36,4.83,3.78,7.03,5.08,9.32,1.2,2.12-2.27,17.48-2.45,21.62-.47,10.59,1.24,21.73.49,32.42-3.47-8.33-10.11-7.21-14.15,0-8.14-12.24-15,4.74-14.16,12.48-5.17-1.25-12.61-4.22-14.77-9.46-4.73-11.46,1.54-36,2.29-48.88,3.26-55.79-20.99-101.48-3.48-159.49,3.57-11.83,9.08-24.91,17.07-34.11,6.21,2.87,14.75,7.22,17.13-2.48,6.83,5.93,7.47-.62,11.15-2.04,1.61-.62,3.13-.15,4.71-.57,5.01-1.31,7.07-7.18,7.71-11.73,9.85,1.28,6.47-8.35,7.62-13.73.94-4.4,12.63-3.26,15.13-.27-2.35,3.81-5.53,6.99-8.06,10.71-18.99,27.9-27.47,77.02-12.93,108.2,11.09,23.79,32.84,18.75,37.99-5.11l-1.37-.45c-7.67,15.2-20.99,25.95-31.98,6.21-21.29-38.25.41-142.31,59.37-126.6,40.75,10.85,48.28,80.32,44.93,114.77-.98,10.1-3.64,20.19-4.24,30.32-.87,14.49.2,52.89,13.46,61.88,6.22,4.22,14.78-.4,17.13,1.83ZM246.85,577.35c5.89,3.35,6.24-14.09,3.46-15.21-5.76-2.34-5.51,14.05-3.46,15.21ZM210.16,566.98c-4.26.63-7.03,16.08.37,15.78,6.11-.25,6.69-16.83-.37-15.78Z" fill="#fff"/>
    <path d="M321.15,692.41c-.48-.59-.8-.92-1.62-.67-3.91,1.19-3.16,26.13-3.68,30.45l.98,31.9c-6-2.22-7.18,2.18-9.84,6.24-.69-3.56-6.6-5.18-9.14-2.9-1.78,1.59-3.87,15.8-4.99,16.63-6.32-.55-12.21-5.04-12.98-11.57l-1.88-49.9c.57-3,4.79-3.65,6.95-5.53,4.37-3.8,7.63-11.58,6.81-17.42-1.95-13.74-13.72-2.17-21.43-8.32-11.87-9.48-11.86-51.3-9.58-65.19,1.41-8.56,5.12.65,6.65,2.35,8.21,9.09,22.17,2.89,27.85-5.75,2.39-3.64,7.35-16.81,1.43-18.49,1.24,16.6-17.88,35.88-30.13,16.48,14.6-19.05,18.19-44.09,17.19-67.64-.58-13.7-4.79-25.32-7.02-38.63,18.19-37,60.07-43.11,83.01-6.19,10.11,16.27,18.07,42.5,19.01,61.63,1.67,33.8-24.06,102.96,5.01,127.96,6.24,5.37,8.22,3.53,15.36,4.32,14.4,1.59,2.76,19.74-7.5,21.77-34.77,6.88-43.48-48.94-50.56-71.22-3.97-12.48-5.25-10.29-13.69-18.47-2.42-2.34-3.75-6.43-7.66-6.97-.67,10,12.22,12.25,15.84,19.87-.22,6.25-18.82,2.76-19.7,5.89-.15.52-.03,1.61.26,2.08,6.95,4.25,14.36-.22,20.87-2.88,9.45,20.92.48,49.24-15.83,64.32v-14.16ZM366.6,560.25c-6.64,1.47-4.33,17.75,2.24,13.77,3.31-2.01,3.56-15.05-2.24-13.77ZM324.86,562.19c-4.66.43-3.84,11.74-1.54,14.28,5.91,6.51,10.19-15.07,1.54-14.28Z" fill="#fff"/>
    <path d="M271.73,471.35c-16.61.13-33.37-5.84-45.61-17.02-2.32-13.97-1.92-28.45-7.9-41.54l4.56,63.36c-10.93-2.41-22.74-4.03-33.43.4-2.38.98-11.3,7.29-12.39,7.26s-2.82-2.07-4.07-2.62c-5.84-2.54-10.37-1.52-16.3-.25-1.99-9.38-11.54-18.98-21.11-20.41-2.84-.42-5.93.23-8.53-.58-1.72-.54-5.45-4.45-7.66-5.78-5.52-3.3-12.71-4.39-16.19-10.69-4.15-7.51-.62-15.04-1.23-23.01h-2.88c.83,10.52-3.58,19.59,3.85,28.55,4.78,5.76,11.64,6.04,17.41,9.94,1.39.94,3.18,1.8,2.73,3.75-14.99,1.97-25.18,27.03-23.99,40.09.36,3.99,3.22,5.37-1,9.08-7.52,6.61-18.06,2.45-24.68-3.07-33.47-27.85-22.34-86.5-1.87-119.02,2.85-4.52,19.37-26.48,23.95-26.45l3.66,10.27c3.13,5.89,8.39,12.13,15.71,11.88,1.61,15.48,13.14,27.55,29.04,19.58,7.06,13.25,28.76,12.93,33.95-1.34,10.43,1.78,19.79-3.84,23.68-13.51,1.37-3.41,1.92-12.43,2.92-13.89,1.51-2.2,11.65-6.18,12.93-10.58,12.96,15.96,25.78,33.72,43.47,44.83,4.09,2.57,22.01,10.29,23.43,12.59s-4.19,9.82-5.32,12.32c-1.24,2.71-7.11,16.88-7.11,18.81v17.04Z" fill="#fff"/>
    <path d="M144.56,399.35c-8.89,7.17-20.19,3.77-24.21-6.74-.75-1.96-1.83-9-2.65-9.83s-5.8-1.63-7.33-2.26c-12.06-5-12.7-24.07-12.43-35.09-22.41-15.96-1.11-44.19-5.41-66.11-3.68-18.77-20.65-13.11-21.85,4.59-.29,4.27,2.13,13.43,1.55,15.46-.97,3.38-5.36,7.48-9.09,5.51-4.11-2.17-2.06-6.21-1.44-9.78,2.25-12.92,6.47-33.96,13.08-44.99,19.73-32.91,90.23-62.77,126.88-51.17,23.32,7.38,15.01,43.76,15.84,62.4s9.19,36.35,3.58,54.48c-.93,3-3.74,6.84-4.07,9.84-.56,5.03,2.75,11.46,2.91,16.81.26,8.75-5.02,21.97-11.79,27.6-1.74,1.45-5.62,2.79-6.68,4.36-2.1,3.11-1.52,10.72-3.53,15.19-3.75,8.34-11.85,10.61-20.4,8.85-2.39,3.22-2.8,6.16-6.13,8.78-9.3,7.32-22.2,2.1-26.84-7.88ZM180.45,214.63c-4.73.54-10.98,6.17-15.73,7.81-9.84,3.39-19.31-1.03-29.14-1.8-1.43.52-4.42,6.07-5.87,7.58-3.1,3.25-14.71,11.25-18.88,12.79-8.09,2.99-9.64-.03-12.1,10.46-4.35,18.55-2.53,43.91,10.09,59.07,17.69,21.25,26.78-6.17,42.77-7.65,4.75-.44,8.04,3.95,12.54,4.65,4.09.64,8.63.63,11.65-2.51,4.82-5.01,1.27-9.07,12.01-7.23,7.74,1.32,14.58,10.31,20.62,1.48,10.44-15.27,7.38-51.4,3.67-68.98-.42-1.98-1.51-8.76-3.54-9.42-2.14-.69-6.78.66-9.86.26-5.87-.77-12.34-7.16-18.23-6.49ZM181.99,317.74c-.74-.12-1.12.02-1.71.45-2.58,1.87-5.9,8.39-8.87,10.33-7.96,5.18-19.31.85-22.17-8.07l-2.42.14c-2.16,1.44,1.03,5.62,2.08,6.99,11.19,14.58,30.84,7.26,33.09-9.83Z" fill="#fff"/>
    <path d="M361.94,116.6c2.96,1,3.74,4.53,6.63,5.61,2.09.78,6.95.97,9.43,1.13,42.66,2.77,87.25.43,130.03.44,16.24,0,37.61-1.09,53.31.48,2.1.21,5.9.83,5.53,3.59l-.04,75.63c-50.4,7.46-101.93,9.41-152.81,5.28-17.44-1.42-35.16-3.26-52.07-7.67v-84.49ZM393.7,189.94c2.34,1.86,4.53,1.59,7.36,1.56,6.25-.07,15.83-.71,22.04-1.47.91-.11,3.19-.33,3.55-1.25.29-13.34,4.74-51.33-16.51-50.6-4.6.16-7.95,2.63-10.76,6.04-10.92,13.22-3.79,30.38-5.68,45.73ZM511.53,138.33c-7.64.94-12.46,9.13-14.4,15.83-3.32,11.44-.96,22.88-1.21,34.58l1.06,1.34,30.16.35c2.16-.68,2.62-8.98,2.75-11.17.76-12.79,1.46-43.37-18.37-40.93Z" fill="#fff"/>
    <path d="M6.38,349.42c10.71-.24,21.24,3.08,29.9,9.21,14.46,10.23,9.16,13.68,10.42,28.94.69,8.35,3.94,16.61,10.87,21.6-13.33,34.92-14.27,77.45,14.08,105.17-6.75,41.63-8.59,83.85-11.09,125.93l-25.38,2.93,1.68-17.76c10.94-5.57,22.35-19.18,22.81-31.91.34-9.45-5.91-10.69-12.72-5.52-5.7,4.33-7.26,11.01-10.81,16.79v-23.76c0-2.15,7.98-7.33,9.84-9.36,1.96-2.14,4.13-5.69,5.71-8.21,3.28-5.21,14.25-23.69,5.56-27.56-10.48-4.67-16.09,15.28-20.15,21.36.81-20.59,15.14-44.82,4.97-64.74-9.11-17.85-14.5,5.96-15.07,14.08-1.03,14.76,6.73,26.44,6.73,36.98v14.64c-4.2-7.06-6.47-17.28-13.21-22.55-5.8-4.54-10.01-4.93-10.8,3.57-1.51,16.32,10.63,31.01,23.05,39.86v25.2c-2.76-3.69-4.38-8.11-7.09-11.87-10.06-13.97-21.43-12.55-15.95,6.83,3.14,11.11,12.01,19.83,22.01,25.02l.1,19.57-25.46,5.08v-299.55Z" fill="#fff"/>
    <path d="M590.82,239.97v32.88c-6.66,2.06-14,2.9-20.96,3.99-47.67,7.47-95.16,8.91-143.38,5.84-45.98-2.93-91.76-10.52-135.98-23.1l-2.48-34.73c-.17-1.2.88-.72,1.58-.61,5.1.79,12.52,3.75,17.91,5.13,92.71,23.63,188.89,26.38,283.31,10.6Z" fill="#fff"/>
    <path d="M590.82,203.96v30c-7.23,3.32-16.37,4.22-24.32,5.43-12.63,1.93-25.56,3.38-38.31,4.4-80.71,6.42-162.53-2.05-240.15-23.99v-29.76c98.21,26.44,202.42,31.73,302.78,13.92Z" fill="#fff"/>
    <path d="M590.82,277.89v30.96c-8.03,2.38-16.57,3.56-24.86,4.89-21.11,3.38-42.46,5.98-63.91,5.43v-14.16l-75.47-1.68c-1.36.4-5.46,11.93-7.02,13.13-2.62,2.03-28.81-.65-33.81-1.19-30.43-3.31-60.46-10.39-90.01-17.96l-5.78-32.85c97.36,26.29,201.35,29.71,300.86,13.44Z" fill="#fff"/>
    <path d="M385.87,646.62c-17.72-2.92-12.59-20.33-10.86-33.05l14.99-9.72c1.13,30.31,29.17,61.59,61.3,48.85,31.93-12.67,33.44-62.65,22-89.91,3.12-5.23,7.2-6.85,8.46-13.55,4.3-22.95-17.82-25.44-25.55-6.37-11.38-8.67-25.57-7.7-38.31-2.92-2.02-2.21-2.78-4.85-5.11-6.91-2.03-1.79-7.46-3.72-8.55-5.37-2.67-4.06-1.28-16.51-4.89-21.26,5.26-.4,10.24,1.15,15.09,2.89,8.32-9.07,20.75-14.58,32.26-7.31,2.55,1.61,6.76,6.9,9.25,7.55,5.34,1.38,9.94-2.24,16.94.34,10.03,3.68,17.6,21.4,17.63,31.36.01,3.07-1.51,5.63-.86,8.98,1.13,5.8,9.89,10.44,10.91,20.76,1.27,12.77-3.14,15.62-6.59,26.03-3.07,9.25,1.14,10.95,1.79,19.1,1.08,13.53-5.53,33.85-21.85,33.8.34,8.56-2.03,21.21-9.57,26.43-5.97,4.14-10.61.27-15.14,1.66-1.05.32-4.75,4.14-6.68,5.31-6.77,4.1-13.78,5.81-20.8,1.11-2.52-1.69-8.25-9.09-9.93-9.75-2.38-.94-7.51-.36-10.19-.85-11.4-2.07-16.76-16.94-15.77-27.19Z" fill="#fff"/>
    <path d="M431.42,540.62c42.5-3.94,51.04,52.14,41.02,82.8-15.69,48-76.12,28-78.34-15.99-.56-11.02,3.43-14.97,6.36-24.34s2.52-20.39,7.46-28.54c4.53-7.46,14.94-13.14,23.5-13.93ZM458.26,583.28c-4.95.91-5.48,19.92,2.48,13.08,3.47-2.98,2.38-13.98-2.48-13.08ZM458.87,619.21c-3.82,3.23-4.96,13.75-10.8,13.47-4.3-.21-5.94-5.06-4.83-8.69.61-2,3.95-3.28,5.32-4.76,3.89-4.22,5.77-12.87-.62-15.73-3.17-1.42-14.79-2.36-15.49,2.01-1.44,8.99,7.38,14.64,6.05,21.89-1.55,8.43-9.3,4.47-12.18-.83-1.11-2.04-1.12-4.58-2.7-6.42-2.89-2.03-1.73,4.43-1.37,5.69,2.32,8.3,10.99,14.88,18.15,6.97,4.37,3.42,8.28,5.7,13.43,1.75,3.31-2.53,7.69-11.62,5.05-15.36Z" fill="#fff"/>
    <path d="M571.54,91.72l10.68,27.92c-.58,2.33-16.3,1.86-19.01,1.78-7.6-.21-15.76-1.34-23.47-1.48-57.08-1.07-114.18.95-171.21-1.42l-17.63-27.6,220.65.8Z" fill="#fff"/>
    <path d="M357.61,201.08c-14.6-3.29-29.57-4.96-44.15-8.4-3.25-.76-23.09-6.02-24.21-7.47-.69-.89-.77-3.22-1.6-4.64-.95-1.62-2.34-1.87-2.99-2.77-1.56-2.17-1.1-27.11-.97-31.71.42-14.31,0-23.33,6.49-36.23,9.91-19.71,22.87-37.85,34.32-56.63l33.95,58.92-.85,88.93ZM302.92,122.12v40.56l33.08.45c1.63-10.92,2.45-22.26,1.94-33.32-.46-9.92-2.62-37.89-17.77-35.56-9.85,1.52-16.24,19.41-17.25,27.87Z" fill="#fff"/>
    <path d="M558.82,678.88c-3.24,3.41-1.47,10.9-9.14,12.22-3.84.66-8.51-1.62-9.85-1.24-1.71.49-3.51,5.7-8.38,6.52-8.05,1.35-8.8-3.32-12.94-8.46-9.04,2.3-16.6.96-20.7-8.06-1.74-3.82-1.77-8.18-4.15-11.68-3.01,3.61-16.18,1.88-17.41-2.27-.37-1.26.91-10.68,1.6-11.64,15.62-3.73,21.99-23.38,21.35-37.72-.2-4.38-3.53-10.9-3.35-13.84s4.51-8.97,5.62-12.18c2.48-7.13,2.35-23.77-.75-30.7-1.23-2.74-3.99-4.34-3.43-7.55.88-5.08,15.04-11.11,19.75-10.74s8.68,5.15,12.18,5.63c2.9.4,6.81-1.35,10.01-1.43,10.14-.26,12.12,4.71,16.1,12.74,2.55.64,5.23-.08,7.8.36,9.87,1.67,15.15,19.48,14.29,27.99-.38,3.72-3.15,8.27-2.88,11.92.64,8.38,9.19,15.43,8.07,27.36-.64,6.86-6.48,13.26-7.04,17.96-.28,2.3,1.11,4.54,1.22,6.71.31,6.2-3.26,19.49-8.54,23.37-2.17,1.59-8.05,3.31-9.41,4.74ZM527.1,577.82c-8.7-17.18-23.06-6.13-21.68,9.93.33,3.89,3.42,8.05,3.31,10.98-.14,3.91-5.03,11.97-6.06,17.02-4.73,23.26,5.58,58.8,34.63,57.21,23.09-1.27,31.99-30.84,30.47-50.14-.39-4.93-3.51-13.87-2.85-18.22.4-2.6,5.07-6.41,6.11-9.74,4.04-12.98-11.15-25.6-18.4-11.18-5.05-2.93-13.12-7.47-19.09-7.16-1.66.09-5.13,2.01-6.45,1.31Z" fill="#fff"/>
    <polygon points="558.54 63.92 569.23 87.31 348.51 86.11 334.58 60.68 558.54 63.92" fill="#fff"/>
    <path d="M590.82,401.74v135.85c-3.82-4.54-5.61-10.56-8.56-15.68-10.91-18.98-29.23-40.89-46.68-54.11-7.1-5.38-15-9.11-22.25-14.22-1.3-9.91,14.92-17.5,20.38-7.19v-19.92c0-10.27,14.62-24.35,24.96-16.81,4.97,3.63,5.44,9.29,8.51,13.55.29.41-.05.89,1.07.62,3.09-10.65,9.02-24.66,22.56-22.08Z" fill="#fff"/>
    <path d="M492.93,673.93c.46,7.84,7.14,19.09,15.58,19.69,2.5.18,7.3-1.11,8.6-.85,2.65.53,4.55,8.94,13.84,7.91,1.5-.17,6.15-2.46,6.87-1.34,2.09,11.93,1.4,27.99,7.34,38.75,3.26,5.9,13.52,12.74,4.4,18.88-.44-4.47-1.43-10.36-7.2-9.6l4.32,11.99c-11.08,5.57-16.97-5.21-20.29-14.02-1.86-4.94-6.46-21.31-5.42-25.85.39-1.71,1.75-2.9,2.67-4.28l-9.59,2.87c.05-3.18,3.84-8.9-1.44-9.6-.17,12.35-7.64,31.03-3.12,42.72,1.55,4.02,6.71,7.5,4.55,12.48l-1.07-.6c-.86-2.32-.85-6.59-4.2-6.59-.49,4.75,3.44,11.94-4.28,11.47-1.04-3.75-.66-9.29-4.83-11l1.91,12.48c-7.44.42-13.51-7.95-14.34-14.69-1.55-12.66,1.5-27.67.41-40.74-.15-1.81-.55-7.26-3.54-6.52-.78.19-1.69,7.4-1.73,8.67-6.92-.06-12.88-4.01-19.19-6.24,3.77,6.39-.32,12.43-.96,19.45-.39,4.26-.85,11.03,1.7,14.6,1.91,2.67,8.57,5.24,5.61,9.5-.3.44.04.87-1.08.61l-.58-4.69-4.22-1.06,1.92,9.11-4.56-.47c-2.15-6.95-6.78-10.26-7.45-17.99-1.55-17.97,4.73-37.17,3.69-55.36,7.51-2.31,13.76-5.83,16.72-13.53,5.69,3.85,12.13,6.21,18.95,3.83Z" fill="#fff"/>
    <path d="M556.27,58.51c-74.83.27-149.54-.93-224.32-2.4l-12.23-21.12,225.27,3.85c1.48.32,5.05,7.01,6.09,8.79.68,1.16,5.82,10.33,5.2,10.88Z" fill="#fff"/>
    <path d="M438.95,772.34c-2.99-.5-5.63-3.44-6.9-6.06-3.56-7.35-7.16-36.93-6.32-45.08.41-3.94,2.94-5.2,3.37-8.86l-9.59,6.72,1.47-11.23c-.18-.72-3.12-.79-3.3.53-2.28,12.53-8.78,28.79-6.7,41.55.78,4.76,6.44,10.41,4.45,15.72-.46,1.22-.56.25-.86-.11-1.6-1.98-2.01-4.99-4.19-6.61-1.2,4.19,2.29,8.25.44,12.46-5.57,1.62-5.01-9.57-6.22-10.54-.13-.11-1.03.06-1.43,0l.48,11.53c-30.31.72-14.46-36.97-15.84-54.73,12.04.95,22.24-9.09,20.59-21.32-1.43-10.58-10.44-6.31-18.04-9.32-12.35-4.9-16.18-29.68-16.7-41.38l8.79,3.93c-1.49,10.9,6.01,24.13,16.28,28.12,4.25,1.65,9.7.98,12.96,2.4s5.76,7.17,10.5,9.17c5.71,2.41,15.57,1.95,21.13-.81,4.66-2.31,10.01-13.3,10.27.63.31,16.49-7.4,39.97-2.66,55.43,2.05,6.68,7.51,12.46,6.93,20.18-1.4-1.93-1.67-7.2-4.66-7.6-4.95-.66.17,5.76.62,8.05.58,2.97.88,6.4-3.15,5.79.05-4.48-1.48-10.84-5.76-12.96l2.4,14.4c-2.57-.3-5.95.41-8.4,0Z" fill="#fff"/>
    <path d="M267.89,170.84c-6.25,78.88,4.38,160.75,40.79,231.38h-9.84c-.18,0-3.2-.71-3.48-.84-2.52-1.14-16.45-28.51-18.43-32.92-22.09-49.06-32.29-126.09-28.22-179.61.46-6.03.76-12.54,3.59-18.01h15.59Z" fill="#fff"/>
    <path d="M200.71,169.88c-46.54-9.5-93.54,11.03-127.15,42.25,5.96-39.21,36.57-77.06,79.43-73.94,20.11,1.46,37.07,15.49,47.73,31.69Z" fill="#fff"/>
    <path d="M216.55,203.48c-2.72-1.39-4.87-3.67-7.53-5.19-19.4-11.05-52.44-4.68-72.49,2.66-27.59,10.1-52.69,28.9-68.97,53.41-11.8-34.58,31.29-60.36,57.84-71.27,20.03-8.23,59.29-16.98,79.25-6.84,6.43,3.27,11.9,13.26,11.9,20.26v6.96Z" fill="#fff"/>
    <path d="M416.16,321.58l-17.75,29.55c-32.82-3.65-65.16-10.53-97.34-17.63l-4.87-31.61c39.42,9.26,79.25,18.31,119.96,19.68Z" fill="#fff"/>
    <path d="M590.82,396.7l-.7.6c-11.26-1.71-19.62,7.34-22.58,17.4-5.57-9.65-15.31-16.69-25.82-8.55-3.87,2.99-4.84,8.08-9.82,9.38-8.11,2.12-25.51,2.73-34.39,3.04-12.87.45-25.82-.55-38.65-.26l14.72-27.52c39.06-.13,78.05-4.15,116.25-11.89l.99.53v17.28Z" fill="#fff"/>
    <path d="M324.99,405.58l-12.36-2.52c-36.58-69.91-47.05-151.94-41.86-230.3,1.16-1.29,13.44,8.47,13.81,10.9-1.29,75.48,4.78,154.27,40.41,221.91Z" fill="#fff"/>
    <path d="M590.82,347.98v27.36c-19.71,3.23-39.36,7.07-59.27,9.11-12.89,1.33-27.37,2.57-40.28,2.9-1.9.05-15.83.26-16.1-.74l14.25-28.09c34.17.85,67.91-4.8,101.4-10.54Z" fill="#fff"/>
    <path d="M59.64,305.74c6.07,5.24,11.2,1.14,14.86-4.32,1.78,5.55,7.53,5.75,11.78,8.16-1.08,8.29-2.44,15.76-.6,24.1,2.31,10.45,12.76,14.03,8.77,25.38-10.37,8.75-18.97,16.99-26.09,28.62-3.39,5.55-5.92,12.05-9.93,16.97-9.36-7.65-8.9-22.27-8.42-33.41.93-21.66,6.11-44.15,9.62-65.51Z" fill="#fff"/>
    <path d="M590.82,312.93v30c-32.44,7.47-66.03,10.85-99.33,11.51,4.08-9.77,10.52-18.35,11.51-29.28,29.28-4.06,59.3-3.82,87.82-12.23Z" fill="#fff"/>
    <path d="M376.33,608.16c11.87-41.14,4.88-86.63-19.67-121.66,18.12-9.35,34.38,9.08,40.18,24.57,8.66,23.13,7.02,61.59-5.4,83.18-3.35,5.83-8.24,12.24-15.12,13.91Z" fill="#fff"/>
    <path d="M396.48,354.7l-14.12,24.99c-2.25,1.37-9.11-.24-11.87-.67-19.72-3.07-38.98-8.87-58.46-13.04l-8.63-28.08c30.56,7.79,61.6,13.98,93.09,16.8Z" fill="#fff"/>
    <path d="M262.13,607.68c-.93-8.65,2.35-17.1,2.9-25.66.71-11.06-.81-24.43-2.57-35.4-3.65-22.81-11.35-49.22-30.59-63.53,2.08-4.58,9.64-5.01,14.17-4.53,37.82,3.97,37.36,85.77,28.21,111.73-2.13,6.05-6.14,14.81-12.12,17.39Z" fill="#fff"/>
    <path d="M344.18,666.73l6.72,21.84-.97,67.93c-7.65-6.13-7.05,3.4-9.1,4.57-.92.52-2.64.06-3.88.44-7.53,2.33-5.75,11.64-6.46,11.8l-9.85-2.73-.45-56.55c9.19-9.62,16.85-20.91,20.27-33.96.85-3.24,1.18-10.09,2.38-12.5.33-.65.5-.99,1.32-.84Z" fill="#fff"/>
    <path d="M356.18,420.95l-26.47,48.39-9.03,1.04c3.15-6.7,7.09-9.45,6.74-17.54-.75-16.95-22.59-30.3-38.4-27.79-4.14-10.76-16.51-11.42-24.95-17.31,31-6.19,63.52.8,92.12,13.21Z" fill="#fff"/>
    <path d="M499.65,328.54c-1.05,7.6-15.01,32.93-19.26,41.21-22.74,44.28-47.78,87.45-68.11,133l-1.11.73-12.76-.45,101.25-190.09c-.48,4.86.65,10.9,0,15.6Z" fill="#fff"/>
    <path d="M532.28,419.98l-2.41,18.24c-10.59-4.28-18.12,4.29-20.16,13.92-19.99-7.83-41.47-9.91-62.85-8.17l10.87-21.04c24.89-.11,49.84.11,74.54-2.96Z" fill="#fff"/>
    <path d="M313.95,371.02l64.83,12.19.35,1.36-21.67,32.92c-7.09-5.27-22.7-6.24-28.64-12.17-6.56-6.55-10.29-25.77-14.88-34.31Z" fill="#fff"/>
    <path d="M232.38,668.17c.34,5.12,3.28,9.74,4.19,14.78,3.13,17.4-3.3,40.57-4.65,58.44-.16,2.16.75,13.33-1.2,13.62-8.23-5.53-12.41,6.4-12.74,12.77l-.94.72c-7.42-19.43-6.18-40.46-9.48-60.67.35-1.74,12.17-12.97,14.1-16.06,3.94-6.3,6.01-16.44,9.72-22.91.26-.45-.24-.93,1.01-.68Z" fill="#fff"/>
    <polygon points="366.73 414.7 379.49 392.61 447.8 401.02 435.14 424.13 366.73 414.7" fill="#fff"/>
    <path d="M137.37,477.59c1.97,5.61,6.51,10.59,7.85,16.38.77,3.33,2.21,13.78-3.28,13.4-3.79-.26-2.64-5.27-3.45-8.59-.54-2.21-1.26-4.31-2.32-6.32-1.28-2.45-8-11.27-10.07-6.22-1.67,4.09,3.42,3.7,5.51,6.46,3.14,4.16,6.97,24.23-1.48,18.76-3.76-2.44-7.78-22.85-16.28-11.32,5.71,1.07,10.21,4.54,10.11,10.8-.2,12.62-20.32-1.87-21.52-7.3-1.35-6.07,3.39-19.94,6.53-25.42,11.14-19.43,34.68-19.9,43.5,1.77,1.16,2.86,4.55,12.39,1.48,14.43-6.01,3.99-7.12-9.37-9.67-12.96-1.33-1.88-4.56-4.66-6.92-3.87Z" fill="#fff"/>
    <path d="M65.39,635.52c-.86-.57-.53-3.13-.49-4.1,1.43-31.88,2.53-65.39,7.29-96.88.33-2.15,2.68-18.44,4-18.55,5.53,4.62,13.9,4.65,20.07,1.34,1.95-1.05,6.29-5.91,8.02-5.48.92.23,2.58,1.73,2.33,2.82-.13.57-5.64,7.58-6.74,9.62-8.9,16.6-18.22,50.01-23.67,68.97-4.02,13.98-6.5,28.35-10.81,42.24Z" fill="#fff"/>
    <path d="M337.94,462.23c1.86-3.14,10.4-20.3,13.16-20.59l68.9,12.2-11.27,20.4-70.78-12.01Z" fill="#fff"/>
    <polygon points="422.36 449.25 352.34 438.47 363.66 418.63 432.95 427.92 422.36 449.25" fill="#fff"/>
    <path d="M393,370.62l67.77,5.44c-2.39,5.03-4.35,10.43-7.46,15.09-1.08,1.61-3.19,5.19-5.16,5.29l-66.55-6.92c-.7-.48-.35-.68-.26-1.23.37-2.15,9.83-17.17,11.66-17.66Z" fill="#fff"/>
    <path d="M323.06,459.35c-1.3.88-4.23-7.23-4.89-8.3-1.65-2.7-10.54-10.57-12.31-5.77-1.02,2.76,4.84,3.52,7.14,5.66,2.48,2.31,9.64,16.87,3.59,16.13-1.25-.15-4.63-8.42-6-10.37-2.45-3.48-5.6-6.54-9.96-7.34l-1.08.65c.42,4.36,4.95,5.36,7.42,7.91s6.14,9.5,5.07,13.23c-2.98,2.19-14.33-13.84-19.47-13.66-2.52.08-3.88,3.52-3.94,5.59-.12,4.56,7.95,12.63,1.96,15.91-3.12,1.71-12.6-4.8-14.3-7.66-3.57-6,1.23-22.9,3.7-29.38,5.27-13.77,8.58-15.83,23.02-10.8,12.59,4.39,22.96,13.65,20.03,28.2Z" fill="#fff"/>
    <path d="M259.65,367.31c3.65-.07,12.14.51,14.74,3.21s5.83,12.92,7.96,17c1.71,3.28,7.41,10.5,8.18,12.95.14.46.7.46-.07,1.05l-32.22,2.36c-3.16-.55-23.54-19.43-23.93-22.58-.7-5.59,14.87-12.7,19.57-13.5,1.43-.24,4.31-.46,5.78-.49Z" fill="#fff"/>
    <path d="M395.05,366.21c-.56-.88,8.01-16.77,10.97-17.5l65.56,3.59,1.2.73-9.91,18.41-67.82-5.23Z" fill="#fff"/>
    <path d="M485.25,328.78l-10.29,19.51-66.97-3.68c-1.11-1.06,8.02-15.83,9.44-17.68l67.82,1.85Z" fill="#fff"/>
    <path d="M92.62,704.04c-.64.75-5.07.21-6.3.07-5.11-.6-20.35-4.47-21.38-10.29-1.62-9.14,2.16-6.84,6.68-11.5,13.24-13.64,2.66-30.82,3.38-46.07.42-9.04,5.56-17.99,7.67-26.65.64.79.82,3.01.95,4.08,1.13,9.52,1.18,19.21,2.48,28.72,2.79,20.38,10.77,40.83,6.52,61.63Z" fill="#fff"/>
    <path d="M268.85,119.95l45.82-83.52c.69.2,6.86,11.7,7.09,12.64.19.78.41,1.16-.16,1.94l-39.76,67.78-12.98,1.17Z" fill="#fff"/>
    <polygon points="496.29 307.65 489.05 323.69 486.96 324.49 420.48 321.57 427.91 307.65 496.29 307.65" fill="#fff"/>
    <path d="M352.82,693.13c6.83,7.5,11.53,17.56,21.61,21.39-3.36,8.12-7.89,16.13-6.61,25.29.85,6.09,9.24,15.54-2.04,17.17l-3.11-12.97-3.13-.47,1.92,14.88c-2.03.49-8.64-.21-8.64-3.12v-62.17Z" fill="#fff"/>
    <path d="M273.64,711.86c.62,10.42,5.08,22.38-1.68,31.68-7.37-8.23-13.45.65-13.19,8.64-19.28-4.37-3.73-32.99-7.64-46.3l1.15-.74c5.72,5.28,13.71,7.23,21.36,6.72Z" fill="#fff"/>
    <path d="M407.04,478.56l-11.27,20.15c-9.64-15.26-24.92-23.54-42.59-15.46-6.28-5.96-13.12-9.27-20.99-12.62l4.34-3.86,70.51,11.78Z" fill="#fff"/>
    <path d="M159.39,709.98l-.43,32.59-6.25-3.13c-4.15,1.86-4.86,13.33-5.98,14.66-1.62,1.92-6.51-.45-6.96-4.09-.82-6.64-.45-20.41-.02-27.38.36-5.92,1.84-11.71,2.9-17.51l16.74,4.85Z" fill="#fff"/>
    <path d="M286.12,483.36l-11.51,16.79c-7.62-16.77-21-29.71-40.8-24.24-1.27.35-6.06,2.91-6.73,2.42l-1.9-18.98c8.6,5.58,17.66,10.82,27.73,13.3,7.52,1.85,19.15,1.85,25.49,5.7,2.45,1.49,4.44,4.58,7.71,5.01Z" fill="#fff"/>
    <path d="M64.89,668.2c-2.94-2.26-5.89,9.2-7.89,9.57-2.66-6.26-.46-14.8,1.34-21.22,1.25-4.45,6.34-21.92,13.03-14.75,6.41,6.87,3.93,31.16-1.93,38.33-6.9,8.44-3.47-11.11-4.54-11.93Z" fill="#fff"/>
    <path d="M81.11,271.76c9.13-1.56,9.12,15.04,8.75,20.76-.2,3.05-1.19,12.78-4.67,13.1-10.65,1.01-16.35-31.77-4.09-33.87Z" fill="#fff"/>
    <path d="M230.94,375.82l-6.42-7.25-5.07-7.42c2.09-6.27,4.13-10.38,3.81-17.24-.23-5.05-2.63-11.53-2.41-16.3.21-4.47,4.16-9.49,4.34-14.19l3.83,27.61,1.92,34.79Z" fill="#fff"/>
    <path d="M36.6,540c-1.14.27-.78-.22-1.08-.62-2.62-3.58-4.42-15.19-4.7-19.76-.22-3.72.3-27.86,3.63-28.58,12.81,12.28,4.95,33.81,2.14,48.97Z" fill="#fff"/>
    <path d="M32.76,572.64c-11.36-6.18-23.96-22.7-17.93-35.97,3.52-1.15,10.19,11.7,11.47,14.36,3.15,6.55,6.2,14.33,6.46,21.61Z" fill="#fff"/>
    <path d="M31.8,619.68c-10.92-5.87-22.5-18.75-19.6-32.09,3.9-2.4,12.61,9.86,14.23,12.74,3.2,5.69,5.56,12.79,5.37,19.34Z" fill="#fff"/>
    <path d="M468.8,533.86c12.79-2.89,11.91,20.23,3.17,24.3-1.25.07-10.98-11.58-11.19-13.17-.42-3.25,4.71-10.39,8.02-11.13Z" fill="#fff"/>
    <path d="M36.13,621.12c1.05-9.68,5.89-25.9,15.02-30.81,1.82-.98,3.97-2.3,4.63.82,1.97,9.31-10.98,26.5-19.65,29.99Z" fill="#fff"/>
    <path d="M37.09,573.6c1-8.74,4.48-18.81,8.86-26.41,1.76-3.05,4.21-8,8.41-7.46,2.87,4.87.54,11.41-1.66,16.13-3.27,7.03-9.21,13.42-15.61,17.74Z" fill="#fff"/>
    <path d="M74.04,705.13c5.71,3.31,12.92,1.13,18.68,3.63,2.78,3.65-6.3,13.11-8.11,16.31-9.08-2.25-14.58-11.01-10.57-19.94Z" fill="#fff"/>
    <path d="M72.11,636.96l-2.89-1.68c2.12-13.39,5.6-27.62,9.96-40.45,1.23-3.62,2.28-7.78,4.92-10.67.54,18.53-10.18,34.68-11.99,52.8Z" fill="#fff"/>
    <path d="M89.87,731.53v8.64c-8.16-1.81-22.11-7.38-16.56-18.24l16.56,9.6Z" fill="#fff"/>
    <path d="M198.79,783.38l-10.82-1.42c-.41-19.24,12.25-15.51,10.82,1.42Z" fill="#fff"/>
    <path d="M247.73,710.17c-.05.28-.61.7-.49,1.2l-7.67-3.6.49-17.53c1.85,1.76,2.72,4.61,4.09,6.7.97,1.48,3.58,2.09,3.58,5.06,0,2.3.36,6.13,0,8.16Z" fill="#fff"/>
    <path d="M124.9,770.42c.19-5.3-.69-15.26,6.71-15.63,5.76,7.34,3.14,15.37-6.71,15.63Z" fill="#fff"/>
    <path d="M305.8,775.22h-9.12c.35-2.9,1.03-13.96,3.85-15.15,2.05-.87,5.27,6.1,5.27,7.71v7.44Z" fill="#fff"/>
    <path d="M120.58,771.38l-8.6-.99c.07-18.23,11.57-17.12,8.6.99Z" fill="#fff"/>
    <path d="M203.11,782.42v-8.88c0-1.43,1.89-5.7,4.02-5.51,8.41,3.14,4.83,14.94-4.02,14.39Z" fill="#fff"/>
    <path d="M406.09,550.08c.83-2.27-2.7-15.85-.69-16.35,2.5-.57,8.73,5.74,8.85,7.51s-6.64,7.31-8.16,8.84Z" fill="#fff"/>
    <path d="M310.11,774.26v-11.28c0-2.1,3.07-4.99,5.45-4.02,4.07,6.33,2.17,13.47-5.45,15.3Z" fill="#fff"/>
    <path d="M297.16,475.67c.63-5.1-4.84-8.4-4.32-13.44,1.41-1.58,10.17,7.51,11.01,8.91l-6.69,4.53Z" fill="#fff"/>
    <path d="M269.81,754.1l-8.64-.49c1.54-3.25,1.1-9.56,5.84-8.85,3.94.58,2.57,6.54,2.8,9.34Z" fill="#fff"/>
    <path d="M347.4,770.76c-.41.42-2.94,1.41-3.22,1.09.36-2.75-2.16-11.27,1.7-12,4.68-.88,3.46,8.94,1.52,10.9Z" fill="#fff"/>
    <path d="M221.35,768.5c-.93-3.12,3.96-13,7.67-9.36,3.46,3.39-4.3,9.43-7.67,9.36Z" fill="#fff"/>
    <path d="M158.41,751.62l-8.08,2.95,2.93-10.02c2.7-.97,6.24,5.22,5.15,7.07Z" fill="#fff"/>
    <path d="M334.11,773.29c-.16-9.77,7.1-10.48,6.98-.92l-6.98.92Z" fill="#fff"/>
    <path d="M276.51,752.16l-3.34.98c-.16-2.98.09-6.27,2.16-8.64l1.18,7.66Z" fill="#fff"/>
    <path d="M91.78,727.21l-3.36-.48,2.41-4.31c1.19.15,1.12,4.61.95,4.79Z" fill="#fff"/>
    <path d="M79.79,39.55c1.1-9.61,10.37-23.01,20.51-24.6,14.25-2.24,20.71,10.43,22.68,22.44,15.51-13.63,29.68,7.73,28.31,22.56,25.94-6.23,31.81,38.98,7.79,43.56-15.69,3-47.77,1.66-64.67,1.1-7.57-.25-21.47-.53-28.31-2.88-24.46-8.42-17.72-67.37,13.69-52.82.24-2.99-.33-6.43,0-9.36ZM146.49,68.59c3.86-10.46-.41-32.03-14.65-31.21-6,.35-5.47,4.47-7.91,5.53-5.08,2.2-3.49-4.16-3.89-6.66-3.87-24.37-32.55-20.55-36.68,1.6-1.15,6.19.23,12.46-.22,18.75-2.78-.77-4.19-3.24-7.18-4.57-19.3-8.6-25.65,25.39-17.01,38.14,5.15,7.6,15.93,9.17,24.42,9.65,17.64,1,35.63-.54,53.26-1,7.3-.19,16.79.98,23.56.43,13.47-1.09,15.4-33.43-1.51-35.4-6.4-.75-6.85,3.58-12.19,4.75Z"/>
    <path d="M55.32,776.18c3.26-6.62,16.58-22.47,21.13-8.42,4.18,12.91-9.17,21.99-15.95,30.9l-2.72-.46c-2.03-3.15,9.51-12.72,11.44-15.07,2.91-3.55,8.18-11.2,3.01-15.11-4.72-3.58-11.66,6.38-13.49,9.92-1.18,2.28-4.43,15.62-7.76,13.41-.68-.98-.95-2.22-.98-3.4-.34-12.41,6.56-35.16,1.34-46.43-1.98-4.27-6.25-5.37-9.19-1.3-7.53,10.42,4.67,39.09,4.79,51.35-.4.55-.78.45-1.36.39-2.75-.3-6.18-13.59-7.78-16.74s-8.68-13.57-11.79-14.61c-2.76-.92-4.32.73-4.74,3.37-1.72,10.95,14.55,22.72,17.34,31.54.76,2.39-.34,4.14-2.5,3.01-1.02-.54-11.83-16.91-13.04-19.14-3.01-5.51-9.09-16.83-2-21.36,7.47-4.78,12.64,4.12,16.94,8.81-2.33-8.93-5.46-35.93,10.3-33.33.9.15,1.58.57,2.35,1.01,9.31,5.31,5.58,32.49,4.65,41.68Z"/>
    <path d="M572.1,805.46l-7.22,4.58-1.2-.21c-2.87-2.53,3.28-15.47-3.26-15.92l-3.51,13.83c-.25.83-1.27,1.06-1.95.78-2.28-.96-3.49-13.11-8.28-13.61.04,1.81-.11,3.64.06,5.46.26,2.81,4.19,15.2,2.36,16.41-3.64,2.4-5.37-10.16-5.64-12.17-1.84-13.88,1.79-19.7,11.37-6.34.53-4.25,4.61-11.29,9.6-8.4l2.14,12.26c.44.82,2.92-1.17,3.97-1.35,8.92-1.51,5.87,14,2.98,16.43-5.45,4.58-.59-10.59-1.42-11.73Z"/>
    <path d="M210.16,566.98c7.06-1.05,6.48,15.52.37,15.78-7.4.31-4.63-15.14-.37-15.78Z"/>
    <path d="M246.85,577.35c-2.05-1.17-2.31-17.55,3.46-15.21,2.78,1.13,2.43,18.57-3.46,15.21Z"/>
    <path d="M324.86,562.19c8.65-.79,4.37,20.79-1.54,14.28-2.3-2.53-3.12-13.85,1.54-14.28Z"/>
    <path d="M366.6,560.25c5.8-1.28,5.55,11.76,2.24,13.77-6.57,3.98-8.88-12.3-2.24-13.77Z"/>
    <path d="M180.45,214.63c5.89-.67,12.36,5.72,18.23,6.49,3.08.4,7.72-.95,9.86-.26s3.12,7.44,3.54,9.42c3.71,17.58,6.77,53.71-3.67,68.98-6.04,8.84-12.88-.15-20.62-1.48-10.74-1.84-7.19,2.23-12.01,7.23-3.02,3.14-7.56,3.15-11.65,2.51-4.5-.7-7.79-5.09-12.54-4.65-15.99,1.49-25.08,28.9-42.77,7.65-12.61-15.15-14.43-40.51-10.09-59.07,2.46-10.49,4.01-7.47,12.1-10.46,4.17-1.54,15.78-9.55,18.88-12.79,1.44-1.51,4.44-7.06,5.87-7.58,9.82.77,19.3,5.19,29.14,1.8,4.75-1.64,11-7.27,15.73-7.81ZM207.91,225.56c-4.18-.16-8.49.48-12.58-.62s-9.36-6.04-13.09-6.15c-3.49-.1-11.43,5.37-15.27,6.85-10.3,3.97-18.86.34-29.26-.96-5.97,5.81-12.96,14.08-20.33,18.07-3.32,1.8-11.19,2.93-13.08,4.67-4.11,3.79-4.79,25.81-4.28,31.59.89,10.07,10.95,36.3,23.67,35.36,6.34-.47,17.09-14.31,26.52-15.73,8.76-1.33,14.52,9.8,23.03,3.36,4.71-3.56,3.56-9.36,2.06-14.29-.64-2.09-7.58-14.85-6.25-15.59,9.32,3.11,7.62,14.37,11.5,21.37,3.79.56,6.27-.4,10.08.48,7.24,1.67,11.66,9.58,16.54-.25,9.74-19.58,1.96-47.32.73-68.16Z"/>
    <path d="M181.99,317.74c-2.26,17.09-21.91,24.41-33.09,9.83-1.05-1.37-4.24-5.55-2.08-6.99l2.42-.14c2.86,8.93,14.21,13.26,22.17,8.07,2.97-1.93,6.29-8.45,8.87-10.33.59-.43.97-.57,1.71-.45Z"/>
    <path d="M511.53,138.33c19.83-2.43,19.13,28.15,18.37,40.93-.13,2.19-.59,10.48-2.75,11.17l-30.16-.35-1.06-1.34c.25-11.7-2.11-23.14,1.21-34.58,1.95-6.7,6.76-14.89,14.4-15.83ZM525.56,186.2v-32.4c0-1.28-4.81-8.54-6.27-9.57-10.81-7.63-19.88,7.75-20.62,17.23-.22,2.79-.36,23.62.48,24.52,8.37,3.08,17.65-.8,26.41.22Z"/>
    <path d="M393.7,189.94c1.89-15.35-5.24-32.51,5.68-45.73,2.81-3.41,6.16-5.88,10.76-6.04,21.25-.73,16.81,37.26,16.51,50.6-.36.92-2.63,1.14-3.55,1.25-6.22.76-15.79,1.4-22.04,1.47-2.83.03-5.02.31-7.36-1.56ZM423.83,186.2c2.14-11.14,2.84-50.45-17.74-42.95-5.35,1.95-7.74,11.32-8.51,16.45-1.35,9.04-.26,18.35-.62,27.47l26.87-.97Z"/>
    <path d="M458.87,619.21c2.64,3.74-1.74,12.82-5.05,15.36-5.15,3.94-9.06,1.66-13.43-1.75-7.16,7.91-15.83,1.33-18.15-6.97-.35-1.27-1.52-7.72,1.37-5.69,1.58,1.84,1.58,4.38,2.7,6.42,2.89,5.3,10.63,9.26,12.18.83,1.34-7.26-7.49-12.9-6.05-21.89.7-4.37,12.32-3.43,15.49-2.01,6.4,2.86,4.51,11.51.62,15.73-1.36,1.48-4.71,2.76-5.32,4.76-1.11,3.63.53,8.48,4.83,8.69,5.84.28,6.98-10.24,10.8-13.47ZM435.83,606.72c-1.27,8.1,7.35,18.39,12.18,6.67,1.24-3,.27-6.67-3.3-6.67h-8.88Z"/>
    <path d="M458.26,583.28c4.86-.9,5.95,10.11,2.48,13.08-7.96,6.83-7.43-12.17-2.48-13.08Z"/>
    <path d="M302.92,122.12c1.01-8.46,7.4-26.35,17.25-27.87,15.15-2.33,17.31,25.64,17.77,35.56.51,11.07-.31,22.4-1.94,33.32l-33.08-.45v-40.56ZM334.11,159.32c.57-9.33.87-19.17.5-28.58-.27-6.92-.59-15.49-3.01-21.95-3.32-8.87-10.17-14.44-17.63-5.38s-8.08,31.27-8.19,42.69c-.04,4.2-.85,9.79,1.7,13.22h26.63Z"/>
    <path d="M527.1,577.82c1.31.7,4.79-1.22,6.45-1.31,5.97-.31,14.04,4.24,19.09,7.16,7.25-14.42,22.43-1.81,18.4,11.18-1.04,3.34-5.71,7.14-6.11,9.74-.66,4.35,2.46,13.29,2.85,18.22,1.52,19.3-7.38,48.87-30.47,50.14-29.06,1.59-39.36-33.95-34.63-57.21,1.03-5.05,5.92-13.11,6.06-17.02.11-2.93-2.98-7.09-3.31-10.98-1.38-16.06,12.98-27.11,21.68-9.93ZM515.85,573.69c-9.02.85-9.23,15.61-4.45,21.02,1.53-1.85,12-13.53,12.06-14.64.15-2.78-4.51-6.68-7.61-6.39ZM530.72,581.88c-14.64,2.5-25.32,29.36-26.26,42.38-1.44,20.01,10.1,45.72,33.33,44.38,37.68-2.17,34.05-93.77-7.07-86.76ZM563,600c6.84-3.04,6.21-19.5-2.61-18.21-1.16.17-3.6,1.59-4.14,2.58-2.37,4.39,6.68,10.84,6.75,15.63Z"/>
    <path d="M146.49,68.59c5.34-1.17,5.79-5.49,12.19-4.75,16.91,1.97,14.97,34.31,1.51,35.4-6.77.55-16.26-.62-23.56-.43-17.62.47-35.61,2-53.26,1-8.49-.48-19.27-2.05-24.42-9.65-8.63-12.75-2.29-46.74,17.01-38.14,2.99,1.33,4.4,3.8,7.18,4.57.44-6.29-.94-12.55.22-18.75,4.13-22.14,32.81-25.97,36.68-1.6.4,2.5-1.2,8.86,3.89,6.66,2.44-1.05,1.91-5.18,7.91-5.53,14.24-.82,18.51,20.75,14.65,31.21Z" fill="#fff"/>
    <path d="M207.91,225.56c1.22,20.84,9.01,48.58-.73,68.16-4.89,9.83-9.3,1.92-16.54.25-3.81-.88-6.3.08-10.08-.48-3.88-6.99-2.18-18.25-11.5-21.37-1.34.74,5.61,13.5,6.25,15.59,1.5,4.94,2.65,10.73-2.06,14.29-8.51,6.44-14.27-4.68-23.03-3.36-9.43,1.43-20.19,15.27-26.52,15.73-12.72.94-22.78-25.29-23.67-35.36-.51-5.78.17-27.8,4.28-31.59,1.89-1.74,9.76-2.87,13.08-4.67,7.37-4,14.37-12.27,20.33-18.07,10.4,1.3,18.96,4.94,29.26.96,3.84-1.48,11.79-6.95,15.27-6.85,3.73.11,9.14,5.08,13.09,6.15s8.4.46,12.58.62ZM198.82,244.28c5.73-.92,2.73-5.39-.27-7.67-4.79-3.62-15.2-5.38-15.59,2.88,6.05-.57,13.57-2.96,15.87,4.79ZM123.92,257.72c.63-4.62,4.63-10.16,9.49-10.91,1.69-.26,10.79,1.47,7.06-2.98-2.59-3.09-10.4-1.26-13.41.94s-10.74,12.18-3.14,12.95ZM197.83,278.37c2.21-17.86-19.3-13.93-13.42,2.4,1.1.22.76-.1,1.07-.61,1.75-2.95.69-11.83,6.87-8.53,1.48.79,4.07,7.7,5.48,6.74ZM147.44,281.73c1.17-16.47-17.97-12.62-12.94,1.92,2.16-2.27.9-8.57,4.58-9.07,5.6-.76,5.09,4.41,8.36,7.15Z" fill="#fff"/>
    <path d="M525.56,186.2c-8.76-1.03-18.04,2.85-26.41-.22-.84-.9-.7-21.73-.48-24.52.73-9.48,9.81-24.86,20.62-17.23,1.46,1.03,6.27,8.28,6.27,9.57v32.4Z" fill="#fff"/>
    <path d="M423.83,186.2l-26.87.97c.35-9.12-.73-18.43.62-27.47.77-5.13,3.16-14.5,8.51-16.45,20.58-7.5,19.88,31.82,17.74,42.95Z" fill="#fff"/>
    <path d="M435.83,606.72h8.88c3.57,0,4.54,3.67,3.3,6.67-4.83,11.72-13.45,1.43-12.18-6.67Z" fill="#fff"/>
    <path d="M334.11,159.32h-26.63c-2.55-3.43-1.74-9.02-1.7-13.22.11-11.43.85-33.78,8.19-42.69s14.3-3.48,17.63,5.38c2.42,6.46,2.74,15.03,3.01,21.95.37,9.41.08,19.25-.5,28.58Z" fill="#fff"/>
    <path d="M530.72,581.88c41.12-7.02,44.75,84.59,7.07,86.76-23.23,1.34-34.77-24.37-33.33-44.38.94-13.02,11.61-39.88,26.26-42.38ZM523.48,614.52c-4.82.22-5.7,13.23.63,10.67,4.44-1.8,3.1-10.84-.63-10.67ZM552.31,617.85c-3.55.96-3.86,10.58-.52,10.85,4.11.33,7.02-12.61.52-10.85ZM551.95,649.45c-4.33-1.35-6.4,11.54-10.56,5.05s8.38-9.32,7.7-16.33c-.47-4.82-11.76-6.21-15.07-4.02-6.75,4.48,9.83,20.17-2,20.59-6.99.25-5.03-8.02-11.26-8.17-.09,5.41,5.56,12.98,11.27,13,2.19,0,4.85-2.09,5.66-1.9.7.16,1.66,1.76,2.58,2.27,6.28,3.55,12.3-4.54,11.68-10.49Z" fill="#fff"/>
    <path d="M515.85,573.69c3.1-.29,7.76,3.6,7.61,6.39-.06,1.11-10.53,12.78-12.06,14.64-4.78-5.41-4.57-20.17,4.45-21.02Z" fill="#fff"/>
    <path d="M563,600c-.07-4.78-9.12-11.24-6.75-15.63.54-.99,2.98-2.41,4.14-2.58,8.82-1.29,9.45,15.17,2.61,18.21Z" fill="#fff"/>
    <path d="M123.92,257.72c-7.6-.77.2-10.79,3.14-12.95s10.82-4.03,13.41-.94c3.73,4.45-5.37,2.71-7.06,2.98-4.86.76-8.86,6.29-9.49,10.91Z"/>
    <path d="M197.83,278.37c-1.41.96-4.01-5.95-5.48-6.74-6.18-3.3-5.12,5.58-6.87,8.53-.31.51.03.83-1.07.61-5.88-16.33,15.63-20.26,13.42-2.4Z"/>
    <path d="M198.82,244.28c-2.29-7.75-9.81-5.36-15.87-4.79.39-8.26,10.8-6.5,15.59-2.88,3.01,2.28,6.01,6.74.27,7.67Z"/>
    <path d="M147.44,281.73c-3.27-2.74-2.76-7.92-8.36-7.15-3.68.5-2.42,6.8-4.58,9.07-5.03-14.53,14.11-18.39,12.94-1.92Z"/>
    <path d="M551.95,649.45c.62,5.94-5.4,14.04-11.68,10.49-.91-.52-1.87-2.11-2.58-2.27-.81-.19-3.47,1.91-5.66,1.9-5.71-.01-11.37-7.59-11.27-13,6.23.15,4.27,8.43,11.26,8.17,11.83-.43-4.75-16.11,2-20.59,3.31-2.19,14.6-.81,15.07,4.02.68,7.01-11.79,9.96-7.7,16.33s6.23-6.4,10.56-5.05ZM536.12,637.45c-.58,3.27,2.55,10.42,6.49,7.21,1.25-1.02,3.08-5.91,1.43-7.21h-7.92Z"/>
    <path d="M523.48,614.52c3.73-.17,5.07,8.87.63,10.67-6.33,2.56-5.45-10.45-.63-10.67Z"/>
    <path d="M552.31,617.85c6.5-1.77,3.59,11.18-.52,10.85-3.34-.27-3.03-9.89.52-10.85Z"/>
    <path d="M536.12,637.45h7.92c1.65,1.3-.18,6.2-1.43,7.21-3.95,3.21-7.08-3.94-6.49-7.21Z" fill="#fff"/>
  </g>
  <path d="M421.27,583.28c4.86-.9,5.95,10.11,2.48,13.08-7.96,6.83-7.43-12.17-2.48-13.08Z"/>
</svg>