<?xml version="1.0" encoding="UTF-8"?>
<svg id="Camada_1" xmlns="http://www.w3.org/2000/svg" version="1.1" viewBox="0 0 595.28 841.89">
  <!-- Generator: Adobe Illustrator 29.0.0, SVG Export Plug-In . SVG Version: 2.1.0 Build 186)  -->
  <path d="M.14,841.29V-.06h595v841.34H.14ZM590.54,3.89H4.08v514.01l6.28-2.6c29.71-34.42,56.7-73.16,90.05-103.86,8.78-8.09,12.72-15,26.98-10.57,7.71,2.39,23.73,18.69,30.23,25,3.01,2.92,21.48,23.42,23.12,23.58,8.8-7.96,16.61-17.47,27.81-22.26-5.73-6.11-9.44-10.87-7.26-19.68-10.29-.83-10.94-14.61-8.18-22.37,2.13-5.99,7.8-11.05,10.33-15.95,1.87-3.62,2.67-8.18,3.78-12.09l-.3-1.52c-13.39-12.3-9.48-31.04,2.88-42.52-10.68-20.64,6.78-40.54,28.35-39.99,10.44-20.36,37.3-25.3,57.83-19.05,2.2.67,7.43,3.93,8.34,4.06,1.42.21,7.43-2.03,9.86-2.34,22.79-2.92,48.38,5.66,52.23,30.74,12.74,2.15,21.84,13.99,19.37,27.04-.4,2.09-2.46,5.07-2.37,6.17.16,1.8,3.83,4.32,4.88,6.33,3.62,6.93,3.07,15.7-.34,22.55-.56,1.12-2.68,1.44-3.14,4.06-2.17,12.24,6.68,17.7,9.47,27.91,1.57,5.78,1.85,12.18-1.74,17.28-1.04,1.48-4.24,3.63-4.41,4.18-.47,1.47,1.09,4.6,1.1,6.45.01,5.89-4.57,11.06-9.04,14.46,39.85,20.95,67.89,65.58,74.94,109.44l41.42-1.97c.77-4.23-3.59-36.35-5.6-36.81-4.86,2.4-8.87,18.09-13.81,17.8-5.36-5.45-4.33-16.47-1.63-23.06-6.39.63-28.07,15.79-19.66-.78,3.65-7.19,12.64-13.31,20.97-12.38-1.45-3.74-18.35-10.42-14.48-14.8,3.01-3.41,15.69-.93,19.53.88,4.39,2.08,5.69,5.74,9.07,8.7,6.15-5.92,14.34-11.94,23.49-9.05,14.91,4.72-7.83,9.88-10,14.92,10.87-.14,18.37,7.73,18.13,18.45-1.77,2.47-15.62-4.4-18.62-5.15-.65-.16-2.31-.67-2.14.5,1.99.26,2.9,4.09,3.58,5.96,4.04,11.07,6.35,22.9,9.93,34.11,2.13,1.7,16.02,2.94,17.1,1.39,1.93-31.31-1.66-62.3-4.32-93.37-1.2-1.41-23.93,15.13-28,15.74-3.21.49-3.72-.75-4.15-3.65-2.03-13.77,7.51-19.03,18.99-22.28-6.66-4.13-13.67-5.98-21.24-7.68-3.24-2.03,3.82-6.89,5.68-7.88,10.8-5.78,19.4-2.88,28.05,4.72,2.41-9.88,12.86-20.28,23.53-17.58,1.93,6.47-5.39,10.85-6.42,16.92,8.37-1.51,17.56-1,23.68,5.58,1.66,1.79,5.54,7.89,3.85,10.13-1.02,1.35-16.56-2.34-19.64-.58,1.1,2.97,3.92,4.43,5.37,7.44,1.36,2.83,2.33,6.93,3.16,9.43.14.43-2.33,8.42-2.73,8.64-3.27,1.87-13.17-10.68-16.32-12.37l13.93,88.94,34.72,6.37V3.89h0ZM363.21,287.69c-1.4-21.85-25.93-31.74-45.11-30-3.52.32-11.32,3.24-13.8,3.01-1.62-.15-6.05-3.2-8.45-3.94-20.98-6.38-45.78-2.19-55.85,19.13-16.75-1.35-33.35,11.4-30.63,29.2.34,2.25,3.33,7.25,3.03,8.56-.11.48-4.76,5.35-5.7,6.84-5.92,9.39-8.08,21.16-.41,30.4.62.75,1.06,1.6,2.25,1.35,1.73-8.45,9.14-13.81,17.76-11.83.42,4.04-4.54,2.13-7.72,3.13-3.76,1.19-7.52,7.3-8.01,11.06-.82,6.4.8,12.3,5.83,16.4,2.88,2.35,10.2,4.04,10.84,4.94,2.64,3.67-.49,18.81,4.95,25.94.91,1.19,3.24,2.06,3.63,2.94,1.84,4.1,1.8,9.61,5.3,14.43,5.54,7.62,10.76,4.2,15.37,6.98,1.28.77,5.91,7.76,8.64,9.77,5.42,3.99,13.21,5.71,19.92,4.91,3.07-.36,8.14-3.29,9.89-3.2s5.85,2.7,8.77,3.1c9.01,1.25,19.82-1.79,26.48-8.02,1.48-1.38,3.13-5.32,4.59-5.93,5.26-2.2,8.74.98,13.8-5.93.68-.94,4.46-8.2,4.58-8.69.58-2.39-.09-7.72,1.01-10.04.68-1.44,7.15-3.56,6.93-7.53l3.55-21.43c20.2-1.39,24.84-33.4,1.68-32.17l.05-1.91c8.07-2.74,14.69,2.44,17.38,9.81,7.81-10.46,4.12-20.2-3.53-29.41,9.33-14.91-2.44-28.14-17.03-31.88h.01ZM225.55,377.99c-8.22-2.02-13.69-6.55-17.65-13.9-2.7,13.26-18.34,20.09-12.81,35.47,2.54,7.07,8.6,4.61,9.89,6.58-1.75,7.44-1.2,13.01,4.67,18.35l25.17-9.16c.69-8.89-5.93-11.6-7.97-19.26-1.63-6.14-1.15-11.8-1.31-18.08h0ZM383.43,364.09l-1.36.41c-2.61,6.03-8.61,9.17-14.78,10.73-1.21,10.22-.15,19.27-8.15,26.7-.8.75-2.47.91-2.56,1.04-.45.69-.18,8.84-1.47,10.67l21.7,8.02c8.32-4.25,10.9-12.44,7.34-20.97,9.46-4.14,10.03-12.62,6.82-21.47-1.9-5.24-7.1-9.16-7.56-15.13h.02ZM549.12,400.9c-10.39.11-19.01,9.55-19.73,19.72-4.31-.83-6.72-5.26-10.93-7.15-5.91-2.66-11.49-2.51-17.34.24-.86.4-6.25,3.74-4.61,4.62,3.29.31,6.09.87,9.21,1.97,2.15.76,14.8,6.32,14.46,7.88-11.15,4.31-25.19,7-21.37,22.69l32.86-17.78,25.33,21.05c2-8.03-.23-15.42-6.54-20.73-1.55-1.3-4.14-1.05-4.63-3.25.63-2.72,20.42-1.22,23.66-1.32-3.89-12.82-18.43-11.94-28.92-8.89l8.54-19.05h0ZM156.41,428.04c-12.21-8.92-25.01-30.35-42.35-24.66-4.93,1.61-15.55,12.37-19.58,16.57-1.74,1.82-6.61,6.82-7.75,8.51-.36.54-.74.69-.49,1.65,2.12.68,2.74,2.94,4.15,3.88,9.99,6.67,17.95-3.28,21.09-2.15,2.93,5.22,2.91,9.31,9.72,10.7s11.18-.85,14.74-6.8c7.14,6.38,22.61,2.46,20.46-7.69h0ZM406.45,590.2h10.19c5.34,0,22.4-8.25,25.35-12.78,1.13-1.73,1.02-5.55,1.98-7.74s5.54-5.31,6.57-7.38c14.84-29.9-18.55-91.07-39.47-113.13-15.07-15.89-34.43-26.84-55.62-32.49-4.88,4.77-6.48,10.51-13.92,12.31-1.93.47-4.45-.35-6.08.49-.39.2-3.83,5.45-5.6,6.89-6.31,5.13-16.89,7.79-24.9,7.15-3.3-.27-7.98-2.55-10.6-2.56-2.95,0-7.6,2.55-11.81,2.67-10.11.31-19.95-4.32-25.92-12.28-.59-.78-.61-2.64-.81-2.79-.25-.19-4.65-.17-6.27-.63-5.8-1.65-9.4-4.8-12.51-9.89-30.65,5.96-55.51,31.39-72.15,56.52-9.69,14.62-23.16,41.57-24.62,58.86-.23,2.75-.18,5.56.05,8.31,12.09,10.06,21.58,22.63,21.69,39.12,7.62,3.9,16.24,5.87,24.85,5.4l-1.98-18.41c-19.65,2.74-24.7-26.92-13.16-38.47,3.78-3.79,11.66-4.43,8.18-10.21l-10.79,1.35.39-2.03,10.13-2.58c-1.3-2.12-1.77-5.02-2-8.18-3.25-45.85,39.45-85.18,84.43-62.72,32.64,16.3,29.53,48.46,34.04,79.68.61,4.26.9,8.92,2.52,12.92,6.48-34.23.46-78.58,39.01-94.76,38.35-16.1,75.85,11.21,78.71,51.03.57,7.94-.47,16.02-.6,23.94,12.18,2.18,12.6,7.17-.36,2.12-4.66,5.93,3.64,6.93,7.18,9.8,13.23,10.72,7.82,42.75-13.37,39.53l-2.73,20.94h0ZM84.94,431.8l-71.64,84.13c42.91-10.07,87.65-11.3,131.41-6.65,4.53-14.81,13.01-29.55,21.88-42.21,2.17-3.09,10.6-11.32,11.43-14.28s-15.56-16.99-17.81-20.32c-.99-.3-2.42,3.15-3.64,4.2-3.24,2.77-7.7,5.21-12.08,4.99-2.34-.12-5.93-2.17-7.26-2.02-.51.06-4.77,4.19-6.91,4.97-7.74,2.81-18.47-.24-19.07-9.53-9.86,3.33-19.48,7.4-26.31-3.28h0ZM539.82,450.11c.91-7.67-2.89-12.07-9.77-14.37l1.31,15.77,8.46-1.41h0ZM282.45,467.69c-13.92-25.87-49.12-34.39-73.98-18.57-26.66,16.97-24.19,43.27-18.32,70.92,7.24,2.1,20.18,1.52,13.15,12.97,6.23,1.46,9.3,7.57,3.96,12.17,2.38,1.78,4.24,2.63,4.6,5.9,1.19,10.68-15.17,10.36-15.83,13.83l7.92,58.82,100.55-7.93c-2.52-26.38-5.6-52.77-9.19-79.02-2.35-17.21-5.21-54.87-12.86-69.09h0ZM398.98,457.66c-28.22-30.76-81.06-17.4-89.64,23.94-3.6,17.33-9.24,48.51-10.07,65.52-.66,13.54,5.34,40.29,7.23,54.06.29,2.09.42,13.86,1.41,14.58l82.73,7.26,9.05-57.52c-.22-.88-12.73-5.35-14.61-6.84-4.35-3.45-3.6-11.43,2.31-12.51-6.71-5.51-2.04-10.68,4.61-12.49-5.71-9.62,4.46-12.45,12.4-11.91,4.23-20.7,10.55-46.69-5.4-64.08h-.02ZM533.41,466.55c1.9.19,9.03.5,9.72-1.65l-3.2-12.45-7.92,1.03,1.39,13.07h.01ZM481.4,477.8h-9.53c-5.31,0-14.56,9.3-14.13,15.12,3.65-2.03,19.53-9.55,22.34-5.91-5.8,4.84-5.8,14.72-2.29,21.01l15.22-24.24,27.19,8.48c-1.78-11.21-11.13-15.49-21.69-13.8-1.47-1.17,9.62-8.87,10.57-9.47,1.33-.86,8.34-3.28,7.18-4.97-6.13-2.49-12.49-1.51-17.76,2.28-2.14,1.54-7.01,8.65-8.84,8.26-3.69-10.42-14.03-15.78-24.7-12.87l-.33,1.68c.69,1.23,14.1,8.41,16.17,11.44.68,1,.73,1.84.61,3h0ZM543.86,468.6h-10.52l1.46,13.65c1.13,1.39,10.64.99,11.07-.26l-2.01-13.39h0ZM184.88,478.46c-4.98,8.23-4.63,22.3-3.92,31.87.32,4.33.93,16.98,7.06,9.81-2.37-13.78-5.44-27.57-3.14-41.67h0ZM535.31,499.49h9.53c.32,0,4.78-1.21,4.33-2.31l-2.76-12.07-11.77-.08.66,14.46h.01ZM502.06,495.94c-1.76-4.18-1.84-8.97-7.44-9.53-3.64,4.37.7,8.66.6,13.73l8.53-1.31c.15-1.18-1.55-2.54-1.69-2.89ZM411.61,523.06c2.56-1.63,2.44-30.82,1.4-35.4-2.01,6.04-1.64,12.87-2.67,19.22-.08.51-1.15.48-1.24.97-.39,2.22-2.36,14.35-1.39,15.01.6.41,3.33.55,3.89.2h.01ZM507.69,511.32l-3.25-10.24-8.59,1.7,1.95,9.59,9.89-1.05h0ZM535.31,501.46v13.47c0,.22.67,1.53,1.12,1.66,2.16.68,11.77-.52,13.62-2.05,2.72-2.25-.92-10.36-.27-13.75-5.04.4-9.32,2.35-14.46.66h0ZM4.08,519.87v317.48h27.61c4.25-25.84,9.21-50.81,14-76.38,1.11-5.95,5.8-21.3,5.75-25.84-.02-1.59-2.01-6.24-2.47-8.72-.23-1.25-.04-5.17-.22-5.37-.24-.26-3.02.51-3.78-1.81-.65-1.99.31-11.59-.13-12.03-15.01-.16-28.66-7.3-24.79-24.45.96-4.26,5-9.83,5.09-13.36.11-4.19-4.15-7.56-4.99-12.11-2.34-12.78,6.23-18.99,6.92-29.95.39-6.18-2.14-12.31-2.61-18.41-2.31-30.45,9.29-55.04,36.77-69.03,25.04-12.75,51.16-12.83,76.29-.3.11-9.47,2.47-18.66,5.26-27.6-46.28-5.56-93.4-2.33-138.72,7.88h.02ZM511.64,530.39c-.02-3.16-2.2-16.61-4.94-17.13-1.13-.21-8.43,1.16-8.77,2.38l2.2,14.74h11.51,0ZM535.31,518.55v11.5c0,.27-.9.98-.66,1.64l18.12,1.36-1.05-15.78c-5.79.59-10.47,2.86-16.4,1.29h-.01ZM202.48,526.59c-.2-.38-3.81-2.64-4.65-2.9-8.67-2.59-23.43,3.56-27.08,11.95s-2.4,27.68,9.37,29.4c5.02.73,18.77-4.45,23.82-6.74,9.63-4.36,6.12-11.75-4.85-10.76-2,.18-12.44,3.78-12.89,1.56-.88-4.36,28.1-2.58,20.2-11.98-4.67-5.57-16.94.25-22.83-.17-3.79-3.04,22.46-3.67,18.9-10.37h.01ZM422.01,562.38c5.93-5.54,5.94-21.78,1.17-28.02s-22.76-14.63-29.19-8.21c-7.19,7.19,12.65,9.19,16.31,10.23.2.28.17,2.45.08,2.55-.93,1-25.52-9.01-22.02,3.95,1.59,3.4,14.61,3.96,17.92,5.75,1.89,1.02.81,2.82-1.3,2.68-3.75-.25-17.07-5.82-19.76-.39-2.33,4.71,5.39,7.46,8.5,8.95,8.16,3.9,20.62,9.67,28.29,2.51h0ZM159.24,588.88v-12.16c0-15.29-18.52-33.63-32.03-38.96-46.31-18.29-103.56,13.15-100.8,65.94.31,5.83,2.83,12.54,3.36,17.03,1.58,13.17-6.28,18.33-7.31,28.93-.88,9.05,1.63,8.49,4.09,15.02,3.14,8.3-1.66,10.23-3.61,17.02-4.75,16.53,7.95,23.24,22.54,22.87,2.22-19.72,16.55-39.54,35.51-46.01.43-.65-8.59-5.92-9.51-6.59-1.54-1.13-4.51-5.11-5.64-5.56-2.1-.83-9.13.87-13.93-.52-5.99-1.73-12.97-10.53-13.02-16.61-.04-5.11,5.23-12.94,10.35-14.6,3.27-1.06,12.68.46,12.01,4.11-.43,2.35-3.8-1.01-5.21-1.35-14.83-3.54-18.34,16.15-7.95,23.72,8.44,6.15,16,.88,18.42,1.93.43.19,4.74,5.71,6.25,6.93,15.96,12.91,33,14.64,52.27,8.88,39.23-11.72,45.91-47.12,25.25-79.81-.77-1.22-4.11-6.61-4.87-6.96-13.83-1.58-26.47-5.32-37.81-13.47-2.37,11.92-3.79,20.05-15.66,25.74-2.32,1.11-7.83,2.11-8.95,2.88-.74.51-4.88,8.35-6.32,10.13-3.64,4.51-13.95,13.94-19.36,15.48-.9.26-1.95.07-1.95-.67,11.57-7.58,20.21-15.6,26.39-28.15,1.15-2.33,5.39-15.16,6.8-15.56,3.37-.95-.69,9.09-1.06,9.97-.46,1.09-3.27,3.61-3.22,5.79,14.78-2.2,21.43-15.61,20.38-29.57.97-1.06,10.4,5.84,12.05,6.68,9.59,4.85,19.3,7.25,30.03,8.1l12.49,19.4h.02ZM590.54,542.87c-43.93-10.32-89.81-12.11-134.78-8.55.46,2.96-1.25,6.71,1.31,8.54-2.45-.08-1.03,5.26-1.32,7.55-.47,3.64-1.77,7.17-1.95,10.86l3.17-.76c1.83-14.54,18.42-20.75,29.93-11.83,8.35-9.27,22.79-9.01,32.73-2.28,1.86,1.26,5.27,5.58,5.65,5.69,1.71.48,4.01-.82,5.77-.73,8.48.46,17.4,4.17,21.89,11.69,1.65,2.76,3.18,10.17,3.55,10.58.25.29,5.42,1.21,7.31,2.22,7.94,4.22,11.78,14.2,8.52,22.71-.3.77-3.3,3.67-3.25,5.09.04,1.17,2.79,3.6,3.02,4.15,4.09,10.11,1.51,16.51-5.52,23.81-1.11,1.16-4.2,2.56-4.6,3.28-.82,1.47-.44,4.95-1.06,6.69-.16.45-4.95,7.19-5.54,7.74-6.99,6.54-14.49,1.88-18.58,3.77-2.88,1.33-9,11.54-14.62,11.36-.18,1.79.02,1.05.99,1.28,29.62,6.97,55.03,52.74,43.17,81.31-3.54,8.54-9.36,9.87-16.45,14.47l1.25,26.09-4.02,1.48.7,48.23h42.73v-294.47.03ZM554.54,575.58c-.88-.79-.99-5.45-1.66-7.22-3.06-8.08-11.41-13.76-19.97-14.23-2.78-.16-6.16,1.07-8.3.44-1.42-.42-6.04-6.11-9.43-7.67-5.88-2.71-13.44-3.7-19.55-1.31-2.57,1.01-7.55,5.73-8.66,5.85-2.27.24-4.77-2.86-6.88-3.63-6.41-2.33-15,.51-18.43,6.55-1.04,1.82-2.23,7.49-2.76,8.08-1.14,1.26-7.57,1.24-10.66,6.11-3.41,5.38-2.92,16.87,3.21,19.72l8.38-13.74c9.29,3.82,15.83,1.3,23.25-4.69l1.59.02c2.75,15.4,20.16,14.92,31.21,8.58,3.56,11.43,12.56,15.51,24.05,15.71-1.26,4.41-4.39,8.28-4.45,12.82-.05,3.33,3.01,11.68,5.42,14.14,3.6,3.67,4.78.4,9.2.62,6.76.34,8.32,6.02,12.51,9.88,6.86-4.48,8.81-12,7.41-19.88-.51-2.86-3.75-6.13-3.73-8.05.01-1.33,3.29-5.85,3.73-8.7,1.13-7.35-1.74-14.81-8.85-17.78-1.6-.67-5.93-1-6.61-1.61h-.02ZM194.08,565.22l-6.96,2.92,8.61,63.46c3.55-3.8,5.92-6.55,4.96-12.18l-6.6-54.2h0ZM398.99,626.16l7.97-56.83c.09-1.3-3.13-2.76-4.16-2.78-1.48-.04-1.18,1.58-1.4,2.48-1.37,5.57-1.26,11.79-2.21,17.42-1.74,10.25-5.82,24.55-5.93,35.64-.04,3.95,1.31,6.48,3.66,9.53,1.29-1.23.62-3.42,1.03-4.77.16-.52,1.02-.53,1.05-.68h-.01ZM536.19,619.57c-4.62-8.03-3.72-15.02-1.16-23.49-9.59-1.34-16.62-5.24-20.51-14.38-11.86,5.96-26.22,4.56-32.13-8.57-5.66,5.53-13.33,7.22-20.97,4.74-15.07,20.61-28.08,46.95-9.88,70.12,15.71,20,55.87,26.74,76.49,10.85,2.27-1.75,6.59-7.92,7.96-8.48,2.13-.86,6.08.48,8.88.34,18.91-.96,18.2-32.39-.8-25.13-1.97.75-2.87,2.43-4.8,2.75,2.59-5.71-1.27-5.63-3.07-8.75h-.01ZM444.17,584.04c-.53-1.01-.93-4.38-1.23-4.35-6.74,6.47-16.35,11.36-25.66,12.47-3.1.37-10.8-1.32-12,1.8-.6,1.57-2.21,16.11-2.13,18.21.5,13.88,5.21,31.11,7.2,44.25,2.35,15.53,4.83,31.15,5.97,46.83,12.01-17.62,26.44-36.25,48.64-40.76-17.25-11.02-27.98-25.97-24.69-47.35.94-6.13,3.1-9.13,5.15-13.94,1.44-3.38,2.73-6.83,4.32-10.15,0-.45-4.88-5.7-5.56-7.01h-.01ZM187.51,588.89c-8.76-.09-17.75-1.38-25.63-5.27.87,3.41-1.09,7.35-1.08,10.3,0,3.44,2.64,8.9,3.03,13.05.61,6.4-1.07,14.49-.52,20.18.83,8.45,12.37,14.07,13.68,25.16,1.09,9.24-3.35,12.75-3.34,19.06,0,6.93,5.47,10.92,3.84,20.22-.41,2.37-2.43,4.5-2.49,6.71-.09,3.57,2.4,11.21,2.63,15.81.65,12.66-1.13,23.73-15.15,27.01l6.62,48.23,9.24-55.37c4.66-28.14,9.29-59.37,13.07-87.73,1.99-14.93.34-19.31-1.34-32.68-1.03-8.16-1.15-16.56-2.58-24.68h.02ZM394.61,634.24l-3.62-7.88-82.22-8.6-5.53,4.99,91.37,11.49ZM303.23,618.47l-98.27,7.9c-1.88-.14-8.36,7.84-7.58,8.52l100.77-9.19,5.08-7.23h0ZM163.84,837.34h265.61c-2.79-20.56-4.11-41.48-7.25-61.98-.07-.47-1.2-.46-1.27-.93-1.07-6.85-1.6-13.96-2.01-20.88-9.55-8.68-12.93-17.11-9.9-30.28,1.03-4.5,5.89-12.68,5.99-17.68.43-22.24-10.77-49.79-10.62-72.91l-2.21-9.62c-1.84,3.89-.85,13.57-6.58,13.86l-93.44-11.2-2.09,1.92-105.29,9.92-30.94,199.78h0ZM174.36,694.05c.15-2.33,1.31-4.41,1.27-6.79-.1-5.35-5.19-11.76-5.14-15.81.06-5.08,5.13-10.15,4.38-17.64-.81-8.1-4.74-9.83-8.68-15.01-1.94-2.55-2.83-5.63-4.96-7.85-1.06,7.47-7.22,12.61-11.84,18.08l-9.21,6.56c15.26,8.85,28.2,21.62,34.18,38.45h0ZM153.65,703.25c4.27,1.23,14.43-.92,19.4,0-.69-11.13-7.8-23.62-15.43-31.57-2.96-3.08-17.31-14.84-21.03-14.45-3.17.33-2.15,5.07-3.06,7.36-.52,1.3-3.34,3.98-3.14,5.99,2.93,4.66,7.78,1.76,11.39,6.43,5.47,7.06,2.52,13.69,4.66,19.01.19.47,6.72,7.11,7.22,7.25v-.02ZM126.38,669.73l1.32-.3,3.26-10.21c-12.45,4.89-26.37,6.16-39.44,3.29,2.18,6.66,14.32,10.46,20.56,9.06,3.59-.81,11.25-8.81,14.29-1.84h.01ZM46.82,706.87c-.34,3.11.25,6.68,0,9.86l2.13.87c4.42-4.02,32.9-7.6,34.4-9.05,2.98-2.87-1.79-13.5-3.65-16.79,1.59-2.23,2.78.08,3.71,1.53,2.2,3.41,2.3,7.87,4.5,11.27.79-.1,11.31-9.77,11.83-10.52,2.9-4.18,3.74-15.54,8.89-20.03-4.41-.29-9.12-1.12-12.97-3.48-7.31-4.49-6.09-12.89-16.31-9.35-15.83,5.48-30.77,29.58-32.53,45.7h0ZM513.24,669.99c-8.26,7.52-14.48,14.12-27.39,8.77-7.16-2.96-12.3-13.29-15.28-14.36-8.2-2.95-27.3,10.6-33.2,16.18-2.87,2.72-19.91,23-18.41,25.27l17.08,4.61c-5.01-28.95,32.42-41.39,46.04-15.12.95.56,5.43-4.51,6.74-5.41,19.36-13.18,43.56.65,38.98,23.85-1.07,5.41-4.42,6.61-6.93,11.12l12.49,5.27-1.31-15.12,2.03.39,1.25,8.16c9.93-1.57,20.34-3.45,30.23-.66-1.61-18.06-12.69-36.64-27.29-47.31-4.88-3.57-14.24-9.13-20.37-8.57-2.7.25-2.85,1.26-4.65,2.9v.03ZM510.98,668.42c-10.96,2.78-23.46,1.64-34.17-1.97,6.16,13.81,26.6,15.45,34.17,1.97h0ZM116.51,680.9c-.02-4.27,4.26-7.19,7.57-9.18l-.32-1.68c-13.83-.13-18.84,14.81-22.38,25.66l-25.16,22.18c-.91.71-1.96.58-2.44-.49-.84-1.87,4.19-2.75,4.59-4.6.06-2.37-25.56,5.72-27.33,6.87.14,10.15,3.74,18.75,14.01,22.24,27.76,9.42,45.76-17.17,57.52-37.48,4.34-7.49,9.88-15.92,9.71-24.81-4.59-1.36-5.39,7.73-9.19,4.27,1.54-1.55,9.7-9.1,5.47-10.77s-11.04,9.03-12.06,7.81v-.02ZM157.27,705.88c.86,2.3,6.37,4.44,3.6,6.57l-17.73-15.78c-.79-7.06.12-22.95-10.85-20.36,9.46,5.07-2.23,16.38-3.64,22.32-4.16,17.55,20.94,50.28,40.37,37.07,8.58-5.83,6.91-21.2,4.68-29.83h-16.44.01ZM479.05,695.09c-6.73-8.18-11.35-13.48-23.46-11.39-12.45,2.15-22.9,20.17-14.98,31.08,3.85-1.16,14.02-3.46,16.5.78,1.25,2.14-.24,4.42-.03,4.76.12.19,3.68.78,3.81,2.47.92,2.89-1.06,4.89-.99,5.79.06.74,2.46,1.97,2.47,4.59,0,4.36-7.28,7.14-6.63,9.16,5.77,4.76,9.85,11.55,16.84,14.84l21.31-11.86-.41-1.36c-2.72-1.61-6.51-3.68-6.15-7.43s4.2-3.59,4.51-4.71c.29-1.02-1.53-3.22.15-5.81,1.34-2.07,4.06-1.4,4.44-1.8.32-.32.07-3.95,2.34-5.21,5.44-3.03,14.4,2.14,19.59,3.88,5.78-2.63,5.28-9.06,7.78-13.34l-.08-3.18c-1.95-.95-1.14-2.86-1.9-4.79-7.88-20-30.21-17.23-41.79-2.27-1.24-1.33-2.19-2.81-3.34-4.21h.02ZM34.33,837.34h126.89l5.97-39.78-7.25-55.78c-19.25-2.47-31.4-19.99-34.56-37.88-12.24,20.86-25.66,44.65-53.82,41.98-8.29-.78-10.24-2.96-16.53-7.14-.67-.45-.5-1.04-1.33,0l-19.38,98.61h0ZM443.93,732.84c2.36-1.26,13.96-4.91,14.83-6.57,2.19-4.21-5.61-4.01-7.63-3.65-1.03.18-11.89,5.45-11.79,2.66,1.33-3.13,19.46-4.91,14.17-8.93-4.75-3.61-17.2,3.47-21.36,6.36-1.39.96-7.91,7.9-7.93,3.88-.01-1.74,11.56-9.5,13.78-10.51.26-3.48-17.61-7.79-20.92-7.46-13.82,27.13-3.81,55.78,29.69,35.93,2.54-1.51,13.55-8.99,12.85-11.9-1.44-6.02-13.02,4.18-15.68.2h0ZM542.54,732.83h-10.19c-3.46,0-18.08-9.9-23.64-11.21-3.12-.73-10.75-2.32-9.5,2.6,1.71.08,14.65,5.04,12.43,7.28-5.49-.91-13.97-9.08-18.35-2.85,2.24,4.98,8.32,5.59,12.42,8.45-5.36,3.59-12.01-7.8-16.37.01,16.04,15.58,72.81,38.73,76.86,1.29.23-2.17.57-12.73-1.08-13.36-2.91-1.12-27.94-.65-29.16.55v5.26h6.58v1.97h0ZM456.84,746.21c-1.15-1.14-2.75-1.51-3.38-3.52l-13.36,8.34-3.27,30.93c-.15,1.05.66,1.24,1.35,1.63,2.67,1.52,14.8,2.69,18.57,3.13,30.54,3.57,61.92,3.96,92.32-.69l-1.93-24.94c-19.01,2.52-34.48-7.48-50.95-14.87-4.27,2.37-20.35,14.14-24.17,13.46-4.47-.78-11.87-10.19-15.19-13.47h.01ZM436.69,751.9c-5.29,1.84-10.29,2.12-15.77,1.32l11.59,84.17,4.2-.04.68-50.83-2.71-2.07,2.02-32.55h-.01ZM439.32,837.34h44.71v-31.55h1.97v31.55h59.83l-1.33-47.97c-34.38,4.25-69.38,2.43-103.56-2.46-.75.18-.84.8-.96,1.46-.84,4.65-1.13,13.38-1.34,18.38-.42,10.19.34,20.43.68,30.59Z"/>
  <rect x=".14" y="841.29" width="595" height=".66" fill="#fff"/>
  <path d="M590.54,3.89v535.7l-34.72-6.37-13.93-88.94c3.15,1.7,13.05,14.24,16.32,12.37.39-.22,2.87-8.21,2.73-8.64-.83-2.5-1.8-6.6-3.16-9.43-1.45-3.01-4.27-4.47-5.37-7.44,3.09-1.76,18.63,1.93,19.64.58,1.69-2.24-2.19-8.34-3.85-10.13-6.12-6.58-15.31-7.09-23.68-5.58,1.03-6.07,8.35-10.46,6.42-16.92-10.66-2.69-21.12,7.7-23.53,17.58-8.65-7.6-17.25-10.5-28.05-4.72-1.85.99-8.92,5.86-5.68,7.88,7.57,1.71,14.58,3.56,21.24,7.68-11.48,3.24-21.03,8.51-18.99,22.28.43,2.9.94,4.14,4.15,3.65,4.06-.62,26.79-17.15,28-15.74,2.66,31.08,6.25,62.07,4.32,93.37-1.08,1.55-14.97.31-17.1-1.39-3.58-11.21-5.88-23.04-9.93-34.11-.68-1.86-1.58-5.7-3.58-5.96-.17-1.16,1.49-.66,2.14-.5,2.99.75,16.85,7.61,18.62,5.15.24-10.72-7.26-18.59-18.13-18.45,2.16-5.03,24.91-10.2,10-14.92-9.14-2.89-17.33,3.12-23.49,9.05-3.38-2.96-4.68-6.63-9.07-8.7-3.84-1.81-16.52-4.29-19.53-.88-3.87,4.38,13.03,11.05,14.48,14.8-8.33-.93-17.32,5.19-20.97,12.38-8.42,16.57,13.27,1.41,19.66.78-2.69,6.59-3.73,17.61,1.63,23.06,4.94.28,8.95-15.41,13.81-17.8,2.01.46,6.38,32.58,5.6,36.81l-41.42,1.97c-7.05-43.85-35.09-88.48-74.94-109.44,4.47-3.4,9.05-8.57,9.04-14.46,0-1.85-1.56-4.98-1.1-6.45.18-.55,3.37-2.7,4.41-4.18,3.59-5.1,3.31-11.5,1.74-17.28-2.78-10.21-11.64-15.67-9.47-27.91.46-2.62,2.58-2.94,3.14-4.06,3.41-6.86,3.97-15.62.34-22.55-1.05-2.01-4.72-4.53-4.88-6.33-.1-1.1,1.97-4.08,2.37-6.17,2.46-13.05-6.63-24.89-19.37-27.04-3.85-25.08-29.44-33.66-52.23-30.74-2.43.31-8.44,2.55-9.86,2.34-.91-.14-6.14-3.39-8.34-4.06-20.53-6.26-47.39-1.31-57.83,19.05-21.57-.55-39.03,19.35-28.35,39.99-12.35,11.48-16.27,30.22-2.88,42.52l.3,1.52c-1.11,3.91-1.91,8.47-3.78,12.09-2.53,4.9-8.19,9.96-10.33,15.95-2.76,7.76-2.11,21.53,8.18,22.37-2.18,8.82,1.53,13.58,7.26,19.68-11.2,4.79-19.01,14.3-27.81,22.26-1.64-.16-20.12-20.66-23.12-23.58-6.49-6.31-22.52-22.6-30.23-25-14.25-4.42-18.19,2.49-26.98,10.57-33.36,30.71-60.35,69.45-90.05,103.86l-6.28,2.6V3.89h586.47ZM532.13,69.51c-4.22-24.07-10.62-4.3-14.38-3.26-2.52.7-10.75-3.15-11.91,2.55-.91,4.48,3.68,6.93,3.76,9.68.11,3.86-7.1,13.49,2.27,12.79,1.91-.14,6.87-2.43,7.34-2.39,1.12.1,4.8,6.2,10.52,5.77s2.56-8.11,4.6-11.22c1.06-1.62,7.93-2.37,8.27-6.91.44-5.9-6.6-5.52-10.47-7.02h0ZM81.34,256.3c-.66.22-4.05,12.48-1.97,13.13,2.84.89,4.52-11.72,3.97-12.5-.46-.64-1.29-.87-2-.64h0ZM51.7,267.85c-.81-1.42-5.33-10.58-6.85-9.58-1.78,2.36,6.08,16.34,8.54,13.79,1.29-1.33-1.41-3.73-1.69-4.22h0ZM159.4,298.2c3.17,3.2,7.91-3.37,10.79-3.6s6.33,3.35,10.42,2.45c5.11-1.12-.12-9.59.45-12.03.47-2.04,5.98-4.16,4-8.83s-8.53-2.55-10.7-3.78c-.72-.41-3.23-5.94-4.6-7.23-6.15-5.79-7.95,4.16-8.66,8.75-.89,1.31-8.92-.24-9.75,4.44-1.04,5.88,6.44,7.23,7.11,9.29.8,2.47-.84,8.76.94,10.56v-.02ZM117.07,273.3c3.91-7.3-13.81,5.67-12.39,8.29,1.05,1.41,1.03.79,2.18.22.75-.37,9.9-7.93,10.22-8.51h-.01ZM522.97,281.77c-1.18-1.3-1.42-10.73-5.74-10.77s-6.27,6.49-8.23,7.31c-3.29,1.37-9.62-1.1-12.19,1.61-3.08,3.25,2.09,7.19,2.3,10.26.24,3.41-4.14,9.26-1.58,12.1,3.49,3.88,9.72-1.38,12.98-.53,1.17.3,6.33,4.95,8.34,5.52,8.22,2.33,4.02-10.35,5.37-12.12.48-.63,10.82-3.59,8.14-8.6-1.59-3.78-8.45-3.75-9.39-4.79h0ZM445,304.69c3.81-4.22,9.44-12.92,10.02-18.57,1.78-17.06-17.74-20.09-23.6-5.51-16.71-13.84-33.1,1.37-17.42,18.41,3.21,3.48,16.1,13.3,20.39,13.2,3.05-.07,8.48-5.18,10.61-7.53h0ZM39.82,325.08c23.33,38.35,86.19,9.72,64.45-31.91-20.97-40.15-88.18-7.11-64.45,31.91ZM21.52,281.92c-5.64,1.14,8.59,7.99,10.16,8.25.82.13,1.69.36,1.98-.7.78-2.82-10.03-6.22-12.14-7.55ZM116.51,302.95c2.11-.16,14.91-.25,14.46-2.94-.52-3.18-11.86.88-14.45.34l-.02,2.6h0ZM29.72,313.49c-1.23-1.9-17,.58-14.45,2.62,4.37-.41,11.25.6,14.45-2.62ZM556.81,326.82c-.95-1.16-3.83-1.55-5.04-2.52-2.43-1.95-4.62-6.82-8.75-5.58-1.31.39-2.52,5.38-3.45,6.57-1.59,2.04-5.89,2.47-5.94,5.99.86,3.49,4.96,2.81,6.59,4.56,1.86,2,1.29,7.75,5.87,7.22s3.82-5.2,5.63-7.58,5.76-2.05,5.83-6.58c0-.8-.26-1.47-.76-2.08h.02ZM112.99,326.09c-.43.08-1.73,1.36-1.73,1.52,0,1,10.24,6.35,11.81,6.6,2.43.4,2.61-1.45.92-2.91-.46-.4-10.4-5.33-11-5.22h0ZM501.78,356.2c-.87-35.41-58.42-37.09-65.09-4.6-31.56-6.91-35.7,38.78-2.92,36.83,3.03-.18,8.73-2.53,10.23-2.32,1.36.19,7.64,4.9,10.47,5.89,13.2,4.63,24.89,2.48,37.24-2.83,1.19-.51,3-2.39,3.83-2.47,1.43-.14,9.48,2.88,12.6,2.96,9.58.25,20.3-6.42,20.64-16.68.47-14.44-14.53-22.15-26.99-16.78h0ZM40.89,337.81c-.09-.09-2.18-1.07-2.31-1.07-.79-.02-13.05,10.98-6.22,10.64.22-1.58,8.97-9.1,8.53-9.57ZM94.09,345.09l-3.21.91,4.92,12.16c2.27,1.48,3.7.96,3.2-1.87-.34-1.94-5-8.17-4.91-11.2ZM151.51,364.25c1.32-1.84,9.22-1.81,7.61-7.56-.9-3.23-5.67-2.47-7.49-3.73-2.31-1.59-4.22-11.9-10.49-6.63-2.35,1.97-1.71,5.16-2.9,6.96-1.76,2.65-10.19,3.56-6.24,8.79,1.55,2.05,4.97,2.02,6.55,3.3,2.2,1.78,2.33,6.9,6.86,7.66,6.35,1.07,4.65-6.78,6.1-8.79h0ZM66.54,348.97c-.11-.11-2.4-.1-2.86.09-.6.24-4.23,11.44-4.14,12.08.16,1.04,2.34,2.39,3.11,1.25.07-2.24,5.15-12.25,3.89-13.42h0ZM49.91,394.45c-2.57.8-2.74,6.51-4.41,7.44-2.47,1.37-10.37-.85-8.42,5.76.63,2.15,4.78,3.51,5.44,5.09,1.1,2.63-.89,8.21,1.65,9.53,3.6,1.86,5.63-2.9,8.21-2.92,2.31-.02,5.75,3.88,8.89,2.97,4.49-1.3.49-9.21.96-10.28.68-1.56,6.54-3.18,5.35-7.21s-7.37-2.3-9.6-3.6c-1.85-1.08-2.43-8.55-8.08-6.77h0ZM453.94,426.38c-1.23-1.23-1.78-8.15-5.59-7.65s-4.73,5.1-6.44,6.78c-2.28,2.25-8.71,2.75-4.88,8.25,1.07,1.54,3.54,1.81,4.31,2.92,1.5,2.16.48,7.18,5.21,7.99,4.38.75,5.92-6.15,7.4-7.44,1.78-1.56,8.55-.78,7.3-5.96-.98-4.02-5.77-3.34-7.3-4.87v-.02Z" fill="#fff"/>
  <path d="M163.84,837.34l30.94-199.78,105.29-9.92,2.09-1.92,93.44,11.2c5.73-.29,4.74-9.97,6.58-13.86l2.21,9.62c-.15,23.12,11.05,50.67,10.62,72.91-.1,5-4.95,13.19-5.99,17.68-3.03,13.17.35,21.59,9.9,30.28.41,6.93.94,14.03,2.01,20.88.07.47,1.2.46,1.27.93,3.14,20.5,4.46,41.42,7.25,61.98H163.84ZM294.31,666.18c-1.96-6.11-4-19.6-10.76-21.14-7.41-1.69-50.92,8.43-60.55,11.2-13.98,4.02-20.03,7.58-18.21,23.5,1.51,13.24,17.16,66.19,24.8,75.77,8.88,11.13,25.35,4.37,37.49,2,10.38-2.03,23.54-4.36,33.5-7.26,5.62-1.63,11.01-4.01,10.49-11.08-.2-2.75-2.89-6.11-3.07-7.82-.37-3.58,2-7.28,1.6-11.8-.45-5.04-3.36-9.33-4.47-13.3-3.72-13.38-6.69-27.15-10.84-40.06h.02ZM378.19,659.21c-7.57-18.13-40.52-9.93-28.28,11.17-24.19.21-18.37,28.87,3.29,26.29-2.94,5.51,6.31,12.67,6.6,14.15.58,3.01-3.24,13.48-4.62,16.74-.41-9.97-12.85-24.13-23.39-22.39-1.16.19-3.39,2.43-3.54,3.16-1.07,5.2,2.44,15.38,5.34,20.1,4.22,6.85,11.09,10.8,18.23,14.01.27,2.19-3.93,10.37-1.58,11.41,3.62,1.6,3.89-9.51,4.88-10.22,15.74.51,35.16-4.46,39.42-21.53-7.16-5.18-17.9-4.07-25.61-.16-4.11,2.08-7.11,6.1-11.14,8.25l4.61-19.05c7.73,3.22,19.67-1.01,19.72-10.52,17.63,11.18,35.5-12.08,15.78-22.36,7.81-3.72,8.95-16.93,1.47-21.51-7.15-4.38-14.93-1.99-21.19,2.46h0Z" fill="#fff"/>
  <path d="M363.21,287.69c14.59,3.74,26.36,16.96,17.03,31.88,7.64,9.21,11.34,18.95,3.53,29.41-2.69-7.37-9.3-12.55-17.38-9.81l-.05,1.91c23.16-1.23,18.52,30.78-1.68,32.17l-3.55,21.43c.22,3.97-6.25,6.1-6.93,7.53-1.1,2.33-.43,7.66-1.01,10.04-.12.48-3.89,7.75-4.58,8.69-5.05,6.9-8.54,3.72-13.8,5.93-1.46.61-3.11,4.55-4.59,5.93-6.66,6.23-17.46,9.27-26.48,8.02-2.92-.41-7.1-3.02-8.77-3.1s-6.81,2.84-9.89,3.2c-6.71.8-14.5-.92-19.92-4.91-2.73-2.01-7.35-9-8.64-9.77-4.61-2.78-9.84.65-15.37-6.98-3.5-4.82-3.45-10.33-5.3-14.43-.4-.88-2.72-1.74-3.63-2.94-5.44-7.13-2.32-22.27-4.95-25.94-.64-.89-7.95-2.59-10.84-4.94-5.03-4.1-6.66-10-5.83-16.4.48-3.75,4.24-9.86,8.01-11.06,3.17-1,8.14.9,7.72-3.13-8.62-1.98-16.03,3.38-17.76,11.83-1.2.24-1.63-.6-2.25-1.35-7.67-9.24-5.51-21.01.41-30.4.94-1.49,5.6-6.36,5.7-6.84.29-1.31-2.69-6.31-3.03-8.56-2.72-17.81,13.88-30.55,30.63-29.2,10.07-21.33,34.87-25.52,55.85-19.13,2.4.73,6.83,3.78,8.45,3.94,2.48.23,10.28-2.69,13.8-3.01,19.18-1.74,43.71,8.15,45.11,30h-.01ZM306.26,291.37c-1.13-1.44-4.89-7.59-5.92-7.44-5.04,9.11-11.24,18.07-22.07,20.7-6.23,1.51-13.4-.9-15.97-.24-1.66.43-8.79,6.53-12.35,8.07-5.96,2.58-11.78,3.08-18.06,4.29-.97,1.01-2.21,11.39-2.32,13.46-.68,12.9,2.53,48.68,18.92,51.46,9.11,1.55,10.35-4.3,17.26-8.07,3.27-1.78,10.55-4.59,14.14-4.92,8.81-.81,9.79,6.18,19.76,4.63,4.73-.74,4.83-4.84,6.37-5.51,6.03-2.65,18.92,3.18,24.4,6.25,3.28,1.84,5.08,5.33,9.3,5.82,8.38.98,13.95-6.94,16.62-13.64,5.31-13.33,6.73-29.97,5.76-44.22-2.36-1.8-5.09-2.44-7.55-4.31-1.28-.97-5.97-6.73-6.42-6.86-1.93-.56-6.36.27-8.97-.08-14.59-1.98-24.03-8.06-32.89-19.38h0ZM311.12,379.21c-.14.1-.48,2.36-1.06,3.21-4.49,6.55-11.25,9.04-18.93,5.92-3.87-1.57-5.67-5.52-9.26-6.51-3.54.93,5.85,7.45,7.55,8.21,6.08,2.71,14.86,2.38,19.97-2.37,2.2-2.04,6.59-11.87,1.73-8.47h0Z" fill="#fff"/>
  <path d="M282.45,467.69c7.65,14.22,10.5,51.88,12.86,69.09,3.59,26.25,6.67,52.64,9.19,79.02l-100.55,7.93-7.92-58.82c.66-3.46,17.02-3.14,15.83-13.83-.37-3.27-2.23-4.13-4.6-5.9,5.34-4.6,2.28-10.71-3.96-12.17,7.03-11.45-5.91-10.87-13.15-12.97-5.87-27.64-8.35-53.94,18.32-70.92,24.86-15.83,60.06-7.3,73.98,18.57h0Z" fill="#fff"/>
  <path d="M159.24,588.88l-12.49-19.4c-10.73-.85-20.44-3.25-30.03-8.1-1.65-.84-11.08-7.74-12.05-6.68,1.05,13.96-5.6,27.37-20.38,29.57-.04-2.19,2.76-4.7,3.22-5.79.37-.88,4.43-10.93,1.06-9.97-1.41.4-5.65,13.22-6.8,15.56-6.18,12.55-14.83,20.58-26.39,28.15,0,.74,1.05.92,1.95.67,5.41-1.53,15.72-10.97,19.36-15.48,1.44-1.78,5.58-9.62,6.32-10.13,1.13-.77,6.64-1.77,8.95-2.88,11.87-5.69,13.29-13.81,15.66-25.74,11.34,8.14,23.99,11.89,37.81,13.47.76.36,4.1,5.74,4.87,6.96,20.67,32.69,13.98,68.09-25.25,79.81-19.27,5.76-36.31,4.03-52.27-8.88-1.51-1.22-5.82-6.75-6.25-6.93-2.42-1.05-9.98,4.22-18.42-1.93-10.39-7.57-6.87-27.27,7.95-23.72,1.4.34,4.78,3.7,5.21,1.35.67-3.65-8.74-5.17-12.01-4.11-5.12,1.66-10.38,9.49-10.35,14.6.04,6.08,7.03,14.88,13.02,16.61,4.8,1.39,11.83-.32,13.93.52,1.13.45,4.1,4.43,5.64,5.56.91.67,9.94,5.93,9.51,6.59-18.96,6.47-33.29,26.3-35.51,46.01-14.6.38-27.29-6.34-22.54-22.87,1.95-6.79,6.74-8.72,3.61-17.02-2.47-6.53-4.97-5.98-4.09-15.02,1.03-10.61,8.89-15.76,7.31-28.93-.54-4.48-3.06-11.19-3.36-17.03-2.76-52.79,54.49-84.23,100.8-65.94,13.51,5.34,32.03,23.68,32.03,38.96v12.16h-.02ZM140.17,580.99c.49-6.36-13.84-5.31-14.46-1.63-.57,3.35,4.98-.33,6.9-.4,3.3-.11,4.58,1.84,7.56,2.03ZM97.44,592.82c-1.97-6.77-17.07,4.31-13.8,7.89,2.75.67,1.74-1.22,2.62-2.14,3.31-3.44,5.63-6.41,11.18-5.75ZM146.75,596.12c-.32-.49-6.46-1.95-7.9-1.72-4.8.77-9.99,9.05-4.99,7.55,2.14-.64,4.48-9.05,11.92-3.24.83-.42,1.39-1.97.97-2.59ZM133.45,608.09c-.89-1.9-10.5-5.97-12.99-4.08-.5,2.1,2.72,1.13,4.48,1.75,12.76,4.51,1.71,10.38,3.41,12.04,3.75-.27,6.57-6.6,5.1-9.71h0ZM92.19,615.83c4.65-.52,1.43-5.72,8.21-5.3.89.06,5.56,2.58,4.94-.28-.98-4.51-15.74-2.74-13.14,5.58h-.01ZM136.88,625.04c-2.2-1.44-2.02,2.16-2.98,3.25-3.57,4.01-8.43,5.5-13.72,4.59-3.31-.57-4.23-3.05-6.07-3.79-3.2-1.29-.76,2.63.77,3.83,5.84,4.58,15.31,3.11,20.08-2.26.89-1,3.42-4.65,1.93-5.62h0Z" fill="#fff"/>
  <path d="M398.98,457.66c15.96,17.39,9.63,43.38,5.4,64.08-7.93-.54-18.1,2.3-12.4,11.91-6.65,1.81-11.32,6.99-4.61,12.49-5.91,1.08-6.66,9.06-2.31,12.51,1.88,1.49,14.39,5.96,14.61,6.84l-9.05,57.52-82.73-7.26c-.99-.72-1.12-12.49-1.41-14.58-1.9-13.77-7.89-40.51-7.23-54.06.83-17.01,6.47-48.19,10.07-65.52,8.59-41.34,61.43-54.7,89.64-23.94h.02Z" fill="#fff"/>
  <path d="M34.33,837.34l19.38-98.61c.83-1.03.66-.44,1.33,0,6.28,4.18,8.24,6.36,16.53,7.14,28.16,2.67,41.59-21.13,53.82-41.98,3.16,17.89,15.31,35.42,34.56,37.88l7.25,55.78-5.97,39.78H34.33Z" fill="#fff"/>
  <path d="M4.08,519.87c45.32-10.21,92.45-13.44,138.72-7.88-2.8,8.94-5.15,18.13-5.26,27.6-25.13-12.53-51.25-12.45-76.29.3-27.48,13.99-39.08,38.58-36.77,69.03.46,6.1,3,12.23,2.61,18.41-.69,10.96-9.26,17.16-6.92,29.95.83,4.54,5.1,7.92,4.99,12.11-.1,3.54-4.13,9.1-5.09,13.36-3.86,17.15,9.79,24.29,24.79,24.45.44.44-.52,10.03.13,12.03.76,2.32,3.54,1.55,3.78,1.81.18.2,0,4.12.22,5.37.46,2.48,2.45,7.13,2.47,8.72.06,4.54-4.63,19.9-5.75,25.84-4.79,25.57-9.76,50.54-14,76.38H4.08v-317.48h0Z" fill="#fff"/>
  <path d="M590.54,542.87v294.47h-42.73l-.7-48.23,4.02-1.48-1.25-26.09c7.09-4.6,12.91-5.93,16.45-14.47,11.86-28.58-13.55-74.35-43.17-81.31-.98-.23-1.18.51-.99-1.28,5.62.17,11.74-10.03,14.62-11.36,4.09-1.89,11.59,2.77,18.58-3.77.59-.55,5.38-7.3,5.54-7.74.61-1.75.24-5.23,1.06-6.69.41-.73,3.49-2.13,4.6-3.28,7.03-7.31,9.6-13.7,5.52-23.81-.22-.56-2.98-2.99-3.02-4.15-.04-1.42,2.96-4.31,3.25-5.09,3.26-8.51-.58-18.49-8.52-22.71-1.9-1.01-7.06-1.93-7.31-2.22-.37-.42-1.9-7.83-3.55-10.58-4.49-7.52-13.41-11.23-21.89-11.69-1.76-.1-4.06,1.21-5.77.73-.39-.11-3.79-4.43-5.65-5.69-9.93-6.73-24.38-6.99-32.73,2.28-11.51-8.92-28.1-2.71-29.93,11.83l-3.17.76c.18-3.69,1.48-7.22,1.95-10.86.29-2.3-1.13-7.64,1.32-7.55-2.56-1.83-.85-5.57-1.31-8.54,44.97-3.56,90.85-1.77,134.78,8.55v-.03Z" fill="#fff"/>
  <path d="M406.45,590.2l2.73-20.94c21.19,3.22,26.6-28.81,13.37-39.53-3.54-2.87-11.84-3.87-7.18-9.8,12.96,5.06,12.54.06.36-2.12.13-7.92,1.17-16,.6-23.94-2.86-39.83-40.36-67.14-78.71-51.03-38.55,16.19-32.53,60.54-39.01,94.76-1.62-4-1.9-8.66-2.52-12.92-4.51-31.22-1.41-63.38-34.04-79.68-44.98-22.46-87.68,16.87-84.43,62.72.22,3.16.7,6.07,2,8.18l-10.13,2.58-.39,2.03,10.79-1.35c3.47,5.78-4.4,6.42-8.18,10.21-11.54,11.55-6.49,41.2,13.16,38.47l1.98,18.41c-8.61.47-17.23-1.49-24.85-5.4-.11-16.49-9.6-29.05-21.69-39.12-.24-2.75-.28-5.56-.05-8.31,1.46-17.29,14.93-44.24,24.62-58.86,16.64-25.12,41.5-50.56,72.15-56.52,3.1,5.09,6.7,8.24,12.51,9.89,1.62.46,6.02.44,6.27.63.2.15.22,2.01.81,2.79,5.97,7.96,15.81,12.59,25.92,12.28,4.21-.13,8.85-2.68,11.81-2.67,2.62,0,7.31,2.29,10.6,2.56,8.01.65,18.59-2.02,24.9-7.15,1.77-1.44,5.2-6.69,5.6-6.89,1.63-.84,4.15-.03,6.08-.49,7.44-1.8,9.04-7.54,13.92-12.31,21.19,5.65,40.55,16.6,55.62,32.49,20.92,22.05,54.31,83.23,39.47,113.13-1.03,2.07-5.61,5.17-6.57,7.38s-.85,6.01-1.98,7.74c-2.96,4.53-20.01,12.78-25.35,12.78h-10.19,0Z" fill="#fff"/>
  <path d="M84.94,431.8c6.83,10.68,16.45,6.61,26.31,3.28.6,9.29,11.32,12.34,19.07,9.53,2.14-.78,6.41-4.91,6.91-4.97,1.32-.15,4.91,1.9,7.26,2.02,4.38.22,8.84-2.22,12.08-4.99,1.23-1.05,2.66-4.5,3.64-4.2,2.24,3.33,18.65,17.33,17.81,20.32s-9.26,11.18-11.43,14.28c-8.87,12.67-17.35,27.4-21.88,42.21-43.76-4.65-88.5-3.43-131.41,6.65l71.64-84.13h0Z" fill="#fff"/>
  <path d="M536.19,619.57c1.8,3.12,5.66,3.04,3.07,8.75,1.93-.33,2.83-2,4.8-2.75,19.01-7.26,19.71,24.17.8,25.13-2.8.14-6.75-1.19-8.88-.34-1.37.55-5.69,6.72-7.96,8.48-20.61,15.9-60.78,9.15-76.49-10.85-18.2-23.17-5.19-49.51,9.88-70.12,7.64,2.47,15.31.78,20.97-4.74,5.91,13.13,20.28,14.53,32.13,8.57,3.89,9.15,10.93,13.04,20.51,14.38-2.57,8.48-3.46,15.46,1.16,23.49h.01ZM478.11,591.51c1.58-6.27-14.8-6.21-13.47-1.3,5.57-1.36,8.46-2.04,13.47,1.3ZM520.18,605.97c.85-6.93-8.37-10.52-13.79-7.56,2.67,1.77,5.68.68,8.66,2.5,2.71,1.66,1.81,5.45,5.13,5.06ZM473.5,611.23c.8-9.9-12.63-12.02-13.81-2.3,3.97.75,2.74-5.3,8.59-3.32,3.66,1.24,1.22,6.11,5.22,5.62ZM477.65,616.69c1.27-1.06,7.6-2.03,7.68-3.16-.92-1.42-1.45-.8-2.64-.7-7.83.66-11.81,7.81-4.58,12.86.24-3.3-3.87-6.15-.45-9h0ZM497.84,618.46c4.05-.31,6.83-4.3,10.16.03,1.19,1.55,1.24,6.1,4.26,2.85-1.03-7.95-11-11.03-14.42-2.88ZM469.25,633.59c-2.69.41,1.4,5.36,1.94,5.93,4.28,4.54,10.09,5.63,15.92,3.38,1.78-.69,10.4-6.11,5.82-7.34-5.13,5.14-11.45,8.02-18.32,3.82-2.05-1.25-4.26-5.97-5.36-5.8h0Z" fill="#fff"/>
  <path d="M439.32,837.34c-.34-10.16-1.1-20.4-.68-30.59.2-5,.5-13.73,1.34-18.38.12-.65.21-1.28.96-1.46,34.19,4.9,69.19,6.72,103.56,2.46l1.33,47.97h-59.83v-31.55h-1.97v31.55h-44.71Z" fill="#fff"/>
  <path d="M554.54,575.58c.67.61,5.01.94,6.61,1.61,7.11,2.97,9.98,10.43,8.85,17.78-.44,2.85-3.72,7.37-3.73,8.7-.02,1.92,3.22,5.2,3.73,8.05,1.4,7.88-.56,15.4-7.41,19.88-4.19-3.86-5.75-9.54-12.51-9.88-4.41-.22-5.6,3.05-9.2-.62-2.41-2.46-5.47-10.81-5.42-14.14.06-4.54,3.19-8.4,4.45-12.82-11.48-.21-20.48-4.29-24.05-15.71-11.05,6.34-28.46,6.82-31.21-8.58l-1.59-.02c-7.42,5.99-13.96,8.51-23.25,4.69l-8.38,13.74c-6.12-2.85-6.61-14.34-3.21-19.72,3.09-4.87,9.52-4.84,10.66-6.11.54-.59,1.73-6.25,2.76-8.08,3.43-6.04,12.02-8.88,18.43-6.55,2.11.77,4.6,3.88,6.88,3.63,1.11-.12,6.1-4.84,8.66-5.85,6.11-2.4,13.67-1.4,19.55,1.31,3.39,1.56,8.02,7.25,9.43,7.67,2.15.63,5.52-.6,8.3-.44,8.56.48,16.9,6.16,19.97,14.23.67,1.77.78,6.42,1.66,7.22h.02Z" fill="#fff"/>
  <path d="M456.84,746.21c3.31,3.28,10.71,12.69,15.19,13.47,3.83.67,19.9-11.09,24.17-13.46,16.47,7.39,31.94,17.39,50.95,14.87l1.93,24.94c-30.41,4.65-61.78,4.25-92.32.69-3.77-.44-15.9-1.61-18.57-3.13-.69-.39-1.5-.58-1.35-1.63l3.27-30.93,13.36-8.34c.63,2.01,2.23,2.38,3.38,3.52h0Z" fill="#fff"/>
  <path d="M444.17,584.04c.68,1.3,5.56,6.56,5.56,7.01-1.59,3.33-2.88,6.77-4.32,10.15-2.05,4.81-4.21,7.81-5.15,13.94-3.29,21.38,7.44,36.33,24.69,47.35-22.21,4.51-36.63,23.15-48.64,40.76-1.14-15.69-3.62-31.3-5.97-46.83-1.99-13.14-6.71-30.37-7.2-44.25-.08-2.1,1.53-16.65,2.13-18.21,1.2-3.12,8.91-1.44,12-1.8,9.31-1.11,18.92-6,25.66-12.47.3-.03.71,3.35,1.23,4.35h.01Z" fill="#fff"/>
  <path d="M479.05,695.09c1.15,1.4,2.1,2.88,3.34,4.21,11.58-14.96,33.91-17.73,41.79,2.27.76,1.92-.06,3.84,1.9,4.79l.08,3.18c-2.5,4.27-2,10.7-7.78,13.34-5.19-1.75-14.15-6.91-19.59-3.88-2.28,1.27-2.03,4.89-2.34,5.21-.39.39-3.1-.27-4.44,1.8-1.69,2.6.13,4.79-.15,5.81-.32,1.11-4.16,1-4.51,4.71s3.43,5.82,6.15,7.43l.41,1.36-21.31,11.86c-6.99-3.29-11.08-10.08-16.84-14.84-.65-2.03,6.64-4.81,6.63-9.16,0-2.63-2.41-3.85-2.47-4.59-.07-.9,1.91-2.9.99-5.79-.13-1.68-3.69-2.28-3.81-2.47-.21-.34,1.28-2.62.03-4.76-2.48-4.24-12.65-1.94-16.5-.78-7.92-10.91,2.53-28.93,14.98-31.08,12.11-2.09,16.73,3.22,23.46,11.39h-.02Z" fill="#fff"/>
  <path d="M513.24,669.99c1.8-1.63,1.95-2.65,4.65-2.9,6.13-.56,15.49,5,20.37,8.57,14.61,10.67,25.69,29.25,27.29,47.31-9.89-2.79-20.3-.92-30.23.66l-1.25-8.16-2.03-.39,1.31,15.12-12.49-5.27c2.52-4.51,5.86-5.71,6.93-11.12,4.59-23.2-19.62-37.03-38.98-23.85-1.31.89-5.79,5.97-6.74,5.41-13.62-26.28-51.05-13.83-46.04,15.12l-17.08-4.61c-1.5-2.27,15.53-22.55,18.41-25.27,5.9-5.59,25.01-19.14,33.2-16.18,2.97,1.07,8.12,11.39,15.28,14.36,12.92,5.35,19.13-1.25,27.39-8.77v-.03Z" fill="#fff"/>
  <path d="M187.51,588.89c1.44,8.13,1.56,16.52,2.58,24.68,1.68,13.36,3.33,17.75,1.34,32.68-3.78,28.36-8.42,59.59-13.07,87.73l-9.24,55.37-6.62-48.23c14.02-3.29,15.8-14.35,15.15-27.01-.24-4.6-2.72-12.24-2.63-15.81.05-2.22,2.07-4.35,2.49-6.71,1.63-9.29-3.84-13.29-3.84-20.22,0-6.31,4.44-9.83,3.34-19.06-1.31-11.09-12.85-16.71-13.68-25.16-.56-5.69,1.13-13.78.52-20.18-.4-4.15-3.03-9.61-3.03-13.05,0-2.94,1.95-6.89,1.08-10.3,7.88,3.88,16.87,5.18,25.63,5.27h-.02Z" fill="#fff"/>
  <path d="M116.51,680.9c1.02,1.21,7.93-9.45,12.06-7.81s-3.94,9.22-5.47,10.77c3.8,3.46,4.59-5.64,9.19-4.27.17,8.89-5.38,17.32-9.71,24.81-11.76,20.31-29.76,46.9-57.52,37.48-10.27-3.49-13.87-12.09-14.01-22.24,1.76-1.15,27.39-9.24,27.33-6.87-.4,1.84-5.43,2.72-4.59,4.6.48,1.07,1.54,1.2,2.44.49l25.16-22.18c3.53-10.84,8.54-25.79,22.38-25.66l.32,1.68c-3.31,1.99-7.59,4.91-7.57,9.18v.02Z" fill="#fff"/>
  <path d="M46.82,706.87c1.76-16.12,16.7-40.22,32.53-45.7,10.22-3.54,9,4.87,16.31,9.35,3.85,2.36,8.55,3.19,12.97,3.48-5.15,4.49-6,15.85-8.89,20.03-.52.75-11.04,10.42-11.83,10.52-2.2-3.4-2.3-7.85-4.5-11.27-.94-1.46-2.12-3.76-3.71-1.53,1.86,3.29,6.63,13.92,3.65,16.79-1.5,1.45-29.98,5.03-34.4,9.05l-2.13-.87c.25-3.17-.34-6.75,0-9.86h0Z" fill="#fff"/>
  <path d="M542.54,732.83v-1.97h-6.58v-5.26c1.22-1.2,26.25-1.68,29.16-.55,1.65.64,1.31,11.2,1.08,13.36-4.05,37.44-60.82,14.29-76.86-1.29,4.36-7.81,11,3.58,16.37-.01-4.1-2.86-10.17-3.47-12.42-8.45,4.37-6.23,12.86,1.94,18.35,2.85,2.22-2.25-10.72-7.2-12.43-7.28-1.25-4.93,6.38-3.34,9.5-2.6,5.56,1.31,20.18,11.21,23.64,11.21h10.19Z" fill="#fff"/>
  <path d="M156.41,428.04c2.14,10.16-13.32,14.07-20.46,7.69-3.56,5.95-7.66,8.24-14.74,6.8s-6.8-5.48-9.72-10.7c-3.14-1.13-11.1,8.82-21.09,2.15-1.41-.94-2.03-3.2-4.15-3.88-.25-.96.13-1.11.49-1.65,1.14-1.69,6-6.69,7.75-8.51,4.03-4.2,14.66-14.96,19.58-16.57,17.34-5.68,30.14,15.74,42.35,24.66h-.01Z" fill="#fff"/>
  <path d="M157.27,705.88h16.44c2.22,8.63,3.89,24-4.68,29.83-19.43,13.2-44.53-19.52-40.37-37.07,1.41-5.94,13.1-17.25,3.64-22.32,10.97-2.6,10.07,13.3,10.85,20.36l17.73,15.78c2.77-2.13-2.74-4.27-3.6-6.57h-.01Z" fill="#fff"/>
  <path d="M549.12,400.9l-8.54,19.05c10.49-3.05,25.02-3.93,28.92,8.89-3.23.1-23.02-1.41-23.66,1.32.49,2.19,3.08,1.94,4.63,3.25,6.31,5.31,8.54,12.7,6.54,20.73l-25.33-21.05-32.86,17.78c-3.82-15.69,10.22-18.38,21.37-22.69.35-1.57-12.31-7.13-14.46-7.88-3.12-1.1-5.91-1.66-9.21-1.97-1.64-.88,3.75-4.22,4.61-4.62,5.85-2.75,11.43-2.9,17.34-.24,4.21,1.89,6.62,6.32,10.93,7.15.72-10.16,9.34-19.61,19.73-19.72h-.01Z" fill="#fff"/>
  <path d="M225.55,377.99c.17,6.27-.31,11.93,1.31,18.08,2.03,7.67,8.65,10.37,7.97,19.26l-25.17,9.16c-5.87-5.35-6.42-10.91-4.67-18.35-1.29-1.97-7.35.49-9.89-6.58-5.54-15.38,10.1-22.22,12.81-35.47,3.96,7.35,9.42,11.88,17.65,13.9h0Z" fill="#fff"/>
  <path d="M443.93,732.84c2.66,3.98,14.25-6.22,15.68-.2.7,2.92-10.31,10.39-12.85,11.9-33.5,19.85-43.51-8.8-29.69-35.93,3.31-.33,21.18,3.97,20.92,7.46-2.22,1.02-13.79,8.78-13.78,10.51.03,4.02,6.55-2.92,7.93-3.88,4.16-2.89,16.61-9.97,21.36-6.36,5.28,4.02-12.84,5.8-14.17,8.93-.1,2.8,10.76-2.47,11.79-2.66,2.03-.36,9.83-.56,7.63,3.65-.87,1.66-12.47,5.31-14.83,6.57h0Z" fill="#fff"/>
  <path d="M383.43,364.09c.45,5.97,5.66,9.89,7.56,15.13,3.21,8.85,2.64,17.32-6.82,21.47,3.56,8.53.98,16.72-7.34,20.97l-21.7-8.02c1.29-1.83,1.02-9.98,1.47-10.67.09-.13,1.75-.29,2.56-1.04,8-7.44,6.94-16.48,8.15-26.7,6.17-1.56,12.17-4.69,14.78-10.73l1.36-.41h-.02Z" fill="#fff"/>
  <path d="M422.01,562.38c-7.67,7.16-20.13,1.39-28.29-2.51-3.12-1.49-10.83-4.24-8.5-8.95,2.69-5.43,16.01.14,19.76.39,2.11.14,3.19-1.66,1.3-2.68-3.31-1.79-16.32-2.35-17.92-5.75-3.49-12.96,21.09-2.95,22.02-3.95.09-.09.12-2.26-.08-2.55-3.66-1.04-23.5-3.04-16.31-10.23,6.43-6.43,24.54,2.13,29.19,8.21s4.76,22.48-1.17,28.02h0Z" fill="#fff"/>
  <path d="M202.48,526.59c3.55,6.69-22.69,7.32-18.9,10.37,5.89.43,18.16-5.4,22.83.17,7.89,9.4-21.09,7.62-20.2,11.98.45,2.22,10.88-1.38,12.89-1.56,10.97-.99,14.48,6.4,4.85,10.76-5.05,2.29-18.8,7.47-23.82,6.74-11.78-1.72-13.08-20.86-9.37-29.4s18.4-14.54,27.08-11.95c.84.25,4.45,2.51,4.65,2.9h-.01Z" fill="#fff"/>
  <path d="M481.4,477.8c.12-1.16.07-2-.61-3-2.06-3.03-15.48-10.22-16.17-11.44l.33-1.68c10.67-2.91,21.01,2.45,24.7,12.87,1.83.39,6.7-6.72,8.84-8.26,5.27-3.79,11.63-4.77,17.76-2.28,1.16,1.7-5.85,4.12-7.18,4.97-.94.61-12.04,8.3-10.57,9.47,10.57-1.69,19.91,2.59,21.69,13.8l-27.19-8.48-15.22,24.24c-3.5-6.29-3.5-16.17,2.29-21.01-2.81-3.65-18.69,3.87-22.34,5.91-.43-5.82,8.82-15.12,14.13-15.12h9.54Z" fill="#fff"/>
  <path d="M153.65,703.25c-.49-.14-7.02-6.77-7.22-7.25-2.13-5.31.81-11.94-4.66-19.01-3.61-4.67-8.46-1.76-11.39-6.43-.2-2.01,2.62-4.68,3.14-5.99.91-2.29-.11-7.03,3.06-7.36,3.72-.39,18.07,11.37,21.03,14.45,7.63,7.95,14.74,20.44,15.43,31.57-4.97-.92-15.12,1.23-19.4,0v.02Z" fill="#fff"/>
  <path d="M174.36,694.05c-5.98-16.84-18.92-29.61-34.18-38.45l9.21-6.56c4.61-5.47,10.77-10.61,11.84-18.08,2.13,2.22,3.02,5.3,4.96,7.85,3.93,5.18,7.87,6.91,8.68,15.01.75,7.49-4.32,12.55-4.38,17.64-.05,4.05,5.04,10.46,5.14,15.81.04,2.38-1.12,4.46-1.27,6.79h0Z" fill="#fff"/>
  <path d="M436.69,751.9l-2.02,32.55,2.71,2.07-.68,50.83-4.2.04-11.59-84.17c5.49.8,10.48.52,15.77-1.32h.01Z" fill="#fff"/>
  <path d="M303.23,618.47l-5.08,7.23-100.77,9.19c-.78-.69,5.69-8.66,7.58-8.52l98.27-7.9h0Z" fill="#fff"/>
  <polygon points="394.61 634.24 303.24 622.75 308.77 617.76 390.99 626.36 394.61 634.24" fill="#fff"/>
  <path d="M194.08,565.22l6.6,54.2c.96,5.64-1.41,8.38-4.96,12.18l-8.61-63.46,6.96-2.92h0Z" fill="#fff"/>
  <path d="M398.99,626.16c-.04.15-.89.16-1.05.68-.4,1.34.26,3.54-1.03,4.77-2.35-3.05-3.7-5.58-3.66-9.53.11-11.08,4.19-25.38,5.93-35.64.95-5.63.84-11.85,2.21-17.42.22-.9-.08-2.52,1.4-2.48,1.03.03,4.25,1.48,4.16,2.78l-7.97,56.83h.01Z" fill="#fff"/>
  <path d="M535.31,518.55c5.93,1.57,10.62-.7,16.4-1.29l1.05,15.78-18.12-1.36c-.23-.66.66-1.37.66-1.64v-11.5h.01Z" fill="#fff"/>
  <path d="M126.38,669.73c-3.04-6.97-10.7,1.03-14.29,1.84-6.25,1.41-18.39-2.4-20.56-9.06,13.07,2.88,26.99,1.61,39.44-3.29l-3.26,10.21-1.32.3h-.01Z" fill="#fff"/>
  <path d="M535.31,501.46c5.15,1.69,9.43-.26,14.46-.66-.65,3.39,2.99,11.51.27,13.75-1.85,1.53-11.46,2.72-13.62,2.05-.45-.13-1.12-1.44-1.12-1.66v-13.47h0Z" fill="#fff"/>
  <path d="M510.98,668.42c-7.57,13.47-28.02,11.84-34.17-1.97,10.71,3.62,23.21,4.75,34.17,1.97h0Z" fill="#fff"/>
  <path d="M511.64,530.39h-11.51l-2.2-14.74c.34-1.22,7.64-2.6,8.77-2.38,2.74.52,4.92,13.97,4.94,17.13h0Z" fill="#fff"/>
  <path d="M535.31,499.49l-.66-14.46,11.77.08,2.76,12.07c.45,1.1-4.01,2.31-4.33,2.31h-9.54Z" fill="#fff"/>
  <path d="M184.88,478.46c-2.31,14.1.77,27.89,3.14,41.67-6.13,7.17-6.74-5.48-7.06-9.81-.71-9.57-1.06-23.63,3.92-31.87h0Z" fill="#fff"/>
  <path d="M543.86,468.6l2.01,13.39c-.43,1.25-9.94,1.65-11.07.26l-1.46-13.65h10.52Z" fill="#fff"/>
  <path d="M533.41,466.55l-1.39-13.07,7.92-1.03,3.2,12.45c-.69,2.15-7.82,1.84-9.72,1.65h-.01Z" fill="#fff"/>
  <path d="M411.61,523.06c-.56.36-3.29.21-3.89-.2-.97-.66,1-12.79,1.39-15.01.09-.48,1.16-.46,1.24-.97,1.03-6.36.66-13.18,2.67-19.22,1.04,4.57,1.16,33.77-1.4,35.4h-.01Z" fill="#fff"/>
  <path d="M539.82,450.11l-8.46,1.41-1.31-15.77c6.88,2.3,10.68,6.7,9.77,14.37h0Z" fill="#fff"/>
  <polygon points="507.69 511.32 497.81 512.37 495.86 502.78 504.45 501.08 507.69 511.32" fill="#fff"/>
  <path d="M502.06,495.94c.15.35,1.85,1.71,1.69,2.89l-8.53,1.31c.1-5.06-4.24-9.36-.6-13.73,5.6.56,5.68,5.36,7.44,9.53Z" fill="#fff"/>
  <path d="M501.78,356.2c12.46-5.37,27.46,2.34,26.99,16.78-.34,10.26-11.06,16.93-20.64,16.68-3.12-.08-11.17-3.1-12.6-2.96-.83.08-2.65,1.96-3.83,2.47-12.35,5.31-24.04,7.46-37.24,2.83-2.83-.99-9.11-5.7-10.47-5.89-1.49-.21-7.19,2.14-10.23,2.32-32.77,1.94-28.63-43.75,2.92-36.83,6.67-32.49,64.22-30.8,65.09,4.6h0ZM525.05,369.1c-2.73-8.54-7.67-12.74-17.03-11.59-2.6.32-6.1,2.94-7.96,1.38-1.09-.91-1.87-9.19-2.77-11.69-8.83-24.48-56.59-20.05-58.6,7.4-33.55-8.44-33.38,38.21-.54,30.99,2.15-.47,4.64-2.76,6.7-2.48,1.28.17,5.61,4.72,8.07,5.81,8.51,3.77,21.1,3.97,29.92,1.26,2.97-.91,11.68-6.32,12.73-6.4,1.58-.11,3.18,1.8,5,2.2,6.94,1.54,14.79,2.08,20.29-3.15,2.98-2.83,6.09-8.95,5.2-13.02-.09-.44-.96-.53-1.02-.72h0Z"/>
  <path d="M39.82,325.08c-23.74-39.02,43.48-72.06,64.45-31.91,21.74,41.63-41.12,70.25-64.45,31.91ZM95.89,286.77c-29.65-27.67-78.69,11.92-48.75,43.15,30.42,31.72,81.44-12.63,48.75-43.15Z"/>
  <path d="M445,304.69c-2.13,2.36-7.56,7.47-10.61,7.53-4.29.09-17.18-9.72-20.39-13.2-15.68-17.04.71-32.24,17.42-18.41,5.86-14.58,25.38-11.55,23.6,5.51-.59,5.65-6.22,14.34-10.02,18.57h0ZM433.23,283.06c-2.67,2.41-7.71-3.97-10.98-4.76-3.66-.88-7.51-.47-9.88,2.64-8.38,10.98,13.94,25.98,22.59,29.1,7.93-4.65,27.41-30.33,11.43-35.5-8.85-2.86-9.54,5.26-13.15,8.52h0Z"/>
  <path d="M522.97,281.77c.94,1.04,7.79,1,9.39,4.79,2.68,5.01-7.66,7.97-8.14,8.6-1.34,1.76,2.86,14.45-5.37,12.12-2.01-.57-7.17-5.22-8.34-5.52-3.26-.85-9.49,4.41-12.98.53-2.56-2.84,1.82-8.69,1.58-12.1-.22-3.07-5.38-7.01-2.3-10.26,2.57-2.72,8.9-.24,12.19-1.61,1.96-.82,3.97-7.35,8.23-7.31s4.56,9.48,5.74,10.77h0ZM521.5,304.93l-.34-10.49c17.08-10,3.46-6.55-.34-10.85-2-2.27-1.47-6.72-3.24-9.25l-1.38.1c-1.23,1.2-5.55,7.1-6.33,7.35-3.04.96-7.93-2.02-11.09.1l4.35,8.25-3.97,10.83c3.26,1.44,9.09-3.05,11.37-2.52,1.13.26,9.49,8.11,10.98,6.47h0Z"/>
  <path d="M532.13,69.51c3.87,1.5,10.91,1.12,10.47,7.02-.33,4.54-7.21,5.29-8.27,6.91-2.04,3.11,1.1,10.79-4.6,11.22s-9.4-5.67-10.52-5.77c-.47-.04-5.42,2.25-7.34,2.39-9.37.7-2.16-8.93-2.27-12.79-.08-2.75-4.67-5.2-3.76-9.68,1.16-5.7,9.38-1.85,11.91-2.55,3.76-1.04,10.17-20.81,14.38,3.26h0ZM527.41,61.07c-4.08-.09-5.27,6.83-8.35,7.74s-6.85-1.17-10.05-.52c-1.53,3.75,3.38,6.46,3.65,8.85.26,2.23-3.61,10.93-2.99,11.53,3.38.62,7.73-3.07,10.69-2.52,2.21.41,6.41,7.28,10.35,5.81.38-.37-.64-8.08,1.03-10.48,1.51-2.18,8.65-1.96,8.23-5.61-.32-2.81-8.26-2.33-9.97-4.56-1.07-1.39-1.66-9.64-2.58-10.24h-.01Z"/>
  <path d="M159.4,298.2c-1.78-1.8-.14-8.08-.94-10.56-.66-2.05-8.15-3.41-7.11-9.29.83-4.67,8.86-3.12,9.75-4.44.7-4.59,2.5-14.54,8.66-8.75,1.37,1.29,3.88,6.82,4.6,7.23,2.17,1.23,8.78-.77,10.7,3.78s-3.54,6.79-4,8.83c-.56,2.44,4.66,10.91-.45,12.03-4.08.9-7.55-2.68-10.42-2.45s-7.62,6.81-10.79,3.6v.02ZM167.12,266.17l-1.35.37c-1.25,1.85-1.72,8.23-2.74,9.32-1.45,1.55-8.36,1.24-9,3.2-.28,4.36,5.79,3.71,6.91,7.45.7,2.36-.87,6.95.28,9.88,2.83.29,5.23-4.21,6.9-4.61,4.3-1.01,7.93,3.15,12.16,2.64-1.74-9.28-4.81-9.44,3.29-16.74-2.47-3.07-7.1-.63-10.06-2.29-1.43-.8-4.62-7.56-6.4-9.22h.01Z"/>
  <path d="M49.91,394.45c5.66-1.77,6.23,5.69,8.08,6.77,2.23,1.3,8.47-.22,9.6,3.6,1.19,4.03-4.66,5.65-5.35,7.21-.47,1.07,3.53,8.98-.96,10.28-3.14.91-6.58-2.99-8.89-2.97-2.58.02-4.61,4.78-8.21,2.92-2.55-1.32-.55-6.9-1.65-9.53-.66-1.58-4.81-2.94-5.44-5.09-1.95-6.62,5.94-4.4,8.42-5.76,1.67-.92,1.84-6.63,4.41-7.44h-.01ZM44.85,419.96c2.65.56,5.57-3.3,7.55-3.25,1.47.04,5.76,3.24,7.88,3.25l.76-1.37c-2.9-7.71-1.07-7.87,4.18-12.76-.35-1.6-7.16-1.91-8.52-2.66-2.33-1.28-2.53-7.41-6.53-6.16-1.21,7.19-4.85,7.56-11.24,8.48-.26,3.43,4.9,3.38,5.78,6.38.48,1.66-.18,7.7.15,8.07v.02Z"/>
  <path d="M151.51,364.25c-1.45,2.02.25,9.87-6.1,8.79-4.53-.76-4.66-5.89-6.86-7.66-1.58-1.28-5.01-1.25-6.55-3.3-3.95-5.23,4.48-6.14,6.24-8.79,1.2-1.79.55-4.98,2.9-6.96,6.27-5.26,8.18,5.04,10.49,6.63,1.81,1.25,6.59.5,7.49,3.73,1.61,5.75-6.29,5.72-7.61,7.56h0ZM156.61,357.53c-7.66-.78-7.6-6.23-12.74-9.84-2.57,1.5-2.05,5.55-3.67,7.55-1.11,1.38-5.98,2.66-5.99,4.57-.02,2.35,4.99,2.57,6.33,3.58,2.27,1.71,2.11,7.75,6.86,7.26.45-.3,1.1-6.23,1.94-7.6.91-1.48,8.49-4.2,7.27-5.54v.02Z"/>
  <path d="M453.94,426.38c1.53,1.53,6.32.85,7.3,4.87,1.26,5.18-5.52,4.4-7.3,5.96-1.48,1.3-3.02,8.19-7.4,7.44-4.73-.81-3.71-5.83-5.21-7.99-.77-1.11-3.24-1.38-4.31-2.92-3.84-5.5,2.59-6,4.88-8.25,1.71-1.69,2.75-6.29,6.44-6.78s4.36,6.42,5.59,7.65v.02ZM444.97,437.96c.59,1.08.6,4.62,2.52,4.31,2.43-1.21,3.25-5.55,5.02-6.83,1.43-1.03,9.79-2.09,5.03-5.1-4.36-2.75-7.25-1.85-8.36-9.07-4.04,3.01-3.81,7.66-10.47,8.58-.7,3.23,3.39,3.64,4.58,4.89.13.13,1.27,2.45,1.69,3.22h0Z"/>
  <path d="M556.81,326.82c.5.62.76,1.28.76,2.08-.07,4.53-4.11,4.32-5.83,6.58-1.82,2.38-1.28,7.07-5.63,7.58-4.58.53-4.01-5.22-5.87-7.22-1.63-1.75-5.73-1.06-6.59-4.56.05-3.52,4.35-3.94,5.94-5.99.93-1.19,2.14-6.18,3.45-6.57,4.12-1.24,6.32,3.63,8.75,5.58,1.21.97,4.09,1.35,5.04,2.52h-.02ZM548.84,324.93c-1.62-1.3-2.51-2.83-4-4.21-1.95,1.5-1.97,4.97-3.31,6.54-.95,1.11-6.34,2.52-3.58,4.94.91.8,2.76.48,4.25,2.33.91,1.13,1.89,5.63,2.65,5.92,1.67.65,4.43-5.78,5.87-7.29,1.32-1.38,3.1-1.58,4.27-2.98.53-1.7-4.32-3.78-6.15-5.25Z"/>
  <path d="M66.54,348.97c1.26,1.17-3.82,11.18-3.89,13.42-.76,1.14-2.94-.21-3.11-1.25-.1-.64,3.54-11.84,4.14-12.08.47-.19,2.75-.19,2.86-.09h0Z"/>
  <path d="M94.09,345.09c-.09,3.03,4.57,9.26,4.91,11.2.5,2.83-.94,3.35-3.2,1.87l-4.92-12.16s3.21-.91,3.21-.91Z"/>
  <path d="M51.7,267.85c.28.49,2.98,2.89,1.69,4.22-2.46,2.54-10.32-11.44-8.54-13.79,1.51-1,6.03,8.15,6.85,9.58h0Z"/>
  <path d="M117.07,273.3c-.31.59-9.47,8.14-10.22,8.51-1.15.56-1.12,1.19-2.18-.22-1.42-2.61,16.31-15.58,12.39-8.29h.01Z"/>
  <path d="M21.52,281.92c2.12,1.34,12.92,4.73,12.14,7.55-.29,1.06-1.16.83-1.98.7-1.57-.26-15.8-7.11-10.16-8.25Z"/>
  <path d="M112.99,326.09c.6-.11,10.54,4.82,11,5.22,1.69,1.46,1.51,3.31-.92,2.91-1.57-.26-11.81-5.6-11.81-6.6,0-.16,1.3-1.44,1.73-1.52h0Z"/>
  <path d="M116.51,302.95l.02-2.6c2.59.54,13.92-3.52,14.45-.34.44,2.69-12.36,2.79-14.46,2.94h0Z"/>
  <path d="M81.34,256.3c.7-.23,1.54,0,2,.64.55.77-1.13,13.39-3.97,12.5-2.08-.66,1.31-12.91,1.97-13.13h0Z"/>
  <path d="M40.89,337.81c.44.47-8.31,7.99-8.53,9.57-6.83.34,5.43-10.66,6.22-10.64.13,0,2.22.98,2.31,1.07Z"/>
  <path d="M29.72,313.49c-3.21,3.21-10.09,2.2-14.45,2.62-2.55-2.03,13.23-4.51,14.45-2.62Z"/>
  <path d="M294.31,666.18c4.15,12.92,7.12,26.68,10.84,40.06,1.1,3.97,4.02,8.27,4.47,13.3.4,4.52-1.97,8.22-1.6,11.8.18,1.71,2.87,5.08,3.07,7.82.51,7.08-4.88,9.45-10.49,11.08-9.96,2.89-23.12,5.23-33.5,7.26-12.14,2.38-28.61,9.13-37.49-2-7.64-9.58-23.29-62.53-24.8-75.77-1.82-15.92,4.23-19.48,18.21-23.5,9.64-2.77,53.14-12.89,60.55-11.2,6.75,1.54,8.79,15.03,10.76,21.14h-.02ZM294.29,676.71c-1.36-4.59-6.5-26.09-9.11-28.04-3.19-2.38-11.13-1.02-14.96-.44-16.37,2.47-33.89,8.11-50.18,11.62l20.71,79.27,66.1-15.48c2.08-3.56-1.24-6.43-1.75-8.16-3.75-12.85-7.1-26.29-10.81-38.77h0ZM217.09,661.19c-17.54,3.3-6.95,29.85-3.87,41.53,3.23,12.24,7.33,27.6,12.36,39.19,2.53,5.84,5.67,15.75,13.04,17.05,7.91,1.39,46.89-7.42,56.72-10.02,5.24-1.39,13.03-2.34,13.16-9.16.1-5.51-4.06-7.88-3.86-3.47.08,1.68,5.28,5.15-1.91,8.19-18.6,1.95-40.25,10.41-58.41,11.94-11.07.93-16.59-9.52-6.5-15.73l-20.74-79.52h0ZM237.21,745.06c-4.62,5.66-.15,8.65,5.87,8.86,6.85-2.01,58.26-9.9,59.83-12.53.92-1.54.29-4.34-1.84-4.45l-52.18,10.32c-1.02.28-2.46-.53-2.2-1.6.64-2.72,48.77-8.12,54.72-11.03,2.77-.23,5.77-7.26,1.67-6.94-18.31,6.53-43.1,7.04-60.77,13.58-2.85,1.05-3.26,1.53-5.1,3.78h0Z"/>
  <path d="M378.19,659.21c6.26-4.45,14.04-6.84,21.19-2.46,7.48,4.58,6.34,17.79-1.47,21.51,19.73,10.27,1.86,33.54-15.78,22.36-.05,9.51-11.99,13.74-19.72,10.52l-4.61,19.05c4.03-2.14,7.03-6.16,11.14-8.25,7.71-3.92,18.45-5.02,25.61.16-4.26,17.07-23.68,22.04-39.42,21.53-.99.72-1.26,11.82-4.88,10.22-2.35-1.04,1.84-9.22,1.58-11.41-7.14-3.21-14.01-7.16-18.23-14.01-2.91-4.72-6.41-14.9-5.34-20.1.15-.73,2.38-2.97,3.54-3.16,10.54-1.75,22.97,12.42,23.39,22.39,1.38-3.26,5.2-13.73,4.62-16.74-.29-1.49-9.53-8.64-6.6-14.15-21.67,2.58-27.48-26.08-3.29-26.29-12.24-21.11,20.72-29.3,28.28-11.17h-.01ZM375.18,660.25c-.67-1.09-.68-2.23-1.6-3.35-8.83-10.89-29.89-3.24-21.88,11.33.74,1.34,6.01,4.96,4.78,6.1-26.66-7.08-26.8,22.86-.75,19.81,1.12,1.77-.14,3.6.14,5.39,1.9,12.46,19.35,13.1,23.79,2.89.76-1.75-.05-3.79,1.5-5.09,6.99,5.97,22.58,4.38,23.29-6.32.53-8.01-6.9-10.17-12.45-13.08-.52-1.1,6.07-3.01,7.2-3.96,5.68-4.81,2.65-15.03-4.68-16.95-10.26-2.69-16.15,7.51-17.31,7.45-.61-1.8-1.06-2.65-2.02-4.23h-.01ZM352.14,726.67c-2.85-10.3-8.47-19.42-20.55-18.72-2.88,13.69,7.95,28.82,21.59,31.45.68-3.75.81-8.26-.03-12-.11-.47-.96-.55-1.01-.73h0ZM355.82,740.72h12.16c8.08,0,21.59-9.77,24-17.74-14.3-5.15-32.41,2.6-36.16,17.74Z"/>
  <path d="M306.26,291.37c8.86,11.32,18.3,17.4,32.89,19.38,2.61.35,7.04-.47,8.97.08.45.13,5.14,5.89,6.42,6.86,2.46,1.87,5.18,2.51,7.55,4.31.97,14.25-.45,30.89-5.76,44.22-2.67,6.71-8.24,14.62-16.62,13.64-4.22-.49-6.03-3.98-9.3-5.82-5.47-3.07-18.36-8.9-24.4-6.25-1.54.67-1.64,4.78-6.37,5.51-9.97,1.55-10.94-5.44-19.76-4.63-3.59.33-10.87,3.14-14.14,4.92-6.91,3.77-8.15,9.61-17.26,8.07-16.39-2.78-19.6-38.56-18.92-51.46.11-2.07,1.35-12.45,2.32-13.46,6.28-1.21,12.1-1.71,18.06-4.29,3.56-1.54,10.69-7.64,12.35-8.07,2.57-.66,9.75,1.75,15.97.24,10.83-2.62,17.03-11.58,22.07-20.7,1.03-.15,4.79,6,5.92,7.44h0ZM305.43,296.16c-1.81-2.09-3.55-5.03-4.5-7.66-4.79,10.59-16.5,19.1-28.29,19.7-2.9.15-8.47-1.47-9.72-1.19-.67.15-8.75,6.49-11.44,7.64-5.4,2.31-12.1,3.29-17.88,4.15-2.11,14.41-1.74,50.28,12.2,58.98,9.13,5.7,11.95-2.81,19.28-6.81,5.02-2.74,15.73-6.38,21.24-4.78,3.54,1.03,7.74,8.27,14.51,3.71,7.48-5.03.08-18.38-1.09-24.39-.42-2.18,1.64-2.69,2.34-.99,2.6,6.76,5.85,12.71,5.08,20.21,8.08.04,15.73,1.94,22.71,5.89,5.72,3.24,8.7,9.87,15.88,5.4,11.76-7.32,15.11-39.93,13.71-52.73-4.19.49-12.48-10.1-13.29-10.38-2-.69-6.39.17-9-.21-11.18-1.61-24.31-7.97-31.75-16.57v.03Z"/>
  <path d="M311.12,379.21c4.86-3.41.47,6.42-1.73,8.47-5.11,4.75-13.89,5.08-19.97,2.37-1.71-.76-11.09-7.29-7.55-8.21,3.59.98,5.39,4.94,9.26,6.51,7.68,3.12,14.44.63,18.93-5.92.59-.86.93-3.12,1.06-3.21h0Z"/>
  <path d="M136.88,625.04c1.49.97-1.04,4.62-1.93,5.62-4.77,5.37-14.24,6.84-20.08,2.26-1.53-1.2-3.97-5.13-.77-3.83,1.84.74,2.76,3.23,6.07,3.79,5.3.91,10.15-.58,13.72-4.59.97-1.09.78-4.68,2.98-3.25h0Z"/>
  <path d="M133.45,608.09c1.46,3.11-1.35,9.44-5.1,9.71-1.7-1.66,9.35-7.52-3.41-12.04-1.76-.62-4.98.35-4.48-1.75,2.5-1.89,12.1,2.18,12.99,4.08h0Z"/>
  <path d="M146.75,596.12c.41.63-.15,2.18-.97,2.59-7.45-5.82-9.78,2.6-11.92,3.24-4.99,1.49.2-6.78,4.99-7.55,1.44-.23,7.58,1.23,7.9,1.72Z"/>
  <path d="M92.19,615.83c-2.59-8.32,12.17-10.09,13.14-5.58.62,2.85-4.05.33-4.94.28-6.77-.42-3.55,4.78-8.21,5.3h.01Z"/>
  <path d="M97.44,592.82c-5.55-.66-7.87,2.31-11.18,5.75-.88.92.13,2.81-2.62,2.14-3.27-3.58,11.83-14.66,13.8-7.89Z"/>
  <path d="M140.17,580.99c-2.98-.18-4.26-2.14-7.56-2.03-1.91.07-7.46,3.75-6.9.4.62-3.68,14.94-4.73,14.46,1.63Z"/>
  <path d="M469.25,633.59c1.1-.17,3.31,4.55,5.36,5.8,6.87,4.19,13.19,1.32,18.32-3.82,4.58,1.23-4.04,6.65-5.82,7.34-5.83,2.25-11.64,1.15-15.92-3.38-.54-.57-4.63-5.53-1.94-5.93h0Z"/>
  <path d="M473.5,611.23c-4,.49-1.56-4.38-5.22-5.62-5.86-1.99-4.62,4.07-8.59,3.32,1.18-9.72,14.61-7.6,13.81,2.3Z"/>
  <path d="M497.84,618.46c3.43-8.14,13.4-5.07,14.42,2.88-3.02,3.25-3.07-1.3-4.26-2.85-3.33-4.33-6.11-.34-10.16-.03Z"/>
  <path d="M520.18,605.97c-3.31.39-2.42-3.4-5.13-5.06-2.98-1.82-5.99-.73-8.66-2.5,5.41-2.97,14.64.62,13.79,7.56Z"/>
  <path d="M477.65,616.69c-3.42,2.85.7,5.7.45,9-7.23-5.05-3.25-12.2,4.58-12.86,1.2-.1,1.72-.72,2.64.7-.08,1.12-6.41,2.1-7.68,3.16h0Z"/>
  <path d="M478.11,591.51c-5-3.35-7.9-2.66-13.47-1.3-1.34-4.91,15.05-4.97,13.47,1.3Z"/>
  <path d="M525.05,369.1c.06.19.92.29,1.02.72.88,4.06-2.22,10.18-5.2,13.02-5.5,5.23-13.35,4.69-20.29,3.15-1.81-.4-3.41-2.31-5-2.2-1.05.07-9.77,5.49-12.73,6.4-8.82,2.71-21.41,2.51-29.92-1.26-2.46-1.09-6.79-5.64-8.07-5.81-2.06-.28-4.55,2.01-6.7,2.48-32.84,7.21-33.01-39.44.54-30.99,2.01-27.45,49.77-31.89,58.6-7.4.9,2.5,1.69,10.78,2.77,11.69,1.86,1.56,5.36-1.06,7.96-1.38,9.35-1.16,14.3,3.05,17.03,11.59h0Z" fill="#fff"/>
  <path d="M95.89,286.77c32.69,30.52-18.33,74.87-48.75,43.15-29.95-31.23,19.1-70.82,48.75-43.15ZM85.35,301.7c-2.01.79-1.63,7.9,1.77,7.1,3.16-.74,1.8-8.5-1.77-7.1ZM62.54,310.79c1.11-.64.2-6.72-2.24-6.52l-.9,5.49c.22,1.12,2.38,1.47,3.14,1.03ZM84.95,313.47c-.07-.08-2.05-.32-1.98.45-.74,5.43-7.64,7.99-12.52,6.48-.85-.26-5.75-5.37-5.22-1.36.65,4.91,17.44,5.52,19.55-2.13.19-.67.37-3.22.17-3.45h0Z" fill="#fff"/>
  <path d="M433.23,283.06c3.61-3.26,4.3-11.38,13.15-8.52,15.98,5.16-3.5,30.85-11.43,35.5-8.66-3.12-30.97-18.13-22.59-29.1,2.37-3.11,6.22-3.52,9.88-2.64,3.27.79,8.31,7.17,10.98,4.76h0Z" fill="#fff"/>
  <path d="M521.5,304.93c-1.49,1.65-9.85-6.2-10.98-6.47-2.28-.53-8.11,3.96-11.37,2.52l3.97-10.83-4.35-8.25c3.17-2.12,8.05.86,11.09-.1.78-.25,5.11-6.16,6.33-7.35l1.38-.1c1.77,2.53,1.24,6.98,3.24,9.25,3.8,4.3,17.42.84.34,10.85l.34,10.49h0Z" fill="#fff"/>
  <path d="M527.41,61.07c.92.6,1.51,8.85,2.58,10.24,1.71,2.22,9.65,1.74,9.97,4.56.42,3.65-6.72,3.43-8.23,5.61-1.67,2.4-.65,10.11-1.03,10.48-3.94,1.47-8.14-5.4-10.35-5.81-2.96-.55-7.31,3.14-10.69,2.52-.62-.6,3.24-9.3,2.99-11.53-.27-2.39-5.18-5.1-3.65-8.85,3.2-.65,7.03,1.41,10.05.52s4.27-7.83,8.35-7.74h.01Z" fill="#fff"/>
  <path d="M167.12,266.17c1.78,1.67,4.97,8.42,6.4,9.22,2.96,1.65,7.59-.78,10.06,2.29-8.1,7.3-5.03,7.46-3.29,16.74-4.24.51-7.86-3.65-12.16-2.64-1.67.39-4.07,4.9-6.9,4.61-1.15-2.93.42-7.52-.28-9.88-1.12-3.74-7.19-3.09-6.91-7.45.64-1.96,7.56-1.64,9-3.2,1.01-1.09,1.49-7.47,2.74-9.32l1.35-.37h-.01Z" fill="#fff"/>
  <path d="M44.85,419.96c-.33-.37.34-6.41-.15-8.07-.87-3-6.04-2.95-5.78-6.38,6.39-.92,10.03-1.3,11.24-8.48,4-1.25,4.2,4.88,6.53,6.16,1.36.75,8.18,1.06,8.52,2.66-5.25,4.89-7.09,5.05-4.18,12.76l-.76,1.37c-2.12,0-6.41-3.21-7.88-3.25-1.99-.05-4.9,3.81-7.55,3.25v-.02Z" fill="#fff"/>
  <path d="M156.61,357.53c1.22,1.34-6.35,4.05-7.27,5.54-.84,1.36-1.49,7.29-1.94,7.6-4.75.48-4.59-5.55-6.86-7.26-1.34-1.01-6.34-1.23-6.33-3.58,0-1.92,4.88-3.2,5.99-4.57,1.62-2.01,1.1-6.06,3.67-7.55,5.14,3.61,5.08,9.06,12.74,9.84v-.02Z" fill="#fff"/>
  <path d="M444.97,437.96c-.42-.76-1.56-3.09-1.69-3.22-1.2-1.25-5.28-1.66-4.58-4.89,6.66-.92,6.43-5.57,10.47-8.58,1.12,7.22,4.01,6.31,8.36,9.07,4.76,3.01-3.6,4.07-5.03,5.1-1.77,1.28-2.59,5.62-5.02,6.83-1.92.31-1.93-3.23-2.52-4.31h0Z" fill="#fff"/>
  <path d="M548.84,324.93c1.83,1.47,6.68,3.54,6.15,5.25-1.17,1.41-2.95,1.6-4.27,2.98-1.44,1.51-4.2,7.94-5.87,7.29-.75-.29-1.74-4.79-2.65-5.92-1.48-1.84-3.34-1.53-4.25-2.33-2.75-2.42,2.63-3.83,3.58-4.94,1.34-1.57,1.36-5.04,3.31-6.54,1.49,1.38,2.37,2.9,4,4.21Z" fill="#fff"/>
  <path d="M294.29,676.71c3.71,12.48,7.06,25.93,10.81,38.77.5,1.73,3.83,4.59,1.75,8.16l-66.1,15.48-20.71-79.27c16.29-3.51,33.81-9.16,50.18-11.62,3.83-.58,11.77-1.94,14.96.44,2.61,1.95,7.75,23.45,9.11,28.04h0ZM264.44,675.65l-2.63-11.54-11.75,2.75,1.87,11.38c-2.4,1.15-10.64.68-11.19,3.66-.19,1,1.82,10.03,2.66,10.51l11.83-1.65c.77.5,3.26,15.47,4.02,17.89.17.54,1.01.55,1.18,1.05.71,2.05.53,6.91,3.04,7.39l11.85-2.66-6.14-25.33,10.45-3.91-3.35-11.21-11.83,1.68h-.01Z" fill="#fff"/>
  <path d="M217.09,661.19l20.74,79.52c-10.09,6.21-4.57,16.67,6.5,15.73,18.15-1.53,39.81-9.99,58.41-11.94,7.2-3.04,1.99-6.5,1.91-8.19-.2-4.42,3.96-2.04,3.86,3.47-.13,6.83-7.92,7.78-13.16,9.16-9.83,2.6-48.8,11.41-56.72,10.02-7.37-1.3-10.51-11.21-13.04-17.05-5.03-11.6-9.13-26.95-12.36-39.19-3.08-11.68-13.67-38.23,3.87-41.53h0Z" fill="#fff"/>
  <path d="M237.21,745.06c1.83-2.25,2.25-2.73,5.1-3.78,17.67-6.54,42.46-7.05,60.77-13.58,4.1-.32,1.1,6.71-1.67,6.94-5.96,2.91-54.09,8.31-54.72,11.03-.25,1.07,1.19,1.88,2.2,1.6l52.18-10.32c2.12.11,2.76,2.9,1.84,4.45-1.56,2.63-52.97,10.52-59.83,12.53-6.02-.2-10.49-3.19-5.87-8.86h0Z" fill="#fff"/>
  <path d="M375.18,660.25c.96,1.57,1.41,2.43,2.02,4.23,1.16.06,7.05-10.14,17.31-7.45,7.34,1.92,10.36,12.14,4.68,16.95-1.13.95-7.72,2.86-7.2,3.96,5.56,2.9,12.99,5.07,12.45,13.08-.71,10.7-16.3,12.29-23.29,6.32-1.56,1.31-.74,3.34-1.5,5.09-4.43,10.21-21.88,9.57-23.79-2.89-.27-1.8.99-3.63-.14-5.39-26.06,3.05-25.91-26.9.75-19.81,1.23-1.14-4.04-4.76-4.78-6.1-8.01-14.56,13.05-22.21,21.88-11.33.91,1.12.93,2.26,1.6,3.35h.01ZM363.26,674.53c-8.26,11.49,9.21,23.64,18.2,11.96,9.48-12.32-11.11-21.82-18.2-11.96Z" fill="#fff"/>
  <path d="M352.14,726.67c.05.18.91.26,1.01.73.85,3.74.71,8.25.03,12-13.65-2.63-24.48-17.76-21.59-31.45,12.07-.7,17.7,8.41,20.55,18.72h0Z" fill="#fff"/>
  <path d="M355.82,740.72c3.75-15.14,21.86-22.89,36.16-17.74-2.41,7.97-15.91,17.74-24,17.74h-12.16Z" fill="#fff"/>
  <path d="M305.43,296.16c7.44,8.6,20.56,14.96,31.75,16.57,2.61.38,7-.49,9,.21.81.28,9.1,10.87,13.29,10.38,1.41,12.81-1.94,45.42-13.71,52.73-7.18,4.46-10.17-2.17-15.88-5.4-6.98-3.95-14.63-5.85-22.71-5.89.78-7.5-2.48-13.45-5.08-20.21-.7-1.7-2.77-1.2-2.34.99,1.17,6.01,8.56,19.36,1.09,24.39-6.77,4.55-10.97-2.69-14.51-3.71-5.51-1.6-16.22,2.04-21.24,4.78-7.33,3.99-10.14,12.51-19.28,6.81-13.94-8.7-14.3-44.57-12.2-58.98,5.78-.86,12.48-1.83,17.88-4.15,2.69-1.15,10.77-7.48,11.44-7.64,1.24-.29,6.82,1.33,9.72,1.19,11.79-.6,23.5-9.11,28.29-19.7.95,2.63,2.69,5.57,4.5,7.66v-.03ZM322.12,323.5c-1.31.23-2.57.77-3.45,1.81-1.13,2.48,5.88.56,6.58.61,6.45.5,10.17,3.5,14.58,7.83l2.18-.89c-3.32-6.26-12.84-10.61-19.89-9.36h0ZM265.58,324.15c-2.76.48-11.75,4.32-11.01,8.04l1.76.47c2.96-2.37,6.72-5.3,10.56-5.88,2.05-.31,10.8,1.43,9.07-1.5-1.07-1.81-8.31-1.49-10.38-1.14h0ZM278.24,350.94c.15-6.75-8.32-9.52-13.74-6.84-2.99,1.47-8.24,8.91-3.7,6.82,2.86-1.32,2.15-5.55,9.9-4.59,4.67.58,3.7,4.19,7.54,4.61ZM335.44,351.6c-.11-10.29-17.76-11.82-19.01-1.73l1.49.99c2.17.12,4.13-8.49,12.21-3.47,2.21,1.38,2.53,4.54,5.31,4.21h0Z" fill="#fff"/>
  <path d="M84.95,313.47c.21.23.02,2.78-.17,3.45-2.11,7.65-18.9,7.03-19.55,2.13-.53-4.01,4.37,1.1,5.22,1.36,4.88,1.5,11.78-1.05,12.52-6.48-.07-.77,1.91-.53,1.98-.45h0Z"/>
  <path d="M85.35,301.7c3.57-1.4,4.93,6.36,1.77,7.1-3.4.8-3.78-6.31-1.77-7.1Z"/>
  <path d="M62.54,310.79c-.76.44-2.91.1-3.14-1.03l.9-5.49c2.43-.21,3.35,5.87,2.24,6.52Z"/>
  <path d="M264.44,675.65l11.83-1.68,3.35,11.21-10.45,3.91,6.14,25.33-11.85,2.66c-2.51-.48-2.33-5.34-3.04-7.39-.17-.5-1.01-.52-1.18-1.05-.75-2.41-3.25-17.38-4.02-17.89l-11.83,1.65c-.84-.49-2.84-9.51-2.66-10.51.55-2.98,8.79-2.51,11.19-3.66l-1.87-11.38,11.75-2.75,2.63,11.54h.01ZM271.28,707.6c-1.75-6.44-3.2-13.17-4.25-19.78.65-3.14,7.36-1.83,9.62-3.6l-1.15-6.82-1.46-1.06-9.83,1.88-3.69-11.47-7.53.94c.28,11.42,5.51,13.71-9.59,14.54l1.34,7.87,11.84-1.02,7.29,25.28,9.12-1.23c.84-2.07-1.54-4.89-1.71-5.51v-.02Z"/>
  <path d="M363.26,674.53c7.09-9.86,27.68-.36,18.2,11.96-8.99,11.68-26.46-.47-18.2-11.96ZM366.57,686.6c7.21,7.55,21.69-6.35,11.19-12.17s-17.18,5.89-11.19,12.17Z"/>
  <path d="M335.44,351.6c-2.78.32-3.1-2.84-5.31-4.21-8.08-5.02-10.04,3.59-12.21,3.47l-1.49-.99c1.25-10.09,18.9-8.56,19.01,1.73h0Z"/>
  <path d="M322.12,323.5c7.06-1.24,16.57,3.1,19.89,9.36l-2.18.89c-4.41-4.33-8.13-7.33-14.58-7.83-.7-.05-7.71,1.86-6.58-.61.88-1.05,2.14-1.58,3.45-1.81h0Z"/>
  <path d="M265.58,324.15c2.07-.36,9.31-.67,10.38,1.14,1.74,2.93-7.02,1.19-9.07,1.5-3.85.58-7.61,3.51-10.56,5.88l-1.76-.47c-.74-3.72,8.25-7.57,11.01-8.04h0Z"/>
  <path d="M278.24,350.94c-3.85-.42-2.87-4.03-7.54-4.61-7.75-.96-7.04,3.27-9.9,4.59-4.54,2.09.71-5.34,3.7-6.82,5.43-2.68,13.89.09,13.74,6.84Z"/>
  <path d="M271.28,707.6c.17.62,2.55,3.44,1.71,5.51l-9.12,1.23-7.29-25.28-11.84,1.02-1.34-7.87c15.1-.83,9.87-3.12,9.59-14.54l7.53-.94,3.69,11.47,9.83-1.88,1.46,1.06,1.15,6.82c-2.26,1.77-8.97.45-9.62,3.6,1.04,6.61,2.5,13.34,4.25,19.78v.02Z" fill="#fff"/>
  <path d="M366.57,686.6c-6-6.28.72-17.97,11.19-12.17s-3.98,19.72-11.19,12.17Z" fill="#fff"/>
</svg>