<?xml version="1.0" encoding="UTF-8"?>
<svg id="Camada_1" xmlns="http://www.w3.org/2000/svg" version="1.1" viewBox="0 0 595.3 841.9">
  <!-- Generator: Adobe Illustrator 29.0.0, SVG Export Plug-In . SVG Version: 2.1.0 Build 186)  -->
  <path d="M595-1.1v844H0V-1.1h595ZM11.2,9.1c-.8.8-2.1,4.8-2.2,6.2v809.1c.4,5.6,5.2,8.5,10.5,8.5h557.1c2.9,0,5.2-2,7-4V10.9l-3.8-3.2L17.5,6.8c-1.4.2-5.4,1.4-6.2,2.3h-.1Z"/>
  <path d="M11.2,9.1c.8-.8,4.8-2.1,6.2-2.2l562.3.8,3.8,3.2v818c-1.8,2.1-4,4-7,4H19.5c-5.3,0-10.1-2.9-10.5-8.5V15.4c.1-1.4,1.4-5.4,2.2-6.2h0v-.1ZM581,551.9V13.4c-1.7-2-3.8-3.5-6.5-3.5l-557.8.2c-2.2.7-4,1.6-3.7,4.3v529.1c4.2,14,14.1,28.4,27.1,35.5-.8-5.1,3.4-7.3,8-7-.7-6.1,4.3-13.4,10.6-14,2.6-.2,4.8,1.4,7.4,1,1.7-8.1,11.4-12.5,19.3-10.8,3.9.8,6.6,5.1,8.3,5.7,2.6.8,4.4-1,6.6-.7,2.3.3,7.9,3.1,8.6,5.5.8,2.9-.4,7.2.3,10.2,1.7.7,4.6,1.4,5.9,2.6.8.8.8,2.4,1.6,2.5,3.4.5,9.9-4.1,13.4-5.6,8.6-3.4,19.3-6.3,28.5-7.5,2.7-.4,5.6.4,8.5-1-12.3-23.9-14.1-51.8-4.5-77,10.4-25.8,31.3-48.9,56.3-61.2l3.2-12.3-2-1c-4.4,2-9.3,3.8-14,5.1-9.7,2.7-22.7,5.9-32.5,6.5-8.8.6-14.4.8-13.5-10-9.4.6-18.7,3.9-28,.5l-.9-1.2c1-6-2.1-3.7-4.6-6.4-2.1-2.3.2-4.4-.9-6-.8-1.1-4-1.7-4.5-3.6-.8-2,2-3.2,2-4.9s-2.9-2.6-1.9-5.9c1.5-5,17.3-4.7,21.9-4.6-.8-19.1,13.3-2.3,19.5-3,1.5-.2,2.3-1.8,4-2.1,8.3-1.3,18.3-.8,26.9-2.1,6.4-.9,13.1-3.2,19.6-3.9l-6.9-4.6c-5.4-4.3-7.9-8.8-7-15.9s8-8.5,8.8-11.2c-.7-5.9-2.7-10.6-1.9-16.8,1.3-10,13.1-14.5,18.4-21.6,3.6-4.8,5.3-11.1,8.1-15.9,9.4-16.2,32.5-25.4,50.9-23,2.6.3,5.6,2.6,7.2,2.8,1.8.2,6.4-2.4,8.9-2.8,15.4-2,34,5.4,44,16.9,6.4,7.4,9.3,16.8,15,24,6.1,7.6,14.6,8.1,17,20,1.1,5.5-.2,7.9-.6,12.5-.4,5.6,1.6,4.7,4,8,4.4,6,6.2,11.8,1.5,18.5-2.4,3.3-6.9,4.2-7.5,8,4.8,0,9.8,1.5,14.5,2,9.5,1,21.7-.4,30,1,1.6.2,2.2,1.6,3.2,1.9,4.1,1.2,11.5-5.7,15-6.7,2.1-.6,4.3.4,6.3-.7,2.3-1.1,7.7-8.2,10.5-10.5,18.9-15.5,44.4-18.7,66.5-8.5,16.1,7.4,32.3,23.6,34,42,.5,4.9-1.1,13.8,0,17.9.6,2.1,4.4,3.3,4.8,6.1,1.6,11-5.1,19-16.5,17.5-2.3-.3-4.9-2.2-7-2-1.5.1-2.9,1.9-4.5,2.6-4.3,1.9-8.5,1.8-12.7-.3-1.5-.7-3-3-3.9-3.1-1.1-.2-3.1,1.6-4.9,1.9-12,1.9-21.7-7.9-15.4-19.4,3-5.4,9.5-5.7,14.9-6.1,1.6-1.5,1.5-3.9,2.5-5.5,2.1-3.6,6.7-3.4,3.3-9.4-5.8-10.4-14.9-12.9-26.3-11.6-6.6.8-14,6.1-17,12-1.4,2.7-1.5,6-3.6,8.5l-6-1.5-.5,7c-.9,1.4-4.1,1.6-4.4,2.1-.9,1.3,1,4.1-3.4,6.1-6.6,2.9-20.5-.4-27.7-1.2.2,2.3-1.4,9.2-3.6,9.9-10.7.4-22.1-.9-32.6-3.1-8.6-1.8-16.9-5.1-25.2-7.8-1.7-.2-1.6,0-1.5,1.5.1,1.9,3.1,14,4,15,25.4,15,45.8,39.4,53.2,68.3l20.8,4.2,3-17c-9.6.4-12.1-5-11-14-11.5-.6-14.5-16.6-3.1-20.2-1-11.1,6.9-15.3,17.1-13.9,3.3-15.7,26.3-14.4,28.2,1.9,5.6-.3,14,5,14.9,10.6,1.2,8.3-1.9,12.2-7.9,17.1.5,3.2,1.6,6.3.7,9.6-1.2,4.3-5.4,4.1-6.3,5.7-.7,1.2-.3,2.9-1.4,4.6-3.1,4.8-8.2,3.8-13,2.5l-3,18,46,13,2.9-12.4c-.4-1.4-4.5-2.6-5.5-4.6s0-5.1-.6-5.9c-13.1-3.4-11.7-22,2-23.1-1.3-10,9-16.6,17.6-11.1,11.9-12.9,27.5-5.2,25.6,12,2.3,1.3,6.2,2.8,7.9,4.6.9,1,3.9,6.7,3.8,7.9-.3,3.6-4.7,10.4-8.1,11.9-1.6.7-3.8.6-4.8,1.2-.5.4-2.2,4.9-3.5,6.5-5.1,6.3-9.9,5.2-17.4,5.1l-2.8,13.5c.2,2.5,13.8,7,16.5,8.3,15,7.1,29.5,15,43.3,24.2h0v.1ZM367.7,309.2c-1.5-1.6-5.4-3.6-7.2-5.3-9-8-12.4-20.7-21-30-8.6-9.4-26.4-15.6-39-13.9-3.2.4-8,3.6-10.8,2.8-.8-.2-1.5-1.3-2.5-1.6-16.2-4.7-38.6,3.2-49.2,16.2-5.1,6.3-6.4,13.3-10.5,19.5-4.9,7.3-13.9,10.3-17.7,18.3-4.5,9.6,1.8,15.4,0,21-.8,2.6-5.8,4.8-6.9,6.3-2.6,3.6-2.7,10.9.3,14.1.4.5,1.6.6,2.2,1.2,7.8,7.4,11.8,8.3,22.5,5v-23.4c-4.3-2.2-10.1-5.9-10.9-11.1-.9-6,.6-12.2,6.9-14,3.2-.9,10.6-.5,9.9,3.8-2.6,17.2-9,43.3,2.2,58.2,3.8,4.4,8.5,5.9,14.1,7,1.7,4.7,2.5,9.2,5.9,13.1,16.6,18.5,64.1,14.7,71.2-12.3,10.3-1.7,17.3-6.5,21-16.5,5.3-17.1,1.8-34.3-.1-51.6,15.5-6.7,23.6,13.1,10.9,21.4-1.8,1.2-5.4,1.5-5.9,3.1l-1.1,20.4c.6.6,14.3,3.7,15.5,3.6,3.4-.2,12.5-8.7,13.3-12.3.9-3.8-.5-6.2-2.4-9.3-1-1.7-4.9-5.4-5.3-6.7-1.4-4.7,1.4-10.2.8-14.8-.4-3.4-3.9-9.9-6.2-12.3h0v.1ZM229,335.9l2.7-17.5c-1.9-3.6-5.6-3-8.6-.9-8.3,5.6-3.2,18,5.9,18.5h0v-.1ZM353,336.9c9.4-.2,14.2-14,5.4-18.9-2.5-1.4-6.5-2.3-8.3.5l3,18.4h-.1ZM551,402.9v-17.5c0-.2-1.3-1.5-1.5-2.5-12.2-44.9-69.6-55.2-101.5-23.6-3.2,3.1-3.9,6.1-5.4,9.6-.8,1.7-2.3,2.7-2.5,4.5l9,1.1c25.6-43.3,98.4-26.3,92,27.5l10,1h0l-.1-.1ZM539,398.9c3.9-38.5-41-57.9-71.7-40.2-6.6,3.7-11.2,9.5-15.3,15.7l9.3,1.3c20.4-24.4,62.3-18.3,67.8,15,2.1.7,5.2,2.2,6.8,3.7,1.7,1.6,1.2,4,3,4.5h.1ZM517.7,372.2c-12-10.7-29.3-12-43.4-4.5-2.8,1.5-10.8,6.9-11.1,9.8-.2,1.6,1.6,4.6.9,6.8l-1.9.7v1.3c1.5.7,1.3,6.6,3.4,5.6,1.5-.8,4.6-9.4,6.8-11.7,4-4.2,15.5-8.7,21.2-8.3,12.1.8,20.2,7.5,24.5,18.6l8-.6c.8-.8-1.6-7.8-2.2-9.3-1.1-2.6-4.1-6.7-6.1-8.4h-.1ZM418,371.9c-8.4-1.9-17-.4-25.4-1.1-6.4-.5-14.5-1.9-21-3-3-.5-19.8-4.9-20.6-3.9-.1,6.5-5.8,14.9-11.3,18.2-3.1,1.8-8,2.2-9.7,3.3s-6.2,13.6-11,15l-8.9,5.6c14.8,1.6,29.1,6.3,43,11.5,3.3,1.2,6.1,4.1,10,3.5l-7-25.5c-.3-2.2-.4-2.8,2-2.5.6,2.8,1.2,9.6,3.7,10.8,4.8,2.5,14.6,5.5,20.1,6.9,4.4,1.2,32.5,6.8,34.2,5.2-3.9-14.4-1.7-29.7,2-44h-.1ZM229,364.9c-20.3,5.1-40.9,10.4-62,10,4.4,14,3.2,28.7,2,43,4.5-1.4,9-.6,13.4-1.1,13.1-1.9,26.5-6.6,39-11,2.7-1.7,3.6-16.7,6.1-16.9,2-.1.7,2.8.5,3.5-.8,4-7.3,26-6,27.5,13.9-5.3,28.2-10.9,43-13,.3-2.2,0-1.6-1.3-2.2-8.6-3.6-12.5-11.1-15.7-19.3-10.7-2.6-18-9.1-19-20.5h0ZM440,365.9l-4,.5-16.5,8.5c-2.4,9.5-3.8,19.2-3.5,29,10.9.7,22.5,5.3,33.5,4,.6,0,3.4-.9,3.5-1,.3-.4.3-3.4,0-3.8-.4-.6-10.4-1.9-12.4-2.1-1.4-.1-3.2-.6-1.5-2,5.6-.8,11,1.5,16.5,1,5.7-.5,3.2-3.7-.2-5.9l-14.3-1.2c-1.3-1.1-.1-1.9,1.5-2,6.5-.3,12.1,1.3,18.5,1,.7-10.2-13.7-3.9-20-7,1.7-3.9,5.8-1.1,8.5-1,3.1.2,13.9,1.4,12.5-3.5-.9-3-7.1-2.3-9.4-2.6-3.2-.4-14.4-2.4-16.1,0-2,2.8-1.9,10.6-8.5,10,.2-1.7,2.2-1.5,3-2.7,1.6-2.1,1.7-5.8,2.7-8.1,1.6-3.5,7.4-6.3,6.2-11.3h0v.2h0ZM165.9,378c-7.7,0-12.6-7-19.9-6.1-.2,3.3.4,5.8,3.4,7l7.6,12c-2.6.3-2.1.3-3.2-1.3-5.8-7.5-3.7-10.6-15.3-9.8-1.5.1-2.7.8-4,1-4.1.5-10.9-1.2-10.4,5.1,4.4.6,7.9,1.2,12.4.9,2-.1,4.3-2.5,5.6,1.1-4.3,1.6-9.3.3-13.3,1.2-2.2.5-5.8,2-4.7,4.8,5.8,2.5,13.4-2.6,19,1.5-3.5,2.8-13.6-.3-15,4-.5,1.5,2.5,3.2,3.7,3.4,1.6.3,6.1-1.1,8.3-1.4,1.8-.2,2.5-1.2,4,1l-9.9,2.6c-.5,1.5-1.8,3.2.4,3.8,2.4.6,12.9.4,15.9.1,5.6-.4,11.7-2.8,17.5-3,.4-9.6.1-18.6-2.1-27.9h0ZM496.3,421.6c4.4,4.3,12.5,4.2,17.2.5,4.2,4.8,10.4,7.5,16.5,4.3,1.6-.8,2.4-3.5,4.5-3.5,2.2-.2,4.5,2.4,7.2,2.9,7.5,1.3,15.1-4.4,14.2-12.2s-10.8-10.7-17.5-7.7c-2.2-1.4-1.1-4.1-2.2-6.6-1.2-2.7-6.1-6.5-8.9-7.1-7.6-1.6-17.5,3.3-16.3,11.8-9.3-1.1-18.3,1.6-17,12.5.2,1.6,1.2,4.1,2.3,5.2h0v-.1ZM423,406.9l-7-1,2,10,3.9-1.1,1.1-7.9h0ZM352,418.9c-8.2-2.2-16.5-5.7-24.7-7.8-5.5-1.4-16.6-4.1-21.8-4.2-2.8,0-8.6,2.5-12.1,2.9-8.1.8-15.7-2.5-22,4s-1.1,14.3-5.4,19.6c-3.6,4.4-10.6,3-14.1,6-1.8,1.5-1.9,4.8-3.1,6.9-4.2,7.1-14.6,5.5-21.2,8.8-4.4,2.2-4,4.2-6.7,7.3-6,7-9.4,7.7-18.5,7.5-1.4,0-2.8-.9-4-1-4.3,0-11.2,5.1-11.5,9.5-.4,6.3,4.6,4.7,8.3,5.6,9.6,2.4,8.9,14.4,18.2,15.8,6.5.9,15.3-.4,21.5,2.5,5.3,2.5,9,9.4,13.7,10.3,9.4,0,21.2,2.7,19.3,14.7-.9,5.9-6.4,8-8.8,12.2-2,3.4-1.9,8.2-3.7,11.3-3,5-10.1,6.6-11.2,12.8-.4,2.2,0,4.2-.7,6.3-1.6,4.9-8.4,5.5-7.5,13.4.5,4,4.4,7.8-.6,11.4-8.5,1.2-14.7-5.4-18.6-12.2-5.6-10-3.5-20-7.9-30.1-1.2-2.8-4.8-7.8-6.9-10.1-5.8-6.6-12.8-8.3-13.1-19-.2-8.3,7.1-12.2,1.9-20.9-4.3-7.1-13.1-5.8-18.8-9.2-2.5-1.5-3.9-4.6-5.6-6.4-.8-.9-1-1.4-2.4-1-7.8,23-6.8,48.8,3.8,70.7,25.2,52.1,99.8,69.8,152.6,62.2,56.6-8.1,111.6-54.9,99.3-117.2-.3-1.6-1.8-7.6-2.7-8.3-8.3-.9-14.9-7.1-23-7.5-.5,6.3,4.1,9.7,9.1,12.4,6,3.3,15.6,4.2,12.5,13.6-2,6.1-10.7,9.5-12.3,14.7-1.8,5.6-.6,10-4.4,15.6-2.8,4.2-7.9,6.6-10.3,9.7-1.9,2.5-2.6,6.2-4.1,8.9-3.8,7-8.6,12.5-15.7,16.3s-16.6,5.4-15.7-5.7c.7-8.8.5-6.5-2.7-14.2-3-7.2,1.9-10.2.8-16.8-.5-2.9-4.2-4.1-4.9-6.1-1.6-5.4,1.9-13.3-3.1-18.9-6.5-7.2-15.4-1.4-22.6-.5-5.3.6-12,.7-16.4-2.5-8.4-6-8.2-14.9-4.8-23.7,6.7-17.4,29.5-28.1,47-20.5,3,1.3,7.3,4.9,10.4,5.6,7.2,1.5,16.6-1,22.7-5,3.7-2.5,3.4-6.2-.9-6.9-5.7-.9-11,5.6-18,5.1s-11-8.7-18.1-9c-4.8-.2-12.5,4.6-18.9,5-5.5.3-11.6-1.3-12.5-7.6-1.6-11.1,12-10.6,18.3-14.4,1.4-.8,2.9-4.6,6.6-6.6,4-2.2,8.8-1.9,12-4,4.1-2.7,3-7.1,4-11.4h0v.1ZM166,416.9c.3-.4,1.5-5.9,1.6-7,.3-3.1-4-1.4-5.6-.5l1.1,7.5c.8-.1,2.8.2,3,0h-.1ZM273,407.9c-1.4-1.2-23.4,4.4-27,5.5-26.8,7.9-50.9,23-67.4,45.6-2.7,3.8-13.1,19.6-12.4,23.2,1.3,3,3.6,6.9,6.3,8.7,3.6,2.5,8.6,2.2,12.3,3.7,4.5,1.9,9.2,7,10.1,11.9,1.4,8.1-6.6,13-2.3,22.3,3.2,6.8,12,11.5,16.4,18.6,7.6,12.5,3.5,26,13.1,38.9,2.9,3.8,8.1,7.3,12.9,6.4,2.6-4.9-3-9.4-1.5-14,1.1-3.5,6.3-5.9,7.8-9.2,1.1-2.5.5-4.6,1-7,1.3-7,8.3-7.8,11.2-12.8,1.9-3.2,1.2-7.7,3.1-10.9,3.1-5.2,11.8-8.8,9.3-17.4-5-7.8-15.7-4.9-22.2-8.8-2.6-1.5-3-3.7-4.7-5.3-8.6-8.2-21.6-1.7-30.9-7.1-4.3-2.5-5.5-9.3-9.1-11.9s-10.1-1.8-12.5-4.5c-4.3-5,.5-12.9,5.5-15.5,5.5-2.8,10.6.2,16.4-.6,11.2-1.5,11-12.6,20.3-15.7,4.8-1.6,13.1-1.6,16.8-5.2,2.3-2.3,2.1-7.1,5.5-9.5s11.3-2.5,13.5-5.5c3.1-4.3-.2-12.2,3.5-17.5.7-1,6.4-5.2,5-6.5h0v.1ZM417,490.9c-6.7-20.1-18.5-39-34.5-53-4.2-3.7-22.2-16.5-27-16.1-4.4.4-1.1,6.1-3.5,8.6-4,4-12.9,3.3-18,8-1.4,1.3-1.6,3-3.7,4.3-4.5,2.8-23.5,5-15.9,15.1,6.6,8.6,21.5-3.2,30-2,6.3.9,11.4,9,17,9s7.9-4.1,12.2-4.9c4-.7,10.2-.5,11.2,4.5.6,3.1-5.5,7.3-8.2,8.5-7,3.1-17.5,3.9-24.7,1.4-2.4-.8-4.9-3.6-7.2-4.8-10.2-4.8-24-.8-32.6,5.8-16.1,12.4-19.6,40.5,7.4,37.4,3.4-.4,7-2.5,10.1-2.9,7.9-1.1,16,1.2,18.3,9.7,1.2,4.6-.1,12.2,1.7,15.3.8,1.2,2.5,2,3,3,3.2,6.5-3,12.3-.3,18.3,1.1,2.5,3.2,3.3,3.7,7.3.4,3.2-1.2,13.5,1.6,14.4,6.1,1.8,19.1-8.5,22.4-13.4,2.5-3.6,3.4-9.5,6.5-13.5,3.4-4.4,8.7-5.9,11.7-12.3,2.2-4.8,1.8-11.1,3.9-15.1,3.1-5.7,18.6-12.8,8.4-19.7-2.4-1.6-6.3-2.2-9.2-3.8-6.4-3.4-10.9-8.5-9.2-16.1,5.7-2.6,11.3,2.6,16.6,4.7,1.3.5,7.6,2.8,8.3,2.2h0v.1ZM468.7,425.2c-5.6-5.5-17.2-3.6-20.3,3.7-.7,1.7,0,4-2,5-8.6-3.6-17.8,2-14.5,11.5-.4,2.1-6.6,1.1-7.8,6.3-1.5,6.8,3.2,11.4,9.8,11.3.3,5.2-1.7,9.9,3.6,12.8,8.7,4.8,6.3-6.1,8.3-7.4,2.7.5,7.7-2.9,9.4-2.4,1.6.5,3.1,4.2,6.6,2.9v11.9c3.4,1.1,7.1,2.4,9.5-.9,1.2-1.6,1.2-3.8,2-5,1-1.4,3.9-2,5.4-4.6,3.1-5.7-.9-7.2-.8-12.3,7-1,10.3-7.5,8.8-14.4-1-4.6-10.2-11.3-14.3-6.7-3.1-3.3,0-7.9-3.8-11.7h.1ZM542,491.9c9.5,2.3,17.6-10.7,10-17.5-1.7-1.5-9.9-3.9-10-5,4.9-3.8-.2-15-4.7-16.4-1.9-.6-7.4-.4-9.4.3-3.6,1.2-5.3,6.2-6.5,6.5-3,1-1.8-2.1-5.2-2.7-8.6-1.7-11.8,5.1-11.3,12.8-8.8-.7-14.3,9.3-9,16.4,1,1.3,6.2,3.1,8.1,3.7,0,1.8-1.5,3.3-.9,5.3.5,1.7,4,4,4.9,2.1,1.5-3.4,1.3-7.5,2-10.9,1.3-6.2,4.9,1,6.6,1.4,1.5.3,4.1-2.9,6.3-1.8.4,3.5,3.1,3.5,5.7,4.9l-2.6,13c8.8,1.2,15.9-2.6,16-12h0v-.1ZM460,470.9c-2.3.6-3.7-1.8-5.5-2.1-2.4-.3-4.9,1.4-7.4,1.1l-5,26.9,14,3,4-29h-.1v.1ZM525.9,492c-2.1,0-3.3-2.6-4.6-3-1.5-.4-3.2,1.1-4.8,1-2-.1-2.5-2.6-4.5-2.1,1.1,5.4-6.9,23.1-5.9,26.4.5,1.8,11.7,6.2,13.4,3.6l6.4-25.9h0ZM314,829.9h262.5c1.1,0,5.4-3.5,4.5-5.5l-.2-268.9c-29.8-23.4-72.4-38.4-108.8-49.2-13.3-3.7-36.5-10.4-49.5-11.5-.9,0-2.5-.3-2.5.5,0,1.6,1.5,2.6,1.8,4.2,14.2,85.3-73.4,132.7-148.3,122.3-3.9-.5-26.5-5.8-27.6-4.9,4.8,11.2,12.4,20,23.7,24.8,8.5,3.6,19.2,4,27.3,7.7,27.8,12.8,22.9,43.6,41.5,59.5,13.9,11.9,24,15.4,30,35,9.6,31.2-12.2,51.1-34,69-6.8,5.6-15.2,9.8-20.5,17h.1ZM68,561.9c-5.2.2-7.7-3.6-12.9-.4-2.9,1.8-4.4,5.9-4.8,9.1,0,1.1,1.5,3.9-.8,4.3-1.1.2-4.8-2.3-7,1-3.2,4.6,5.2,6.8,8.5,7.6,14.6,3.8,33.3,2.6,47.8-1.3,2.3-.6,16.2-5.1,16.2-6.8l-10-7c2.7-1.6,2.9-8.1,1-10-3.7-3.7-8.7-2.6-13.3-1.6-2.4-.6-2.5-5.6-8.4-6.7-7.8-1.4-16.1,3.3-16.3,11.8h0ZM13,550.9v36c27.6,11,58.4,13.3,87.2,5.7,11.4-3,21.8-7.9,34.2-6.7,5.3.5,12.1,4,17.1,4s12.5-3.3,21-3.1c1.6,0,4-.9,3.5,1.5l-10.4.6c-13.3,7.2-25.6-2-38-1-9.2.7-17.5,4.5-26.3,6.7-24,6-48.4,6-72.5,0-5.2-1.3-10.3-4.3-15.7-4.8v181.5c8.9,6.8,21.6,8.3,32.2,5.2,3.3-1,6.7-3.2,9.7-4.3,19.9-6.7,31.1,8.9,48.5,9.6,10.6.4,21.3-8.1,32-8.2,9.4,0,19.9,7.2,30,8.1,15.6,1.3,25.3-8.2,40.1-7.1,8.8.6,16.9,6.9,25,8,17.5,2.3,23.8-2.3,38.5-8.5,21.3-9,25.5,1.3,43.5,2.5,5.6.4,11.5-2.5,17.1-3,3.9-.3,10.8.2,14.5,1.4,1.2.4,3.1,1.5,3,3l-15.5-2.5c-7.2.8-13.6,3.8-21,3.1-6.9-.6-13.8-4.8-20.2-5.8-17.1-2.8-29.7,11.3-46.9,12.7-17.4,1.5-30.6-10.8-45.7-8.7-12.8,1.8-16.9,8-33.3,6.8-13.6-1-23-11.4-37.5-6.6-9.2,3.1-13.5,7.2-24.5,6.6-13.1-.8-22.1-9.6-34-11-14.4-1.7-28.3,12.5-43.5,6.5l-12-4.5v52.5l5.5,2.5,290.8-.2c26.2-22.2,70.5-44.8,57-86.6-5.6-17.2-17.5-22.5-29.8-33.2-11.6-10.1-12-21.8-18.3-34.7-1.5-3.1-4.4-7.7-6.4-10.6-12.9-19.1-33.9-14.3-50.8-25.2-8.5-5.5-14.3-14.8-18-24-27.2-8-51.2-20.5-68.4-43.5-2-2.7-3.6-5.7-5.5-8.5-29.9-3.2-53,19.5-81.6,23.5-10.5,1.4-26.4,1.2-36.7-1.2-11.8-2.7-24-13.6-30.6-23.4-2.4-3.6-3.9-8.6-7.1-11.3h0l-.2.2h0Z"/>
  <path d="M581,551.9c-13.8-9.2-28.3-17.1-43.3-24.2-2.7-1.3-16.3-5.8-16.5-8.3l2.8-13.5c7.5.1,12.4,1.3,17.4-5.1,1.3-1.6,3-6.1,3.5-6.5,1-.7,3.2-.5,4.8-1.2,3.4-1.5,7.8-8.4,8.1-11.9,0-1.2-2.8-6.8-3.8-7.9-1.7-1.8-5.6-3.3-7.9-4.6,1.9-17.2-13.7-24.9-25.6-12-8.6-5.5-18.8,1.1-17.6,11.1-13.9,1.1-15.1,19.8-2,23.1.5.8-.4,3.9.6,5.9s5,3.2,5.5,4.6l-2.9,12.4-46-13,3-18c4.8,1.4,10,2.4,13-2.5,1.1-1.7.7-3.4,1.4-4.6.9-1.5,5.2-1.3,6.3-5.7.9-3.3-.3-6.4-.7-9.6,6-4.9,9.1-8.8,7.9-17.1-.8-5.7-9.2-10.9-14.9-10.6-1.8-16.4-24.9-17.6-28.2-1.9-10.2-1.4-18.1,2.8-17.1,13.9-11.4,3.6-8.5,19.6,3.1,20.2-1.1,8.9,1.5,14.4,11,14l-3,17-20.8-4.2c-7.4-28.9-27.8-53.3-53.2-68.3-.9-1.1-3.9-13.1-4-15,0-1.6-.1-1.7,1.5-1.5,8.4,2.7,16.6,5.9,25.2,7.8,10.5,2.2,21.9,3.5,32.6,3.1,2.2-.7,3.9-7.6,3.6-9.9,7.3.8,21.1,4.2,27.7,1.2,4.4-2,2.5-4.8,3.4-6.1.3-.4,3.5-.7,4.4-2.1l.5-7,6,1.5c2.1-2.4,2.2-5.7,3.6-8.5,3-5.9,10.4-11.3,17-12,11.4-1.3,20.5,1.2,26.3,11.6,3.3,6-1.2,5.8-3.3,9.4-1,1.7-.9,4-2.5,5.5-5.4.4-11.9.7-14.9,6.1-6.4,11.4,3.4,21.2,15.4,19.4,1.8-.3,3.8-2.1,4.9-1.9.9.2,2.3,2.4,3.9,3.1,4.3,2,8.4,2.2,12.7.3,1.6-.7,3-2.4,4.5-2.6,2.2-.2,4.7,1.7,7,2,11.4,1.5,18.1-6.4,16.5-17.5-.4-2.8-4.2-4.1-4.8-6.1-1.2-4,.3-12.9,0-17.9-1.7-18.4-18-34.6-34-42-22.1-10.2-47.6-7-66.5,8.5-2.8,2.3-8.2,9.4-10.5,10.5-2,1-4.3,0-6.3.7-3.5,1-10.9,7.9-15,6.7-1-.3-1.6-1.6-3.2-1.9-8.4-1.3-20.6,0-30-1-4.7-.5-9.7-2.1-14.5-2,.6-3.8,5.1-4.8,7.5-8,4.7-6.6,3-12.5-1.5-18.5-2.5-3.3-4.5-2.5-4-8,.4-4.7,1.7-7,.6-12.5-2.4-11.9-10.9-12.4-17-20-5.7-7.1-8.6-16.5-15-24-10-11.6-28.6-18.9-44-16.9-2.5.3-7.1,3-8.9,2.8-1.6-.2-4.5-2.4-7.2-2.8-18.4-2.4-41.5,6.8-50.9,23-2.8,4.8-4.5,11.1-8.1,15.9-5.4,7.1-17.1,11.6-18.4,21.6-.8,6.1,1.2,10.9,1.9,16.8-.8,2.8-7.9,3.8-8.8,11.2-.9,7.1,1.6,11.6,7,15.9l6.9,4.6c-6.5.7-13.1,3-19.6,3.9-8.6,1.2-18.7.7-26.9,2.1-1.7.3-2.5,1.9-4,2.1-6.2.6-20.2-16.1-19.5,3-4.5-.1-20.4-.4-21.9,4.6-.9,3.2,1.9,4.1,1.9,5.9s-2.8,2.8-2,4.9c.5,1.9,3.7,2.5,4.5,3.6,1.1,1.6-1.2,3.7.9,6,2.5,2.7,5.6.4,4.6,6.4l.9,1.2c9.3,3.4,18.6,0,28-.5-.9,10.8,4.7,10.6,13.5,10,9.8-.6,22.8-3.8,32.5-6.5,4.6-1.3,9.6-3.1,14-5.1l2,1-3.2,12.3c-46.2,23.3-75.7,77-56.6,127.5,1.3,3.7,3,7.3,4.8,10.7-2.9,1.4-5.8.6-8.5,1-9.2,1.2-19.9,4.1-28.5,7.5-3.6,1.4-10,6.1-13.4,5.6-.8,0-.8-1.8-1.6-2.5-1.3-1.2-4.2-2-5.9-2.6-.6-3.1.6-7.4-.3-10.2-.7-2.4-6.2-5.2-8.6-5.5-2.2-.2-4,1.5-6.6.7-1.8-.5-4.5-4.8-8.3-5.7-8-1.7-17.7,2.7-19.3,10.8-2.6.5-4.8-1.2-7.4-1-6.3.5-11.3,7.9-10.6,14-4.5-.3-8.8,2-8,7-12.9-7.1-22.8-21.5-27-35.5V14.3c-.3-2.7,1.5-3.6,3.7-4.3l557.8-.2c2.7,0,4.8,1.6,6.5,3.5v538.5h0l-.1.1ZM416,293.9c-11-.8-17.3-9.8-16-20.5.8-6,6.8-9.2,10.5-13.5,1-.6-.6-1.8-1.1-1.9-3.5-.9-12.1-.1-15.7,1.2-8.8,3.1-16.8,11.1-15.5,21,1.2,9.2,6.9,15.7,15.7,18.3,8.4,2.4,13,.5,20.8-2.3,1.1-.4,2.7-1.2,1.3-2.2h0v-.1ZM93,259.9c-1.3-.3-2.5.4-2.9,1.6-.6,2.1-.3,15.9.9,17.4.6,0,2-1.3,2-1.5v-17.5h0ZM170.7,263.1c-5.2,1.2-9,6-8.8,11.3.3,8.4,13.5,21.1,21.6,23.1,10-2.7,24.6-16.8,21.3-28-.9-3.2-8-6.9-11.3-6.7-4.1.2-8.6,4.1-10,4.1-3.5,0-6.6-5.2-12.8-3.8h0ZM434.8,271.7c-.7.5-4.1.7-5.8,1.7-6.3,3.8,3.7,5,6,7,1.7,1.5,3,7,4.5,7.5,2.3.7,2.6-3.5,3.3-4.7,2.4-4.4,7.2-4,10.2-7.8-1.6-2.2-4.5-2-6.5-3.5-2.3-1.7-4.4-7.3-6-8-1.7-.8-2.4,3.5-4,4-1,.8-1.1,3.3-1.7,3.8h0ZM534.7,279.2c-4.4-4.4-11.6-3.7-17.1-2.3-1.2-.3-3-6.9-6.2-8.8-2.1-1.3-8.6-3.5-11.1-3.9-9-1.3-23.7,2.7-23.3,13.8-21.9-4.2-22.8,26.8-2.5,26.1,2.2,0,5.1-2,6.6-1.6,1.8.5,3.4,2.8,5.2,3.8,5.8,3,13.6,3.6,19.7,1.3,2.4-.9,6.4-4.5,7.5-4.5s2.8,1.5,4.2,1.9c7,1.6,17.5-2.8,19.9-9.8,1.5-4.5.6-12.4-2.8-15.8h0v-.2h-.1ZM72,280.9l-5.5-12-3.5-2c-.7.8,4.7,10.3,5.8,11.7.9,1.2,1.1,2.7,3.2,2.3h0ZM122,266.9c-1.7-.3-2.6.9-3.5,2s-7,11.5-6.5,12l3.2-1.3,6.8-12.7h0ZM121.7,343.6c26.7-31.8-13.2-74.3-49.3-53.9-29.3,16.5-22.7,57.7,9.6,65.7,13.8,3.4,30.4-.7,39.7-11.9h0v.1ZM54,296.9c.5-2.1-1.1-2.3-2.3-3.2-3.8-3-9-7.3-13.7-7.8,2.3,3.1,6.7,6.3,10,8.5,1,.6,5.3,3.1,6,2.5ZM143.6,285.9l-13.6,9.5c1.5,2.2,2.3.9,4,0,3.9-1.9,6.8-5.4,11-7,1.9-1.2-.4-2.9-1.4-2.5h0ZM449,341.9l-.9-10.4c.7-2.1,7.6-3,5.8-9-1.6-2.9-7.8-1.7-10-3-1.8-1.1-2.7-8.1-7.4-7.6-.8.1-3.4,6.9-4.5,7.6-1.6,1.1-8,.1-9.6,2.4-2.6,3.6,3.9,7,5.5,9.7.9,3.2-6.4,12,3.6,10.3,2.4-.4,3.6-3.1,7-3.1s6.1,4.6,10.5,3.1h0ZM46,317.9h-17v2h17v-2ZM155,317.9h-18c0,.6,1.3,2,1.5,2h15c.2,0,1.8-1.7,1.5-2ZM535,324.9c-5.7-.7-5.1,4.8-6.5,7-.9,1.4-6.1,2.7-5.5,6l7.5-4c0-4.6,1.8-5.9,4.5-9ZM52,341.9c-5.6,1-12.3,4.8-16,9,2,.4,2.9-.2,4.5-1,2.1-1,6.7-3.8,8.8-5.2,1-.7,2.4-1.6,2.7-2.9h0v.1ZM146,348.9c-3.1.2-13-8.7-15-7-.5,2.6.6,1.7,2,2.5,2.6,1.4,9.6,6.2,11.5,6.6s1.6-.5,1.5-2h0v-.1ZM115.9,358c-5.3-.5-2.3,1.3-1.1,3.6,1.3,2.4,2.3,4.9,3.8,7.3.9,1.5,1.2,3.7,3.4,3.1l-6.1-13.9h0v-.1ZM68,358.9l-3.2,1.3-5.8,11.7,3.2-1.3s5.8-11.7,5.8-11.7ZM93,362.9c-5.7-.4-2.3,12.1-2,15.5.2,1.8-.5,1.6,2,1.5v-17ZM93,398.9c-2-19.8-33.2-23.8-41.2-6.7-.8,1.6-.6,4.5-1.7,5.3-11,.2-20.4,6.7-17.9,18.7,1.5,7.2,12.5,11.5,19.3,10.6,2.8-.4,4.9-2.3,8-2,2.4.3,5.2,2.8,7.5,3.5,5.9,2,10.6,1.5,16.3-.8,2.1-.8,6.1-3.7,7.2-3.8,2.3-.2,6.5,2,9,2s9-2.2,11.4-4.5c7.1-6.6,6.2-15.7-1.4-21.5-5.1-3.8-10.7-1.4-16.5-1h0v.2h0ZM142,453.9c1.9.5,7.1-3.1,3.5-4-2.5-.7-5.5,1.6-7.9,2-3.3-5.7-8.9-13-16.1-13.9s-13,.2-18.8,4.1c-3.1,2.1-6.8,5.9-6.7,9.9-.9,1.2-8.6-3.5-10.3-4.2-7.2-2.9-18.2-3.7-25.7-1.4-6.1,1.9-1.9,9,3.1,8.5v2c-7.6,2.4,0,8.3,4.9,9.1-.5,4,1.1,6.4,2.1,9.9-4.6-1.1-13.9-2.5-17.5,1s.5,4.8,2.4,7.7c.6,2.3-3.1,4.5,1.7,7.2,1.3.7,4,1,4.2,1.3.3.3.3,2.1,1.1,3.4,4.7,7.2,12.7-3.1,16.6-3.6,2.1-.3,3.9,1,5.9,1.1,10.2.5,25.2-1.5,31.6-10.5.9-1.3,1-3.5,1.9-4.1,1.2-.8,7-1.6,9.3-2.7,5.2-2.4,9-8.1,9.8-13.7,5.9.6,15.3-4,5.5-7l-.6-2h0v-.1ZM125.1,510.7c-.2-.1-1.1-2.6-2.6-3.9-3.9-3.3-11.8-4.1-16.6-2.5-3.6,1.2-4,5-5.9,6.1-.7.4-2.6-.8-4.3-.4-11.9,2.4-12.1,21.5,2.8,21.9,2.2,0,4.1-1.2,5.8-1,2.2.4,4.2,3.4,7.2,3.8,6.5,1,7.7-2.3,12-3,6.2-.9,11.6,1.4,14.7-6.3s-1.8-12.6-8.9-14.5c-1.3-.4-3.4.1-4.1-.4v.2h-.1ZM66,538.9l-.9-8.4c.4-1.9,5.8-3,5.9-7.1,0-3.4-6.1-2.7-8-4-1.7-1.1-2.8-6.6-5.5-6.6s-3.8,5.5-5.5,6.6-6.6,0-9,1.5c-1.4,5.4,2.2,5.3,4.8,8.6l-.9,9.3,9.5-3.7c2.8,2,5.8,4.2,9.5,3.8h.1Z" fill="#fff"/>
  <path d="M13,550.9c3.2,2.7,4.8,7.8,7.1,11.3,6.6,9.9,18.8,20.7,30.6,23.4,10.3,2.4,26.3,2.6,36.7,1.2,28.6-3.9,51.6-26.7,81.6-23.5,2,2.7,3.5,5.8,5.5,8.5,17.2,23,41.2,35.5,68.4,43.5,3.7,9.2,9.5,18.5,18,24,16.9,10.9,37.9,6.1,50.8,25.2,2,3,4.9,7.5,6.4,10.6,6.3,12.9,6.6,24.6,18.3,34.7,12.3,10.7,24.2,16,29.8,33.2,13.6,41.8-30.8,64.3-57,86.6l-290.9.2-5.5-2.5v-52.5l12,4.5c15.2,6,29.1-8.1,43.5-6.5,11.9,1.4,21,10.2,34,11,11,.7,15.3-3.4,24.5-6.6,14.5-4.9,23.8,5.5,37.5,6.6,16.3,1.2,20.4-5,33.3-6.8,15.1-2.1,28.2,10.2,45.7,8.7,17.2-1.4,29.8-15.5,46.8-12.7,6.4,1.1,13.3,5.2,20.2,5.8,7.4.7,13.8-2.3,21-3.1l15.5,2.5c.2-1.6-1.7-2.7-3-3-3.7-1.2-10.6-1.7-14.5-1.4-5.6.5-11.5,3.4-17.1,3-18-1.3-22.2-11.5-43.5-2.5-14.6,6.2-20.9,10.7-38.5,8.5-8.1-1.1-16.2-7.4-25-8-14.8-1.1-24.4,8.4-40.1,7.1-10.1-.9-20.6-8.1-30-8.1s-21.4,8.6-32,8.2c-17.5-.7-28.6-16.3-48.5-9.6-3,1-6.5,3.3-9.7,4.3-10.6,3.1-23.4,1.5-32.2-5.2v-181.5c5.4.5,10.5,3.5,15.7,4.8,24.1,5.9,48.5,5.9,72.5,0,8.8-2.2,17.2-5.9,26.3-6.7,12.4-1,24.7,8.2,38,1l10.4-.6c.5-2.4-1.9-1.5-3.5-1.5-8.5-.2-15.1,3.1-21,3.1s-11.8-3.5-17.1-4c-12.4-1.3-22.8,3.7-34.2,6.7-28.8,7.6-59.7,5.2-87.2-5.7v-36h0l.4-.2h0ZM118.8,609.1c-9.8,1.2-17.4,7-24.2,13.7-3.6-4.2-9-6.2-14.5-4.5-4.1,5.4-1.9,11.3,3,15-4.3,3.6-8,9.5-5.1,15.1,3.8,4.8,13.4-2.2,17.4-4.4,33,23.1,84.3-3.2,60.2-25.1-10.2-8.7-23.6-11.3-36.8-9.8h0ZM63,619.9c-4,.2-7.4,2.3-11.5,2-7.8-.5-11.1-6.7-20.5-2.5-1.6.7-2.5,0-2,2.5.8.7,6.6-1.8,8.3-1.7,6.1.3,10.2,4.4,18.2,3.8,2.2-.2,7.9-.8,7.5-4h0v-.1ZM219,621.9c-4.7,1-7.4,2.5-12.5,2-6.4-.6-11.9-5.6-17.9-5-2.4.2-5.1,1.7-7.6,2,0,1.6-.5,2.2,1.5,2,2.5-.3,6.4-2.1,8.8-1.8,8.4,1,11.2,6.7,23,4.6,1.9-.3,5.1-1.2,4.7-3.8h0ZM281,655.9c-3.4.9-6.9,1.4-10.5,1-4.7-.6-11.3-3.7-16.1-3.9-2.4,0-5.5,1.6-8,1.9-8.8,1-14.1-5.6-22-5-1.9,0-3.6,1.2-5.5,1-.6,3.9,2.7,1.2,4.6,1,8.2-.7,14.1,5.9,22.9,4.9,2.6-.3,5.6-2,8.1-2,4.9,0,10.6,3.4,15,4,2.8.4,11.8,1.4,11.5-3h0v.1ZM219.1,668.8c-3.2-14.6-20.5-19.7-29.6-6.9-1.6,2.3-2.8,8-3.5,8.5-.9.7-3,.8-4.4,1.6-5.6,3-6,5.4-5.7,11.8-15.5,6.3-9.2,22.6,4.1,27.6,3.8,1.4,9,1.5,12.4,2.6.8.3,1.2.7,1.6,1.4-.7,2.5-.7,5.2-1.2,7.7s-3.4,9.2-2.3,10.8c1.9,2.7,15.5,2.4,19.1,2,2.7-.3,5.5-.9,5-4-1-6.9-3.9-13.5-2.6-21,6.5.7,11.7,1.2,18-1.5,10.4-4.5,15.7-15.8,4.9-23,6.9-12.5-4.1-19.1-15.9-17.6h.1ZM39,666.9c10.3-6.2,22.3,2.5,32.3.8,7.7-1.3,11.9-4.1,21.2-2.8,2.6.4,4.4,3.5,6.5.5,0-2-12.2-3.7-14.5-3.5-5.4.2-11.6,4.1-17,4.1s-14.1-4.3-20-4.1c-2.1,0-5.5,1.5-7.9,2.1-1.4.3-.5,2-.6,3h0v-.1ZM112,699.9c-.4-17.8-16.1-12.7-14,3-1.6,0-1.5-2.6-2.5-4-8.8-12.1-23.2-4.5-12.9,9.9,11.2,15.6,33.9,16.4,44.3-.6,2.6-4.2,4.1-7.5,1.6-12.3-4-7.8-12.7,0-16.5,4h0ZM305,697.9c-4.8,0-8.6,2.3-13.5,2-5.5-.2-10.3-3.4-15-4s-9.1,0-13.5,1c-.7,4,4.3,1.1,6.5,1,12.6-.8,18.3,7.8,33.3,2.2,1.6-.6,2.7.6,2.2-2.2h0ZM65,700.9c-3.4-.2-7,.3-10.4,0-6.4-.7-9-3.7-17.1-3-2.2.2-6.8.9-6.5,4,2.3,0,4.2-1.6,6.6-2,9.7-1.3,15.3,5.7,25.2,3.2,1.8-.5,2.6.4,2.2-2.2h0ZM279,730.9c-3.1-.6-5.7,1.6-8.5,2-9.6,1.3-15.4-4.6-24-4-1.8,0-9.3,1.9-9.5,3.5,2.2,3,5.8-.8,8.7-1.3,6-1,10.5,3,15.8,3.7,4.6.6,11.2.4,15.5-1.5,1.6-.7,2.5,0,2-2.5h0v.1ZM336,734.9c-3.9.7-7.5,1.4-11.5,1s-7.6-2.5-11-3c-3.9-.5-11.1-.7-13.5,3,4,0,7.3-1.3,11.5-1,3.8.3,7.1,2.6,10,3,2.5.4,9.5.4,12,0,1.7-.2,2.8-1.2,2.5-3h0ZM109,739.9c-4.8-.8-9.8-4.4-14.5-5-10.9-1.4-20.2,4-31,3s-11.5-3.9-17-4.1c-3.6-.2-10.2,1.5-12.5,4.6,2.3,1.3,5.1-1.1,7.5-1.5,8.4-1.1,12.9,2.1,20,2.9,14.6,1.7,24.2-5.8,38.7-.7,2.5.9,5.3,3.2,7.2,3.8,2.2.7,1.5-1.5,1.4-2.9h.2v-.1ZM165,741.9c-.3-1.2-1.6-2.2-2.7-2.8-7.4-3.7-19.2-5.8-26.3-.7,2,2.9,4.9,0,7.5-.5,2.2-.3,5.7-.3,7.9,0,4.6.6,8.7,4.2,13.6,4h0Z" fill="#fff"/>
  <path d="M314,829.9c5.3-7.2,13.7-11.4,20.5-17,21.9-17.9,43.6-37.8,34-69-6-19.6-16.1-23.1-30-35-18.5-15.9-13.7-46.7-41.5-59.5-8.1-3.7-18.8-4.1-27.3-7.7-11.3-4.8-18.9-13.6-23.7-24.8,1.1-.9,23.7,4.5,27.6,4.9,74.9,10.5,162.5-37,148.3-122.3-.3-1.5-1.9-2.5-1.8-4.2,0-.9,1.6-.6,2.5-.5,45.6,7,122.8,31.8,158.4,60.6l.2,268.9c.8,2-3.4,5.5-4.5,5.5h-262.7v.1ZM481.7,519.2c-6.6-6.7-24.1-3-24.8,7.6-8,0-13.5,4.9-12.9,13.1-5.8,0-11.6,2.5-12.8,8.7.3,3.4,3,5.2,6.3,5.3,19.9-1.2,41.4,1.5,61.1,0,2.3-.2,8.1-1.2,9.8-2.2,6.4-3.7.5-9.8-4.9-10.8-.9-1.3-.2-4.4-.6-6.4-1.3-5.9-11.3-8.1-16.2-5.7-1.3-.2-2.6-7.5-4.9-9.7h-.1v.1ZM390,641.8c1.8-10-5-13.9-13.6-10.1-1.8-1.3-1.6-3.8-3-5.8-5.2-7.8-18.8-4.4-20.6,4.9-9.9-.6-17.4.2-15.9,12.1-7.1-1.2-16,8.2-8.4,12.9,5.7,3.5,14.4,1.8,20.9,2.1,12.2.6,23.5,1.7,35.9,0,4.8-.7,14.4-2.1,15.5-7.6.7-3.8-7.3-8.5-10.8-8.4h0v-.1ZM435,686.9c4.6-13.3-10.1-18.9-18.5-9.2-10.8-6.9-22-.3-17.4,12.6-7,3.5-8.8,14-1.4,18.5,1.9,1.1,7,1.9,7.3,2.2s-.1,2.7,1,4.5c2.2,3.6,5.7,3.4,8.1,4.9s.2,4.2,0,6.1c-.2,2.7,1.2,7.3-2,6.4-2.4-7.1-10-14-17.6-15-1.5-.2-4.1-.4-5,.9-2,8.8,4.7,19.7,12.2,23.9,14.3,8.2,33.2,4.3,43.3-8.5,1.6-2.2,2.1-6.1,2.8-8.7-1-4.8-12.1-2.1-15.6-.8-4.5,1.7-7.2,4.2-10.1,7.9-.6.8.2,1.9-2.2,1.3l2.5-16,1-1c4.3,4.5,12.8.5,14.3-4.7.6-2.1-.4-6.2.3-7.2,9.6-3.4,7.1-17.8-3.1-18.1h.1ZM513.8,696.1c-11.1-7.2-22-2-24.8,10.7-5.5-.6-7.9-1.9-12.9,1.6-8.3,5.9-8,15.3,2,19,8.8,4,67.4,8.6,63.9-8.9-.7-2.5-5.5-3.6-7.9-3.7,3.9-12.2-6.7-17-17-12-.2-1.6-2.2-5.8-3.2-6.8h0l-.1.1Z" fill="#fff"/>
  <path d="M352,418.9c-1.1,4.4,0,8.7-4,11.4-3.2,2.1-8,1.8-12,4-3.8,2-5.2,5.8-6.6,6.6-6.3,3.8-20,3.4-18.3,14.4.9,6.3,7,7.9,12.5,7.6,6.4-.4,14.1-5.2,18.9-5,7,.3,11,8.5,18.1,9s12.3-5.9,18-5.1c4.2.6,4.6,4.4.9,6.9-6.1,4-15.5,6.5-22.7,5-3.1-.7-7.4-4.3-10.4-5.6-17.6-7.6-40.3,3.1-47,20.5-3.4,8.9-3.6,17.8,4.8,23.7,4.4,3.2,11.1,3.1,16.4,2.5,7.2-.8,16.1-6.7,22.6.5,5,5.5,1.5,13.5,3.1,18.9.6,2.1,4.4,3.3,4.9,6.1,1.2,6.6-3.8,9.5-.8,16.8,3.2,7.7,3.4,5.5,2.7,14.2-.9,11.1,8.5,9.5,15.7,5.7s11.9-9.3,15.7-16.3c1.5-2.7,2.2-6.4,4.1-8.9,2.4-3.1,7.5-5.5,10.3-9.7,3.8-5.6,2.6-10.1,4.4-15.6,1.6-5.2,10.3-8.6,12.3-14.7,3.2-9.4-6.5-10.4-12.5-13.6-5-2.7-9.6-6.1-9.1-12.4,8.2.4,14.7,6.6,23,7.5,1,.6,2.4,6.7,2.7,8.3,12.3,62.3-42.7,109.1-99.3,117.2-52.8,7.6-127.4-10.1-152.6-62.2-10.6-21.9-11.6-47.7-3.8-70.7,1.5-.3,1.6.1,2.4,1,1.7,1.9,3.1,5,5.6,6.4,5.7,3.4,14.5,2,18.8,9.2,5.2,8.6-2.1,12.6-1.9,20.9.3,10.7,7.3,12.4,13.1,19,2,2.3,5.6,7.3,6.9,10.1,4.4,10,2.3,20.1,7.9,30.1,3.8,6.8,10.1,13.4,18.6,12.2,5.1-3.6,1.1-7.4.6-11.4-.9-7.9,6-8.5,7.5-13.4.7-2.2.3-4.2.7-6.3,1.1-6.1,8.3-7.7,11.2-12.8,1.8-3.1,1.6-7.9,3.7-11.3,2.5-4.1,8-6.2,8.8-12.2,1.9-11.9-9.9-14.7-19.3-14.7-4.6-1-8.4-7.9-13.7-10.3-6.2-2.9-15-1.6-21.5-2.5-9.3-1.4-8.7-13.4-18.2-15.8-3.8-.9-8.7.6-8.3-5.6.3-4.4,7.2-9.5,11.5-9.5s2.5.9,4,1c9.1.1,12.5-.5,18.5-7.5,2.7-3.1,2.3-5.1,6.7-7.3,6.6-3.3,17-1.7,21.2-8.8,1.2-2.1,1.3-5.3,3.1-6.9,3.5-3,10.5-1.6,14.1-6,4.3-5.3-1-12.9,5.4-19.6s13.9-3.2,22-4c3.5-.4,9.2-2.9,12.1-2.9,5.2,0,16.3,2.8,21.8,4.2,8.2,2.1,16.5,5.6,24.7,7.8h0v-.1Z" fill="#fff"/>
  <path d="M367.7,309.2c2.3,2.4,5.8,8.9,6.2,12.3.6,4.6-2.2,10.1-.8,14.8.4,1.4,4.3,5,5.3,6.7,1.9,3,3.2,5.5,2.4,9.3-.8,3.6-9.9,12.1-13.3,12.3-1.3,0-15-3-15.5-3.6l1.1-20.4c.5-1.6,4-2,5.9-3.1,12.7-8.3,4.6-28.1-10.9-21.4,1.9,17.3,5.4,34.5.1,51.6-3.7,10-10.7,14.8-21,16.5-7.1,27-54.6,30.8-71.2,12.3-3.5-3.9-4.3-8.4-5.9-13.1-5.5-1.1-10.3-2.5-14.1-7-11.2-15-4.7-41-2.2-58.2.7-4.3-6.7-4.7-9.9-3.8-6.4,1.8-7.9,8-6.9,14,.8,5.3,6.6,8.9,11,11.1v23.4c-10.8,3.4-14.7,2.5-22.6-5-.6-.6-1.8-.7-2.2-1.2-3-3.2-2.9-10.5-.3-14.1,1.1-1.5,6.1-3.8,6.9-6.3,1.7-5.7-4.6-11.4,0-21,3.8-8.1,12.8-11.1,17.7-18.3,4.1-6.2,5.4-13.2,10.5-19.5,10.6-13,33-21,49.2-16.2,1,.3,1.6,1.4,2.5,1.6,2.9.8,7.6-2.4,10.8-2.8,12.6-1.6,30.4,4.6,39,13.9,8.6,9.4,12,22,21,30,1.8,1.6,5.7,3.7,7.2,5.3h0v-.1ZM292,271.9c-3.2-.4-2.7,2.9-3.8,4.7-8.9,15.6-26,20.9-42.2,25.8-2.3.7-6,.3-7.5,2.5-1.8,2.5-2.8,14.2-2.5,17.5,1.2,13,10.5,23.9,23.6,25.4,3.3.4,2-1,2.7-1.6,4.6-4,9.3-6.5,15.2-8.1,4.8,5.5,11.9,8.4,19,5.8,3-1.1,4.9-3.8,7.8-4.9,5.3,1.4,9.9,4.3,14,7.9.8.7.6,1.9,1.3,2,12.1,2.1,23.4-12,25.2-22.8.8-4.4.5-18.9-2.8-21.8-2.3-2-5.4-1.2-8-2-16.2-5-37.7-12-42-30.6h0v.2h0ZM304,350.9c-1,4.4-5.2,6.6-9.5,7-7.5.7-14.2,0-18-7-1.5-.2-1.8,0-1.5,1.5.9,5.3,11.7,8.8,16.5,8.5,4.1-.2,12.8-3.6,14.4-7.6.7-1.8.2-2.9-1.9-2.4h0Z" fill="#fff"/>
  <path d="M417,490.9c-.6.6-7-1.7-8.3-2.2-5.3-2.1-10.9-7.3-16.6-4.7-1.6,7.6,2.9,12.8,9.2,16.1,3,1.6,6.8,2.1,9.2,3.8,10.2,6.9-5.3,13.9-8.4,19.7-2.2,4-1.7,10.3-3.9,15.1-3,6.4-8.2,7.9-11.7,12.3-3.1,4-4,9.9-6.5,13.5-3.3,4.9-16.4,15.2-22.4,13.4-2.9-.8-1.2-11.1-1.6-14.4-.5-4-2.6-4.7-3.7-7.3-2.7-6,3.5-11.8.3-18.3-.5-1-2.2-1.8-3-3-1.9-3-.5-10.6-1.7-15.3-2.3-8.4-10.3-10.7-18.3-9.6-3.1.4-6.8,2.5-10.1,2.9-26.9,3.1-23.5-25-7.4-37.4,8.6-6.6,22.5-10.6,32.6-5.8,2.4,1.1,4.9,3.9,7.2,4.8,7.2,2.5,17.8,1.7,24.7-1.4,2.7-1.2,8.8-5.3,8.2-8.5-.9-5-7.2-5.2-11.2-4.5-4.3.8-7.9,4.9-12.2,4.9s-10.7-8.1-17-9c-8.5-1.2-23.4,10.6-30,2-7.7-10.1,11.3-12.3,15.9-15.1,2.1-1.3,2.2-3,3.7-4.3,5-4.7,13.9-4,18-8,2.4-2.4-.9-8.2,3.5-8.6,4.8-.4,22.8,12.4,27,16.1,16,14,27.8,32.9,34.5,53h0v-.2h0Z" fill="#fff"/>
  <path d="M273,407.9c1.3,1.2-4.3,5.4-5,6.5-3.7,5.3-.4,13.2-3.5,17.5-2.2,3-10.2,3.1-13.5,5.5s-3.1,7.3-5.5,9.5c-3.7,3.6-11.9,3.6-16.8,5.2-9.3,3.1-9.1,14.2-20.3,15.7-5.8.8-10.9-2.2-16.4.6-5,2.5-9.9,10.5-5.5,15.5,2.4,2.7,8.8,1.8,12.5,4.5s4.8,9.4,9.1,11.9c9.3,5.4,22.3-1.1,30.9,7.1,1.7,1.6,2.1,3.8,4.7,5.3,6.5,3.9,17.3,1,22.2,8.8,2.5,8.6-6.2,12.2-9.3,17.4-1.9,3.2-1.2,7.7-3.1,10.9-2.9,5-9.9,5.7-11.2,12.8-.5,2.5.1,4.5-1,7-1.5,3.3-6.7,5.8-7.8,9.2-1.5,4.6,4.1,9.1,1.5,14-4.9.8-10.1-2.6-12.9-6.4-9.7-12.8-5.5-26.3-13.1-38.9-4.4-7.2-13.2-11.9-16.4-18.6-4.3-9.3,3.7-14.2,2.3-22.3-.8-4.9-5.5-10-10.1-11.9-3.7-1.5-8.6-1.2-12.3-3.7-2.8-1.9-5-5.7-6.3-8.7-.7-3.6,9.7-19.5,12.4-23.2,16.5-22.6,40.6-37.7,67.4-45.6,3.6-1,25.6-6.7,27-5.5h0v-.1Z" fill="#fff"/>
  <path d="M418,371.9c-3.7,14.2-5.9,29.6-2,44-1.8,1.5-29.9-4.1-34.2-5.2-5.4-1.4-15.3-4.5-20.1-6.9-2.5-1.3-3.1-8-3.7-10.8-2.4-.4-2.2.3-2,2.5l7,25.5c-3.9.6-6.7-2.2-10-3.5-13.9-5.2-28.2-9.9-43-11.5l8.9-5.6c4.8-1.4,9.4-13.9,11-15s6.6-1.5,9.7-3.3c5.5-3.3,11.2-11.7,11.3-18.2.8-1,17.6,3.4,20.6,3.9,6.4,1.1,14.6,2.6,21,3,8.5.6,17.1-.8,25.4,1.1h.1Z" fill="#fff"/>
  <path d="M229,364.9c1,11.4,8.4,17.9,19,20.5,3.1,8.2,7.1,15.7,15.7,19.3,1.4.6,1.6,0,1.3,2.2-14.8,2.1-29.1,7.7-43,13-1.2-1.5,5.2-23.5,6-27.5.2-.8,1.4-3.7-.5-3.5-2.5.2-3.4,15.2-6.1,16.9-12.5,4.4-25.9,9.1-39,11-4.4.5-8.9-.4-13.4,1.1,1.2-14.3,2.4-29-2-43,21.1.4,41.7-4.9,62-10h0Z" fill="#fff"/>
  <path d="M468.7,425.2c3.9,3.8.7,8.4,3.8,11.7,4.1-4.6,13.3,2.1,14.3,6.7,1.5,6.8-1.8,13.4-8.8,14.4-.1,5.1,4,6.6.8,12.3-1.5,2.6-4.3,3.2-5.4,4.6-.9,1.2-.9,3.3-2,5-2.4,3.4-6.1,2.1-9.4.9v-11.9c-3.6,1.3-5.1-2.5-6.7-2.9-1.7-.5-6.7,2.8-9.4,2.4-2,1.3.4,12.2-8.3,7.4-5.3-3-3.4-7.7-3.6-12.8-6.5,0-11.3-4.5-9.8-11.3,1.1-5.1,7.3-4.2,7.8-6.3-3.3-9.5,5.9-15.1,14.5-11.5,2-1,1.3-3.3,2-5,3-7.3,14.7-9.2,20.3-3.7h-.1Z" fill="#fff"/>
  <path d="M542,491.9c0,9.4-7.2,13.2-16,12l2.6-13c-2.6-1.4-5.2-1.4-5.7-4.9-2.2-1-4.8,2.2-6.3,1.8-1.7-.4-5.3-7.6-6.6-1.4-.7,3.4-.5,7.5-2,10.9-.9,1.9-4.4-.4-4.9-2.1-.6-2,.8-3.5.9-5.3-1.9-.5-7.1-2.4-8.1-3.7-5.2-7,.3-17.1,9-16.4-.5-7.7,2.7-14.4,11.3-12.8,3.4.6,2.1,3.7,5.2,2.7,1.2-.4,2.9-5.4,6.5-6.5,2-.7,7.5-.9,9.4-.3,4.5,1.3,9.5,12.5,4.7,16.4,0,1.1,8.3,3.5,10,5,7.6,6.8-.5,19.8-10,17.5h0v.1Z" fill="#fff"/>
  <path d="M68,561.9c.2-8.4,8.5-13.2,16.3-11.8,5.9,1,6,6,8.4,6.7,4.7-1,9.6-2.1,13.3,1.6,1.9,1.9,1.7,8.4-1,10l10,7c0,1.7-13.9,6.1-16.2,6.8-14.5,3.9-33.2,5-47.8,1.3-3.2-.8-11.7-3-8.5-7.6,2.2-3.3,5.9-.8,7-1,2.3-.4.7-3.2.8-4.3.3-3.2,1.8-7.4,4.8-9.1,5.2-3.2,7.7.7,12.9.4h0Z" fill="#fff"/>
  <path d="M496.3,421.6c-1.1-1.1-2.1-3.6-2.3-5.2-1.3-10.9,7.8-13.7,17-12.5-1.2-8.5,8.7-13.4,16.3-11.8,2.8.6,7.8,4.4,8.9,7.1,1.1,2.5,0,5.2,2.2,6.6,6.7-3,16.6-.4,17.5,7.7s-6.7,13.5-14.2,12.2c-2.7-.5-5-3-7.2-2.9-2.2,0-3,2.7-4.5,3.5-6,3.2-12.3.5-16.5-4.3-4.7,3.8-12.9,3.8-17.2-.5h0v.1Z" fill="#fff"/>
  <path d="M551,402.9l-10-1c6.4-53.8-66.4-70.7-92-27.5l-9-1.1c.2-1.8,1.8-2.7,2.5-4.5,1.6-3.5,2.3-6.4,5.4-9.6,31.9-31.7,89.3-21.4,101.5,23.6.3,1,1.5,2.2,1.5,2.5v17.5h0l.1.1Z" fill="#fff"/>
  <path d="M440,365.9c1.1,5-4.6,7.8-6.2,11.3-1,2.3-1.1,6-2.7,8.1-.8,1.1-2.8,1-3,2.7,6.6.5,6.5-7.2,8.5-10,1.7-2.5,12.9-.4,16.1,0,2.3.3,8.5-.4,9.4,2.6,1.5,4.9-9.4,3.6-12.5,3.5-2.7-.1-6.8-3-8.5,1,6.3,3.1,20.7-3.2,20,7-6.4.3-12-1.3-18.5-1-1.6,0-2.8.9-1.5,2l14.3,1.2c3.4,2.1,5.9,5.4.2,5.9-5.6.5-10.9-1.8-16.5-1-1.7,1.4.1,1.8,1.5,2,2,.2,12,1.5,12.4,2.1.3.4.3,3.4,0,3.8-.1.1-2.8,1-3.5,1-11,1.4-22.6-3.3-33.5-4-.3-9.8,1-19.5,3.5-29l16.5-8.5,4-.5h0v-.2h0Z" fill="#fff"/>
  <path d="M165.9,378c2.2,9.3,2.4,18.3,2.1,27.9-5.7.3-11.8,2.6-17.5,3-3.1.2-13.5.5-15.9-.1-2.2-.6-.9-2.3-.4-3.8l9.9-2.6c-1.5-2.2-2.2-1.2-4-1-2.2.2-6.7,1.6-8.3,1.4-1.2-.2-4.2-1.9-3.7-3.4,1.4-4.3,11.5-1.2,15-4-5.6-4.2-13.2.9-19-1.5-1.2-2.8,2.5-4.3,4.7-4.8,4-.9,9,.4,13.3-1.2-1.3-3.5-3.6-1.2-5.6-1.1-4.5.3-8.1-.4-12.4-.9-.4-6.3,6.4-4.6,10.4-5.1,1.3-.1,2.5-.9,4-1,11.6-.8,9.6,2.3,15.3,9.8,1.2,1.5.6,1.6,3.2,1.3l-7.6-12c-3.1-1.3-3.7-3.8-3.4-7,7.3-.9,12.3,6.1,19.9,6.1h0Z" fill="#fff"/>
  <path d="M539,398.9c-1.8-.4-1.3-2.9-3-4.5-1.6-1.5-4.7-3-6.8-3.7-5.5-33.3-47.4-39.4-67.8-15l-9.3-1.3c4.1-6.2,8.7-12,15.3-15.7,30.6-17.7,75.6,1.6,71.7,40.2h-.1Z" fill="#fff"/>
  <path d="M517.7,372.2c2,1.8,5,5.9,6.1,8.4.6,1.5,3,8.5,2.2,9.3l-8,.6c-4.2-11.1-12.4-17.9-24.5-18.6-5.8-.4-17.2,4.1-21.2,8.3-2.2,2.3-5.3,11-6.8,11.7-2.1,1.1-1.9-4.9-3.4-5.6v-1.3l2-.7c.7-2.2-1-5.2-.9-6.8.3-2.9,8.4-8.4,11.1-9.8,14.1-7.5,31.4-6.3,43.4,4.5h0Z" fill="#fff"/>
  <path d="M525.9,492l-6.4,25.9c-1.8,2.5-12.9-1.8-13.4-3.6-1-3.3,7-21,5.9-26.4,2-.5,2.5,1.9,4.5,2.1,1.7.1,3.3-1.4,4.8-1,1.3.4,2.5,3.1,4.6,3h0Z" fill="#fff"/>
  <path d="M460,470.9l-4,29-14-3,5-26.9c2.5.3,5-1.4,7.4-1.1,1.8.2,3.2,2.6,5.5,2.1h.1v-.1Z" fill="#fff"/>
  <path d="M353,336.9l-3-18.4c1.9-2.7,5.8-1.8,8.3-.5,8.9,4.9,4,18.6-5.4,18.9h.1Z" fill="#fff"/>
  <path d="M229,335.9c-9.2-.5-14.2-12.8-5.9-18.5,3-2.1,6.7-2.7,8.6.9l-2.7,17.5h0v.1Z" fill="#fff"/>
  <polygon points="423 406.9 421.9 414.8 418 415.9 416 405.9 423 406.9" fill="#fff"/>
  <path d="M166,416.9c-.2.2-2.1,0-3,0l-1.1-7.5c1.6-.9,5.9-2.6,5.6.5-.1,1-1.2,6.6-1.6,7h.1Z" fill="#fff"/>
  <path d="M142,453.9l.6,2c9.7,3,.3,7.6-5.5,7-.8,5.6-4.6,11.3-9.8,13.7-2.4,1.1-8.2,1.9-9.3,2.7-.9.6-1,2.8-1.9,4.1-6.4,9-21.3,11-31.6,10.5-2-.1-3.8-1.4-5.9-1.1-3.9.5-11.9,10.8-16.6,3.6-.8-1.2-.8-3.1-1.1-3.4-.2-.2-2.9-.5-4.2-1.3-4.8-2.7-1.1-4.9-1.7-7.2-2-2.9-6.1-4.2-2.4-7.7s12.9-2.1,17.5-1c-1-3.5-2.6-5.9-2.1-9.9-4.9-.8-12.5-6.7-4.9-9.1v-2c-5,.4-9.1-6.7-3-8.5,7.5-2.3,18.5-1.5,25.7,1.4,1.7.7,9.4,5.4,10.3,4.2-.2-4,3.6-7.8,6.7-9.9,5.8-3.9,11.9-5,18.8-4.1,6.9.9,12.8,8.3,16.1,13.9,2.4-.4,5.4-2.6,7.9-2,3.6.9-1.6,4.5-3.5,4h-.1v.1ZM116.1,477c7.3-1.1,13.8-2,17.1-9.4,6.5-14.7-4.1-30.3-20.5-27.5-5.5.9-15.4,6.9-14.8,13.3.2,2.5,7.5,7,6.1,8.5l-15.1-10.4c-6.9-3.5-24.3-8.1-29.9-1.1,4,3.2,9,5,14,5.5,0,2.1.4,1.9-1.5,2s-10.5-.9-8,3c2.2,3.6,12.4,4.4,16.5,5,.7,4.3-5.7,1.1-7.6,1-1.3,0-1.6.6-2.4,1.5l2.6,5.6c2.2,1.3,8.2,1.2,10.8.9,4.2-.5,7.3-3.9,11.6-4,.4,2.1-.9,2.4-2.4,3.1-11.8,4.8-17,3.6-29,2.9-3.3-.2-6.4,0-9.5,1-.4,5.1,3.8,5.4,8,5-1.6,2.7-4.9,1.8-6,5.5,2.1,2.7,6,1.1,9,1.5-2.3,6.6-.4,8.5,5.7,5.2,2.1-1.1,3.5-3.5,6-4,4.1-.9,6.6.5,9.9.8,11,.8,26.1-2.9,29.6-14.8h-.2v-.1ZM140.1,458.8l-2.1-4.9v7l5-1-2.9-1.1h0Z"/>
  <path d="M121.7,343.6c-9.3,11.1-25.9,15.3-39.7,11.9-32.3-8-39-49.2-9.6-65.7,36.1-20.4,76.1,22.1,49.3,53.9h0v-.1ZM85.7,287.1c-24,3.3-38.3,30.8-24.2,51.7,16.6,24.5,58.3,18.7,65.2-10.6,5.9-24.9-17-44.4-41-41h0v-.1Z"/>
  <path d="M93,398.9c5.8-.4,11.4-2.8,16.5,1,7.7,5.7,8.6,14.8,1.4,21.5-2.4,2.3-8.2,4.5-11.4,4.5s-6.7-2.1-9-2c-1.2.1-5.1,3-7.2,3.8-5.7,2.2-10.4,2.8-16.3.8-2.3-.8-5.1-3.3-7.5-3.5-3.1-.3-5.2,1.6-8,2-6.7.9-17.7-3.4-19.3-10.6-2.6-12.1,6.9-18.6,17.9-18.7,1.1-.8,1-3.7,1.7-5.3,8.1-17.1,39.2-13.1,41.2,6.7h0v-.2h0ZM92,403.9c-1-24.8-36.5-28.1-40.1-3.1-6.9-.8-16,.9-17.7,8.8-2.6,11.9,10.7,15.8,20.3,14.3,1.9-.3,3.5-2,5-2s6.9,4.2,10.2,4.8c5,.9,10.1.4,14.7-1.9,1.9-.9,4.6-3.6,5.3-3.8,1.9-.6,3.7,1.5,5.9,1.9,6.4,1,14.1-.9,16.7-7.3,3.7-9.2-3.7-17.6-13.3-15.3-3.3.8-4,3.1-6.9,3.5h0l-.1.1Z"/>
  <path d="M534.7,279.2c3.4,3.4,4.3,11.3,2.8,15.8-2.3,6.9-12.9,11.4-19.9,9.8-1.4-.3-2.7-1.9-4.2-1.9s-5.1,3.6-7.5,4.5c-6.1,2.3-13.9,1.7-19.7-1.3-1.9-1-3.4-3.3-5.2-3.8-1.5-.4-4.3,1.5-6.6,1.6-20.3.7-19.4-30.3,2.5-26.1-.4-11,14.3-15,23.3-13.8,2.5.4,9,2.6,11.1,3.9,3.2,1.9,5,8.5,6.2,8.8,5.6-1.4,12.7-2.1,17.1,2.3h0v.2h.1ZM515,280.9c0-6.1-5.3-13.4-11.5-14-8.3-.9-21.9-1-24.4,8.7-.6,2.3.7,4.8-1.7,6.3-12.8-7.2-22.5,12.1-9.2,18.2,5.8,2.7,7.5,1.2,13.1-1.1,5.8,6.6,13.4,8.2,21.9,6.7,4.2-.7,6.6-4,10.2-5.8,10,7.1,24.6-.4,22.3-13.2-.5-2.9-2.4-5.6-4.8-7.2-5.6-3.8-10.5-.2-16,1.5h.1v-.1Z"/>
  <path d="M416,293.9c1.4,1-.2,1.8-1.3,2.2-7.8,2.9-12.4,4.7-20.8,2.3-8.9-2.5-14.5-9.1-15.7-18.3-1.3-9.9,6.7-17.9,15.5-21,3.5-1.3,12.2-2.1,15.7-1.2.5.1,2,1.3,1.1,1.9-3.7,4.3-9.7,7.5-10.5,13.5-1.4,10.7,5,19.7,16,20.5h0v.1ZM406,259.9c-5.3-.4-10,0-14.7,2.8-1.5.9-6.8,4.9-7.9,6.1-3.7,4.3-3.1,13-.6,17.7,5.5,10.7,16.3,12.1,27.2,9.3-.1-1.6-2.6-1.5-4-2.5-3.4-2.5-7.4-7.8-8-12-.4-2.7-.4-9,.4-11.5,1.2-3.5,6.6-5.9,7.6-9.9h0Z"/>
  <path d="M125.1,510.7c.7.5,2.8,0,4.1.4,7.2,1.9,12.1,6.7,8.9,14.5s-8.5,5.4-14.7,6.3c-4.3.6-5.5,3.9-12,3-3-.5-5-3.5-7.2-3.8-1.7-.3-3.6,1-5.8,1-14.9-.4-14.7-19.5-2.8-22,1.8-.4,3.6.8,4.3.4,1.9-1,2.3-4.9,5.9-6.1,4.7-1.5,12.7-.7,16.6,2.5,1.5,1.3,2.4,3.7,2.6,3.9h.1v-.1ZM104.2,508.1c-1,1.2-.9,4-2.9,4.7-9.6-4.2-17.1,10.6-8.1,15.3,4.9,2.5,5.9,1.3,10.3.8,5.1-.6,5.6,5.8,13.5,3.5,2-.6,4.5-3.2,5.6-3.4.9-.2,2.5.8,3.8.9,7.6.2,14.2-7.4,8.5-13.6-3.7-4.1-9-1.4-11.1-2.9-1.2-.9-1.1-4.9-5.2-6.8-3.3-1.5-11.9-1.4-14.5,1.5h.1Z"/>
  <path d="M170.7,263.1c6.2-1.4,9.4,3.9,12.8,3.8,1.4,0,5.9-3.9,10-4.1,3.4-.1,10.4,3.5,11.3,6.7,3.3,11.1-11.3,25.3-21.3,28-8.1-2-21.2-14.7-21.6-23.1-.2-5.3,3.6-10.1,8.8-11.3h0ZM185,270.9h-1.5c-8.7-11.1-24.2-4.7-16.7,9.7,2.3,4.4,11.9,14,16.8,14.3,4.4.3,15.8-11.1,17.7-15.3,2.9-6.6,1.1-13.8-6.9-14.5-2.2-.2-9.9,2.5-9.3,5.8h-.1Z"/>
  <path d="M449,341.9c-4.4,1.5-7.2-3.1-10.5-3.1s-4.6,2.7-7,3.1c-10,1.7-2.7-7.1-3.6-10.3-1.6-2.7-8.1-6.1-5.5-9.7,1.6-2.2,8-1.3,9.6-2.4,1.1-.7,3.7-7.5,4.5-7.6,4.8-.6,5.6,6.5,7.4,7.6,2.1,1.4,8.3.2,10,3,1.8,6.1-5.2,6.9-5.8,9l.9,10.4h0ZM452,322.9l-10.1-1.4c-5.1-14.1-5.8-1.6-8.9,0-2,1-6.6.6-9,1.5-.4,3.7,6.2,5.2,6.9,7.6l-2.9,9.3c4.1.7,6.3-2.3,9.7-3.9l9.3,3.9c.3-3.2-1.8-6.1-.9-9.4.8-2.8,7.1-3.3,5.9-7.6h0Z"/>
  <path d="M66,538.9c-3.7.5-6.7-1.7-9.5-3.8l-9.5,3.7.9-9.3c-2.7-3.3-6.3-3.2-4.8-8.6,2.4-1.6,7.2-.4,9-1.5,1.6-1.1,2.1-6.5,5.5-6.6,2.7,0,3.8,5.5,5.5,6.6,1.9,1.2,8.1.5,8.1,4s-5.5,5.2-5.9,7.1l.9,8.4h-.2ZM68,522.9c-2,0-5.4-.4-7-1.5-1.9-1.4-1.6-6-5-5.5l-2.1,5.9-7.9,1.2c-.5,2.6,3.2,3.6,3.8,5.7.8,2.7-.5,4.8-.8,7.3l7.5-3.1,7.5,4.1-.9-8.4c.6-1.9,5.5-2.5,4.9-5.6h0v-.1Z"/>
  <path d="M434.8,271.7c.6-.5.7-3,1.7-3.8,1.5-.5,2.2-4.9,4-4,1.5.7,3.6,6.4,6,8,2,1.5,4.9,1.3,6.5,3.5-3,3.7-7.8,3.4-10.2,7.8-.7,1.3-1,5.4-3.3,4.7-1.5-.5-2.8-6-4.5-7.5-2.2-2-12.3-3.2-6-7,1.7-1,5.1-1.2,5.8-1.7h0ZM447,274.9c-4.3,0-4.4-6.1-8-6-.4,3.6-4.1,5.1-7,6.5,2.2,2.4,6.8,2.5,7,6.5h2c.2-2.9,2.8-4.3,5.4-5l.6-2h0Z"/>
  <path d="M93,259.9v17.5c0,.2-1.3,1.6-2,1.5-1.2-1.5-1.5-15.3-.9-17.4.4-1.2,1.6-1.9,2.9-1.6h0Z"/>
  <path d="M93,362.9v17c-2.4.1-1.8.3-2-1.5-.3-2.4-.9-4.6-1.1-6.9-.2-3-1-8.8,3-8.5h0l.1-.1Z"/>
  <path d="M54,296.9c-.7.6-5-1.9-6-2.5-3.3-2.1-7.8-5.4-10-8.5,4.7.5,10,4.8,13.7,7.8,1.2.9,2.8,1.1,2.3,3.2Z"/>
  <path d="M143.6,285.9c1-.4,3.4,1.2,1.4,2.5-4.1,1.6-7,5.1-11,7-1.8.9-2.5,2.2-4,0l13.6-9.5h0Z"/>
  <path d="M535,324.9c-2.6,3.2-4.4,4.5-4.5,9l-7.5,4c-.5-3.3,4.6-4.5,5.5-6,1.4-2.2.8-7.7,6.5-7Z"/>
  <path d="M122,266.9l-6.8,12.7-3.2,1.3c-.5-.5,5.7-10.8,6.5-12s1.8-2.4,3.5-2h0Z"/>
  <path d="M72,280.9c-2.1.5-2.3-1.1-3.2-2.3-1.1-1.4-6.5-11-5.8-11.7l3.5,2,5.5,12h0Z"/>
  <path d="M52,341.9c-.3,1.2-1.6,2.2-2.7,2.9-2.1,1.4-6.7,4.2-8.8,5.2-1.6.8-2.6,1.3-4.5,1,3.7-4.2,10.4-8,16-9h0v-.1Z"/>
  <polygon points="68 358.9 62.2 370.6 59 371.9 64.8 360.2 68 358.9"/>
  <path d="M115.9,358l6.1,13.9c-2.2.6-2.5-1.5-3.4-3.1-1.4-2.4-2.5-4.8-3.8-7.3-1.2-2.3-4.2-4.1,1.1-3.6h0v.1Z"/>
  <path d="M146,348.9c.1,1.5.4,2.4-1.5,2s-8.9-5.1-11.5-6.6c-1.4-.8-2.5.2-2-2.5,2-1.7,11.9,7.2,15,7h0v.1Z"/>
  <path d="M155,317.9c.3.3-1.3,2-1.5,2h-15c-.2,0-1.6-1.4-1.5-2h18Z"/>
  <rect x="29" y="317.9" width="17" height="2"/>
  <path d="M219.1,668.8c11.7-1.5,22.7,5,15.9,17.6,10.8,7.2,5.4,18.6-4.9,23-6.3,2.7-11.5,2.2-18,1.5-1.3,7.5,1.6,14.1,2.6,21,.5,3.2-2.3,3.8-5,4-3.6.4-17.2.7-19.1-2-1.1-1.5,1.8-8.3,2.3-10.8s.5-5.2,1.2-7.7c-.4-.7-.9-1.2-1.6-1.4-3.4-1.2-8.5-1.2-12.4-2.6-13.3-5-19.6-21.3-4.1-27.6-.2-6.4,0-8.7,5.7-11.8,1.4-.8,3.5-.9,4.4-1.6.8-.5,1.9-6.2,3.5-8.5,9-12.8,26.3-7.7,29.6,6.9h-.1ZM217,671.9c-.4-11.6-11.6-19.8-22-12.5-4.9,3.5-4.7,7-6.2,12.3-7.3,1.3-11.4,5.6-11.3,13.2-20.2,10.2-.1,28.7,15.4,26,1.4-6.3-9.3-13.8-7.9-18.4,2.6-5.2,12.6,2.8,13.9,1.4.4-3.3.2-13.1,3-14.5,7.6-3.8,6.5,7.6,7,12.5,2.8,1,9.6-5.8,10.9-1.4,1.7,5.7-8.2,11.9-6.9,18.4,7.9.2,14.5.8,20.9-4.6,6.5-5.5,5.9-15.2-2.9-16.4.7-3.7,4.5-4.6,4-9.5-.8-7.7-12.1-8.7-18-6.6h.1v.1ZM194.5,733.9h16c.6,0,1.5-1.6,1.6-2.5.2-2.7-2.7-9.5-3-13.1-.9-10,4.5-18,8.9-26.4-3.5-.6-6.6,4.9-10.1,2.5-1.9-1.3-.4-11.4-3.4-13.5-4.5,2.6-1.7,13.6-5.5,15.5s-7.6-5-12-3.5c-1,.9,4.5,7,5.2,8.3,3.2,5.7,4.6,11.7,3.8,18.2-.3,2.6-5.5,13.5-1.4,14.5h-.1Z"/>
  <path d="M118.8,609.1c13.2-1.6,26.5,1.1,36.8,9.8,24.1,21.9-27.2,48.2-60.2,25.1-3.9,2.2-13.6,9.3-17.4,4.4-3-5.6.8-11.4,5.1-15.1-5-3.8-7.1-9.7-3-15,5.6-1.7,10.9.3,14.5,4.5,6.9-6.7,14.4-12.5,24.2-13.7h0ZM131,610.9c-13.9-1.4-27.2,4.2-35.5,15h-1c-3.7-3.6-7.9-7.1-13.4-5.9-3,6.1.6,9.5,4.9,13.4-2.8,2.2-8.8,10.1-6.5,13.5,4.3,4.2,12.9-6.1,15-6.1,3.4.8,5.8,3.7,8.8,5.2,8.5,4.4,18.2,5.3,27.7,4.8-2.1-6.8-4.6-13.3-4-20.5.4-6.3,3.4-13.1,4-19.5h0v.1ZM156.9,637.7c6.4-9.6-1.8-17.7-10.1-22.1-2-1-12.4-5.4-13.7-3.8-.3,4.8-2.5,9.7-2.9,14.5-.7,8.1,0,15.8,3,23.4,7.9.2,14.1-4.9,20.9-8,.7-3.2-1.9-1.6-4.3-2.2-1.9-.5-5-2.5-4.7-4.8,4.4.3,6.8,4.6,11.9,2.8h0v.2h-.1Z"/>
  <path d="M112,699.9c3.8-3.9,12.5-11.7,16.5-4,2.4,4.8,1,8.1-1.6,12.3-10.4,17-33.2,16.2-44.3.6-10.3-14.4,4.2-22.1,12.9-9.9,1,1.4.9,3.9,2.5,4-2.1-15.7,13.6-20.8,14-3h0ZM110,709.9c.7-3.7.6-23.8-7.1-18.5-3.7,2.5-1.5,17.1-.9,21.5-2.1,2.5-6.1-9.1-6.6-9.9-1.6-2.9-5.5-7.9-9-8.1-6.5-.4-5.7,5.4-3.7,9.7,5,10.5,20.1,17.1,30.9,12.5,5.7-2.4,16.1-13.6,12.8-20.2l-2.2-1.9c-11.6-.9-11,18.7-14.3,14.9h.1Z"/>
  <path d="M109,739.9c0,1.4.7,3.6-1.4,2.9-1.9-.6-4.8-2.9-7.2-3.8-14.5-5.1-24.1,2.4-38.7.7-7.2-.8-11.6-4-20-2.9-2.4.3-5.2,2.7-7.5,1.5,2.3-3.1,8.8-4.7,12.5-4.6,5.4.2,11.6,3.6,17,4.1,10.8,1,20.1-4.4,31-3,4.7.6,9.7,4.2,14.5,5h-.2v.1Z"/>
  <path d="M39,666.9c.2-1-.7-2.6.6-3,2.4-.6,5.8-2,7.9-2.1,5.9-.2,14.3,4.1,20,4.1s11.6-3.9,17-4.1c2.4,0,14.4,1.5,14.5,3.5-2.1,3.1-3.9,0-6.5-.5-9.3-1.3-13.4,1.4-21.2,2.8-10,1.8-22-7-32.3-.8h0v.1Z"/>
  <path d="M281,655.9c.3,4.3-8.6,3.3-11.5,3-4.4-.6-10.1-4-15-4s-5.5,1.7-8.1,2c-8.8,1-14.7-5.6-22.9-4.9-1.8.2-5.2,2.8-4.6-1,1.9,0,3.6-.9,5.5-1,7.9-.6,13.2,6,22,5,2.5-.3,5.6-2,8-1.9,4.8.2,11.5,3.3,16.1,3.9,3.5.5,7.1,0,10.5-1h0v-.1Z"/>
  <path d="M279,730.9c.5,2.6-.4,1.8-2,2.5-4.2,1.9-10.9,2.1-15.5,1.5-5.4-.7-9.8-4.8-15.8-3.7-2.9.5-6.5,4.3-8.7,1.3.1-1.6,7.7-3.4,9.5-3.5,8.6-.6,14.4,5.3,24,4,2.8-.4,5.4-2.5,8.5-2h0v-.1Z"/>
  <path d="M305,697.9c.5,2.8-.6,1.6-2.2,2.2-15,5.6-20.7-3.1-33.3-2.2-2.2,0-7.2,3-6.5-1,4.4-.8,9-1.5,13.5-1,4.7.6,9.5,3.8,15,4,5,.2,8.7-1.9,13.5-2h0Z"/>
  <path d="M219,621.9c.4,2.6-2.8,3.5-4.7,3.8-11.8,2-14.6-3.7-23-4.6-2.4-.3-6.3,1.5-8.8,1.8-2,.3-1.6-.3-1.5-2,2.5-.3,5.2-1.7,7.6-2,6-.6,11.4,4.4,17.9,5,5.2.5,7.8-1,12.5-2h0Z"/>
  <path d="M65,700.9c.4,2.6-.4,1.8-2.2,2.2-9.9,2.5-15.5-4.5-25.2-3.2-2.3.3-4.2,1.9-6.5,2-.3-3.1,4.2-3.8,6.5-4,8.1-.8,10.7,2.2,17.1,3,3.4.4,7,0,10.4,0h-.1Z"/>
  <path d="M63,619.9c.5,3.2-5.3,3.8-7.5,4-8,.7-12.1-3.5-18.2-3.8-1.8,0-7.5,2.4-8.3,1.7-.5-2.5.4-1.8,2-2.5,9.4-4.2,12.6,2,20.5,2.5,4.1.2,7.5-1.9,11.5-2h0v.1Z"/>
  <path d="M336,734.9c.3,1.8-.8,2.8-2.5,3-2.5.4-9.5.3-12,0-2.9-.4-6.2-2.7-10-3-4.2-.3-7.5,1.1-11.5,1,2.4-3.6,9.6-3.5,13.5-3,3.4.5,7.2,2.6,11,3,4,.4,7.6-.3,11.5-1h0Z"/>
  <path d="M165,741.9c-4.8.3-8.9-3.3-13.6-4-2.2-.3-5.7-.3-7.9,0-2.6.3-5.6,3.3-7.5.5,7.1-5.2,18.9-3,26.3.7,1.1.5,2.4,1.5,2.7,2.8h0Z"/>
  <path d="M435,686.9c10.2.3,12.7,14.7,3.1,18.1-.7.9.3,5.1-.3,7.2-1.5,5.1-10,9.2-14.3,4.7l-1,1-2.5,16c2.4.6,1.6-.5,2.2-1.3,2.9-3.7,5.6-6.2,10.1-7.9,3.4-1.3,14.6-3.9,15.6.8-.8,2.6-1.3,6.5-2.8,8.7-10.1,12.8-29.1,16.7-43.3,8.5-7.5-4.2-14.2-15.1-12.2-23.9.9-1.3,3.5-1.1,5-.9,7.5.9,15.1,7.9,17.6,15,3.2.9,1.8-3.8,2-6.4.2-1.9,2.2-4.5,0-6.1s-5.8-1.3-8.1-4.9c-1.1-1.8-.8-4.2-1-4.5-.3-.3-5.4-1.1-7.3-2.2-7.4-4.4-5.6-15,1.4-18.5-4.5-12.9,6.6-19.5,17.4-12.6,8.4-9.7,23.1-4.1,18.5,9.2h-.1ZM434,703.9c9.2,0,11.2-12,2.3-14.8-1.8-.6-4,.4-5.3-1.7,7.5-8.3-3.1-17-11-10-1.3,1.1-1.8,3.4-3.5,4.5-8.4-10.4-20.4-2.4-13.5,9.5-2.3,2-4.5,1.8-6.5,4.6-5.3,7.8,3.7,14.7,11.5,11,.5.6-2.9,9.1,4.7,10.8,6.4,1.5,6.5-3.2,10-3.7,1.2-.2,2.2,1.6,3.8,1.9,2.8.5,5.9,0,8-2l-.5-10h0v-.1ZM420,719.9c-1,.2-2.9-.6-3,.6-.9,7.4-1.6,14.9-2,22.4,2-.4,1.7-2.1,2-3.5,1.7-6.4,1.5-13.1,3-19.5h0ZM413,743.9c-.2-8.4-8.5-22.5-17.5-23-6.2-.4-3.7,2.8-3.1,7.1,3.4,8.8,10.8,15.9,20.5,16h.1v-.1ZM445,724.9c-13-1.2-23.6,8.1-27,20,11.2.3,27.2-7.4,27-20Z"/>
  <path d="M481.7,519.2c2.2,2.2,3.6,9.4,4.9,9.7,5-2.4,15-.2,16.2,5.7.4,2-.3,5.1.6,6.4,5.4,1,11.3,7.1,4.9,10.8-1.8,1-7.5,2-9.8,2.2-19.7,1.5-41.2-1.2-61.1,0-3.2,0-6-2-6.3-5.3,1.2-6.2,7-8.6,12.8-8.7-.6-8.2,5-13,12.9-13.1.7-10.6,18.2-14.3,24.8-7.6h.1v-.1ZM479.8,520.1c-2.9-2.7-10.4-2.4-14-1-5.1,2-6.3,5.4-7.7,10.3-1.9,1.3-6.7-.8-9.5,2.5-3.2,3.6-2,6.7-1.5,11-5.4,0-11.1-1-13.6,5l.8,2.9c1.3.7,2.8,1.1,4.3,1.2,14.4,1.3,29.8-.6,44-1.1,6.8-.2,15.6.9,22,0,3.1-.4,6.3-2.8,3.3-5.8-1.6-1.6-7.5-.6-7.7-2.7,3.3-7.3-1.8-13.3-9.6-12.5-2.8.3-3.9,3-6.5,3,.5-3.4-1.8-10.5-4.2-12.8h-.1Z"/>
  <path d="M513.8,696.1c1.1,1,3,5.1,3.2,6.8,10.3-5,20.9-.2,17,12,2.4,0,7.1,1.1,7.9,3.7,3.5,17.5-55,12.9-63.9,8.9-10-3.7-10.3-13-2-19,5-3.5,7.4-2.2,12.9-1.6,2.8-12.7,13.7-17.9,24.8-10.7h0l.1-.1ZM515,707.9c1.5-19.1-26.2-16.5-23,3-3,.4-4.9-2.5-7.7-2.8-5.1-.6-13.6,6.1-12.2,11.2.3,1,4.4,4.9,5.6,5.5,10,5.1,38.4,5.2,49.6,3,2.7-.5,9.6-2.9,11.2-4.8,6.2-6.8-7-4.5-7.5-5-.4-2.3.9-4.3,1-6.5.5-7.1-4.1-10.2-10.6-7.6-2.9,1.2-3.6,3.9-6.4,4h0Z"/>
  <path d="M390,641.8c3.5-.2,11.5,4.6,10.8,8.4-3,11.7-41.5,8.1-51.4,7.7-6.5-.3-15.2,1.4-20.9-2.1-7.6-4.7,1.3-14.1,8.4-12.9-1.5-11.9,6-12.7,15.9-12.1,1.8-9.2,15.4-12.7,20.6-4.9,1.4,2,1.2,4.5,3,5.8,8.6-3.8,15.4,0,13.6,10.1h0ZM387,643.9c-.9-.8,6-13.1-7.5-11-2.3.3-5.4,3.7-6.4.4-.9-3.1,1.1-4.4-2.6-7.4-7.1-5.7-15.1-.3-15.5,8-8.1-2.5-18.8-1.1-15,9.4l-.4.6c-1.7,2.3-12.2,0-11.6,7.5.3,3.4,5.8,4.3,8.5,4.5,11.2,1,23,.5,34,0,7.1-.3,17.4.7,24.1-1.9,9-3.6-1.2-11.7-7.5-10h-.1v-.1Z"/>
  <path d="M292,271.9c4.2,18.6,25.8,25.5,42,30.6,2.7.8,5.8,0,8,2,3.3,2.9,3.6,17.4,2.8,21.8-1.8,10.8-13.1,24.8-25.2,22.8-.7-.1-.5-1.3-1.3-2-4.1-3.6-8.7-6.4-14-7.9-2.9,1.1-4.7,3.8-7.8,4.9-7.1,2.6-14.3-.2-19-5.8-5.9,1.6-10.7,4-15.2,8.1-.7.7.6,2-2.7,1.6-13.1-1.6-22.4-12.5-23.6-25.4-.3-3.3.7-15,2.5-17.5,1.6-2.2,5.2-1.8,7.5-2.5,16.2-4.9,33.2-10.2,42.2-25.8,1-1.8.6-5.1,3.8-4.7h0v-.2h0ZM292,277.9c-1.5-.3-1.6.1-2.5,1-2.4,2.6-4.4,6.5-7,9-10.6,10.1-28.4,14.7-42.4,18.1-4.6,14.9-1.1,33.7,15.6,38.7,6.2,1.4,7.6-3.2,11.9-5.7,1.9-1.1,8.7-2.7,9.2-3.3.9-1.1,1.2-6.5,3.7-7.8,3.5-.2-.4,3.7-.5,5.5-.3,3.9,3,7.5,6.7,8.3,5.5,1.1,15.1,0,14.3-7.3-.2-2.2-2.2-3.4-2-5.5,3.9.2,5.1,4.7,5.1,7.9,7.1.7,12.5,5.5,17.6,10,19.6-2.9,24.1-24.2,19.2-40.8-16.8-3.4-37.7-10-47.7-24.8-.6-1-1.1-2.2-1.1-3.4h-.1v.1Z"/>
  <path d="M304,350.9c2.1-.5,2.6.6,1.9,2.4-1.6,4-10.3,7.4-14.4,7.6-4.8.3-15.6-3.2-16.5-8.5-.3-1.5,0-1.7,1.5-1.5,3.8,7.1,10.5,7.8,18,7,4.2-.4,8.5-2.7,9.5-7h0Z"/>
  <path d="M116.1,477c-3.5,11.9-18.6,15.6-29.6,14.8-3.3-.2-5.8-1.6-9.9-.8-2.5.5-3.9,2.9-6,4-6.2,3.3-8.1,1.4-5.7-5.2-3-.4-6.8,1.2-9-1.5,1.1-3.7,4.3-2.8,6-5.5-4.2.4-8.4,0-8-5,3.1-1,6.2-1.2,9.5-1,12.1.7,17.2,1.9,29-2.9,1.6-.6,2.8-1,2.4-3.1-4.2,0-7.4,3.4-11.6,4-2.6.3-8.7.4-10.8-.9l-2.6-5.6c.8-.9,1.1-1.5,2.4-1.5s8.2,3.3,7.6-1c-4.1-.6-14.3-1.4-16.5-5-2.4-3.9,6-2.9,8-3s1.6.1,1.5-2c-5-.5-10-2.3-14-5.5,5.6-7,23-2.4,29.9,1.1l15.1,10.4c1.5-1.5-5.8-6-6.1-8.5-.6-6.4,9.3-12.3,14.8-13.3,16.4-2.8,27,12.8,20.5,27.5-3.3,7.4-9.7,8.3-17.1,9.4h.2v.1ZM125.8,451.1c-4-4-11.1,4.1-3.8,6.4,4.5,1.4,6-4.2,3.8-6.4Z" fill="#fff"/>
  <polygon points="140.1 458.8 143 459.9 138 460.9 138 453.9 140.1 458.8"/>
  <path d="M85.7,287.1c24-3.3,46.9,16.2,41,41-6.9,29.3-48.6,35.2-65.2,10.6-14.1-20.9.2-48.4,24.2-51.7h0v.1ZM78.8,314.1c-5.7-2.5-10.9.2-9.8,6.8l2.4-4c2.1-2,3.9-2,6.1,0l1.9,4c3.1-2.1-.2-4.4-.7-6.8h.1ZM114.8,315.1c-4.4-4.9-12.4-.9-10.8,5.8l2.4-4c1.7-1.6,3.8-2.2,5.6-.5,1.4,1.4.8,5,4,4.5,0-1.7,0-4.4-1.2-5.8h0ZM85,330.9c-1.5-1.9-4.3,2.5.7,5.9,4.5,3,9.5,2.6,13.7-.8,1.5-1.2,3.3-5.9-.3-5-1.2,6.2-8,6-12.8,3.8l-1.2-3.8h0l-.1-.1Z" fill="#fff"/>
  <path d="M92,403.9c2.9-.5,3.7-2.8,6.9-3.5,9.6-2.3,17,6.1,13.3,15.3-2.6,6.4-10.3,8.2-16.7,7.3-2.2-.3-3.9-2.5-5.9-1.9-.7.2-3.4,2.8-5.3,3.8-4.5,2.3-9.6,2.8-14.7,1.9-3.3-.6-9-4.8-10.2-4.8s-3.1,1.7-5,2c-9.6,1.5-22.9-2.4-20.3-14.3,1.7-7.9,10.9-9.6,17.7-8.8,3.5-25,39.1-21.8,40.1,3.1h.1v-.1Z" fill="#fff"/>
  <path d="M515,280.9c5.5-1.7,10.4-5.2,16-1.5,2.4,1.6,4.3,4.3,4.8,7.2,2.3,12.8-12.3,20.4-22.3,13.2-3.6,1.8-6,5.1-10.2,5.8-8.6,1.5-16.1,0-21.9-6.7-5.6,2.4-7.2,3.8-13.1,1.1-13.3-6.1-3.6-25.4,9.2-18.2,2.4-1.5,1.1-4,1.7-6.3,2.4-9.7,16.1-9.6,24.4-8.7,6.2.6,11.3,8,11.5,14h0l-.1.1Z" fill="#fff"/>
  <path d="M406,259.9c-.9,4-6.4,6.4-7.6,9.9-.8,2.5-.7,8.8-.4,11.5.5,4.2,4.6,9.5,8,12,1.4,1,3.9.9,4,2.5-10.9,2.8-21.6,1.4-27.2-9.3-2.5-4.8-3.1-13.5.6-17.7,1.1-1.2,6.3-5.2,7.9-6.1,4.7-2.8,9.4-3.2,14.7-2.8h0Z" fill="#fff"/>
  <path d="M104.2,508.1c2.6-2.9,11.2-3,14.5-1.5,4.1,1.9,4,5.9,5.2,6.8,2.1,1.5,7.4-1.2,11.1,2.9,5.6,6.2-.9,13.8-8.6,13.6-1.3,0-2.9-1.1-3.8-.9-1.1.2-3.6,2.8-5.6,3.4-7.8,2.3-8.4-4.1-13.5-3.5-4.4.5-5.4,1.7-10.3-.8-9-4.7-1.5-19.5,8.1-15.3,2-.7,1.8-3.5,2.9-4.7h0Z" fill="#fff"/>
  <path d="M185,270.9c-.5-3.2,7.1-6,9.3-5.8,8,.7,9.8,7.9,6.9,14.5-1.9,4.2-13.3,15.6-17.7,15.3-4.9-.4-14.5-10-16.8-14.3-7.5-14.4,8-20.9,16.7-9.7h1.6Z" fill="#fff"/>
  <path d="M452,322.9c1.2,4.4-5,4.9-5.9,7.6-1,3.2,1.2,6.1.9,9.4l-9.3-3.9c-3.3,1.5-5.6,4.6-9.7,3.9l2.9-9.3c-.7-2.4-7.3-3.9-6.9-7.6,2.5-.8,7.1-.5,9-1.5,3.1-1.5,3.8-14.1,8.9,0l10.1,1.4h0Z" fill="#fff"/>
  <path d="M68,522.9c.7,3.1-4.3,3.8-4.9,5.6l.9,8.4-7.5-4.1-7.5,3.1c.4-2.5,1.7-4.6.8-7.3-.6-2-4.3-3-3.8-5.7l7.9-1.2,2.1-5.9c3.4-.5,3.1,4.1,5,5.5,1.6,1.1,5,1.5,7,1.5h0v.1Z" fill="#fff"/>
  <path d="M447,274.9l-.6,2c-2.6.7-5.2,2.1-5.4,5h-2c-.2-4-4.8-4.1-7-6.5,2.9-1.4,6.6-2.8,7-6.5,3.6,0,3.7,5.9,8,6h0Z" fill="#fff"/>
  <path d="M217,671.9c5.9-2.2,17.2-1.1,18,6.6.5,4.9-3.3,5.8-4,9.5,8.8,1.3,9.4,11,2.9,16.4-6.4,5.4-13,4.8-20.9,4.6-1.3-6.5,8.6-12.7,6.9-18.4-1.4-4.4-8.1,2.4-10.9,1.4-.5-4.9.6-16.3-7-12.5-2.8,1.4-2.6,11.2-3,14.5-1.4,1.4-11.4-6.6-13.9-1.4-1.3,4.6,9.3,12.1,7.9,18.4-15.6,2.7-35.6-15.8-15.4-26,0-7.6,3.9-11.9,11.3-13.2,1.5-5.3,1.3-8.8,6.2-12.3,10.3-7.4,21.6.9,22,12.5h-.1v-.1Z" fill="#fff"/>
  <path d="M194.5,733.9c-4-1,1.1-12,1.4-14.5.9-6.5-.6-12.5-3.8-18.2-.7-1.3-6.2-7.4-5.2-8.3,4.4-1.5,8.3,5.4,12,3.5s1-13,5.5-15.5c3,2.2,1.6,12.3,3.4,13.5,3.5,2.4,6.6-3.1,10.1-2.5-4.4,8.4-9.9,16.5-8.9,26.4.3,3.5,3.2,10.4,3,13.1,0,.9-1,2.5-1.6,2.5h-16,.1Z" fill="#fff"/>
  <path d="M131,610.9c-.7,6.4-3.6,13.1-4,19.5-.5,7.2,1.9,13.8,4,20.5-9.5.5-19.2-.4-27.7-4.8-3-1.5-5.4-4.4-8.8-5.2-2.1,0-10.7,10.3-15,6.1-2.3-3.4,3.7-11.3,6.5-13.5-4.3-3.9-7.9-7.3-4.9-13.4,5.5-1.2,9.7,2.3,13.4,5.9h1c8.3-10.8,21.6-16.4,35.5-15h0v-.1Z" fill="#fff"/>
  <path d="M156.9,637.7c-5,1.7-7.4-2.5-11.9-2.8-.3,2.4,2.8,4.4,4.7,4.8,2.4.6,5-1,4.3,2.2-6.8,3-13,8.1-20.9,8-2.9-7.6-3.7-15.3-3-23.4.4-4.8,2.7-9.7,2.9-14.5,1.3-1.6,11.7,2.7,13.7,3.8,8.3,4.4,16.5,12.5,10.1,22.1h0v-.2h.1ZM146.9,628.8c2.7-4.9-1.9-6.7-5.8-4.8v4.9h5.8v-.1Z" fill="#fff"/>
  <path d="M110,709.9c3.4,3.8,2.7-15.8,14.3-14.9l2.2,1.9c3.3,6.6-7.1,17.8-12.8,20.2-10.8,4.5-26-2-30.9-12.5-2-4.3-2.9-10.2,3.7-9.7,3.5.2,7.4,5.2,9,8.1.5.8,4.5,12.4,6.6,9.9-.5-4.5-2.8-19,.9-21.5,7.7-5.2,7.7,14.8,7.1,18.5h-.1Z" fill="#fff"/>
  <path d="M434,703.9l.5,10c-2.1,1.9-5.3,2.4-8,2-1.7-.3-2.6-2.1-3.8-1.9-3.4.5-3.5,5.2-10,3.7-7.6-1.7-4.1-10.2-4.7-10.8-7.8,3.8-16.8-3.1-11.5-11,1.9-2.8,4.1-2.6,6.5-4.6-6.9-11.8,5.1-19.9,13.5-9.5,1.7-1,2.2-3.3,3.5-4.5,7.9-7,18.4,1.7,11,10,1.3,2.1,3.5,1.1,5.3,1.7,8.9,2.8,6.9,14.7-2.3,14.8h0v.1ZM425.8,690.1c-10-8.3-22.3,7-11.1,13.6,8.8,4.8,17.3-6.8,11.1-13.6Z" fill="#fff"/>
  <path d="M445,724.9c.2,12.6-15.8,20.3-27,20,3.4-11.9,14-21.2,27-20Z" fill="#fff"/>
  <path d="M413,743.9c-9.7,0-17.2-7.2-20.5-16-.6-4.3-3.1-7.5,3.1-7.1,9,.6,17.3,14.6,17.5,23h-.1v.1Z" fill="#fff"/>
  <path d="M420,719.9c-1.4,6.4-1.3,13.1-3,19.5-.4,1.4,0,3.1-2,3.5.4-7.5,1.1-15,2-22.4.1-1.2,2-.4,3-.6h0Z" fill="#fff"/>
  <path d="M479.8,520.1c2.4,2.2,4.7,9.4,4.2,12.8,2.6,0,3.8-2.7,6.5-3,7.8-.8,12.9,5.2,9.6,12.5.1,2.1,6.1,1.1,7.7,2.7,2.9,2.9-.3,5.3-3.3,5.8-6.4.9-15.2-.2-22,0-14.2.5-29.6,2.4-44,1.1-1.5,0-2.9-.5-4.3-1.2l-.8-2.9c2.5-5.9,8.1-5.1,13.6-5-.5-4.2-1.7-7.3,1.5-11,2.9-3.3,7.6-1.1,9.5-2.5,1.4-4.9,2.5-8.3,7.7-10.3,3.6-1.4,11.1-1.8,14,1h.1Z" fill="#fff"/>
  <path d="M515,707.9c2.9,0,3.6-2.9,6.4-4,6.5-2.7,11.1.5,10.6,7.6-.2,2.2-1.5,4.2-1,6.5.6.5,13.7-1.8,7.5,5-1.7,1.8-8.6,4.2-11.2,4.8-11.2,2.2-39.6,2.1-49.6-3-1.2-.6-5.3-4.5-5.6-5.5-1.4-5,7-11.7,12.2-11.2,2.8.3,4.8,3.3,7.7,2.8-3.2-19.5,24.5-22.1,23-3h0Z" fill="#fff"/>
  <path d="M387,643.9c6.4-1.7,16.6,6.5,7.5,10-6.6,2.7-17,1.6-24.1,1.9-11,.5-22.8,1-34,0-2.8-.2-8.3-1.2-8.5-4.5-.6-7.5,9.9-5.2,11.6-7.5l.4-.6c-3.8-10.6,6.9-12,15-9.4.4-8.4,8.4-13.7,15.5-8,3.8,3,1.7,4.3,2.6,7.4,1,3.3,4.1,0,6.4-.4,13.5-2.1,6.6,10.2,7.5,11h.1v.1Z" fill="#fff"/>
  <path d="M292,277.9c0,1.2.5,2.4,1.1,3.4,10,14.8,30.9,21.3,47.7,24.8,4.9,16.5.5,37.9-19.2,40.8-5.1-4.5-10.5-9.3-17.6-10,0-3.2-1.2-7.7-5.1-7.9-.2,2.2,1.8,3.4,2,5.5.8,7.2-8.8,8.4-14.3,7.3-3.7-.8-7-4.4-6.7-8.3.1-1.9,4.1-5.8.5-5.5-2.5,1.3-2.8,6.7-3.7,7.8-.5.6-7.3,2.2-9.2,3.3-4.4,2.5-5.8,7.1-11.9,5.7-16.6-4.9-20.1-23.8-15.6-38.7,13.9-3.4,31.7-8.1,42.4-18.1,2.7-2.5,4.6-6.4,7-9,.8-.9,1-1.4,2.5-1h.1v-.1ZM270,303.9c-5.1,0-10.1-.6-14.7,1.8-2.2,1.2-4.8,3.3-4.3,6.2,2.8.4,2.1-2.3,4.6-3.9,4.7-2.9,9.3-2.3,14.4-1.1v-3h0ZM329,311.9c.5-4.3-4.5-6.8-8-7.5-2-.4-12-1.4-12,1,2.3,3.2,5.8.7,8.3.8,4.2.2,8.5,3.1,11.7,5.7h0ZM256,321.9c-1.8,0-2.1-.5-2,1.5.3,6.8,9.9,9.4,14.6,5.5,1.8-1.5,6.4-8.5.5-7.1l-1.2,4.8c-5,2.5-11.6,1.8-11.8-4.8h-.1v.1ZM312,322.9c-5.4-1.7-1.6,5,0,6.5,3.2,2.9,10.8,2.1,13.5-1.5,1.2-1.6,3.2-5.7-.5-5-1.9,7.2-12.3,8.8-13,0h0Z" fill="#fff"/>
  <path d="M326.8,221.1,304,201.9"/>
  <path d="M125.8,451.1c2.2,2.2.6,7.8-3.8,6.4-7.2-2.3,0-10.3,3.8-6.4Z"/>
  <path d="M85,330.9l1.2,3.8c4.8,2.2,11.6,2.4,12.8-3.8,3.6-.9,1.8,3.8.3,5-4.1,3.5-9.2,3.8-13.7.8-4.9-3.3-2.1-7.8-.7-5.9h0l.1.1Z"/>
  <path d="M114.8,315.1c1.2,1.3,1.3,4,1.2,5.8-3.2.5-2.6-3.1-4-4.5-1.8-1.8-3.9-1.1-5.6.5l-2.4,4c-1.7-6.7,6.4-10.7,10.8-5.8h0Z"/>
  <path d="M78.8,314.1c.5,2.4,3.7,4.8.7,6.8l-1.9-4c-2.1-2-4-2-6.1,0l-2.4,4c-1.1-6.6,4.1-9.3,9.8-6.8h-.1Z"/>
  <path d="M146.9,628.8h-5.9v-4.8c3.9-1.8,8.5,0,5.8,4.8h.1Z"/>
  <path d="M425.8,690.1c6.2,6.8-2.4,18.4-11.1,13.6-11.2-6.7,1.1-22,11.1-13.6ZM423.8,700.7c7.5-11.1-11.5-14.5-10.9-3.3.3,5.3,7,5.4,10.9,3.3Z"/>
  <path d="M256,321.9c.2,6.6,6.8,7.4,11.8,4.8l1.2-4.8c6-1.4,1.3,5.6-.5,7.1-4.7,3.9-14.3,1.3-14.6-5.5,0-2,.2-1.6,2-1.5h.1v-.1Z"/>
  <path d="M312,322.9c.7,8.8,11.1,7.2,13,0,3.7-.7,1.6,3.4.5,5-2.7,3.6-10.2,4.4-13.5,1.5-1.7-1.5-5.4-8.2,0-6.5h0Z"/>
  <path d="M329,311.9c-3.1-2.6-7.5-5.6-11.7-5.7-2.5-.1-6,2.5-8.3-.8,0-2.4,10.1-1.5,12-1,3.4.7,8.4,3.3,8,7.5h0Z"/>
  <path d="M270,303.9v3c-5-1.1-9.7-1.7-14.4,1.1-2.6,1.6-1.8,4.2-4.6,3.9-.6-2.9,2.1-5,4.3-6.2,4.7-2.4,9.6-1.8,14.7-1.8h0Z"/>
  <path d="M504.7,206.1" fill="#fff"/>
  <path d="M321.2,221.6" fill="#fff"/>
  <path d="M423.8,700.7c-3.8,2.1-10.6,2-10.9-3.3-.6-11.3,18.4-7.8,10.9,3.3Z" fill="#fff"/>
  <path d="M503.75,151.2c3.4,3.4,4.3,11.3,2.8,15.8-2.3,6.9-12.9,11.4-19.9,9.8-1.4-.3-2.7-1.9-4.2-1.9s-5.1,3.6-7.5,4.5c-6.1,2.3-13.9,1.7-19.7-1.3-1.9-1-3.4-3.3-5.2-3.8-1.5-.4-4.3,1.5-6.6,1.6-20.3.7-19.4-30.3,2.5-26.1-.4-11,14.3-15,23.3-13.8,2.5.4,9,2.6,11.1,3.9,3.2,1.9,5,8.5,6.2,8.8,5.6-1.4,12.7-2.1,17.1,2.3h0v.2h.1ZM484.05,152.9c0-6.1-5.3-13.4-11.5-14-8.3-.9-21.9-1-24.4,8.7-.6,2.3.7,4.8-1.7,6.3-12.8-7.2-22.5,12.1-9.2,18.2,5.8,2.7,7.5,1.2,13.1-1.1,5.8,6.6,13.4,8.2,21.9,6.7,4.2-.7,6.6-4,10.2-5.8,10,7.1,24.6-.4,22.3-13.2-.5-2.9-2.4-5.6-4.8-7.2-5.6-3.8-10.5-.2-16,1.5h.1v-.1Z"/>
  <path d="M484.05,152.9c5.5-1.7,10.4-5.2,16-1.5,2.4,1.6,4.3,4.3,4.8,7.2,2.3,12.8-12.3,20.4-22.3,13.2-3.6,1.8-6,5.1-10.2,5.8-8.6,1.5-16.1,0-21.9-6.7-5.6,2.4-7.2,3.8-13.1,1.1-13.3-6.1-3.6-25.4,9.2-18.2,2.4-1.5,1.1-4,1.7-6.3,2.4-9.7,16.1-9.6,24.4-8.7,6.2.6,11.3,8,11.5,14h0l-.1.1Z" fill="#fff"/>
  <path d="M315.08,143.52c3.4,3.4,4.3,11.3,2.8,15.8-2.3,6.9-12.9,11.4-19.9,9.8-1.4-.3-2.7-1.9-4.2-1.9s-5.1,3.6-7.5,4.5c-6.1,2.3-13.9,1.7-19.7-1.3-1.9-1-3.4-3.3-5.2-3.8-1.5-.4-4.3,1.5-6.6,1.6-20.3.7-19.4-30.3,2.5-26.1-.4-11,14.3-15,23.3-13.8,2.5.4,9,2.6,11.1,3.9,3.2,1.9,5,8.5,6.2,8.8,5.6-1.4,12.7-2.1,17.1,2.3h0v.2h.1ZM295.38,145.22c0-6.1-5.3-13.4-11.5-14-8.3-.9-21.9-1-24.4,8.7-.6,2.3.7,4.8-1.7,6.3-12.8-7.2-22.5,12.1-9.2,18.2,5.8,2.7,7.5,1.2,13.1-1.1,5.8,6.6,13.4,8.2,21.9,6.7,4.2-.7,6.6-4,10.2-5.8,10,7.1,24.6-.4,22.3-13.2-.5-2.9-2.4-5.6-4.8-7.2-5.6-3.8-10.5-.2-16,1.5h.1v-.1Z"/>
  <path d="M295.38,145.22c5.5-1.7,10.4-5.2,16-1.5,2.4,1.6,4.3,4.3,4.8,7.2,2.3,12.8-12.3,20.4-22.3,13.2-3.6,1.8-6,5.1-10.2,5.8-8.6,1.5-16.1,0-21.9-6.7-5.6,2.4-7.2,3.8-13.1,1.1-13.3-6.1-3.6-25.4,9.2-18.2,2.4-1.5,1.1-4,1.7-6.3,2.4-9.7,16.1-9.6,24.4-8.7,6.2.6,11.3,8,11.5,14h0l-.1.1Z" fill="#fff"/>
  <path d="M154.63,80.52c3.4,3.4,4.3,11.3,2.8,15.8-2.3,6.9-12.9,11.4-19.9,9.8-1.4-.3-2.7-1.9-4.2-1.9s-5.1,3.6-7.5,4.5c-6.1,2.3-13.9,1.7-19.7-1.3-1.9-1-3.4-3.3-5.2-3.8-1.5-.4-4.3,1.5-6.6,1.6-20.3.7-19.4-30.3,2.5-26.1-.4-11,14.3-15,23.3-13.8,2.5.4,9,2.6,11.1,3.9,3.2,1.9,5,8.5,6.2,8.8,5.6-1.4,12.7-2.1,17.1,2.3h0v.2h.1ZM134.93,82.22c0-6.1-5.3-13.4-11.5-14-8.3-.9-21.9-1-24.4,8.7-.6,2.3.7,4.8-1.7,6.3-12.8-7.2-22.5,12.1-9.2,18.2,5.8,2.7,7.5,1.2,13.1-1.1,5.8,6.6,13.4,8.2,21.9,6.7,4.2-.7,6.6-4,10.2-5.8,10,7.1,24.6-.4,22.3-13.2-.5-2.9-2.4-5.6-4.8-7.2-5.6-3.8-10.5-.2-16,1.5h.1v-.1Z"/>
  <path d="M134.93,82.22c5.5-1.7,10.4-5.2,16-1.5,2.4,1.6,4.3,4.3,4.8,7.2,2.3,12.8-12.3,20.4-22.3,13.2-3.6,1.8-6,5.1-10.2,5.8-8.6,1.5-16.1,0-21.9-6.7-5.6,2.4-7.2,3.8-13.1,1.1-13.3-6.1-3.6-25.4,9.2-18.2,2.4-1.5,1.1-4,1.7-6.3,2.4-9.7,16.1-9.6,24.4-8.7,6.2.6,11.3,8,11.5,14h0l-.1.1Z" fill="#fff"/>
  <path d="M183.31,199c3.4,3.4,4.3,11.3,2.8,15.8-2.3,6.9-12.9,11.4-19.9,9.8-1.4-.3-2.7-1.9-4.2-1.9s-5.1,3.6-7.5,4.5c-6.1,2.3-13.9,1.7-19.7-1.3-1.9-1-3.4-3.3-5.2-3.8-1.5-.4-4.3,1.5-6.6,1.6-20.3.7-19.4-30.3,2.5-26.1-.4-11,14.3-15,23.3-13.8,2.5.4,9,2.6,11.1,3.9,3.2,1.9,5,8.5,6.2,8.8,5.6-1.4,12.7-2.1,17.1,2.3h0v.2h.1ZM163.61,200.7c0-6.1-5.3-13.4-11.5-14-8.3-.9-21.9-1-24.4,8.7-.6,2.3.7,4.8-1.7,6.3-12.8-7.2-22.5,12.1-9.2,18.2,5.8,2.7,7.5,1.2,13.1-1.1,5.8,6.6,13.4,8.2,21.9,6.7,4.2-.7,6.6-4,10.2-5.8,10,7.1,24.6-.4,22.3-13.2-.5-2.9-2.4-5.6-4.8-7.2-5.6-3.8-10.5-.2-16,1.5h.1v-.1Z"/>
  <path d="M163.61,200.7c5.5-1.7,10.4-5.2,16-1.5,2.4,1.6,4.3,4.3,4.8,7.2,2.3,12.8-12.3,20.4-22.3,13.2-3.6,1.8-6,5.1-10.2,5.8-8.6,1.5-16.1,0-21.9-6.7-5.6,2.4-7.2,3.8-13.1,1.1-13.3-6.1-3.6-25.4,9.2-18.2,2.4-1.5,1.1-4,1.7-6.3,2.4-9.7,16.1-9.6,24.4-8.7,6.2.6,11.3,8,11.5,14h0l-.1.1Z" fill="#fff"/>
  <path d="M399.8,66.74c3.4,3.4,4.3,11.3,2.8,15.8-2.3,6.9-12.9,11.4-19.9,9.8-1.4-.3-2.7-1.9-4.2-1.9s-5.1,3.6-7.5,4.5c-6.1,2.3-13.9,1.7-19.7-1.3-1.9-1-3.4-3.3-5.2-3.8-1.5-.4-4.3,1.5-6.6,1.6-20.3.7-19.4-30.3,2.5-26.1-.4-11,14.3-15,23.3-13.8,2.5.4,9,2.6,11.1,3.9,3.2,1.9,5,8.5,6.2,8.8,5.6-1.4,12.7-2.1,17.1,2.3h0v.2h.1ZM380.1,68.44c0-6.1-5.3-13.4-11.5-14-8.3-.9-21.9-1-24.4,8.7-.6,2.3.7,4.8-1.7,6.3-12.8-7.2-22.5,12.1-9.2,18.2,5.8,2.7,7.5,1.2,13.1-1.1,5.8,6.6,13.4,8.2,21.9,6.7,4.2-.7,6.6-4,10.2-5.8,10,7.1,24.6-.4,22.3-13.2-.5-2.9-2.4-5.6-4.8-7.2-5.6-3.8-10.5-.2-16,1.5h.1v-.1Z"/>
  <path d="M380.1,68.44c5.5-1.7,10.4-5.2,16-1.5,2.4,1.6,4.3,4.3,4.8,7.2,2.3,12.8-12.3,20.4-22.3,13.2-3.6,1.8-6,5.1-10.2,5.8-8.6,1.5-16.1,0-21.9-6.7-5.6,2.4-7.2,3.8-13.1,1.1-13.3-6.1-3.6-25.4,9.2-18.2,2.4-1.5,1.1-4,1.7-6.3,2.4-9.7,16.1-9.6,24.4-8.7,6.2.6,11.3,8,11.5,14h0l-.1.1Z" fill="#fff"/>
</svg>