<?xml version="1.0" encoding="UTF-8"?>
<svg id="Camada_1" xmlns="http://www.w3.org/2000/svg" version="1.1" viewBox="0 0 595.28 841.89">
  <!-- Generator: Adobe Illustrator 29.0.0, SVG Export Plug-In . SVG Version: 2.1.0 Build 186)  -->
  <rect x=".14" y="841.29" width="595" height=".66" fill="#fff"/>
  <path d="M531.12,497.7c.63-2.92,1.17-4.91,1.52-5.17,11.06,3.4,21.56,5.48,32.94,5.26,1.82-.04,3.67-.13,5.54-.29,5.63-.47,10.94-2.5,16.46-3.27.96,4.46,2.58,8.88,2.98,13.46,2.07,24.23-1.59,51.4-.03,75.93l-70.73-15.74c1.43-13.26,2.67-26.66,4.96-39.8.19-1.11,1.2-1,1.29-1.49.57-3.13,3.2-20.14,5.07-28.89Z" fill="#fff"/>
  <path d="M590.54,386.44v42.72c-8.24-3.46-5.86-11.02-6.53-18.77-.35-4.14-.22-3.29,0-7.15.36-6.22.36-12.55.61-18.77l5.92,1.97Z" fill="#fff"/>
  <path d="M542.86,375.27c-1.99.47-.33-4.95.12-5.3,15.93-3.58,32.78.12,47.44,6.72l-.2,6.45c-14.77-6.44-31.24-9.75-47.36-7.87Z" fill="#fff"/>
  <polygon points="580.35 415.36 581.33 423.9 576.02 420.89 580.35 415.36" fill="#fff"/>
  <path d="M574.1,423.26c-5.32,6.44-17.89,11.9-22.35,1.62,8.09,1.74,14.97-1.5,22.35-1.62Z" fill="#fff"/>
  <path d="M567.75,395.56c-3.26,1.17-3.61-3.25-2.03-5.01,2.87-3.18,5.66,3.7,2.03,5.01Z"/>
  <path d="M575.4,385.46c-.49,2.91-9.55-3.43-11.82-1.66l.11-2.51c2.29-2.31,12.13,1.63,11.71,4.17Z"/>
  <path d="M563.38,411.23c-7.7,8.36-33.24-12.83.21-2.77,1.07.7.43,2.08-.21,2.77Z" fill="#fff"/>
  <path d="M562.13,156.56c6.06-1,3.79,7.76,1.99,11.2-1.18,2.26-12.1,14.99-14.36,17.2-5.82,5.71-8.09,8.45-12.19-.96,3.8-4.19,8.22-8.24,11.8-12.58,2.95-3.57,8.82-14.22,12.76-14.86Z" fill="#fff"/>
  <path d="M556.69,688.79c-4.49-1.34,4.3-12.83,8.2-11.82l-.34,2.6c-1.63.65-7.28,9.39-7.86,9.22Z"/>
  <path d="M537.27,168.34c3.88-5.07,11.93-22.17,18.9-19.36l2.68,5.3-24.88,28.11-5.88-3.99c.01-.68,8.07-8.61,9.18-10.06Z" fill="#fff"/>
  <path d="M546.91,391.62c-2.21-.95-1.55-5.24.54-5.61,4.24-.76,4.19,7.64-.54,5.61Z"/>
  <path d="M545.11,786.67c.23-9.09-17.94-9.28-18.36-1.53-.3,5.54,15.08,3.88,18.36,1.53ZM549.12,786.35c-4.21,8.45-32.82,7.55-24.89-4.45,5.71-8.63,19.66-7.29,23.85,2.61.13.29,1.47.16,1.04,1.84Z"/>
  <path d="M556.62,469.86c-9.68,14.59-16.34-9.81-15.39-17.69,1.72.91.9,5.28,3.95,3.6l-5.25-13.14c3.25.3,7,15.44,10.5,12.16,1.02-.96-7.1-12.96-7.9-14.78,2.58-.44,4.22,3.64,5.52,5.34,1.84,2.39,2.89,4.49,4.68,6.8,3.74-2.22-4.16-11.25-3.61-11.81,8.72,5.29,13.23,20.89,7.5,29.52Z" fill="#fff"/>
  <path d="M518.78,469.73c2.28-11.43,7.61-27.33,12.42-36.31,1.32-2.46,2.59-4.4,3.76-5.59,2.83-2.9,8.51-6.24,12.66-5.02,1.98.59,1.79,8.76,9.22,10.13,9.26,1.72,13.9-2.89,20.76-7.59l12.59,7.77-.71,56.45c-8.34,5.03-21.16,4.83-29.64-.7-3.9-2.55-6.88-6.23-8.08-11.04,5.32-2.05,9.04-7.51,11.47-12.43l22.04,7.8c1.62-1.38-6.7-4.89-7.88-4.61-.66-.89,6.66-19.35,2.31-18.39-1.42.31-3.39,14.17-5.02,16.36-15.61-.73-10.57-14.48-18.34-23.92-6.98-8.49-14.64-10.8-20.81-.46-3.23,5.42-3.08,10.44-3.95,15.11-.29,1.56-.7,3.08-1.38,4.56-1.3,2.82-7.83,6.17-8.64,8.4l-2.78-.52Z" fill="#fff"/>
  <path d="M546.83,366.09c-.94-.07-1.98.44-1.65-1,12.41-15.67,41.24-12.93,45.35,8.2-11.05-4.34-22.53-7.39-34.48-7.91-3.24-.14-6.63.89-9.22.71Z" fill="#fff"/>
  <path d="M535.97,490.28c6.23-3.06,6.41-9.66,9.21-15.11.83-.33,2.41,2.92,2.91,3.67,2.13,3.24,3.44,7,6.26,9.83l4.08,2.5,7.12,4.38-29.58-5.27Z" fill="#fff"/>
  <path d="M555.65,380.28c.46,3.32-8.83.83-11.13,2.21-1.03-5.01,10.73-5.06,11.13-2.21Z"/>
  <path d="M545.11,786.67c-3.28,2.35-18.66,4.01-18.36-1.53.42-7.75,18.59-7.56,18.36,1.53Z" fill="#fff"/>
  <path d="M567.75,395.56c3.63-1.31.84-8.19-2.03-5.01-1.58,1.76-1.23,6.18,2.03,5.01ZM563.58,383.8c2.27-1.77,11.33,4.57,11.82,1.66.42-2.54-9.42-6.48-11.71-4.17l-.11,2.51ZM546.91,391.62c4.73,2.03,4.78-6.37.54-5.61-2.09.37-2.75,4.66-.54,5.61ZM555.65,380.28c-.4-2.85-12.16-2.8-11.13,2.21,2.3-1.38,11.59,1.11,11.13-2.21ZM541.24,400.24c-1.76-1.09-.06-19.76,1.96-22.02,12.43-1.3,24.96.28,36.72,4.36.07,6.09.92,13.27-2.53,18.65-7.07,11.02-13.45-4.17-23.02-2.31l5.26-11.82c-3.13-2.89-7.55,10.02-8.58,10.81-1.92,1.48-7.29.86-9.81,2.33Z" fill="#fff"/>
  <path d="M535.31,408.13l7.24,11.49-5.59,2.98c-1.05.52-1.65-2.8-1.65-2.97v-11.5Z" fill="#fff"/>
  <path d="M541.23,672.37c2.09-2.16,9.88,6.6,9.53,9.19l5.7-11.7,2.54.18c1.78,1.26-1.71,4.16-2.32,5.61-1.09,2.63-3.02,10.44-3.99,11.79-2.35,3.29-2.82.53-3.88-.97-1.76-2.48-1.64-4.98-3.21-7.63-1.73-2.92-4.95-3.33-4.37-6.47Z"/>
  <path d="M550.43,454.79c-3.5,3.28-7.25-11.86-10.5-12.16l5.25,13.14c-3.05,1.68-2.23-2.69-3.95-3.6-.95,7.88,5.71,32.28,15.39,17.69,5.73-8.63,1.22-24.23-7.5-29.52-.55.56,7.35,9.59,3.61,11.81-1.79-2.31-2.84-4.41-4.68-6.8-1.3-1.7-2.94-5.78-5.52-5.34.8,1.82,8.92,13.82,7.9,14.78ZM531.58,457.29c.87-4.67.72-9.69,3.95-15.11,6.17-10.34,13.83-8.03,20.81.46,7.77,9.44,2.73,23.19,18.34,23.92,1.63-2.19,3.6-16.05,5.02-16.36,4.35-.96-2.97,17.5-2.31,18.39,1.18-.28,9.5,3.23,7.88,4.61l-22.04-7.8c-2.43,4.92-6.15,10.38-11.47,12.43,1.2,4.81,4.18,8.49,8.08,11.04l-1.41,2.3-4.08-2.5c-2.82-2.83-4.13-6.59-6.26-9.83-.5-.75-2.08-4-2.91-3.67l-1.99-1.32c-1.15-4.28-4.05-9.06-4.59-13.47-.47-3.76,0-9.15,0-13.14,0-.1-.98-1.13-1.31-.99-1.22,2.95-2.66,7.12-3.45,11.31l-2.26-.27Z"/>
  <path d="M533.84,457.56c.79-4.19,2.23-8.36,3.45-11.31.33-.14,1.31.89,1.31.99,0,3.99-.47,9.38,0,13.14.54,4.41,3.44,9.19,4.59,13.47-9.89.15-10.86-8.14-9.35-16.29Z" fill="#fff"/>
  <path d="M562.13,156.56c-3.94.64-9.81,11.29-12.76,14.86-3.58,4.34-8,8.39-11.8,12.58,4.1,9.41,6.37,6.67,12.19.96,2.26-2.21,13.18-14.94,14.36-17.2,1.8-3.44,4.07-12.2-1.99-11.2ZM556.17,148.98c-6.97-2.81-15.02,14.29-18.9,19.36-1.11,1.45-9.17,9.38-9.18,10.06l5.88,3.99,24.88-28.11-2.68-5.3ZM503.31,177.96c8.91-5.04,26.16-29.29,35.64-29.49,2.5-.05,5.16,2,5.8,1.91,1.28-.18,4.41-5.4,9.96-5.23,7.56.21,6.41,5.39,8.37,7.13.78.69,2.76.13,4.37,1.87,4.79,5.19-.3,12.56.16,14.33.71,2.69,6.04,2.55,4.48,11.08-2.46,13.43-24.21,34.64-35.27,42.42-3.18,2.24-14.49,7.57-15.79,8.86l-2.59-1.38c.14-.16.28-.32.42-.46,2.9-3.06,16.36-9.56,21.35-13.49,8.9-6.99,27.76-26.93,27.92-38.53,0-1.36-.05-4.33-1.66-4.78-2.08-.57-11.5,11.94-13.39,14.11-2.96,3.38-8.72,5.48-7.53,10.19-.52.68-1.79.86-2.56.66-.73-.18-7.88-8.91-10.31-10.88-1.88-1.53-10.32-6.27-10.54-7.25-.42-1.92,3.74-2.92,5.62-4.89,2.91-3.04,5.9-7.48,8.47-10.92,1.06-1.42,7.34-8.46,6.97-9.78-10.18-4.19-21.13,12.31-28.27,19.05-1.24,1.17-6.49,5.15-10.07,7.96l-1.55-2.49Z"/>
  <path d="M532.67,421.27c-1.1.22-.58-1.06-.64-1.96h.64v1.96Z" fill="#fff"/>
  <path d="M517.95,421.63c4.26,2.52,8.05,5.63,10.77,10.82l2.48.97c-4.81,8.98-10.14,24.88-12.42,36.31-.27,1.34-.5,2.62-.67,3.82l-2.1-.31,2.15-14.42-.45-.14.83-2.58,7.9-20.73c-2.79-4.95-6.08-8.77-10.33-11.54l1.84-2.2Z"/>
  <path d="M526.77,500.15c.24-1.32-1.04-7.69.49-8.02.34-.06.82.16,1.47.79.16.15.14,2.6-.26,4.61-.31,1.55-.84,2.85-1.7,2.62Z" fill="#fff"/>
  <path d="M527.26,492.13l-.19-1.91h0c7.05-.68,15.13-8.51,13.21-12.41-6.14-2.5-7.88-5.35-10.56-11.17-.52.98-7.49,7.45-8.22,4.24-.04-.2-.02-.41.06-.63.81-2.23,7.34-5.58,8.64-8.4.68-1.48,1.09-3,1.38-4.56l2.26.27c-1.51,8.15-.54,16.44,9.35,16.29l1.99,1.32c-2.8,5.45-2.98,12.05-9.21,15.11l29.58,5.27.03,2.24c-11.38.22-21.88-1.86-32.94-5.26-.35.26-.89,2.25-1.52,5.17l-2.65-.17c.4-2.01.42-4.46.26-4.61-.65-.63-1.13-.85-1.47-.79Z"/>
  <path d="M492.57,355.59c3.57-.34,7.55-.12,12,.78,22.77,4.59,17.66,29.67,20.44,46.96.03.13.97.22,1.05.69.19,1.19.77,3.87,1.42,7.14,1.64,8.22,3.75,20.17,1.24,21.29-2.72-5.19-6.51-8.3-10.77-10.82-4.25-2.52-8.97-4.44-13.54-7.27,11.4-10.69,11.35-25.26,11.09-40-4.38-2.41-9.69-3.5-13.67-6.71-2.08-1.67-5.18-7.21-6.93-6.88-2.14,3.08-5.18,4.86-8.53,6.16-4.3,1.68-9.12,2.56-13.19,4.39l-2.89-.42c4.76-8.32,11.74-14.29,22.28-15.31Z" fill="#fff"/>
  <path d="M522.69,527.86c1.04-5.63,1.89-11.04,2.08-15.57.1-2.11-1.72-18.13-2.28-19.37-1.19-2.63-6.27-1.91-10.84-.89l-.43-2.22c2.11-.4,3.71-.93,4.58-1.61l1.06-.86-.67-1.75,2.47-.95c1.66,4.52,4.91,5.93,8.41,5.58l.19,1.91c-1.53.33-.25,6.7-.49,8.02.86.23,1.39-1.07,1.7-2.62l2.65.17c-1.87,8.75-4.5,25.76-5.07,28.89-.09.49-1.1.38-1.29,1.49l-2.07-.22Z"/>
  <path d="M518.11,473.55c.17-1.2.4-2.48.67-3.82l2.78.52c-.08.22-.1.43-.06.63.73,3.21,7.7-3.26,8.22-4.24,2.68,5.82,4.42,8.67,10.56,11.17,1.92,3.9-6.16,11.73-13.21,12.4h0c-3.5.36-6.75-1.05-8.41-5.57-.42-1.14-.74-2.48-.93-4.05-.21-1.71-.06-4.14.38-7.04Z" fill="#fff"/>
  <path d="M534.37,623.71c-1.58,3.63-25.48,5.15-25.97-.28-.51-5.53,7.95-8.58,12.29-8.72,5.29-.16,12.85,3.38,13.68,9Z" fill="#fff"/>
  <path d="M467.58,490.42c12.44,3.15,23.78,4.41,37.14,3.14,1.39-.13,4.06-.89,6.93-1.53,4.57-1.02,9.65-1.74,10.84.89.56,1.24,2.38,17.26,2.28,19.37-.19,4.53-1.04,9.94-2.08,15.57-1.51,8.22-3.45,16.91-4.38,23.98-.69,5.23-.67,10.76-1.41,16.01l-35.98-5.03-29.77-4.17.04-.22,11.2-69.4c1.76.5,3.49.97,5.19,1.39Z" fill="#fff"/>
  <path d="M514.93,480.43c-7.88,1.3-15.04-4.01-17.13-11.44,5.77-3.05,7.29-7.89,7.95-14.16l11.96,3.85.45.14-2.15,14.42-1.08,7.19Z" fill="#fff"/>
  <path d="M511.64,452.17c-9.9-.02-6.49-5.25-8.61-11.3-.28-.79-1.67-3.45-3-6.05-1.39-2.72-2.7-5.37-2.57-5.67l3.9-3.64,5.96-5.55c3.34.93,6.24,2.21,8.79,3.87,4.25,2.77,7.54,6.59,10.33,11.54l-7.9,20.73-3.67-2.39.06-13.38h-3.29v11.84Z" fill="#fff"/>
  <path d="M520.69,614.71c-4.34.14-12.8,3.19-12.29,8.72.49,5.43,24.39,3.91,25.97.28-.83-5.62-8.39-9.16-13.68-9ZM538,625.41c-2.92,4.47-31.29,7.72-32.91-1.4,2.59-15.32,22.87-16.41,31.15-4.49,1.14,1.63,3.66,2.97,1.76,5.89Z"/>
  <path d="M490.45,731.52c10.44,3.17,22.65,2.77,33-.71-2.96-10.64-14.73-15.29-24.75-10.59-2.35,1.11-11.81,8.85-8.25,11.3ZM512.61,736.76c-8.88.79-35.4,1.18-22.99-13.78,9.16-11.05,30.07-10.14,36.26,3.49,3.99,8.78-6.65,9.7-13.27,10.29Z"/>
  <path d="M498.7,720.22c10.02-4.7,21.79-.05,24.75,10.59-10.35,3.48-22.56,3.88-33,.71-3.56-2.45,5.9-10.19,8.25-11.3Z" fill="#fff"/>
  <path d="M506.48,386.73c.06.44-.48,2.53-.76,2.82-4.03,4.13-11.48-4.37-.48-4.8l1.24,1.98Z"/>
  <path d="M478.77,379.2l8.89.68,1.62-1.64c-1.19-4.73-11.99-.64-10.51.96ZM497.85,378.88c1.37,2.51,3.49.43,5.54.98,1.13.3,4.53,3.9,4.96,1.63.7-3.69-6.11-4.92-8.73-4.11-.79.25-1.25.93-1.77,1.5ZM494.41,414.45c-10.26,1.08-21.2-7.35-21.57-20.49-.07-2.52,2.29-19.46,3.58-20.71l10.74-4.39,8.28-3.38c4.47,5.06,9.88,8.01,16.08,10.55-.02,9.35,1.43,18.34-2.6,27.07-3.35,7.25-8.82,10.76-14.51,11.35ZM493.23,395.65l-3.94-.68c-.13-.93,1.65-1.99,1.72-2.2.54-1.58,3.25-9.18-.73-8.32-.9.19-3.38,9.92-3.64,11.53.4,2.57,7.57,3.73,6.59-.33ZM491.57,404.22c-2.21.17-8.36-3.15-8.21-1.01.41,5.88,18.38,3.24,14.47-.99-.6-.65-4.72,1.89-6.26,2ZM505.72,389.55c.28-.29.82-2.38.76-2.82l-1.24-1.98c-11,.43-3.55,8.93.48,4.8ZM483.85,389.55c.29-.29.83-2.38.77-2.82l-1.25-1.98c-11,.43-3.55,8.93.48,4.8Z" fill="#fff"/>
  <path d="M481.5,419.52c2.05-5.26,4.89-2.03,8.09-2.16.83-.03,2.83-.26,5.05-.48,3.68-.36,7.94-.7,8.35-.1-.16,2.99-1.41,5.34-3.24,7-5.22,4.73-15.19,3.76-18.25-4.26Z" fill="#fff"/>
  <path d="M485.93,184.9c1.16-6.81-1.55-21.77,8.25-21.7.13,0,.25,0,.39.01,6.31,1.94,2.93,18.06,3.42,22.27.42,3.64,3.35,7.13,3.63,12.64.11,2.03-2.66,8.82.48,8.9,5.12.13,2.31-15.46,1.35-18.48-.47-1.47-3.59-2.46-2.03-5.21.15-.26,1.57-1.41,3.44-2.88,3.58-2.81,8.83-6.79,10.07-7.96,7.14-6.74,18.09-23.24,28.27-19.05.37,1.32-5.91,8.36-6.97,9.78-2.57,3.44-5.56,7.88-8.47,10.92-1.88,1.97-6.04,2.97-5.62,4.89.22.98,8.66,5.72,10.54,7.25,2.43,1.97,9.58,10.7,10.31,10.88.77.2,2.04.02,2.56-.66-1.19-4.71,4.57-6.81,7.53-10.19,1.89-2.17,11.31-14.68,13.39-14.11,1.61.45,1.67,3.42,1.66,4.78-.16,11.6-19.02,31.54-27.92,38.53-4.99,3.93-18.45,10.43-21.35,13.49-.14.14-.28.3-.42.46-4.4,5.08-10.79,19.13-15.12,25.33-4.38,6.27-9.13,12.41-14.21,18.37-22.36,26.2-51.05,48.91-81.8,64.43-6.99,3.52-14.09,6.67-21.24,9.41-.94-22.65-7.65-44.01-16.44-64.41.3-.06.59-.12.89-.19,28.12-5.88,53.64-20.23,76.36-37.28,5.99-4.5,32.81-25.89,35.81-30.55,2.25-3.48-.88-8.45-.55-13.74.31-4.88,2.94-10.91,3.79-15.93Z" fill="#fff"/>
  <path d="M499.62,377.38c2.62-.81,9.43.42,8.73,4.11-.43,2.27-3.83-1.33-4.96-1.63-2.05-.55-4.17,1.53-5.54-.98.52-.57.98-1.25,1.77-1.5Z"/>
  <path d="M504.57,356.37c-4.45-.9-8.43-1.12-12-.78l-.31-2.85c3.5-.36,7.36-.26,11.65.35,27.28,3.88,21.7,36.23,26,57.6l-2.43.47c-.65-3.27-1.23-5.95-1.42-7.14-.08-.47-1.02-.56-1.05-.69-2.78-17.29,2.33-42.37-20.44-46.96Z"/>
  <path d="M486.37,366.93c3.35-1.3,6.39-3.08,8.53-6.16,1.75-.33,4.85,5.21,6.93,6.88,3.98,3.21,9.29,4.3,13.67,6.71.26,14.74.31,29.31-11.09,40,4.57,2.83,9.29,4.75,13.54,7.27l-1.84,2.2c-2.55-1.66-5.45-2.94-8.79-3.87l-5.96,5.55-1.61-1.73c1.83-1.66,3.08-4.01,3.24-7-.41-.6-4.67-.26-8.35.1l-.23-2.43c5.69-.59,11.16-4.1,14.51-11.35,4.03-8.73,2.58-17.72,2.6-27.07-6.2-2.54-11.61-5.49-16.08-10.55l-8.28,3.38-.79-1.93Z"/>
  <path d="M494.24,160.29c7.69.63,7.77,12.01,7.54,17.78l1.53-.11,1.55,2.49c-1.87,1.47-3.29,2.62-3.44,2.88-1.56,2.75,1.56,3.74,2.03,5.21.96,3.02,3.77,18.61-1.35,18.48-3.14-.08-.37-6.87-.48-8.9-.28-5.51-3.21-9-3.63-12.64-.49-4.21,2.89-20.33-3.42-22.27-.14-.01-.26-.01-.39-.01l.06-2.91Z"/>
  <path d="M498.29,465.1c-2.62,2.08-8.35-4.9-8.95-7.38-.59-2.47-.69-5.26-.69-8.13,0-4.28.22-8.74-.67-12.54,3.6,2.27,3.61,5.11,4.58,8.89,1.55,1.16,1.87-1.16,1.86-1.98-.05-4.37-3.23-8.92-5.79-12.16,3.46-2.87,7.35,11.22,8.22,13.13.9,1.25,1.6-.14,1.67-.98.33-3.63-3.62-11.15-5.95-14.12,1.84.93,3.48,2.97,4.84,5.63,4.66,9.14,6.01,25.57.88,29.64Z" fill="#fff"/>
  <path d="M482.54,185.46c1.39-8.24-1.42-26.25,11.7-25.17l-.06,2.91c-9.8-.07-7.09,14.89-8.25,21.7-.85,5.02-3.48,11.05-3.79,15.93-.33,5.29,2.8,10.26.55,13.74-3,4.66-29.82,26.05-35.81,30.55-22.72,17.05-48.24,31.4-76.36,37.28l-.55-2.56c5.92-1.79,10.06-5.55,9.56-14.71-.41-7.54-6.22-10.01-6.66-13.76-.51-4.4,3.31-11.55,3.31-16.47l2.7.05c-.18,5.71-2.28,13.55-1.89,16.28.23,1.55,3.14,4.55,3.94,6.58,2.7,6.83,2.3,12.16-.45,18.87,39-11.26,70.37-38,99.96-64.44-5.33-10.15.45-17.03,2.1-26.78Z"/>
  <path d="M489.11,273.16c5.08-5.96,9.83-12.1,14.21-18.37,4.33-6.2,10.72-20.25,15.12-25.33l2.59,1.38c-1.57,1.55-5.06,10.48-6.75,13.12-6.97,10.89-14.63,21.28-22.96,31.07l-2.21-1.87Z"/>
  <path d="M497.83,402.22c3.91,4.23-14.06,6.87-14.47.99-.15-2.14,6,1.18,8.21,1.01,1.54-.11,5.66-2.65,6.26-2Z"/>
  <path d="M486.64,395.98c.26-1.61,2.74-11.34,3.64-11.53,3.98-.86,1.27,6.74.73,8.32-.07.21-1.85,1.27-1.72,2.2l3.94.68c.98,4.06-6.19,2.9-6.59.33Z"/>
  <path d="M476.8,475.19c5.69-1.82,7.47-8.22,10.84-12.49,4.88,3.66,8.87,8.25,10.19,14.44h-16.76c-.24,0-5.09-.51-4.27-1.95Z" fill="#fff"/>
  <path d="M484.62,386.73c.06.44-.48,2.53-.77,2.82-4.03,4.13-11.48-4.37-.48-4.8l1.25,1.98Z"/>
  <path d="M475.76,446.79c2.17-6.94,6.51-13.78,10.24-16.31l-4.63,13.46,1,.99,2.96-3.28c.19,1.32.46,4.43.49,7.96.08,8.42-1.21,19.18-8.31,13.35-3.91-3.22-3.76-9.73-1.75-16.17Z" fill="#fff"/>
  <path d="M479.05,422.31c1.95,1.81,3.15,4.25,4.98,6.18-1.7.63-5.21,4.7-6.06,6.1-1.27,2.09-3.1,7.71-4.36,11.51-.66,1.99-1.16,3.48-1.35,3.69-.6.71-2.99.71-4.01,1.06l.65-11.83c-6.01-.89-2.66,9.19-4.54,12.05-1.28,1.95-10.92,2.34-9.26,6.02l15.78-3.61c-.35,5.84,3.28,11.79,8.74,13.8l.48,1.64c-8.46,10.37-30.88,14.19-32.81-3.35-1.63-14.88,10.05-34.5,23.84-42.71,1.85-1.1,3.74-1.99,5.63-2.64,1.25-.21,1.55,1.4,2.29,2.09Z" fill="#fff"/>
  <path d="M478.77,379.2c-1.48-1.6,9.32-5.69,10.51-.96l-1.62,1.64-8.89-.68Z"/>
  <path d="M474.55,408.07c2.27,2.81,4.85,3.6,6.82,6.24l-11.37,6.61-9.63,5.61c-.15-.12-.29-.29-.41-.52-1.9-3.68.57-20.98,1.16-24.68,1.69-10.73,4.25-21.83,9.17-30.43l2.89.42c-1.69,11.5-6.8,26.66,1.37,36.75Z" fill="#fff"/>
  <path d="M464.3,480.75c7.51-3.61,14.31-.67,22-.3,4.44.22,10.89-1.08,14.43-.65,3.94.47,9.22,5.89,14.77,4l.69,1.79.67,1.75-1.06.86c-.87.68-2.47,1.21-4.58,1.61-10.28,1.95-32.79.79-43.02-1.82-3.04-.78-5-1.68-5.22-2.67-.02-.09.04-.44.15-.92.27-1.25.85-3.34,1.17-3.65Z" fill="#fff"/>
  <path d="M486,430.48c-3.73,2.53-8.07,9.37-10.24,16.31l-2.15-.69c1.26-3.8,3.09-9.42,4.36-11.51.85-1.4,4.36-5.47,6.06-6.1-1.83-1.93-3.03-4.37-4.98-6.18-.74-.69-1.04-2.3-2.29-2.09-1.89.65-3.78,1.54-5.63,2.64l-1.13-1.94,11.37-6.61c-1.97-2.64-4.55-3.43-6.82-6.24-8.17-10.09-3.06-25.25-1.37-36.75,4.07-1.83,8.89-2.71,13.19-4.39l.79,1.93-10.74,4.39c-1.29,1.25-3.65,18.19-3.58,20.71.37,13.14,11.31,21.57,21.57,20.49l.23,2.43c-2.22.22-4.22.45-5.05.48-3.2.13-6.04-3.1-8.09,2.16,3.06,8.02,13.03,8.99,18.25,4.26l1.61,1.73-3.9,3.64c-.13.3,1.18,2.95,2.57,5.67l-2.62.64c-1.36-2.66-3-4.7-4.84-5.63,2.33,2.97,6.28,10.49,5.95,14.12-.07.84-.77,2.23-1.67.98-.87-1.91-4.76-16-8.22-13.13,2.56,3.24,5.74,7.79,5.79,12.16.01.82-.31,3.14-1.86,1.98-.97-3.78-.98-6.62-4.58-8.89.89,3.8.67,8.26.67,12.54l-2.83.02c-.03-3.53-.3-6.64-.49-7.96l-2.96,3.28-1-.99,4.63-13.46Z"/>
  <path d="M504.72,493.56c-13.36,1.27-24.7.01-37.14-3.14l.62-2.43c10.23,2.61,32.74,3.77,43.02,1.82l.43,2.22c-2.87.64-5.54,1.4-6.93,1.53Z"/>
  <path d="M464,590.86c2.11.36,1.77,1.62.74,3.08-.66.93-3.4,2.47-4.65,4.21-2.21,3.05-2.91,7.99-6.96,8.48-1.82-3.77,8.17-15.95,10.87-15.77Z"/>
  <path d="M461.54,644.25c4.94-.5,12.63,2.16,13.92,7.35-.95,2.9-23.11,4.14-23-1.19.45-3.49,6.01-5.85,9.08-6.16Z" fill="#fff"/>
  <path d="M461.54,644.25c-3.07.31-8.63,2.67-9.08,6.16-.11,5.33,22.05,4.09,23,1.19-1.29-5.19-8.98-7.85-13.92-7.35ZM478.05,649.09c3.78,9.89-17.8,8.83-23.12,7.34-10.98-3.06-4.66-13.53,4.63-14.77,6.27-.85,15.89.64,18.49,7.43Z"/>
  <path d="M513.3,300.35c28.73-2.15,55.29,16.28,77.24,32.52v30.56c-9.95-14.92-37.32-14.61-47.61-.6-6.49,8.83-3.4,20.89-5.68,31.01-.7,3.1-5.23,10.04-5.23,14.62v9.53c-.91-2.22-1.58-4.68-2.11-7.3-4.3-21.37,1.28-53.72-26-57.6-4.29-.61-8.15-.71-11.65-.35-24.49,2.46-30.6,26.98-34.52,50.78.42-2.32-1.69-3.91-2.44-5.85-.21-.54-.31-1.11-.22-1.73.23-1.56,1.97-1.2,2.5-3.38,2.31-9.68-3.84-9.45-4.49-11.86-.3-1.1.3-3.39.35-6.04.03-1.16-.04-2.4-.35-3.63-7.62-30.75-51.52-26.04-56.97-1.17-.48,2.17-.01,6.62-.3,7.54-.7,2.23-4.93,2.72-5.76,7.44-1.36,7.72,3.04,8.73,3.3,13.08.12,1.99-.15,4.26-.6,6.66-1.15,6.04-3.45,12.91-3.58,18.17l-7.71,9.7c-.24-.43-.44-.84-.61-1.24-1.78-4.32.51-6.98.63-11.56.31-11.77,1.92-17.42,3.17-28.37,1.61-14.03,3.11-26.73,3.05-41l20.72-10.46,23.22-11.72,38.61,23.13,3.24.37c.34-1.69-.43-1.96-1.35-2.92-2.68-2.8-25.76-14.31-25.59-15.81,17.44-13.52,44.25-30.84,66.74-32.52Z" fill="#fff"/>
  <path d="M459.04,493.57c-1.67,2.62-1.67-5.24,0-2.62.07.12.07,2.51,0,2.62Z" fill="#fff"/>
  <polygon points="454.45 492.26 455.77 503.73 448.53 558 407.77 554.7 404.68 530.68 399.22 488.32 405.66 488.78 450.42 491.97 454.45 492.26" fill="#fff"/>
  <polygon points="453.12 398.27 455.75 419.3 450 416.52 441.36 412.33 446.56 398.27 453.12 398.27" fill="#fff"/>
  <path d="M457.77,426.27c-1.56-2.82-5.51-5.47-9.02-7.17l1.25-2.58,5.75,2.78-2.63-21.03,2.18-.6c.75,1.94,2.86,3.53,2.44,5.85,3.92-23.8,10.03-48.32,34.52-50.78l.31,2.85c-10.54,1.02-17.52,6.99-22.28,15.31-4.92,8.6-7.48,19.7-9.17,30.43-.59,3.7-3.06,21-1.16,24.68l-2.19.26Z"/>
  <path d="M459.04,490.95c-1.67-2.62-1.67,5.24,0,2.62.07-.11.07-2.5,0-2.62ZM454.45,492.26l-4.03-.29.18-2.47c4.84.37,8.98-1.04,10.09-5.53l2.44.43c-.11.48-.17.83-.15.92.22.99,2.18,1.89,5.22,2.67l-.62,2.43c-1.7-.42-3.43-.89-5.19-1.39l-11.2,69.4-2.66-.43,7.24-54.27-1.32-11.47Z"/>
  <path d="M399.21,372.3c.32-10.64,23.56-8.88,31.22-8.19,6.46.58,20.31,2.38,20.31,10.49,0,.62-.08,1.28-.25,1.98-2.61-1.04-5.23-1.92-7.86-2.64-14.17-3.91-28.65-3.46-43.42-1.64Z" fill="#fff"/>
  <path d="M447.87,379.21c.06-.05,1.25-.05,1.31,0,.84.85-2.15.85-1.31,0Z" fill="#fff"/>
  <path d="M447.86,383.15c9.91-.82,7.88,12.55-.65,13.14l.65-13.14Z" fill="#fff"/>
  <path d="M431.5,785.63c1.85-11.79,17.6-14.89,25.33-5.89,11.72,13.64-23.7,10.78-25.33,5.89Z" fill="#fff"/>
  <path d="M456.83,779.74c-7.73-9-23.48-5.9-25.33,5.89,1.63,4.89,37.05,7.75,25.33-5.89ZM428.95,786.92c-1.85-7.61,6.03-14.16,12.84-15.13,17.04-2.42,31.99,18.96,8.41,20.89-4.81.39-19.82.14-21.25-5.76Z"/>
  <path d="M438.01,462.03c.88.32,5.67,1.79,5.82,2.06.52.91-.31,3.01.12,4.03,3.68,8.65,7.67,11.62,17.03,13.34-.01.93-.11,1.76-.29,2.51-1.11,4.49-5.25,5.9-10.09,5.53-7.24-.54-16.08-5.08-18.75-9.24-.25-.39-.46-.76-.64-1.12-1.85-3.75,0-6.07,2.23-8.57,2.05-2.29,4.43-4.72,4.57-8.54Z" fill="#fff"/>
  <path d="M439.97,415.36c-2.68,8.48-19.63,16.26-25.62,6.88l14.63-.46,10.99-6.42Z" fill="#fff"/>
  <path d="M438.63,588.57c.8-4.61,5.2,4.66,5.58,5.3,1.13,1.89,1.94,3.44,2.67,5.53,2.18-.37,2.98-13.74,7.56-11.83-2.75,5.36-2.63,20.18-10.51,18.4,1.47-4.04-5.67-15.23-5.3-17.4Z"/>
  <path d="M497.83,477.14c-1.32-6.19-5.31-10.78-10.19-14.44-3.37,4.27-5.15,10.67-10.84,12.49-.82,1.44,4.03,1.95,4.27,1.95h16.76ZM486.3,480.45c-7.69-.37-14.49-3.31-22,.3-.32.31-.9,2.4-1.17,3.65l-2.44-.43c.18-.75.28-1.58.29-2.51-9.36-1.72-13.35-4.69-17.03-13.34-.43-1.02.4-3.12-.12-4.03-.15-.27-4.94-1.74-5.82-2.06-.14,3.82-2.52,6.25-4.57,8.54l-2.61-.97c3.16-3.26,5.13-9.22,4.35-13.62-.07-.41-.18-.81-.31-1.21l2.59-.31c1.28,3.3,2.94,5.99,6.46,6.25,1.39-6.28,3.25-13.88,6.47-20.16,1.21-2.36,8.01-10.99,8.05-11.7.05-.86-.2-1.73-.67-2.58l2.19-.26c.12.23.26.4.41.52l9.63-5.61,1.13,1.94c-13.79,8.21-25.47,27.83-23.84,42.71,1.93,17.54,24.35,13.72,32.81,3.35l-.48-1.64c-5.46-2.01-9.09-7.96-8.74-13.8l-15.78,3.61c-1.66-3.68,7.98-4.07,9.26-6.02,1.88-2.86-1.47-12.94,4.54-12.05l-.65,11.83c1.02-.35,3.41-.35,4.01-1.06.19-.21.69-1.7,1.35-3.69l2.15.69c-2.01,6.44-2.16,12.95,1.75,16.17,7.1,5.83,8.39-4.93,8.31-13.35l2.83-.02c0,2.87.1,5.66.69,8.13.6,2.48,6.33,9.46,8.95,7.38,5.13-4.07,3.78-20.5-.88-29.64l2.62-.64c1.33,2.6,2.72,5.26,3,6.05,2.12,6.05-1.29,11.28,8.61,11.3v-11.83h3.29s-.06,13.37-.06,13.37l3.67,2.39-.83,2.58-11.96-3.85c-.66,6.27-2.18,11.11-7.95,14.16,2.09,7.43,9.25,12.74,17.13,11.44l1.08-7.19,2.1.31c-.44,2.9-.59,5.33-.38,7.04.19,1.57.51,2.91.93,4.05l-2.47.95-.69-1.79c-5.55,1.89-10.83-3.53-14.77-4-3.54-.43-9.99.87-14.43.65Z"/>
  <path d="M409.95,701.39c3.53,2.49,4.69,5.5,3.35,9.83-4.13,1.48-25.34.22-25.72-4.43-.98-12.03,30.44-26.23,40.53-22.89,4.27,1.41,15.25,13.22,9.25,18.04.96-3.32-7.52-12.71-10.16-11.82-3.81,1.28,5.38,7.51,6.23,9.01,2.9,5.16.97,7.18-3.95,9.1l-1.68-.35c1.07-4.35-5.57-15.43-9.87-15.15-5.57.36,3.7,6.3,4.08,6.79,1.59,2.05,3.19,6.58,2.7,9.18l-1.32,2.01-6.43.44c1.39-6.21-3.67-15.63-10.83-13.8-5.23,1.33,2.7,3.25,3.82,4.04Z" fill="#fff"/>
  <path d="M450.49,86.05c4.5-30.4,59.06-31.37,58.52,2.63,10.66-8.32,24.19-9.34,28.28,5.91,16.24-7.49,35.07,14.77,19.1,26.01l-156.87-.35c-8.91.86-7.67-8.23-5.75-14.33,3.09-9.81,15.8-13.3,24.51-8.7-.06-6.87,7.49-14.07,13.68-15.57,7.54-1.82,12.14.87,18.53,4.4ZM506.79,94.55c-1.89-6.57-.82-11.51-4.71-18-11.68-19.48-50.6-8.75-49.67,15.36-3.49,1.01-4.33-3.2-6.28-4.45-15.07-9.65-22.83,2.63-26.85,15.64-10.08-10.89-25.63-.88-23.26,12.76l159.21,1.61c6.48-5.79,2.13-17.34-5.48-19.9-7.14-2.4-9.32.37-15.73,2.27-1.02-.66.51-9.24-5.06-12.37-10.95-6.15-19.07,8.26-22.17,7.08Z"/>
  <path d="M430.83,469.6c-3,3.1-7.08,3.76-10.89-1.67-.58-.83-1.04-1.7-1.41-2.6-1.98-4.9-1.24-10.77-2.21-15.79,2.09.49,3.24,9.5,5.9,6.57,1.08-1.18-4.24-10.14-5.25-11.82,1.44-1.42,8.05,9.65,7.24,11.16,4.85-1.97-1.82-10.81-3.95-13.8l2.52,1.75c1.57.7,6.69,13.66,7.32,7.84l-5.9-10.24c3.73,1.44,6.34,5.62,8.17,8.92.86,1.54,1.92,3.14,2.5,4.85.13.4.24.8.31,1.21.78,4.4-1.19,10.36-4.35,13.62Z" fill="#fff"/>
  <path d="M429.91,389.63c-2.72-1.34-2.26-6.49,2-5.61,2.79.56,1.24,7.2-2,5.61Z"/>
  <path d="M428.62,376.73c2.47-.63,7.89-.36,8.72,2.79l-10.07.23c-2.32-1.18-.47-2.56,1.35-3.02Z"/>
  <path d="M435.37,487.65c-3.7-1.16-5.25-5.01-6.67-8.14l2.51-.37c.18.36.39.73.64,1.12,2.67,4.16,11.51,8.7,18.75,9.24l-.18,2.47-44.76-3.19.13-1.78,29.58.65Z"/>
  <path d="M403.82,362.45c11.07-13.94,35.46-13.66,43.39,2.95-13.91-5.27-28.88-5.62-43.39-2.95Z" fill="#fff"/>
  <path d="M409.07,401.22c1.65-3.82,4.88.51,7.25,1.31,6.67,2.26,8.39,0,14.45-1.63-2.37,8.95-16.6,6.16-21.7.32Z"/>
  <path d="M405.79,487c2.85-4.06,9.62-15.55,15.14-14.18.31.08,5.49,2.96,5.72,3.19.78.81,1.4,2.08,2.05,3.5,1.42,3.13,2.97,6.98,6.67,8.14l-29.58-.65Z" fill="#fff"/>
  <path d="M405.1,452.09c.79-3.92,1.11-8.44,3.71-11.7,7.21-9.06,18.69-3.32,24.36,4.12,2.07,2.72,3,6.64,4.29,9.95l-2.59.31c-.58-1.71-1.64-3.31-2.5-4.85-1.83-3.3-4.44-7.48-8.17-8.92l5.9,10.24c-.63,5.82-5.75-7.14-7.32-7.84l-2.52-1.75c2.13,2.99,8.8,11.83,3.95,13.8.81-1.51-5.8-12.58-7.24-11.16,1.01,1.68,6.33,10.64,5.25,11.82-2.66,2.93-3.81-6.08-5.9-6.57.97,5.02.23,10.89,2.21,15.79l-2.32.89c-3.36-8.75-5.55-19.28.09-27.2-3.07,1.13-5.82,5.29-6.95,8.15-.52,1.31-1.08,3.16-1.59,5.28l-2.66-.36Z"/>
  <path d="M423.54,396.61c-.21,1.51-8.97,5.42-7.82-5.18.17-1.61,2.89-10.42,4.53-8.28l-1.89,11.39,5.18,2.07Z"/>
  <path d="M409.35,447.17c1.13-2.86,3.88-7.02,6.95-8.15-5.64,7.92-3.45,18.45-.09,27.2.43,1.12.88,2.22,1.34,3.27-13.95,13.4-12.54-5.71-9.79-17.04.51-2.12,1.07-3.97,1.59-5.28Z" fill="#fff"/>
  <path d="M409.08,384.12c3.98-2.08,4.88,4.41,3.18,5.5-3.85,2.48-6.34-3.86-3.18-5.5Z"/>
  <path d="M416.29,378.22l-10.77,2.27c-2.39-1.38.26-3.31,2.06-3.77,1.36-.35,9-.54,8.71,1.5Z"/>
  <path d="M452.41,91.91c-.93-24.11,37.99-34.84,49.67-15.36,3.89,6.49,2.82,11.43,4.71,18,3.1,1.18,11.22-13.23,22.17-7.08,5.57,3.13,4.04,11.71,5.06,12.37,6.41-1.9,8.59-4.67,15.73-2.27,7.61,2.56,11.96,14.11,5.48,19.9l-159.21-1.61c-2.37-13.64,13.18-23.65,23.26-12.76,4.02-13.01,11.78-25.29,26.85-15.64,1.95,1.25,2.79,5.46,6.28,4.45Z" fill="#fff"/>
  <path d="M402.5,462.03l-9.12,3,4.9,20.04c4.85.43,8.16-2.63,9.35-7.07-3.84-4.85-5.96-9.59-5.13-15.97ZM385.88,451.99c-2.27-6.72-4.3-13.5-7.17-19.98l2.15-.8c.17.4.37.81.61,1.24l7.71-9.7c.13-5.26,2.43-12.13,3.58-18.17l2.09.36-2.86,16.33,5.45-3.03,1.28,2.29c-6.26,3.5-11.33,9.05-14.95,15.14l8.87,23.73v-14.13c0-.79,1.63-10.08,3.94-7.56l-1.21,21.92,1.26.83c6.08-.23,7.58-3.92,8.47-8.37l2.66.36c-2.75,11.33-4.16,30.44,9.79,17.04-.46-1.05-.91-2.15-1.34-3.27l2.32-.89c.37.9.83,1.77,1.41,2.6,3.81,5.43,7.89,4.77,10.89,1.67l2.61.97c-2.23,2.5-4.08,4.82-2.23,8.57l-2.51.37c-.65-1.42-1.27-2.69-2.05-3.5-.23-.23-5.41-3.11-5.72-3.19-5.52-1.37-12.29,10.12-15.14,14.18l-.13,1.78-6.44-.46,5.46,42.36-1.13.14c-3.38-26.9-11.35-60.09-17.67-78.83Z"/>
  <path d="M398.72,420.53c2.46-1.37,5.09-2.43,7.89-3.08,6.59,2.14,4.47,10.29,12.05,11.66,9.37,1.7,19.64-3.4,24.08-11.65l1.42-.12c1.18.29,2.83.9,4.59,1.76,3.51,1.7,7.46,4.35,9.02,7.17.47.85.72,1.72.67,2.58-.04.71-6.84,9.34-8.05,11.7-3.22,6.28-5.08,13.88-6.47,20.16-3.52-.26-5.18-2.95-6.46-6.25-1.29-3.31-2.22-7.23-4.29-9.95-5.67-7.44-17.15-13.18-24.36-4.12-2.6,3.26-2.92,7.78-3.71,11.7-.89,4.45-2.39,8.14-8.47,8.37l-1.26-.83,1.21-21.92c-2.31-2.52-3.94,6.77-3.94,7.56v14.13l-8.87-23.73c3.62-6.09,8.69-11.64,14.95-15.14Z" fill="#fff"/>
  <path d="M429.91,389.63c3.24,1.59,4.79-5.05,2-5.61-4.26-.88-4.72,4.27-2,5.61ZM428.62,376.73c-1.82.46-3.67,1.84-1.35,3.02l10.07-.23c-.83-3.15-6.25-3.42-8.72-2.79ZM430.77,400.9c-6.06,1.63-7.78,3.89-14.45,1.63-2.37-.8-5.6-5.13-7.25-1.31,5.1,5.84,19.33,8.63,21.7-.32ZM407.58,376.72c-1.8.46-4.45,2.39-2.06,3.77l10.77-2.27c.29-2.04-7.35-1.85-8.71-1.5ZM402.43,401.4c-2.12-6.61.6-20.33.8-26.07,12.7-2.67,26.14-1.8,38.69,1.28.1,10.38,4.1,24.8-5.93,31.8-9.9,6.91-25.49,4.42-32.51-4.88-.44-.58-.78-1.3-1.05-2.13ZM423.54,396.61l-5.18-2.07,1.89-11.39c-1.64-2.14-4.36,6.67-4.53,8.28-1.15,10.6,7.61,6.69,7.82,5.18ZM412.26,389.62c1.7-1.09.8-7.58-3.18-5.5-3.16,1.64-.67,7.98,3.18,5.5Z" fill="#fff"/>
  <path d="M449.18,379.21c-.06-.05-1.25-.05-1.31,0-.84.85,2.15.85,1.31,0ZM447.21,396.29c8.53-.59,10.56-13.96.65-13.14l-.65,13.14ZM414.35,422.24c5.99,9.38,22.94,1.6,25.62-6.88l-10.99,6.42-14.63.46ZM404.47,414.33c-1.69-1.18-3.56-7.91-4.92-12.62l2.88-.31c.27.83.61,1.55,1.05,2.13,7.02,9.3,22.61,11.79,32.51,4.88,10.03-7,6.03-21.42,5.93-31.8l.71-2.67c2.63.72,5.25,1.6,7.86,2.64.17-.7.25-1.36.25-1.98l2.7.06c-.05,2.65-.65,4.94-.35,6.04.65,2.41,6.8,2.18,4.49,11.86-.53,2.18-2.27,1.82-2.5,3.38-.09.62.01,1.19.22,1.73l-2.18.6h-6.56l-5.2,14.06,8.64,4.19-1.25,2.58c-1.76-.86-3.41-1.47-4.59-1.76l-1.42.12c-4.44,8.25-14.71,13.35-24.08,11.65-7.58-1.37-5.46-9.52-12.05-11.66-2.8.65-5.43,1.71-7.89,3.08l-1.28-2.29,7.03-3.91Z"/>
  <path d="M398.28,485.07l-4.9-20.04,9.12-3c-.83,6.38,1.29,11.12,5.13,15.97-1.19,4.44-4.5,7.5-9.35,7.07Z" fill="#fff"/>
  <path d="M399.86,377.89c-.84.84-.84-2.15,0-1.31.06.06.06,1.25,0,1.31Z" fill="#fff"/>
  <path d="M397.58,394.32c-9.62-1.74-2.11-16.99,1.63-13.14.53.53-2.28,11.49-1.63,13.14Z" fill="#fff"/>
  <path d="M396.05,398.06c.38-1,.76-1.12,1.78-1.03.33.03.94,2.04,1.72,4.68,1.36,4.71,3.23,11.44,4.92,12.62l-7.03,3.91-5.45,3.03,2.86-16.33,1.2-6.88Z" fill="#fff"/>
  <path d="M363.98,698.05c-2.12.72-17.75-10.14-19.33-12.87-2.52-4.35.16-17.57.64-23.05,4.47.96,8.89,1.75,13.52,1.71,8.65-.08,25.83-5.32,32.23-4.54,2.12.26,10.08,7.52,12.76,8.79-10.94,4.64-24.57,9.29-32.61,18.32-2.86,3.2-5.18,7.85-7.21,11.64Z" fill="#fff"/>
  <path d="M447.21,365.4c-7.93-16.61-32.32-16.89-43.39-2.95,14.51-2.67,29.48-2.32,43.39,2.95ZM399.21,381.18c-3.74-3.85-11.25,11.4-1.63,13.14-.65-1.65,2.16-12.61,1.63-13.14ZM393.36,397.92c-.26-4.35-4.66-5.36-3.3-13.08.83-4.72,5.06-5.21,5.76-7.44.29-.92-.18-5.37.3-7.54,5.45-24.87,49.35-29.58,56.97,1.17.31,1.23.38,2.47.35,3.63l-2.7-.06c0-8.11-13.85-9.91-20.31-10.49-7.66-.69-30.9-2.45-31.22,8.19,14.77-1.82,29.25-2.27,43.42,1.64l-.71,2.67c-12.55-3.08-25.99-3.95-38.69-1.28-.2,5.74-2.92,19.46-.8,26.07l-2.88.31c-.78-2.64-1.39-4.65-1.72-4.68-1.02-.09-1.4.03-1.78,1.03l-1.2,6.88-2.09-.36c.45-2.4.72-4.67.6-6.66ZM399.86,377.89c.06-.06.06-1.25,0-1.31-.84-.84-.84,2.15,0,1.31Z"/>
  <path d="M251.29,527.41c.37,1.72,3.57-.14,4.19-.39,23.66-9.45,60.26-38.32,73.81-59.96.56-.9,7.42-11.45,3.21-10.94-1.24.15-12.03,17.9-14.14,20.52-8.41,10.43-22.79,22.42-33.9,30.05-9.12,6.27-22.83,11.59-30.64,17.36-1.2.88-2.77,1.4-2.53,3.36ZM217.11,429.16c1.01.38,2.02.75,3.05,1.1,15.32,5.24,33.1,7.39,49.17,8.14,28.84,1.33,59.7.74,88.58-4.66,6.63-1.23,13.15-2.72,19.52-4.49.45.91.87,1.83,1.28,2.76,2.87,6.48,4.9,13.26,7.17,19.98,6.32,18.74,14.29,51.93,17.67,78.83,1.22,9.65,1.84,18.49,1.59,25.57-.04,1.14.33,2.33-.65,3.26-17.47,5.94-35.74,9.54-54.16,11.73-9.65,1.15-19.35,1.9-29,2.41-7.99.42-16.01.67-24.04.73-21.15.15-42.37-1.08-63.2-4.38-9.93-1.57-19.76-3.62-29.46-6.21-5.28-1.4-10.52-2.98-15.71-4.72-.44-.71.9-14.75,1.17-16.71.16-1.15,1.27-.92,1.34-1.41,3.85-27.71,7.14-55.95,14.95-82.81,2.87-9.93,6.37-19.66,10.73-29.12Z" fill="#fff"/>
  <path d="M379.17,768.32c-3.59-.88,3.17-9.87,4.5-10.93,1.23-.98,2.68-1.45,4.05-2.19l.94,2.25c-3.65-.13-8.16,11.2-9.49,10.87Z"/>
  <path d="M357.7,413.1c6.91-1.2,13.74-2.63,20.48-4.31v14.13c0,2.63-4.32,3.92-6.43,4.75-3.68,1.44-8.55,2.69-14.28,3.73-36.55,6.64-108.32,5.24-132.61-2.44-1.14-.36-2.55-.7-3.88-1.17-1.69-.62-3.24-1.47-3.88-2.9v-14.13c20.64,3.62,42.1,6.08,63.7,6.93,25.83,1.02,51.86-.25,76.9-4.59Z" fill="#fff"/>
  <path d="M365.69,753.55c3.46-3.93,7.02,6.38,7.55,6.23.8-1.74,7.36-12.82,9.53-10.51l-6.5,17.32-3.58.5-7-13.54Z"/>
  <path d="M357.25,410.52c7.09-1.27,14.09-2.98,20.91-5.36,5.08-18.93,6.63-38.54,5.08-57.94l2.83-.22c7.15-2.74,14.25-5.89,21.24-9.41l1.12,2.23-20.72,10.46c.06,14.27-1.44,26.97-3.05,41-1.25,10.95-2.86,16.6-3.17,28.37-.12,4.58-2.41,7.24-.63,11.56l-2.15.8c-.41-.93-.83-1.85-1.28-2.76-6.37,1.77-12.89,3.26-19.52,4.49l-.44-2.34c5.73-1.04,10.6-2.29,14.28-3.73,2.11-.83,6.43-2.12,6.43-4.75v-14.13c-6.74,1.68-13.57,3.11-20.48,4.31l-.45-2.58Z"/>
  <path d="M326.29,402.64c13.17-11.4,23.81-25.62,29.52-42.19-3.95-3.96-5.74,6.1-7.31,9.13-6.02,11.56-14.2,22.47-24.22,30.99-1.43,1.22-2.9,2.38-4.4,3.5-14.03,10.39-25.07,11.76-38.97,11.15-5.29-.24-11-.77-17.45-1.19-5.98-.4-44.67-4.65-47.06-7.5-1.32-1.58-1.19-6.7-3.24-8.91,38.79-15.2,79.22-37.97,107.18-69.33,10.03-11.25,15.55-23.46,25.65-34.17,1.49-1.58,4.94-7.22,5.93-7.88,1.2-.82,14.23-2.79,15-2.25,8.95,19.93,14.59,41.44,16.32,63.23,1.55,19.4,0,39.01-5.08,57.94-6.82,2.38-13.82,4.09-20.91,5.36-15.6,2.78-31.69,3.39-47.45,4.17,5.79-3.57,11.33-7.59,16.49-12.05Z" fill="#fff"/>
  <path d="M391.24,655.85c-9.16.91-37.91,8.03-45.11,2.86-.96-.69-1.74-3.25-2.39-6.45-1.15-5.71-1.88-13.45-2.44-16.2-.1-.5-1.1-.53-1.19-1.03-3.77-19.46-5.61-39.6-7.96-59.29l18.44-2.16,36.69-4.31,3.96,86.58Z" fill="#fff"/>
  <path d="M324.28,400.57c10.02-8.52,18.2-19.43,24.22-30.99,1.57-3.03,3.36-13.09,7.31-9.13-5.71,16.57-16.35,30.79-29.52,42.19l-2.01-2.07Z"/>
  <path d="M387.58,706.79c.38,4.65,21.59,5.91,25.72,4.43,1.34-4.33.18-7.34-3.35-9.83-1.12-.79-9.05-2.71-3.82-4.04,7.16-1.83,12.22,7.59,10.83,13.8l6.43-.44,1.32-2.01c.49-2.6-1.11-7.13-2.7-9.18-.38-.49-9.65-6.43-4.08-6.79,4.3-.28,10.94,10.8,9.87,15.15l1.68.35c4.92-1.92,6.85-3.94,3.95-9.1-.85-1.5-10.04-7.73-6.23-9.01,2.64-.89,11.12,8.5,10.16,11.82,6-4.82-4.98-16.63-9.25-18.04-10.09-3.34-41.51,10.86-40.53,22.89ZM358.81,663.84c-4.63.04-9.05-.75-13.52-1.71-.48,5.48-3.16,18.7-.64,23.05,1.58,2.73,17.21,13.59,19.33,12.87,2.03-3.79,4.35-8.44,7.21-11.64,8.04-9.03,21.67-13.68,32.61-18.32-2.68-1.27-10.64-8.53-12.76-8.79-6.4-.78-23.58,4.46-32.23,4.54ZM341.99,658.91c-.1-1.74-.44-3.84-.9-6.13l2.65-.52c.65,3.2,1.43,5.76,2.39,6.45,7.2,5.17,35.95-1.95,45.11-2.86l-3.96-86.58-36.69,4.31-.26-2.2c18.42-2.19,36.69-5.79,54.16-11.73.98-.93.61-2.12.65-3.26.25-7.08-.37-15.92-1.59-25.57l1.13-.14,3.09,24.02,40.76,3.3,2.66.43-.04.22,29.77,4.17-.29,2.09c-14.49-2.05-29.03-3.71-43.62-4.94-3.68-.3-26.91-2.55-28.22-2.02-.76.31-.09,2.19-.97,3.05-3.56,3.44-13.01,4.64-17.73,6.27,2.41,29.98,4.45,60.04,4.52,90.15,13.99,13.95,55,25.29,48.21,50.98-3.76,14.25-35.1,14.12-46.38,12.41-10.45-1.57-38.06-12.31-46.73-18.34-19.66-13.7-6.7-25.75-7.72-43.56Z"/>
  <path d="M315.74,190.25c.86-3.42,13.59-2.75,16.69-2.27,3.26.51,6.04,2.34,7.89,4.96.2.28,1.71.08,1.02,1.55-.11.25-3.83,3.25-4.28,3.3-1.77.22-7.99-2.62-11.19-2.63-4.78-.03-12.61,4.99-10.13-4.91Z"/>
  <path d="M286.89,254.89c11.51,6.01,32.28,7.88,40-4.17-.9-2.8-5.67,1.87-7.31,2.53-11.43,4.59-20.8,4.02-31.79-1.56l-.9,3.2ZM209.32,221.9c-10.06,15.33,2.35,35.69,20.86,32.49,1.95,12.56,7.79,23.25,13.87,34.11-4.67-.33-9.33-.9-13.96-1.67-13.87-2.32-27.45-6.53-40.32-12.11-1.54-2.44,3.65-9.23,4.16-12.34.18-1.11.27-2.12.28-3.06.15-8.42-5.58-10.94-6.52-18.65-2.46-20.13,13.47-22.94,19.96-35.89.4-.8.77-1.64,1.09-2.53,3.14-8.65,3.22-15.98,8.12-24.75,10.6-19,34.96-29.81,56.43-28.33.71.05,1.64.22,2.68.46,4.68,1.1,11.79,3.68,13.08,3.49.57-.09,7.58-4.93,10.05-5.79,15.74-5.5,29.46-.63,41.17,10.13,19.16,17.61,11.6,28.41,19.65,47.74,3.71,8.91,16.13,17.19,16.25,29.22.01.16.01.32.01.48,0,4.92-3.82,12.07-3.31,16.47.44,3.75,6.25,6.22,6.66,13.76.5,9.16-3.64,12.92-9.56,14.71-4.35,1.31-9.66,1.55-14.8,2.08,2.53-7.49,3.44-15.38,3.44-23.29.01-4.85-.32-9.7-.83-14.48-2.21-20.82-9.14-42.42-13.25-63.28-.17-.85-.33-1.7-.49-2.54-1.23-1.68-14.04,2.84-17.49,3.01-10.79.54-21.54-3.46-29.55-10.49-4.31,2.74-6.78,6.9-11.31,9.74-11.81,7.4-26.58,9.33-40.22,8.1-1.37,3.16-.4,6.46-1.05,9.79-1.44,7.39-4.44,11.15-5.32,17.37-.26,1.86-.34,3.94-.12,6.41,1.11,12.78,6.56,30.59,18,37.81,9.85-8.11,21.21-17.64,34.83-18.16,10.49-.41,14.12,8.84,26.46.17,1.33-.93,1.79-3.59,3.15-4.08,4.15-1.46,17.2.64,21.49,2.6,4.14,1.9,8.7,9.67,11.59,3.21,1.06,5.24,1.57,10.18,1.57,14.8,0,23.17-12.81,38.5-33.74,44.94-6.41,1.97-13.58,3.11-21.38,3.38-48.23,1.68-63.87-25.31-70.51-68.25-.6-3.92-1.02-21.9-3.27-23.02-5.68-2.83-14.54,1.2-17.85,6.24Z" fill="#fff"/>
  <path d="M326.89,250.72c-7.72,12.05-28.49,10.18-40,4.17l.9-3.2c10.99,5.58,20.36,6.15,31.79,1.56,1.64-.66,6.41-5.33,7.31-2.53Z"/>
  <path d="M328.2,576.41l-30.89.3-.02-2.19c8.03-.06,16.05-.31,24.04-.73,9.65-.51,19.35-1.26,29-2.41l.26,2.2-18.44,2.16c2.35,19.69,4.19,39.83,7.96,59.29.09.5,1.09.53,1.19,1.03.56,2.75,1.29,10.49,2.44,16.2l-2.65.52c-1.39-6.77-3.91-15.22-4.81-21.03-2.83-18.4-4.73-37.23-8.08-55.34Z"/>
  <path d="M316.49,211.14c-.75-2.26,1.21-3.72,3.19-2.52,2.27,1.38,1.74,11.13,10.02,9.42,6.45-1.34,3.03-13.72,7.05-11.04,3.88,17.54-14.66,18.82-20.26,4.14Z"/>
  <path d="M292.74,788.34c2.85,1.54,17.76,3.14,18.98-.06-.25-7.18-8.78-8.47-14.59-7.31-3.12.63-8.43,4.69-4.39,7.37ZM297.8,777.69c18.16-2.74,26.57,18.81.67,15.44-15.13-1.96-12.28-13.68-.67-15.44Z"/>
  <path d="M311.72,788.28c-1.22,3.2-16.13,1.6-18.98.06-4.04-2.68,1.27-6.74,4.39-7.37,5.81-1.16,14.34.13,14.59,7.31Z" fill="#fff"/>
  <path d="M282.21,724.12c4.81-7.31,11.52-10.89,20.35-8.04,3.16,1.01,11.56,7.79,8.57,11.18-4.88,2.93-26.01,4.58-28.78-.49-.43-.79-.24-1.8-.14-2.65Z" fill="#fff"/>
  <path d="M296.99,646.07c-3.72-.86,6.29-14.87,9.48-11.12.42.48.05,1.38-.4,1.97-.41.54-8.45,9.29-9.08,9.15Z"/>
  <path d="M246.2,291.94c4.65,2.09,7.24,6,11.7,8.68,17.99,10.8,44.19,12.01,65.22,5.63,4.12-1.24,8.04-2.78,11.66-4.6-10.32,20.33-29.39,38.37-47.41,52.18-22.57,17.28-48.41,30.25-74.86,40.49l-6.58-42.4c3.24-11.61,7.64-25.32,8.59-36.76.84-10.2-1.33-18.83-2.02-28.64l17.2,2.77,16.5,2.65Z" fill="#fff"/>
  <path d="M282.35,726.77c2.77,5.07,23.9,3.42,28.78.49,2.99-3.39-5.41-10.17-8.57-11.18-8.83-2.85-15.54.73-20.35,8.04-.1.85-.29,1.86.14,2.65ZM281.85,730.87c-8.42-5.53,3.12-16.98,10.03-18.25,8.51-1.56,20.17,1.85,22.56,11.31,2.88,11.42-26.58,10.9-32.59,6.94Z"/>
  <path d="M290.12,646.7c-1.67-4.09-3.27-8.92-7.49-11.1l-.42-1.99c3.92-1.62,6.57,3.1,8.19,5.88.85-.26,5.3-14.26,7.46-7.03-1.31,1.93-1.98,3.98-2.8,6.12-.76,2.02-2.91,9.4-4.94,8.12Z"/>
  <path d="M289.05,153.12c-1.29.19-8.4-2.39-13.08-3.49l.54-2.6c5.21,1.12,11.21,2.75,11.82,2.66.5-.08,6.48-4.1,8.82-4.97,25.79-9.52,53.03,8.33,60.32,33.35,2.22,7.64,2.43,19.7,5.4,26.12,4.92,10.62,14.89,13.41,15.99,28.75.04.63.05,1.3.02,2.01l-2.7-.05c0-.16,0-.32-.01-.48-.12-12.03-12.54-20.31-16.25-29.22-8.05-19.33-.49-30.13-19.65-47.74-11.71-10.76-25.43-15.63-41.17-10.13-2.47.86-9.48,5.7-10.05,5.79Z"/>
  <path d="M270.74,220.74c3.91,3.76,7.7,5.89,11.75,1.02,2.41-2.89,1.53-4.07,1.78-7.75,2.69-2.93,3.12.03,3.23,2.52.7,15.44-19.54,14.12-21.71.7,3.08-3.35,3.57,2.19,4.95,3.51Z"/>
  <path d="M357.7,413.1c-25.04,4.34-51.07,5.61-76.9,4.59l.11-2.47c13.9.61,24.94-.76,38.97-11.15,1.5-1.12,2.97-2.28,4.4-3.5l2.01,2.07c-5.16,4.46-10.7,8.48-16.49,12.05,15.76-.78,31.85-1.39,47.45-4.17l.45,2.58Z"/>
  <path d="M258.33,204.85c-3.14-6.8,20.03-15.37,25-12.15l.21,7.43c-4.32.17-8.54.82-12.51,2.61-4.64,2.08-7.59,8.34-12.7,2.11Z"/>
  <path d="M204.92,203.65c3.48-7.33,3.97-18.59,8.05-26.71,10.06-20.02,35.29-31.16,57.05-30.93,1.43.02,3.86.45,6.49,1.02l-.54,2.6c-1.04-.24-1.97-.41-2.68-.46-21.47-1.48-45.83,9.33-56.43,28.33-4.9,8.77-4.98,16.1-8.12,24.75-.32.89-.69,1.73-1.09,2.53l-2.73-1.13Z"/>
  <path d="M329.7,218.04c-8.28,1.71-7.75-8.04-10.02-9.42-1.98-1.2-3.94.26-3.19,2.52,5.6,14.68,24.14,13.4,20.26-4.14-4.02-2.68-.6,9.7-7.05,11.04ZM315.74,190.25c-2.48,9.9,5.35,4.88,10.13,4.91,3.2,0,9.42,2.85,11.19,2.63.45-.05,4.17-3.05,4.28-3.3.69-1.47-.82-1.27-1.02-1.55-1.85-2.62-4.63-4.45-7.89-4.96-3.1-.48-15.83-1.15-16.69,2.27ZM282.49,221.76c-4.05,4.87-7.84,2.74-11.75-1.02-1.38-1.32-1.87-6.86-4.95-3.51,2.17,13.42,22.41,14.74,21.71-.7-.11-2.49-.54-5.45-3.23-2.52-.25,3.68.63,4.86-1.78,7.75ZM258.33,204.85c5.11,6.23,8.06-.03,12.7-2.11,3.97-1.79,8.19-2.44,12.51-2.61l-.21-7.43c-4.97-3.22-28.14,5.35-25,12.15ZM257.44,255.59c-2.03.57-8.96-9.8-9.8-11.74-1.61-3.76-6.25-23.14-6.17-26.75.01-.29.04-.6.09-.93.96-5.66,8.76-17.27,6.44-24.3,17.79,1.55,36.45-3.28,49.06-16.38,13.07,10.09,29.58,10.59,44.95,5.87,2.98,19.71,10.01,39.78,8.55,59.81-8.78-5.72-18.57-7.25-28.97-7.51-1.43-7.27-8.38-22.09-13.77-26.99-1.1-1-3.76-3.13-4.58-.62-.54,1.62,15.7,17.53,13.8,30.21-1.75,11.7-16.99,2.69-22.05,2.28-12.03-.98-29.46,8.35-37.55,17.05Z" fill="#fff"/>
  <path d="M248.5,63.23c11.19-2.42,20.14,4.18,27.44,11.63,7.27-9,19.74-11.67,30.52-7.81l-1.73,2.39c-12.03-3.82-21.27,1.73-29.35,9.98-8.64-8.94-17.6-17.51-31-11.76-3.5-2.61,1.88-3.95,4.12-4.43Z"/>
  <path d="M255.48,527.02c-.62.25-3.82,2.11-4.19.39-.24-1.96,1.33-2.48,2.53-3.36,7.81-5.77,21.52-11.09,30.64-17.36,11.11-7.63,25.49-19.62,33.9-30.05,2.11-2.62,12.9-20.37,14.14-20.52,4.21-.51-2.65,10.04-3.21,10.94-13.55,21.64-50.15,50.51-73.81,59.96Z"/>
  <path d="M239.1,215.85c.88-6.22,3.88-9.98,5.32-17.37.65-3.33-.32-6.63,1.05-9.79,13.64,1.23,28.41-.7,40.22-8.1,4.53-2.84,7-7,11.31-9.74,8.01,7.03,18.76,11.03,29.55,10.49,3.45-.17,16.26-4.69,17.49-3.01.16.84.32,1.69.49,2.54l-2.52.49c-15.37,4.72-31.88,4.22-44.95-5.87-12.61,13.1-31.27,17.93-49.06,16.38,2.32,7.03-5.48,18.64-6.44,24.3l-2.46-.32Z"/>
  <path d="M238.98,222.26c-.22-2.47-.14-4.55.12-6.41l2.46.32c-.05.33-.08.64-.09.93-.08,3.61,4.56,22.99,6.17,26.75.84,1.94,7.77,12.31,9.8,11.74,8.09-8.7,25.52-18.03,37.55-17.05,5.06.41,20.3,9.42,22.05-2.28,1.9-12.68-14.34-28.59-13.8-30.21.82-2.51,3.48-.38,4.58.62,5.39,4.9,12.34,19.72,13.77,26.99,10.4.26,20.19,1.79,28.97,7.51,1.46-20.03-5.57-40.1-8.55-59.81l2.52-.49c4.11,20.86,11.04,42.46,13.25,63.28.51,4.78.84,9.63.83,14.48l-2.54-.02c0-4.62-.51-9.56-1.57-14.8-2.89,6.46-7.45-1.31-11.59-3.21-4.29-1.96-17.34-4.06-21.49-2.6-1.36.49-1.82,3.15-3.15,4.08-12.34,8.67-15.97-.58-26.46-.17-13.62.52-24.98,10.05-34.83,18.16-11.44-7.22-16.89-25.03-18-37.81Z"/>
  <path d="M246.74,657.46c-2.66,4.24-21.15,1-34.24-.74-5.3-.7-9.71-1.16-11.84-.79l5.92-88.08,27.22,4.16h0s28.66,4.39,28.66,4.39l-15.72,81.06Z" fill="#fff"/>
  <path d="M238.46,663.14c-6.86.06-17.52-2.54-26.31-3.67l.35-2.75c13.09,1.74,31.58,4.98,34.24.74l15.72-81.06-28.66-4.38h0s.29-1.88.29-1.88c20.83,3.3,42.05,4.53,63.2,4.38l.02,2.19-31.91.3c-2.08,11.36-2.83,23.06-4.95,34.4-4.18,22.44-10.67,39.63-9.15,63.89.14,2.25.37,4.2.6,5.91l-2.6.34c-1.54-1.24-1.78-5.13-1.96-7.54-.29-3.91.21-7.92,0-11.84l-1.36-.73c-2.06.8-5.38,1.68-7.52,1.7Z"/>
  <path d="M235.84,780.16c-1.63,1.53-1.43,4.49-4.27,3.94-2.18-3.98,9.45-12.9,11.17-11.17,1.91,1.94-5.45,5.87-6.9,7.23Z"/>
  <path d="M224.62,772c.91,2.21,2.11,4.57,2.99,6.84,1.61-4.16,5.33-16.89,11.17-13.47-5.86,5.13-7.09,12.89-10.96,19.3-4.53,2.08-6.61-17.58-9.3-20.75,2.6-5.19,5.2,5.91,6.1,8.08Z"/>
  <path d="M228.98,249.97c-23.38,7.43-27.89-35.3-3.43-31.04l3.43,31.04Z" fill="#fff"/>
  <path d="M225.55,218.93c-24.46-4.26-19.95,38.47,3.43,31.04l-3.43-31.04ZM209.32,221.9c3.31-5.04,12.17-9.07,17.85-6.24,2.25,1.12,2.67,19.1,3.27,23.02,6.64,42.94,22.28,69.93,70.51,68.25,7.8-.27,14.97-1.41,21.38-3.38l.79,2.7c-21.03,6.38-47.23,5.17-65.22-5.63-4.46-2.68-7.05-6.59-11.7-8.68l-16.5-2.65.39-2.46c4.63.77,9.29,1.34,13.96,1.67-6.08-10.86-11.92-21.55-13.87-34.11-18.51,3.2-30.92-17.16-20.86-32.49Z"/>
  <path d="M220.16,430.26l.82-2.47c1.33.47,2.74.81,3.88,1.17,24.29,7.68,96.06,9.08,132.61,2.44l.44,2.34c-28.88,5.4-59.74,5.99-88.58,4.66-16.07-.75-33.85-2.9-49.17-8.14Z"/>
  <path d="M4.08,308.55c12.05-7.84,23.53-10.62,34.56-10.02,23.52,1.28,44.92,17.96,65.1,33.67,5.36,4.16,10.62,8.26,15.82,11.99,1.84-.18,2.69-.36,2.13-2.37l-10.44-8.29,31.09-17.25c9.38,6.78,19.14,13.02,29.31,18.52,9.95,5.39,20.27,10.06,30.99,13.83.14,1.21.28,2.41.42,3.62,1.4,12.14,2.77,24.18,5.14,36.18,2.52,12.79,6.62,21.86,6.62,34.6,0,1.04-.02,2.09-.08,3.18-.04.85.22,3.33-1.25,2.94-.67-1.49-6.71-7.77-6.8-8.3-.02-.16.12-.66.35-1.35.52-1.63,1.47-4.28,1.53-5.77.32-7.18-4.06-27.77-8.22-40.31-1.23-3.71-2.44-6.72-3.51-8.47-10.75-17.64-39.27-16.58-47.13,3.09-.57,1.43-1.06,2.99-1.49,4.66-2.86,11.23-2.65,27.06-2.81,37.75-.03,2.16.97,5.93.97,9.18,0,2.84-.76,5.28-3.62,5.93-2.75.62-7.54-4.91-11.13-3.63l5.6-6.56c5.48-6.98,3.07-15.49,2.1-22.44-.23-1.68-.38-3.27-.31-4.73.11-2.36,2.08-4.66,1.83-9.35-.54-10.03-6.62-16.63-14.61-19.77-15.88-6.24-39.32,1.17-41.93,22.44-.34,2.78.54,5.5.42,7.79-.24,4.36-2.48,5.14-.76,10.92,2.29,7.64,8.03,5.41,9.49,6.62.18.15.28,3.02,1.1,4.49,1.54,2.74,2.82,4.08,4.9,6.32l-11.55,9.91-9.52,8.16-.29-.38-3.66-4.86c9.29-6.45,6.89-19.71,3.78-29.11-.75-2.26-3.47-6.08-3.85-7.36-1.53-5.28-1.35-10.43-1.9-15.44-.52-4.74-1.7-9.36-5.59-13.84-11.21-12.89-34.79-12.16-44.92,1.11-.99,1.3-2.5,4.57-4.17,8.74-4.27,10.65-9.63,27.13-10.26,31.4-1,6.77,1.74,13.52-3.45,19.23v-116.67Z" fill="#fff"/>
  <path d="M214.82,423.03c0-12.74-4.1-21.81-6.62-34.6-2.37-12-3.74-24.04-5.14-36.18l2.87-.33,6.58,42.4c26.45-10.24,52.29-23.21,74.86-40.49,18.02-13.81,37.09-31.85,47.41-52.18-3.62,1.82-7.54,3.36-11.66,4.6l-.79-2.7c20.93-6.44,33.74-21.77,33.74-44.94l2.54.02c0,7.91-.91,15.8-3.44,23.29,5.14-.53,10.45-.77,14.8-2.08l.55,2.56c-.3.07-.59.13-.89.19,8.79,20.4,15.5,41.76,16.44,64.41l-2.83.22c-1.73-21.79-7.37-43.3-16.32-63.23-.77-.54-13.8,1.43-15,2.25-.99.66-4.44,6.3-5.93,7.88-10.1,10.71-15.62,22.92-25.65,34.17-27.96,31.36-68.39,54.13-107.18,69.33,2.05,2.21,1.92,7.33,3.24,8.91,2.39,2.85,41.08,7.1,47.06,7.5,6.45.42,12.16.95,17.45,1.19l-.11,2.47c-21.6-.85-43.06-3.31-63.7-6.93v12.27h-2.28Z"/>
  <path d="M215.12,774.58c-1.46-1.66-9.3-5.28-6.58-7.26,3.59-2.62,15.95,12.66,13.81,17.44-4.13-.57-4.21-6.73-7.23-10.18Z"/>
  <path d="M206.58,567.85l-5.92,88.08-2.74-.06c.6-30.04,3.07-59.93,6-89.3l.71-2.64c9.7,2.59,19.53,4.64,29.46,6.21l-.29,1.87-27.22-4.16Z"/>
  <path d="M201.69,659.26c2.71-.52,6.39-.31,10.46.21,8.79,1.13,19.45,3.73,26.31,3.67,2.14-.02,5.46-.9,7.52-1.7l1.36.73c.21,3.92-.29,7.93,0,11.84.18,2.41.42,6.3,1.96,7.54-4.96,6.52-10.63,12.06-18.05,15.79-4.21-12.53-16.49-18.84-27.51-24.44l-14.92-4.8c4.6-.97,8.75-8.05,12.87-8.84Z" fill="#fff"/>
  <path d="M192.13,411.74c5.8-3.68,7.94-10.76,9.17-17.12l1.33-.95c2.17,8.37,4.39,16.38,1.97,24.97l-8.01-4.43-4.46-2.47Z" fill="#fff"/>
  <path d="M200.99,450.82c4.24-.7,3.75,3.2,2.73,6.69-.49,1.71-1.12,3.32-1.37,4.24-.37,1.34-2.76,9.34-3.34,9.48l-6.94-8.18c1.73-.21,3.3-2.52,4.67-5.07,1.77-3.29,3.21-6.99,4.25-7.16Z" fill="#fff"/>
  <path d="M168.45,124.17c-1.09-4.41,7.09-5.13,10.21-5.24,7.88-.28,15.9,2.35,21.02,8.52,6.25-8.66,16.88-15.78,27.94-12.16,1.8.59,6.37,2.34,2.61,3.99-.81.35-9.78-3.01-17.23.47-6.04,2.81-7.18,8.18-10.58,11.44-.67.64-2.41,1.76-3.31,1.49-6.44-11.53-19.2-11.99-30.66-8.51Z"/>
  <path d="M186.53,462.04c.63,3.05,10.9,10.92,11.35,11.96.53,1.24.71,7.87-1.42,8.53-10.75,2.2-21.83,2.34-32.66.62-.2-.03-.41-.07-.61-.1l10.85-9.77,9.8-8.82,2.69-2.42Z" fill="#fff"/>
  <path d="M194.6,457.42c2.71-4.2,3.11-11.46,1.44-17.49l2.07-.59c1.28,4.86,2.66,9.2,8.14,8.93.35-3.34,5.73-13.68,5.41-16.04-.44-3.28-10.53-12.59-16.36-15.68l1.29-2.34,8.01,4.43,2.44.86c-.23.69-.37,1.19-.35,1.35.09.53,6.13,6.81,6.8,8.3,1.47.39,1.21-2.09,1.25-2.94.06-1.09.08-2.14.08-3.18h2.28v1.86c.64,1.43,2.19,2.28,3.88,2.9l-.82,2.47c-1.03-.35-2.04-.72-3.05-1.1-4.36,9.46-7.86,19.19-10.73,29.12l-2.66-.77c1.02-3.49,1.51-7.39-2.73-6.69-1.04.17-2.48,3.87-4.25,7.16l-2.14-.56Z"/>
  <path d="M196.04,439.93c1.67,6.03,1.27,13.29-1.44,17.49-.75,1.15-1.67,2.08-2.77,2.68-5.11,2.8-4.19-4.94-2.92-11.35.6-3.01,1.28-5.73,1.45-6.91.02-.13,1.02-.24,1.07-.66.74-5.84-1.31-6.64-3.92-11.35,4.23.75,7.12,4.98,8.53,10.1Z" fill="#fff"/>
  <path d="M187.69,240.67c.94,7.71,6.67,10.23,6.52,18.65l-2.73-.07c-6.66-13.62-11.59-25.56-1.86-39.34,3.48-4.92,11.15-9.55,14.11-14.12.43-.67.83-1.38,1.19-2.14l2.73,1.13c-6.49,12.95-22.42,15.76-19.96,35.89Z"/>
  <path d="M189.55,383.22c5.78-1.06,2.06,5.65-1.12,5.84-3.27.2-5.08-2.88-4.86-5.91l5.25,2.63.73-2.56Z"/>
  <path d="M190.18,378.21c-2.96-1.3-4.86-.77-7.92-.32l1.09-2.52,8.07.6-1.24,2.24Z"/>
  <path d="M178.68,463.35c-11.92-5.68-9.83-30.86,2.91-34.18-2.32,5.18-6.89,9.37-5.91,15.76l8.89-13.13c2.57-.66-2.52,7.45-2.79,8.39-.59,2.05-1.17,4.12-.75,6.29.8,1.4.97,1.25,1.81.03,1.67-2.45.97-7.99,4.35-10.11.89-.04.31,5.75-.83,11.9-1.17,6.37-2.94,13.11-4.28,14.21-.92.75-2.25.88-3.4.84Z" fill="#fff"/>
  <path d="M179.63,392.35l-1.97-8.54c3.28-3.3,10.14,17.28-1.98,10.83l3.95-2.29Z"/>
  <path d="M182.84,446.51c-.84,1.22-1.01,1.37-1.81-.03-.42-2.17.16-4.24.75-6.29.27-.94,5.36-9.05,2.79-8.39l-8.89,13.13c-.98-6.39,3.59-10.58,5.91-15.76l.06-2.3c3.02.02,6.41.68,10.17.94,4.04,2.22,5.12,7.1,6.29,11.53l-2.07.59c-1.41-5.12-4.3-9.35-8.53-10.1,2.61,4.71,4.66,5.51,3.92,11.35-.05.42-1.05.53-1.07.66-.17,1.18-.85,3.9-1.45,6.91l-2.55-.45c1.14-6.15,1.72-11.94.83-11.9-3.38,2.12-2.68,7.66-4.35,10.11Z"/>
  <path d="M188.82,668.1l14.92,4.8c11.02,5.6,23.3,11.91,27.51,24.44,7.42-3.73,13.09-9.27,18.05-15.79l2.6-.34c1.32,9.58,2.9,12.08-8.85,21.37-12.15,9.59-31.77,17.96-47.29,19.1-18.82,1.39-58.91-1.29-43.4-30.24,4.83-9.02,19.81-15.11,28.4-20.9,2.34-1.58,16.72-11.76,17.13-13.11l.03-1.56,2.74.06c2.13-.37,6.54.09,11.84.79l-.35,2.75c-4.07-.52-7.75-.73-10.46-.21-4.12.79-8.27,7.87-12.87,8.84ZM175.35,692.72c5.09.03-2.49,5.61-2.95,6.27-5.06,7.38-1.56,12.89,7.23,12.16-1.51-4.48,3.94-15.56,8.92-15.12,4.53.41-2.17,4.45-3.01,5.58-11.52,15.64,18.19,9.92,24.89,6.81-1.14-16.43-35.21-30.04-47.47-23.47-3.45,1.85-14.55,13.9-6.35,16.33-.47-4.45,10.13-17.54,11.79-9.91-7.41,1.83-14.24,15.62-2.59,16.49-2.2-3.78,6.76-15.17,9.54-15.14Z"/>
  <path d="M150.87,373.35c5.34-21.06,34.99-25.29,45.19-3.35-2.24-.13-4.35-.49-6.34-1.02-6-1.61-11.06-4.87-16.26-8.79-.9,7.29-16.98,12.73-18.89,15.35-1.77,2.43,2.7,5.78-4.53,4.98-.03-2.57.27-4.96.83-7.17Z" fill="#fff"/>
  <path d="M187.51,414.05c-6.01,3.67-11.06.91-16.94.82-.9-.02-1.71-.78-1.46.81,4.27,5.84,14.67,3.73,18.4-1.63ZM183.59,420.97c-5.51,2.22-11.53,2.19-16.23-1.9-1.09-.95-1.3-2.94-2.19-4.1-.73-.44-2.91.37-5.56,1.8l-1.14-2.11,5.38-2.92c.1-.57-1.11-1.87-2.44-3.17l2.79-.9c2.67,2.42,6.18,4.15,10.67,4.88,23.88,3.9,25.35-21.17,23.07-38.18l2.41-.95c4.16,12.54,8.54,33.13,8.22,40.31-.06,1.49-1.01,4.14-1.53,5.77l-2.44-.86c2.42-8.59.2-16.6-1.97-24.97l-1.33.95c-1.23,6.36-3.37,13.44-9.17,17.12l4.46,2.47-1.29,2.34c-1.22-.65-2.25-1.02-2.97-1.02-1.74.01-6.11,4.38-8.74,5.44Z"/>
  <path d="M182.26,377.89c3.06-.45,4.96-.98,7.92.32l1.24-2.24-8.07-.6-1.09,2.52ZM189.55,383.22l-.73,2.56-5.25-2.63c-.22,3.03,1.59,6.11,4.86,5.91,3.18-.19,6.9-6.9,1.12-5.84ZM175.68,394.64c12.12,6.45,5.26-14.13,1.98-10.83l1.97,8.54-3.95,2.29ZM178.63,401.61c-3.06-.06-3.98-2.28-6.89-2.02,1.02,6.46,11.31,5.31,15.11,1.63-1.27-3.72-4.94.45-8.22.39ZM157.24,384.11c1.07-12.07,11.38-9.57,16.55-19.3,4.87,3.6,9.89,5.29,15.15,6.82,2.92.86,5.92,1.67,9,2.74,2.28,17.01.81,42.08-23.07,38.18-4.49-.73-8-2.46-10.67-4.88-6-5.45-7.77-14.42-6.96-23.56ZM169.09,386.44l-2.96-1.97-1.63.34c-.41,3.57,3.81,6.82,6.52,3.87l1.37-4.87c-2.56-.39-3,.16-3.3,2.63ZM173.05,376.92c-.58-3.09-12.18-.98-10.52,3.6,1.84-2.52,10.9-1.53,10.52-3.6Z" fill="#fff"/>
  <path d="M196.72,485.69c-8.91,1.34-17.62,1.6-26.61,1.3-1.58-.05-4.51-.89-6.69-1.41l.38-2.43c10.83,1.72,21.91,1.58,32.66-.62,2.13-.66,1.95-7.29,1.42-8.53-.45-1.04-10.72-8.91-11.35-11.96l-2.69,2.42-1.76-1.95c1.34-1.1,3.11-7.84,4.28-14.21l2.55.45c-1.27,6.41-2.19,14.15,2.92,11.35,1.1-.6,2.02-1.53,2.77-2.68l2.14.56c-1.37,2.55-2.94,4.86-4.67,5.07l6.94,8.18c.58-.14,2.97-8.14,3.34-9.48.25-.92.88-2.53,1.37-4.24l2.66.77c-7.81,26.86-11.1,55.1-14.95,82.81-.07.49-1.18.26-1.34,1.41l-2.37-.38,9-56.43Z"/>
  <path d="M179.63,711.15c-8.79.73-12.29-4.78-7.23-12.16.46-.66,8.04-6.24,2.95-6.27-2.78-.03-11.74,11.36-9.54,15.14-11.65-.87-4.82-14.66,2.59-16.49-1.66-7.63-12.26,5.46-11.79,9.91-8.2-2.43,2.9-14.48,6.35-16.33,12.26-6.57,46.33,7.04,47.47,23.47-6.7,3.11-36.41,8.83-24.89-6.81.84-1.13,7.54-5.17,3.01-5.58-4.98-.44-10.43,10.64-8.92,15.12Z" fill="#fff"/>
  <path d="M186.85,401.22c-3.8,3.68-14.09,4.83-15.11-1.63,2.91-.26,3.83,1.96,6.89,2.02,3.28.06,6.95-4.11,8.22-.39Z"/>
  <path d="M169.09,386.44c.3-2.47.74-3.02,3.3-2.63l-1.37,4.87c-2.71,2.95-6.93-.3-6.52-3.87l1.63-.34,2.96,1.97Z"/>
  <path d="M170.11,486.99c8.99.3,17.7.04,26.61-1.3l-9,56.43-2.15,13.46-27.64,3.73-8.55-70.99c4.03,2.12,9.54-2.93,11.6-3.13.45-.04,1.35.14,2.44.39,2.18.52,5.11,1.36,6.69,1.41Z" fill="#fff"/>
  <path d="M169.11,415.68c-.25-1.59.56-.83,1.46-.81,5.88.09,10.93,2.85,16.94-.82-3.73,5.36-14.13,7.47-18.4,1.63Z" fill="#fff"/>
  <path d="M162.46,457.08c5.02-8.26,10.23,8.46,15.18,8.92.46,1.07-1.78,3.66-4.62,6.14-3.35,2.92-7.54,5.69-9.17,5.66.91-1.51.6-5.53.03-9.63-.7-5.15-1.82-10.44-1.42-11.09Z" fill="#fff"/>
  <path d="M159.61,416.77c2.65-1.43,4.83-2.24,5.56-1.8.89,1.16,1.1,3.15,2.19,4.1,4.7,4.09,10.72,4.12,16.23,1.9,2.63-1.06,7-5.43,8.74-5.44.72,0,1.75.37,2.97,1.02,5.83,3.09,15.92,12.4,16.36,15.68.32,2.36-5.06,12.7-5.41,16.04-5.48.27-6.86-4.07-8.14-8.93-1.17-4.43-2.25-9.31-6.29-11.53-3.76-.26-7.15-.92-10.17-.94-4.44-.02-8.08,1.37-10.94,7.51-3.14,6.72-.8,17.89-10.17,19.48l-5.92-10.32-9.11-15.88c.97-2.34,8.57-7.93,14.1-10.89Z" fill="#fff"/>
  <path d="M177.64,466c-4.95-.46-10.16-17.18-15.18-8.92-.4.65.72,5.94,1.42,11.09l-2.32.34c-.97-6.63-4.24-15.64-8.93-23.83l1.99-1.14,5.92,10.32c9.37-1.59,7.03-12.76,10.17-19.48,2.86-6.14,6.5-7.53,10.94-7.51l-.06,2.3c-12.74,3.32-14.83,28.5-2.91,34.18,1.15.04,2.48-.09,3.4-.84l1.76,1.95-9.8,8.82-1.02-1.14c2.84-2.48,5.08-5.07,4.62-6.14Z"/>
  <path d="M162.53,380.52c-1.66-4.58,9.94-6.69,10.52-3.6.38,2.07-8.68,1.08-10.52,3.6Z"/>
  <path d="M161.41,408.57c1.33,1.3,2.54,2.6,2.44,3.17l-5.38,2.92-9.75,5.3v-23.66c6.84,1.23,6.26,4.53,9.58,9.16.44.62,1.83,1.87,3.11,3.11Z" fill="#fff"/>
  <path d="M153.98,394.98c-8.1.64-7.81-11.98,0-11.17v11.17Z" fill="#fff"/>
  <path d="M196.06,370c-10.2-21.94-39.85-17.71-45.19,3.35l-2.65-.65c.43-1.67.92-3.23,1.49-4.66,7.86-19.67,36.38-20.73,47.13-3.09,1.07,1.75,2.28,4.76,3.51,8.47l-2.41.95c-3.08-1.07-6.08-1.88-9-2.74l.78-2.65c1.99.53,4.1.89,6.34,1.02Z"/>
  <path d="M153.98,383.81c-7.81-.81-8.1,11.81,0,11.17v-11.17ZM173.79,364.81c-5.17,9.73-15.48,7.23-16.55,19.3-.81,9.14.96,18.11,6.96,23.56l-2.79.9c-1.28-1.24-2.67-2.49-3.11-3.11-3.32-4.63-2.74-7.93-9.58-9.16v23.33h-2.34c0-3.25-1-7.02-.97-9.18.16-10.69-.05-26.52,2.81-37.75l2.65.65c-.56,2.21-.86,4.6-.83,7.17,7.23.8,2.76-2.55,4.53-4.98,1.91-2.62,17.99-8.06,18.89-15.35,5.2,3.92,10.26,7.18,16.26,8.79l-.78,2.65c-5.26-1.53-10.28-3.22-15.15-6.82Z"/>
  <path d="M97.55,499.02c16.16,3.1,32.53,2.3,48.54-2.82l7.89,63.76-21.24,3.07-40.59,5.87c-1.77-12.2-2.91-24.5-4.62-36.7-.47-3.34-3.07-9.29-3.18-14.09-.09-3.93.75-8.26,1.36-12.57.46-3.18.79-6.34.56-9.33,3.74,1.14,7.51,2.08,11.28,2.81Z" fill="#fff"/>
  <path d="M146.68,612.47c-4.96,1.59-4.35-3.56-6.62-7.37-1.12-1.88-3.25-2.95-4.38-4.83,2.18-7.8,8.28,7.71,9.75,6.36.52-3.13,2.94-12.91,7.24-9.52l-5.99,15.36Z"/>
  <path d="M113.32,766.8c5.97-14.15,34.94-16.87,35.94,1.41-6.54,2.92-14.78,3.75-21.93,3.43-2.65-.12-14.08-1.06-14.01-4.84Z" fill="#fff"/>
  <path d="M88.24,386.43c-3.94-20.09,20.79-30.99,36.97-24.58,3.14,1.24,5.96,3.14,8.18,5.74,1.1,1.29,5.13,9.04,4.15,10.3-6.9-3.09-13.97-4.31-20.84-3.87-10.32.66-20.21,5.05-28.46,12.41Z" fill="#fff"/>
  <path d="M132.28,383.8l-8.2-1.31c-5.57-4.35,9.95-5.01,8.2,1.31Z"/>
  <path d="M134.51,473.73c-1.42.3-6.35-2.82-6.72-4.3-.68-2.71,2.6-12.89,1.87-16.6,2.42-.11,1.47,6.3,4.6,2.31.43-2.21-5.91-13.91-8.56-15.13.72-2.15,7,3.05,7.67,3.85,1.71,2.03,4.42,9,5.81,14.17.57,2.13.91,3.95.88,5-.07,2.02-3.6,10.28-5.55,10.7Z" fill="#fff"/>
  <path d="M127.99,386.37c4.01-1.37,4.17,5.46,2.74,6.4-3.66,2.42-6.41-5.15-2.74-6.4Z"/>
  <path d="M141.5,457.42c-1.69-11.94-8.97-22.61-18.41-20.02l-2.61-1.46c4.18-1.36,7.16-5.22,7.24-12.01,9.37-.23,18.47,9.48,24.91,20.75,4.69,8.19,7.96,17.2,8.93,23.83.19,1.34.29,2.58.29,3.7-.02,13.42-10.21,17.15-20.83,10.33-10.96-7.04,2.93-10.25,1.79-19.86l9.66,3.82c5.59-1.38-5.46-5.59-6.03-6.47-1.42-2.22-1.22-11.69-3.97-14.46-.98-.99-1.18.12-2.29.03l1.32,11.82Z" fill="#fff"/>
  <path d="M115.2,456.76c1.95,2.12,4.45-6.73,5.28-8.03.94-1.46,3.78-3.92,5.22-5.11l-5.83,14.7c2.06,6.33,5.73-11.04,8.46-10.75l-1.02,4.75-4.92,22.83c-2.8-.63-5.05-1.76-6.79-3.25-9.13-7.79-4.37-25.24,6.82-30.25-3.58,4.32-7.48,9.17-7.22,15.11Z" fill="#fff"/>
  <path d="M149.66,759.17c15.12,20.26-35.75,17.47-40.23,9.68,2.84-15.78,30.42-22.84,40.23-9.68ZM149.26,768.21c-1-18.28-29.97-15.56-35.94-1.41-.07,3.78,11.36,4.72,14.01,4.84,7.15.32,15.39-.51,21.93-3.43Z"/>
  <path d="M126.71,473.19c2.8.78,4.09,3.17,5.86,4.98,4.1,4.2,6.65,8.54,13.43,9.58l-.3,5.25c-15.65,5.51-31.5,6.23-47.72,3.51-.62-.09-1.23-.2-1.85-.31,12.36-2,22.26-9.46,28.69-19.73.67-1.07,1.3-2.16,1.89-3.28Z" fill="#fff"/>
  <path d="M103.36,385.12l8.87-1.32c5.39-4.18-7.54-4.38-9.22-.67l.35,1.99ZM127.99,386.37c-3.67,1.25-.92,8.82,2.74,6.4,1.43-.94,1.27-7.77-2.74-6.4ZM132.28,383.8c1.75-6.32-13.77-5.66-8.2-1.31l8.2,1.31ZM116.89,376.92c5.44-.36,10.98.48,16.55,2.44.61,2.11,2.36,8.47,3.09,13.93.55,4.09.54,7.67-.94,8.62-1.64,1.05-8.4-2.29-9.22-3.31-1.8-2.25-1.35-15.62-7.23-11.15l3.29,10.82c-5.71-2.65-14.53,6.18-17.58,6.48-5.76.57-6.55-18.86-4.78-22.59,5.42-3.14,11.06-4.86,16.82-5.24ZM111.81,394.23c1.43-.94,1.27-7.78-2.74-6.41-3.67,1.25-.92,8.83,2.74,6.41Z" fill="#fff"/>
  <path d="M133.44,379.36c-5.57-1.96-11.11-2.8-16.55-2.44l-.19-2.9c6.87-.44,13.94.78,20.84,3.87.98-1.26-3.05-9.01-4.15-10.3-2.22-2.6-5.04-4.5-8.18-5.74l1.03-2.77c7.99,3.14,14.07,9.74,14.61,19.77.25,4.69-1.72,6.99-1.83,9.35-.07,1.46.08,3.05.31,4.73l-2.8.36c-.73-5.46-2.48-11.82-3.09-13.93Z"/>
  <path d="M100.74,421.64c.72-2.16,11.72,2.63,14.79,2.91,3.2.29,6.4-.05,9.52-.64-1.48,17.23-20.63,8.52-24.31-2.27Z" fill="#fff"/>
  <path d="M88.88,390.04c-4.45,4.73-2.31,12.37,3.96,13.49v-10.85c0-1.2-2.19-4.35-3.96-2.64ZM100.74,421.64c3.68,10.79,22.83,19.5,24.31,2.27-3.12.59-6.32.93-9.52.64-3.07-.28-14.07-5.07-14.79-2.91ZM114.54,408.78c4.35.72,10.82,1.85,13.14-2.94-.73-2.54-15.39.74-13.14,2.94ZM84.31,381.52c2.61-21.27,26.05-28.68,41.93-22.44l-1.03,2.77c-16.18-6.41-40.91,4.49-36.97,24.58,8.25-7.36,18.14-11.75,28.46-12.41l.19,2.9c-5.76.38-11.4,2.1-16.82,5.24-1.77,3.73-.98,23.16,4.78,22.59,3.05-.3,11.87-9.13,17.58-6.48l-3.29-10.82c5.88-4.47,5.43,8.9,7.23,11.15.82,1.02,7.58,4.36,9.22,3.31,1.48-.95,1.49-4.53.94-8.62l2.8-.36c.97,6.95,3.38,15.46-2.1,22.44l-5.6,6.56c3.59-1.28,8.38,4.25,11.13,3.63,2.86-.65,3.62-3.09,3.62-5.93h2.34v.33l9.75-5.3,1.14,2.11c-5.53,2.96-13.13,8.55-14.1,10.89l9.11,15.88-1.99,1.14c-6.44-11.27-15.54-20.98-24.91-20.75-.08,6.79-3.06,10.65-7.24,12.01-4.46,1.46-10.27.08-15.36-3.61-2.97-2.14-4.92-6.35-6.57-7.55-.86-.63-1.28-.92-2.38-.55-.95.31-3.81,2.51-6.75,5.1l-1.51-1.76,11.55-9.91c-2.08-2.24-3.36-3.58-4.9-6.32-.82-1.47-.92-4.34-1.1-4.49-1.46-1.21-7.2,1.02-9.49-6.62-1.72-5.78.52-6.56.76-10.92.12-2.29-.76-5.01-.42-7.79Z"/>
  <path d="M119.08,478.21c-2.13-1.38-3.92-3.19-5.64-4.97l2.16-1.34c1.74,1.49,3.99,2.62,6.79,3.25l2.43,1.32c-6.43,10.27-16.33,17.73-28.69,19.73.62.11,1.23.22,1.85.31l-.43,2.51c-3.77-.73-7.54-1.67-11.28-2.81.23,2.99-.1,6.15-.56,9.33l-2.68-.13.6-12.16c-.9-1.04-1.59-1.56-2.11-1.68l-.25-2.88c5.27-.33,9.79-4.28,10.62-12.28l2.32.27-.69,6.07-7.25,8.84c11.69,4.59,26.72-2.9,32.81-13.38Z"/>
  <path d="M113.44,473.24c-1.03-1.08-2.04-2.14-3.09-3.09-1.5-1.35-2.8-2.57-4.12-4.13l-4.58,1.88-.94-2.29c9.64-3.78,6.01-13.54,13.15-21.68,3.22-3.67,6.33-5.73,9.23-6.53,9.44-2.59,16.72,8.08,18.41,20.02l-2.32.61c-1.39-5.17-4.1-12.14-5.81-14.17-.67-.8-6.95-6-7.67-3.85,2.65,1.22,8.99,12.92,8.56,15.13-3.13,3.99-2.18-2.42-4.6-2.31l-2.35-.51,1.02-4.75c-2.73-.29-6.4,17.08-8.46,10.75l5.83-14.7c-1.44,1.19-4.28,3.65-5.22,5.11-.83,1.3-3.33,10.15-5.28,8.03-.26-5.94,3.64-10.79,7.22-15.11-11.19,5.01-15.95,22.46-6.82,30.25l-2.16,1.34Z"/>
  <path d="M110.35,470.15c1.05.95,2.06,2.01,3.09,3.09,1.72,1.78,3.51,3.59,5.64,4.97-6.09,10.48-21.12,17.97-32.81,13.38l7.25-8.84.69-6.07.69-6.02,6.75-2.76,4.58-1.88c1.32,1.56,2.62,2.78,4.12,4.13Z" fill="#fff"/>
  <path d="M127.68,405.84c-2.32,4.79-8.79,3.66-13.14,2.94-2.25-2.2,12.41-5.48,13.14-2.94Z" fill="#fff"/>
  <path d="M111.83,197.54c-.08-.66-.22-1.31-.4-1.96l2.6-.68c1.73,6.37,2.06,12.31-.5,20.61,23.37,19.78,43.91,44.51,72.32,57.23l5.63-13.49,2.73.07c-.01.94-.1,1.95-.28,3.06-.51,3.11-5.7,9.9-4.16,12.34,12.87,5.58,26.45,9.79,40.32,12.11l-.39,2.46-17.2-2.77c.69,9.81,2.86,18.44,2.02,28.64-.95,11.44-5.35,25.15-8.59,36.76l-2.87.33c-.14-1.21-.28-2.41-.42-3.62-10.72-3.77-21.04-8.44-30.99-13.83l1.39-2.58c9.95,5.44,20.45,9.99,31.53,13.45,5.87-19.53,8.8-40.56,4.05-60.69-41.26-10.19-69.44-42.12-99.68-69.41,3.05-5.73,3.67-11.52,2.89-18.03Z"/>
  <path d="M113.08,675.78c3.98-.38,14.45,3.84,12.32,8.41-3.14,3.64-19.79,5.39-20.55-.42-.5-3.83,4.75-7.65,8.23-7.99Z" fill="#fff"/>
  <path d="M103.01,383.13c1.68-3.71,14.61-3.51,9.22.67l-8.87,1.32-.35-1.99Z"/>
  <path d="M109.07,387.82c4.01-1.37,4.17,5.47,2.74,6.41-3.66,2.42-6.41-5.16-2.74-6.41Z"/>
  <path d="M97.98,496.51c16.22,2.72,32.07,2,47.72-3.51l.3-5.25c-6.78-1.04-9.33-5.38-13.43-9.58-1.77-1.81-3.06-4.2-5.86-4.98-.59,1.12-1.22,2.21-1.89,3.28l-2.43-1.32,4.92-22.83,2.35.51c.73,3.71-2.55,13.89-1.87,16.6.37,1.48,5.3,4.6,6.72,4.3,1.95-.42,5.48-8.68,5.55-10.7.03-1.05-.31-2.87-.88-5l2.32-.61-1.32-11.82c1.11.09,1.31-1.02,2.29-.03,2.75,2.77,2.55,12.24,3.97,14.46.57.88,11.62,5.09,6.03,6.47l-9.66-3.82c1.14,9.61-12.75,12.82-1.79,19.86,10.62,6.82,20.81,3.09,20.83-10.33,0-1.12-.1-2.36-.29-3.7l2.32-.34c.57,4.1.88,8.12-.03,9.63,1.63.03,5.82-2.74,9.17-5.66l1.02,1.14-10.85,9.77c.2.03.41.07.61.1l-.38,2.43c-1.09-.25-1.99-.43-2.44-.39-2.06.2-7.57,5.25-11.6,3.13l8.55,70.99,27.64-3.73,2.15-13.46,2.37.38c-.27,1.96-1.61,16-1.17,16.71,5.19,1.74,10.43,3.32,15.71,4.72l-.71,2.64c-6.41-1.44-14.68-2.84-19.37-7.33-17.18,1.76-34.34,3.84-51.44,6.33l-.37-2.54,21.24-3.07-7.89-63.76c-16.01,5.12-32.38,5.92-48.54,2.82l.43-2.51Z"/>
  <path d="M105.74,330.07l-2,2.13c-20.18-15.71-41.58-32.39-65.1-33.67l.17-2.98c24.61,1.27,47.15,17.39,66.93,34.52Z"/>
  <path d="M104.85,683.77c.76,5.81,17.41,4.06,20.55.42,2.13-4.57-8.34-8.79-12.32-8.41-3.48.34-8.73,4.16-8.23,7.99ZM109.75,673.16c15.63-3.52,29.15,14.72,9.04,16.93-3.44.38-12.09.49-14.75-1.64-5.19-4.16.23-14.05,5.71-15.29Z"/>
  <path d="M105.12,432.33c5.09,3.69,10.9,5.07,15.36,3.61l2.61,1.46c-2.9.8-6.01,2.86-9.23,6.53-7.14,8.14-3.51,17.9-13.15,21.68-.32.12-.64.24-.98.35-1.64-1.53,1.35-19.93-3.59-15.76-.97.81-.58,13.86-.67,16.11l-1.31.98c-1.19-5.03-2.42-10.15-4.5-14.9-1.41-3.25-8.11-12.06-7.99-14.31.07-1.44,3.97-5.42,7.75-8.75,2.94-2.59,5.8-4.79,6.75-5.1,1.1-.37,1.52-.08,2.38.55,1.65,1.2,3.6,5.41,6.57,7.55Z" fill="#fff"/>
  <path d="M92.84,403.53c-6.27-1.12-8.41-8.76-3.96-13.49,1.77-1.71,3.96,1.44,3.96,2.64v10.85Z" fill="#fff"/>
  <path d="M82.97,506.72c-1.84.22-1.03-.1-1.29-.99-.1-.34-.27-1.05-.46-1.98-.87-4.16-2.18-12.71.3-12.18.52.12,1.21.64,2.11,1.68l-.6,12.16-.06,1.31Z" fill="#fff"/>
  <path d="M81.68,505.73c.26.89-.55,1.21,1.29.99l.06-1.31,2.68.13c-.61,4.31-1.45,8.64-1.36,12.57.11,4.8,2.71,10.75,3.18,14.09,1.71,12.2,2.85,24.5,4.62,36.7l40.59-5.87.37,2.54c-28.49,4.15-56.8,9.43-84.72,16.26l-.49-2.01,40.71-9.95-9.58-65.78,2.19-.34c.19.93.36,1.64.46,1.98Z"/>
  <path d="M36.67,82.81c-1.19-11.26,7.58-16.36,17.38-11.54,1.25.62.98,3.29,3.94,2.3-2.36-17.37,14.46-31.7,30.69-23.12,5.52,2.92,6.76,7.92,9.05,12.98.86,1.9,1.77,3.19,2.05,5.57,3.55.34,4.53-2.72,8.05-3.78,8.98-2.73,12.23,3.79,14.99,10.94,14.89-8.68,33.27,1.3,28.11,19l-128.35-1.64c-1.06-9.43,6.95-9.94,14.09-10.71Z" fill="#fff"/>
  <path d="M22.64,506.3c18.5,4.42,38.25,2.9,56.39-2.21l9.58,65.78-40.71,9.95-42.5,10.38,13.81-84.79c1.14.32,2.28.62,3.43.89Z" fill="#fff"/>
  <path d="M92.03,473.53c-.06-10.7-8.39-28.34-15.81-36.76l1.88-1.42.29.38,9.52-8.16,1.51,1.76c-3.78,3.33-7.68,7.31-7.75,8.75-.12,2.25,6.58,11.06,7.99,14.31,2.08,4.75,3.31,9.87,4.5,14.9l1.31-.98c.09-2.25-.3-15.3.67-16.11,4.94-4.17,1.95,14.23,3.59,15.76.34-.11.66-.23.98-.35l.94,2.29-6.75,2.76-.69,6.02-2.32-.27c.1-.91.14-1.87.14-2.88Z"/>
  <path d="M74.43,197.8c4.6-2.74,23.62,10.65,19.72,14.45-2.2,2.14-4.96-4.74-6.23-5.92-.6-.54-4.32-3-5.13-3.42-3.38-1.74-9.35-1.05-8.36-5.11Z"/>
  <path d="M74.44,670.37c.28-3.71,10.03-21.97,14.48-18.74,2.71,1.98-2.32,3.59-3.33,4.61-1.46,1.47-3.1,3.27-4.19,5.01-2.09,3.31-2.92,11.19-6.96,9.12Z"/>
  <path d="M62.6,422.6c7.46-2.53,10.74-12.19,11.8-19.43l1.34-.96c2.71,9.21,4.55,20.06-3.61,26.93l-9.12-5.23-.41-1.31Z" fill="#fff"/>
  <path d="M70.49,669.08c-.24-6.48.94-18.41,9.2-19.06,1.34,1.21-4.94,7.66-5.2,8.41-1.34,3.92,1.23,11.55-4,10.65Z"/>
  <path d="M68.34,601.53c6.79-.93,14.43,3.55,15.68,10.37-1.73,3.14-22.29,2.98-26.05.34-2.28-5.08,6.19-10.14,10.37-10.71Z" fill="#fff"/>
  <path d="M57.97,612.24c3.76,2.64,24.32,2.8,26.05-.34-1.25-6.82-8.89-11.3-15.68-10.37-4.18.57-12.65,5.63-10.37,10.71ZM62.34,600.13c9.58-4.63,19.23-.9,24.22,8.17,3.36,6.1-1.27,7.16-6.97,8.42-7.88,1.74-17.54,1.45-24.53-2.88-3.68-4.75,3.14-11.7,7.28-13.71Z"/>
  <path d="M454.93,656.43c5.32,1.49,26.9,2.55,23.12-7.34-2.6-6.79-12.22-8.28-18.49-7.43-9.29,1.24-15.61,11.71-4.63,14.77ZM446.88,599.4c-.73-2.09-1.54-3.64-2.67-5.53-.38-.64-4.78-9.91-5.58-5.3-.37,2.17,6.77,13.36,5.3,17.4,7.88,1.78,7.76-13.04,10.51-18.4-4.58-1.91-5.38,11.46-7.56,11.83ZM383.67,757.39c-1.33,1.06-8.09,10.05-4.5,10.93,1.33.33,5.84-11,9.49-10.87l-.94-2.25c-1.37.74-2.82,1.21-4.05,2.19ZM373.24,759.78c-.53.15-4.09-10.16-7.55-6.23l7,13.54,3.58-.5,6.5-17.32c-2.17-2.31-8.73,8.77-9.53,10.51ZM298.47,793.13c25.9,3.37,17.49-18.18-.67-15.44-11.61,1.76-14.46,13.48.67,15.44ZM296.99,646.07c.63.14,8.67-8.61,9.08-9.15.45-.59.82-1.49.4-1.97-3.19-3.75-13.2,10.26-9.48,11.12ZM282.63,635.6c4.22,2.18,5.82,7.01,7.49,11.1,2.03,1.28,4.18-6.1,4.94-8.12.82-2.14,1.49-4.19,2.8-6.12-2.16-7.23-6.61,6.77-7.46,7.03-1.62-2.78-4.27-7.5-8.19-5.88l.42,1.99ZM231.57,784.1c2.84.55,2.64-2.41,4.27-3.94,1.45-1.36,8.81-5.29,6.9-7.23-1.72-1.73-13.35,7.19-11.17,11.17ZM218.52,763.92c2.69,3.17,4.77,22.83,9.3,20.75,3.87-6.41,5.1-14.17,10.96-19.3-5.84-3.42-9.56,9.31-11.17,13.47-.88-2.27-2.08-4.63-2.99-6.84-.9-2.17-3.5-13.27-6.1-8.08ZM222.35,784.76c2.14-4.78-10.22-20.06-13.81-17.44-2.72,1.98,5.12,5.6,6.58,7.26,3.02,3.45,3.1,9.61,7.23,10.18ZM184.55,559.24c4.69,4.49,12.96,5.89,19.37,7.33-2.93,29.37-5.4,59.26-6,89.3l-.03,1.56c-.41,1.35-14.79,11.53-17.13,13.11-8.59,5.79-23.57,11.88-28.4,20.9-15.51,28.95,24.58,31.63,43.4,30.24,15.52-1.14,35.14-9.51,47.29-19.1,11.75-9.29,10.17-11.79,8.85-21.37-.23-1.71-.46-3.66-.6-5.91-1.52-24.26,4.97-41.45,9.15-63.89,2.12-11.34,2.87-23.04,4.95-34.4l31.91-.3,30.89-.3c3.35,18.11,5.25,36.94,8.08,55.34.9,5.81,3.42,14.26,4.81,21.03.46,2.29.8,4.39.9,6.13,1.02,17.81-11.94,29.86,7.72,43.56,8.67,6.03,36.28,16.77,46.73,18.34,11.28,1.71,42.62,1.84,46.38-12.41,6.79-25.69-34.22-37.03-48.21-50.98-.07-30.11-2.11-60.17-4.52-90.15,4.72-1.63,14.17-2.83,17.73-6.27.88-.86.21-2.74.97-3.05,1.31-.53,24.54,1.72,28.22,2.02,14.59,1.23,29.13,2.89,43.62,4.94,37.04,5.22,73.74,12.9,109.91,22v250.43H4.08v-243.2c14.64-4.59,29.42-8.67,44.31-12.31,27.92-6.83,56.23-12.11,84.72-16.26,17.1-2.49,34.26-4.57,51.44-6.33ZM145.43,606.63c-1.47,1.35-7.57-14.16-9.75-6.36,1.13,1.88,3.26,2.95,4.38,4.83,2.27,3.81,1.66,8.96,6.62,7.37l5.99-15.36c-4.3-3.39-6.72,6.39-7.24,9.52ZM109.43,768.85c4.48,7.79,55.35,10.58,40.23-9.68-9.81-13.16-37.39-6.1-40.23,9.68ZM59.33,649.68c3.92,5.35,6.65,10.58,6.55,17.42-.69-2.34-13.31-17.65-15.11-12.15-.41,1.24,6.81,5.78,8.52,7.9,1.8,2.23,2.81,4.64,3.94,7.23.62,1.16,5.05-.84,5.14-1.1,1.49-3.98-1.6-19.08-6.89-20.17l-2.15.87ZM27.3,787.82c.08,11.24,45.17,8.75,28.28-6.23-7.18-6.37-22-6.21-26.92,2.75-.62,1.12-1.16,2.2-1.36,3.48ZM564.89,676.97c-3.9-1.01-12.69,10.48-8.2,11.82.58.17,6.23-8.57,7.86-9.22l.34-2.6ZM549.12,786.35c.43-1.68-.91-1.55-1.04-1.84-4.19-9.9-18.14-11.24-23.85-2.61-7.93,12,20.68,12.9,24.89,4.45ZM545.6,678.84c1.57,2.65,1.45,5.15,3.21,7.63,1.06,1.5,1.53,4.26,3.88.97.97-1.35,2.9-9.16,3.99-11.79.61-1.45,4.1-4.35,2.32-5.61l-2.54-.18-5.7,11.7c.35-2.59-7.44-11.35-9.53-9.19-.58,3.14,2.64,3.55,4.37,6.47ZM512.61,736.76c6.62-.59,17.26-1.51,13.27-10.29-6.19-13.63-27.1-14.54-36.26-3.49-12.41,14.96,14.11,14.57,22.99,13.78ZM88.92,651.63c-4.45-3.23-14.2,15.03-14.48,18.74,4.04,2.07,4.87-5.81,6.96-9.12,1.09-1.74,2.73-3.54,4.19-5.01,1.01-1.02,6.04-2.63,3.33-4.61ZM79.69,650.02c-8.26.65-9.44,12.58-9.2,19.06,5.23.9,2.66-6.73,4-10.65.26-.75,6.54-7.2,5.2-8.41ZM55.06,613.84c6.99,4.33,16.65,4.62,24.53,2.88,5.7-1.26,10.33-2.32,6.97-8.42-4.99-9.07-14.64-12.8-24.22-8.17-4.14,2.01-10.96,8.96-7.28,13.71ZM104.04,688.45c2.66,2.13,11.31,2.02,14.75,1.64,20.11-2.21,6.59-20.45-9.04-16.93-5.48,1.24-10.9,11.13-5.71,15.29ZM39.53,725.29c.8,4.78,4.26,6.63,9.01,7.47,4.31.77,21.82.05,24.38-3.4,4.62-6.23-6.36-14.67-12.02-15.54-10.62-1.64-16.77,2.32-21.37,11.47ZM538,625.41c1.9-2.92-.62-4.26-1.76-5.89-8.28-11.92-28.56-10.83-31.15,4.49,1.62,9.12,29.99,5.87,32.91,1.4ZM464.74,593.94c1.03-1.46,1.37-2.72-.74-3.08-2.7-.18-12.69,12-10.87,15.77,4.05-.49,4.75-5.43,6.96-8.48,1.25-1.74,3.99-3.28,4.65-4.21ZM450.2,792.68c23.58-1.93,8.63-23.31-8.41-20.89-6.81.97-14.69,7.52-12.84,15.13,1.43,5.9,16.44,6.15,21.25,5.76ZM281.85,730.87c6.01,3.96,35.47,4.48,32.59-6.94-2.39-9.46-14.05-12.87-22.56-11.31-6.91,1.27-18.45,12.72-10.03,18.25Z" fill="#fff"/>
  <path d="M65.9,443.28c3.6,6.61,7.97,25.76,1.34,30.94-8.15,6.37-4.54-5.62-3.97-9.1.11-.71,1.3-.4,1.3-.46v-13.15l2.95,5.91c2.96-1.06-2.64-14.93-4.92-16.43l3.3,2.29Z" fill="#fff"/>
  <path d="M121.69,341.82c.56,2.01-.29,2.19-2.13,2.37-5.2-3.73-10.46-7.83-15.82-11.99l2-2.13c.67.57,1.33,1.15,1.99,1.73l31.79-17.68c-10.39-9.85-21.12-19.42-30.5-30.3-8-9.29-15.92-19.66-22.98-29.68-3.65-5.17-6.84-13.47-10.54-17.99-2.88-3.53-8.75-7.17-14.48-10.89l2.19-1.61c3.24,2.18,11.2,5.48,12.84,7.03,2.27,2.13,7.71,14.2,10.22,17.87,22.8,33.37,51.26,64.22,86.77,83.67l-1.39,2.58c-10.17-5.5-19.93-11.74-29.31-18.52l-31.09,17.25,10.44,8.29Z"/>
  <path d="M58.12,391.46l1.52-1.72,1,1.95c9.46-4.86.57,11.02-2.52-.23Z"/>
  <path d="M72.92,729.36c-2.56,3.45-20.07,4.17-24.38,3.4-4.75-.84-8.21-2.69-9.01-7.47,4.6-9.15,10.75-13.11,21.37-11.47,5.66.87,16.64,9.31,12.02,15.54ZM70.87,726.93c-.86-7.34-9.78-11.06-16.32-10.36-7.71.83-16.82,11.36-5.43,12.97,3.14.45,20.22.17,21.75-2.61Z"/>
  <path d="M63.49,481.52c3.44,3.84,5.85,6.54,10.28,9.42-9.4,3.06-19.14,2.79-28.92,2.63-1.34-1.08,7.88-6.84,8.55-7.54,1.28-1.31,4.3-10.3,8.26-7.63.95.81,1.06,2.26,1.83,3.12Z" fill="#fff"/>
  <path d="M65.22,384.46c-2.58-1.87-11.33,1.6-7.5-3.22,2.63-1.72,4.8.14,7.4.69l.1,2.53Z"/>
  <path d="M122.82,76.16c-2.76-7.15-6.01-13.67-14.99-10.94-3.52,1.06-4.5,4.12-8.05,3.78-.28-2.38-1.19-3.67-2.05-5.57-2.29-5.06-3.53-10.06-9.05-12.98-16.23-8.58-33.05,5.75-30.69,23.12-2.96.99-2.69-1.68-3.94-2.3-9.8-4.82-18.57.28-17.38,11.54-7.14.77-15.15,1.28-14.09,10.71l128.35,1.64c5.16-17.7-13.22-27.68-28.11-19ZM35.5,71.78c4.02-6.44,12.73-6.05,19.23-4.42,1.52-22.66,29.73-31.8,42.99-12.49,2.04,2.97,4.09,5.63,4.33,9.49,7.64-5.67,21.11-3.22,22.35,7.23,9.97-3.61,23.77-2.04,28.38,8.76,1.48,3.45,3.95,16.1-.13,17.84-14.77-1.32-128.46,3.64-132.43-1.66-2.5-3.34-.2-10.42,2.58-13.13,3.53-3.45,7.73-2.37,9.57-3.58.79-.51,2.07-6.33,3.13-8.04Z"/>
  <path d="M54.55,716.57c6.54-.7,15.46,3.02,16.32,10.36-1.53,2.78-18.61,3.06-21.75,2.61-11.39-1.61-2.28-12.14,5.43-12.97Z" fill="#fff"/>
  <path d="M55.95,789.29c-3.69,2.55-24.54,4.35-24.78-1.45-.41-9.85,25.38-10.06,24.78,1.45Z" fill="#fff"/>
  <path d="M47.81,408.12c6.19,1.28,10.01,2.47,15.33-1.83l1.42,1.82c-4.57,4.75-11.67,5.67-17.06,1.64l.31-1.63Z"/>
  <path d="M52.74,403.52c-.95-3.26,3.35-2.08,3.87-3.65.59-1.77-3.83-7.98-3.23-10.47l1.63-.31c3.4,5.22,8.52,15.38-2.27,14.43Z"/>
  <path d="M57.72,381.24c-3.83,4.82,4.92,1.35,7.5,3.22l-.1-2.53c-2.6-.55-4.77-2.41-7.4-.69ZM59.64,389.74l-1.52,1.72c3.09,11.25,11.98-4.63,2.52.23l-1-1.95ZM47.47,392.36c-5.31,2.63-3,.7-7.88-.66-1.51,5.65,8.4,7.8,7.88.66ZM38.93,386.43l6.08-1.47c5.3-3.36-7.27-4.96-6.08,1.47ZM56.61,399.87c-.52,1.57-4.82.39-3.87,3.65,10.79.95,5.67-9.21,2.27-14.43l-1.63.31c-.6,2.49,3.82,8.7,3.23,10.47ZM69.96,409.9c-5.19,15.79-26.29,16.73-35.63,4.47-1.94-2.54-4.1-10.24-4.57-10.57-1.6-1.14-12.86,2.03-7.31-9.84l7.18-.4c.35-2.47-.19-9.86,1.06-11.74.85-1.27,18.27-5.13,19.9-10.41,4.04,1.61,7.25,3.5,10.91,4.71,2.17.71,4.49,1.19,7.24,1.22l1.1,1.53c-.03,11.07,3.77,19.95.12,31.03ZM64.56,408.11l-1.42-1.82c-5.32,4.3-9.14,3.11-15.33,1.83l-.31,1.63c5.39,4.03,12.49,3.11,17.06-1.64Z" fill="#fff"/>
  <path d="M50.77,654.95c1.8-5.5,14.42,9.81,15.11,12.15.1-6.84-2.63-12.07-6.55-17.42l2.15-.87c5.29,1.09,8.38,16.19,6.89,20.17-.09.26-4.52,2.26-5.14,1.1-1.13-2.59-2.14-5-3.94-7.23-1.71-2.12-8.93-6.66-8.52-7.9Z"/>
  <path d="M45.13,455.72c1.87-5.5,5.32-10.22,9.57-11.77-1.75,2.07-3.71,3.75-4.9,6.27-.37.79-3.68,8.17-.69,7.2.87-.28,7.14-14.49,10.85-14.46-3.37,4.75-5.55,8.69-7.5,14.23-.09.25-1.75.51-1.04,2.2,3.38,2.53,5.99-12.04,9.85-13.14-.2,3.71-8.43,12.14-3.28,14.46l3.96-8.86c-1.01,5.81-.97,30.56-11.44,25.87-1.22-.55-2.26-1.28-3.13-2.17-4.44-4.47-4.64-12.78-2.25-19.83Z" fill="#fff"/>
  <path d="M54.7,443.95c-4.25,1.55-7.7,6.27-9.57,11.77l-2.59-.55c1.67-5.43,3.47-10.96,8.72-14.01,8.65-5.02,13.63-3.45,16.71,1.02l-2.07,1.1-3.3-2.29c2.28,1.5,7.88,15.37,4.92,16.43l-2.95-5.91v.34h-2.62l-3.96,8.86c-5.15-2.32,3.08-10.75,3.28-14.46-3.86,1.1-6.47,15.67-9.85,13.14-.71-1.69.95-1.95,1.04-2.2,1.95-5.54,4.13-9.48,7.5-14.23-3.71-.03-9.98,14.18-10.85,14.46-2.99.97.32-6.41.69-7.2,1.19-2.52,3.15-4.2,4.9-6.27Z"/>
  <path d="M39.59,391.7c4.88,1.36,2.57,3.29,7.88.66.52,7.14-9.39,4.99-7.88-.66Z"/>
  <path d="M55.58,781.59c16.89,14.98-28.2,17.47-28.28,6.23.2-1.28.74-2.36,1.36-3.48,4.92-8.96,19.74-9.12,26.92-2.75ZM31.17,787.84c.24,5.8,21.09,4,24.78,1.45.6-11.51-25.19-11.3-24.78-1.45Z"/>
  <path d="M58.31,496.85c6.39-.35,12.57-2.57,18.75-3.93l.02,8.23c-15.48,5.11-33.38,6.39-49.44,3.39-1.43-.27-3.03-.4-4.42-.7-2.48-.54-4.31-1.62-3.35-5,5.2,2.24,11.13-.79,16.02-2.41,1.21-.4,2.36-.72,3.42-.85,5.12-.61,12.79,1.61,19,1.27Z" fill="#fff"/>
  <path d="M52.5,153.32c5.14,7.32,8.61,16.76,15.03,23.47,1.6,2.77-5.22,4.79-6.6,3.98-6.7-8.94-12.45-18.25-18.43-27.63-1.97-3.1-5.22-2.67-3.49-9.16,5.74-2.82,10.57,5.18,13.49,9.34Z" fill="#fff"/>
  <path d="M38.93,386.43c-1.19-6.43,11.38-4.83,6.08-1.47l-6.08,1.47Z"/>
  <path d="M35.66,420.63c.55-.24,7.02,3.64,8.67,4.12,3.95,1.13,7.06,1.1,11.07,1.43,2.81,13.57-21.82,3.17-22.34-1.39-.02-.24,2.38-4.07,2.6-4.16Z" fill="#fff"/>
  <path d="M244.38,67.66c13.4-5.75,22.36,2.82,31,11.76,8.08-8.25,17.32-13.8,29.35-9.98l1.73-2.39c-10.78-3.86-23.25-1.19-30.52,7.81-7.3-7.45-16.25-14.05-27.44-11.63-2.24.48-7.62,1.82-4.12,4.43ZM168.45,124.17c11.46-3.48,24.22-3.02,30.66,8.51.9.27,2.64-.85,3.31-1.49,3.4-3.26,4.54-8.63,10.58-11.44,7.45-3.48,16.42-.12,17.23-.47,3.76-1.65-.81-3.4-2.61-3.99-11.06-3.62-21.69,3.5-27.94,12.16-5.12-6.17-13.14-8.8-21.02-8.52-3.12.11-11.3.83-10.21,5.24ZM124.4,71.59c-1.24-10.45-14.71-12.9-22.35-7.23-.24-3.86-2.29-6.52-4.33-9.49-13.26-19.31-41.47-10.17-42.99,12.49-6.5-1.63-15.21-2.02-19.23,4.42-1.06,1.71-2.34,7.53-3.13,8.04-1.84,1.21-6.04.13-9.57,3.58-2.78,2.71-5.08,9.79-2.58,13.13,3.97,5.3,117.66.34,132.43,1.66,4.08-1.74,1.61-14.39.13-17.84-4.61-10.8-18.41-12.37-28.38-8.76ZM537.29,94.59c-4.09-15.25-17.62-14.23-28.28-5.91.54-34-54.02-33.03-58.52-2.63-6.39-3.53-10.99-6.22-18.53-4.4-6.19,1.5-13.74,8.7-13.68,15.57-8.71-4.6-21.42-1.11-24.51,8.7-1.92,6.1-3.16,15.19,5.75,14.33l156.87.35c15.97-11.24-2.86-33.5-19.1-26.01ZM34.99,148.5c-.18.18-2.49-.28-3.47.15-8.12,3.54-.99,13.26-1.28,14.01-.53,1.42-4.91.82-5.73,5.93-2.28,14.32,15.8,39.55,25.91,48.94,2.81,2.61,6.67,5.19,10.6,7.73,5.73,3.72,11.6,7.36,14.48,10.89,3.7,4.52,6.89,12.82,10.54,17.99,7.06,10.02,14.98,20.39,22.98,29.68,9.38,10.88,20.11,20.45,30.5,30.3l-31.79,17.68c-.66-.58-1.32-1.16-1.99-1.73-19.78-17.13-42.32-33.25-66.93-34.52-11.17-.59-22.77,1.89-34.73,8.72V3.89h586.46v324.7c-25.82-18.33-53.29-36.98-86.79-29.91-11.82,2.5-27.91,10.64-38.35,16.88-3.52,2.1-19.85,14.41-21.48,14.73-2.91.57-6.56-3.33-9.19-4.65,21.21-14.23,40.18-31.28,56.59-50.61,8.33-9.79,15.99-20.18,22.96-31.07,1.69-2.64,5.18-11.57,6.75-13.12,1.3-1.29,12.61-6.62,15.79-8.86,11.06-7.78,32.81-28.99,35.27-42.42,1.56-8.53-3.77-8.39-4.48-11.08-.46-1.77,4.63-9.14-.16-14.33-1.61-1.74-3.59-1.18-4.37-1.87-1.96-1.74-.81-6.92-8.37-7.13-5.55-.17-8.68,5.05-9.96,5.23-.64.09-3.3-1.96-5.8-1.91-9.48.2-26.73,24.45-35.64,29.49l-1.53.11c.23-5.77.15-17.15-7.54-17.78-13.12-1.08-10.31,16.93-11.7,25.17-1.65,9.75-7.43,16.63-2.1,26.78-29.59,26.44-60.96,53.18-99.96,64.44,2.75-6.71,3.15-12.04.45-18.87-.8-2.03-3.71-5.03-3.94-6.58-.39-2.73,1.71-10.57,1.89-16.28.03-.71.02-1.38-.02-2.01-1.1-15.34-11.07-18.13-15.99-28.75-2.97-6.42-3.18-18.48-5.4-26.12-7.29-25.02-34.53-42.87-60.32-33.35-2.34.87-8.32,4.89-8.82,4.97-.61.09-6.61-1.54-11.82-2.66-2.63-.57-5.06-1-6.49-1.02-21.76-.23-46.99,10.91-57.05,30.93-4.08,8.12-4.57,19.38-8.05,26.71-.36.76-.76,1.47-1.19,2.14-2.96,4.57-10.63,9.2-14.11,14.12-9.73,13.78-4.8,25.72,1.86,39.34l-5.63,13.49c-28.41-12.72-48.95-37.45-72.32-57.23,2.56-8.3,2.23-14.24.5-20.61-.87-3.22-2.1-6.56-3.5-10.37-.21-.57-1.24-.63-1.6-1.82-1.9-6.31,1.43-22.07-8.51-22.27-10.31-.21-9.45,16.97-10.54,16.97-8.97-4.6-23.44-30.95-32.23-31.59-2.18-.15-3.96,1.23-4.98,1.07-3.21-.51-5.08-8.19-12.6-6.79-6.56,1.23-4.7,8.02-5.08,8.4Z" fill="#fff"/>
  <path d="M32.96,152.06c1.69-1.31,6.57,3.23,7.7,4.56,5.7,6.67,10.42,19.06,17.26,25.84-3.87,4.53-5.11,3.92-8.8.22-1.58-1.58-14.66-18.59-15.37-20.14-1.45-3.16-2.2-7.12-.79-10.48Z" fill="#fff"/>
  <path d="M42.5,153.14c5.98,9.38,11.73,18.69,18.43,27.63,1.38.81,8.2-1.21,6.6-3.98-6.42-6.71-9.89-16.15-15.03-23.47-2.92-4.16-7.75-12.16-13.49-9.34-1.73,6.49,1.52,6.06,3.49,9.16ZM49.12,182.68c3.69,3.7,4.93,4.31,8.8-.22-6.84-6.78-11.56-19.17-17.26-25.84-1.13-1.33-6.01-5.87-7.7-4.56-1.41,3.36-.66,7.32.79,10.48.71,1.55,13.79,18.56,15.37,20.14ZM31.52,148.65c.98-.43,3.29.03,3.47-.15.38-.38-1.48-7.17,5.08-8.4,7.52-1.4,9.39,6.28,12.6,6.79,1.02.16,2.8-1.22,4.98-1.07,8.79.64,23.26,26.99,32.23,31.59,1.09,0,.23-17.18,10.54-16.97,9.94.2,6.61,15.96,8.51,22.27.36,1.19,1.39,1.25,1.6,1.82,1.4,3.81,2.63,7.15,3.5,10.37l-2.6.68c-1.3-4.52-4.86-8.76-5.9-13.44-1.42-6.38,2.45-19.52-7.63-17.75-4.37,1.42-4.58,15.05-4.41,18.94-1.74,1.78-13.45-10.38-15.13-12.14-4.26-4.45-15.17-19.96-19.22-21.54-1.66-.65-4.65-1.3-4.15,1.49.99,5.56,15.12,23.16,19.44,27.91l-23.18,10.75c-4.16-.95-22.45-35.27-23.54-19.3-1.13,16.72,22.14,43.58,35.2,52.94.09.07.19.14.3.21l-2.19,1.61c-3.93-2.54-7.79-5.12-10.6-7.73-10.11-9.39-28.19-34.62-25.91-48.94.82-5.11,5.2-4.51,5.73-5.93.29-.75-6.84-10.47,1.28-14.01Z"/>
  <path d="M20.21,375.28c6.17-17.74,29.89-22.82,43.28-8.8,2.1,2.2,4.62,3.71,5.02,7.46-2.3.41-4.32.14-6.19-.49-4.52-1.52-8.22-5.1-13.06-6.11-5.23,8.91-15.59,9.29-24.13,12.86,1.6,2.13,2.34,5.9,1.22,8.45-.67,1.53-6.38.26-8.01,7.1-.92,3.86-.38,7.4,3.16,9.75,2.01,1.33,4.26,1.07,5.28,1.95.42.37,5.33,9.19,5.44,9.73.8,4.13-4.4,8.23-9.35,11.72-2.77,1.95-5.46,3.7-6.98,5.17-1.3,1.26-5.04,7.8-6.21,7.58l-4.34-9.53c1.96-3.9,4.68-10.41,5.17-14.65,1.8-15.83,2.42-15.11,7.31-29.59,1.2-3.56.99-8.57,2.39-12.6Z" fill="#fff"/>
  <path d="M30.72,427.21c7.01,7.58,28.17,15.77,27.94-1.34,6.28,1.34,12.49,5.49,16.84,10.11.24.25.48.51.72.79,7.42,8.42,15.75,26.06,15.81,36.76,0,1.01-.04,1.97-.14,2.88-.83,8-5.35,11.95-10.62,12.28-5.39.33-11.56-3.12-15.35-9.91,4.91-3.06,7.18-7,8.48-12.54.99-1.66,11.36,5.53,10.54,2.04l-11.52-6.23c-1.05-6.85-2.13-15.05-5.45-19.87-3.08-4.47-8.06-6.04-16.71-1.02-5.25,3.05-7.05,8.58-8.72,14.01-2.01,6.55-3.85,12.95-11.35,14.66-5.2,1.18-2.46-18.03-5.74-20.28-3.7-.21.3,18.73.35,21.32.21,2.66-7.95,2.55-6.59,5.28.48.97,1.16.99,2.14.89,3.39-.37,16.33-7.9,17.82-7.82l7.09,7.4,4.88,5.1c-2.74,5.09-9.08,9.78-16.13,12.43-9.83,3.7-21.04,3.41-25.8-5.37-10.01-18.44-1.37-46.02,15.98-58.33,1.76-1.24,3.6-2.33,5.53-3.24Z" fill="#fff"/>
  <path d="M82.79,202.91c.81.42,4.53,2.88,5.13,3.42,1.27,1.18,4.03,8.06,6.23,5.92,3.9-3.8-15.12-17.19-19.72-14.45-.99,4.06,4.98,3.37,8.36,5.11ZM51.25,189.8l23.18-10.75c-4.32-4.75-18.45-22.35-19.44-27.91-.5-2.79,2.49-2.14,4.15-1.49,4.05,1.58,14.96,17.09,19.22,21.54,1.68,1.76,13.39,13.92,15.13,12.14-.17-3.89.04-17.52,4.41-18.94,10.08-1.77,6.21,11.37,7.63,17.75,1.04,4.68,4.6,8.92,5.9,13.44.18.65.32,1.3.4,1.96.78,6.51.16,12.3-2.89,18.03,30.24,27.29,58.42,59.22,99.68,69.41,4.75,20.13,1.82,41.16-4.05,60.69-11.08-3.46-21.58-8.01-31.53-13.45-35.51-19.45-63.97-50.3-86.77-83.67-2.51-3.67-7.95-15.74-10.22-17.87-1.64-1.55-9.6-4.85-12.84-7.03-.11-.07-.21-.14-.3-.21-13.06-9.36-36.33-36.22-35.2-52.94,1.09-15.97,19.38,18.35,23.54,19.3Z" fill="#fff"/>
  <path d="M44.85,493.57c9.78.16,19.52.43,28.92-2.63-4.43-2.88-6.84-5.58-10.28-9.42-.77-.86-.88-2.31-1.83-3.12-3.96-2.67-6.98,6.32-8.26,7.63-.67.7-9.89,6.46-8.55,7.54ZM79.03,504.09c-18.14,5.11-37.89,6.63-56.39,2.21l.58-2.46c1.39.3,2.99.43,4.42.7,16.06,3,33.96,1.72,49.44-3.39l-.02-8.23c-6.18,1.36-12.36,3.58-18.75,3.93-6.21.34-13.88-1.88-19-1.27-1.06.13-2.21.45-3.42.85l-.88-2.28c7.05-2.65,13.39-7.34,16.13-12.43l-4.88-5.1,1.12-1.07c.87.89,1.91,1.62,3.13,2.17,10.47,4.69,10.43-20.06,11.44-25.87h2.62v12.81c0,.06-1.19-.25-1.3.46-.57,3.48-4.18,15.47,3.97,9.1,6.63-5.18,2.26-24.33-1.34-30.94l2.07-1.1c3.32,4.82,4.4,13.02,5.45,19.87l11.52,6.23c.82,3.49-9.55-3.7-10.54-2.04-1.3,5.54-3.57,9.48-8.48,12.54,3.79,6.79,9.96,10.24,15.35,9.91l.25,2.88c-2.48-.53-1.17,8.02-.3,12.18l-2.19.34Z"/>
  <path d="M31.19,469.83c7.5-1.71,9.34-8.11,11.35-14.66l2.59.55c-2.39,7.05-2.19,15.36,2.25,19.83l-1.12,1.07-7.09-7.4c-1.49-.08-14.43,7.45-17.82,7.82-.98.1-1.66.08-2.14-.89-1.36-2.73,6.8-2.62,6.59-5.28-.05-2.59-4.05-21.53-.35-21.32,3.28,2.25.54,21.46,5.74,20.28Z"/>
  <path d="M74.4,403.17c-1.06,7.24-4.34,16.9-11.8,19.43l.41,1.31,9.12,5.23c8.16-6.87,6.32-17.72,3.61-26.93l-1.34.96ZM33.06,424.79c.52,4.56,25.15,14.96,22.34,1.39-4.01-.33-7.12-.3-11.07-1.43-1.65-.48-8.12-4.36-8.67-4.12-.22.09-2.62,3.92-2.6,4.16ZM34.33,414.37c9.34,12.26,30.44,11.32,35.63-4.47,3.65-11.08-.15-19.96-.12-31.03l2.63-.29c.55,5.01.37,10.16,1.9,15.44.38,1.28,3.1,5.1,3.85,7.36,3.11,9.4,5.51,22.66-3.78,29.11l3.66,4.86-1.88,1.42c-.24-.28-.48-.54-.72-.79-4.35-4.62-10.56-8.77-16.84-10.11.23,17.11-20.93,8.92-27.94,1.34-1.93.91-3.77,2-5.53,3.24l-2.32-1.55c4.95-3.49,10.15-7.59,9.35-11.72-.11-.54-5.02-9.36-5.44-9.73-1.02-.88-3.27-.62-5.28-1.95-3.54-2.35-4.08-5.89-3.16-9.75,1.63-6.84,7.34-5.57,8.01-7.1,1.12-2.55.38-6.32-1.22-8.45,8.54-3.57,18.9-3.95,24.13-12.86,4.84,1.01,8.54,4.59,13.06,6.11l-.82,2.67c-3.66-1.21-6.87-3.1-10.91-4.71-1.63,5.28-19.05,9.14-19.9,10.41-1.25,1.88-.71,9.27-1.06,11.74l-7.18.4c-5.55,11.87,5.71,8.7,7.31,9.84.47.33,2.63,8.03,4.57,10.57Z"/>
  <path d="M63.49,366.48c-13.39-14.02-37.11-8.94-43.28,8.8l-2.42-.69c1.67-4.17,3.18-7.44,4.17-8.74,10.13-13.27,33.71-14,44.92-1.11,3.89,4.48,5.07,9.1,5.59,13.84l-2.63.29-1.1-1.53c-2.75-.03-5.07-.51-7.24-1.22l.82-2.67c1.87.63,3.89.9,6.19.49-.4-3.75-2.92-5.26-5.02-7.46Z"/>
  <path d="M563.38,411.23c.64-.69,1.28-2.07.21-2.77-33.45-10.06-7.91,11.13-.21,2.77ZM551.75,424.88c4.46,10.28,17.03,4.82,22.35-1.62-7.38.12-14.26,3.36-22.35,1.62ZM545.18,365.09c-.33,1.44.71.93,1.65,1,2.59.18,5.98-.85,9.22-.71,11.95.52,23.43,3.57,34.48,7.91-4.11-21.13-32.94-23.87-45.35-8.2ZM542.98,369.97c-.45.35-2.11,5.77-.12,5.3,16.12-1.88,32.59,1.43,47.36,7.87l.2-6.45c-14.66-6.6-31.51-10.3-47.44-6.72ZM543.2,378.22c-2.02,2.26-3.72,20.93-1.96,22.02,2.52-1.47,7.89-.85,9.81-2.33,1.03-.79,5.45-13.7,8.58-10.81l-5.26,11.82c9.57-1.86,15.95,13.33,23.02,2.31,3.45-5.38,2.6-12.56,2.53-18.65-11.76-4.08-24.29-5.66-36.72-4.36ZM535.31,408.13v11.5c0,.17.6,3.49,1.65,2.97l5.59-2.98-7.24-11.49ZM532.03,419.31c.06.9-.46,2.18.64,1.96v-1.96h-.64ZM8.54,444.71l-4.46-4.37v13.8l4.46-9.43ZM16.62,498.58c-6.45-1.69-8.85-7.52-12.54-12.23v87.42l12.54-75.19ZM38.64,298.53c-11.03-.6-22.51,2.18-34.56,10.02v116.67c5.19-5.71,2.45-12.46,3.45-19.23.63-4.27,5.99-20.75,10.26-31.4l2.42.69c-1.4,4.03-1.19,9.04-2.39,12.6-4.89,14.48-5.51,13.76-7.31,29.59-.49,4.24-3.21,10.75-5.17,14.65l4.34,9.53c1.17.22,4.91-6.32,6.21-7.58,1.52-1.47,4.21-3.22,6.98-5.17l2.32,1.55c-17.35,12.31-25.99,39.89-15.98,58.33,4.76,8.78,15.97,9.07,25.8,5.37l.88,2.28c-4.89,1.62-10.82,4.65-16.02,2.41-.96,3.38.87,4.46,3.35,5l-.58,2.46c-1.15-.27-2.29-.57-3.43-.89l-13.81,84.79,42.5-10.38.49,2.01c-14.89,3.64-29.67,7.72-44.31,12.31v243.2h586.46v-250.43c-36.17-9.1-72.87-16.78-109.91-22l.29-2.09,35.98,5.03c.74-5.25.72-10.78,1.41-16.01.93-7.07,2.87-15.76,4.38-23.98l2.07.22c-2.29,13.14-3.53,26.54-4.96,39.8l70.73,15.74c-1.56-24.53,2.1-51.7.03-75.93-.4-4.58-2.02-9-2.98-13.46-5.52.77-10.83,2.8-16.46,3.27-1.87.16-3.72.25-5.54.29l-.03-2.24-7.12-4.38,1.41-2.3c8.48,5.53,21.3,5.73,29.64.7l.71-56.45-12.59-7.77c-6.86,4.7-11.5,9.31-20.76,7.59-7.43-1.37-7.24-9.54-9.22-10.13-4.15-1.22-9.83,2.12-12.66,5.02-1.17,1.19-2.44,3.13-3.76,5.59l-2.48-.97c2.51-1.12.4-13.07-1.24-21.29l2.43-.47c.53,2.62,1.2,5.08,2.11,7.3v-9.53c0-4.58,4.53-11.52,5.23-14.62,2.28-10.12-.81-22.18,5.68-31.01,10.29-14.01,37.66-14.32,47.61.6v-30.56c-21.95-16.24-48.51-34.67-77.24-32.52-22.49,1.68-49.3,19-66.74,32.52-.17,1.5,22.91,13.01,25.59,15.81.92.96,1.69,1.23,1.35,2.92l-3.24-.37-38.61-23.13-23.22,11.72-1.12-2.23c30.75-15.52,59.44-38.23,81.8-64.43l2.21,1.87c-16.41,19.33-35.38,36.38-56.59,50.61,2.63,1.32,6.28,5.22,9.19,4.65,1.63-.32,17.96-12.63,21.48-14.73,10.44-6.24,26.53-14.38,38.35-16.88,33.5-7.07,60.97,11.58,86.79,29.91V3.89H4.08v300.38c11.96-6.83,23.56-9.31,34.73-8.72l-.17,2.98ZM595.14-.05v841.34H.14V-.05h595ZM590.54,429.16v-42.72l-5.92-1.97c-.25,6.22-.25,12.55-.61,18.77-.22,3.86-.35,3.01,0,7.15.67,7.75-1.71,15.31,6.53,18.77ZM581.33,423.9l-.98-8.54-4.33,5.53,5.31,3.01Z"/>
  <path d="M4.08,486.35c3.69,4.71,6.09,10.54,12.54,12.23l-12.54,75.19v-87.42Z" fill="#fff"/>
  <polygon points="8.54 444.71 4.08 454.14 4.08 440.34 8.54 444.71" fill="#fff"/>
</svg>